<svg width="319" height="517" viewBox="0 0 319 517" fill="none" xmlns="http://www.w3.org/2000/svg">
<g clip-path="url(#clip0_33_1258)">
<path d="M180.143 303.942C180.143 303.942 193.18 302.904 210.806 289.267C219.692 283.339 235.103 290.752 235.103 290.752C235.103 290.752 221.276 289.762 211.353 295.249C203.65 299.398 195.843 310.765 179.922 314.025C183.852 315.657 185.778 323.07 185.778 323.07C185.778 323.07 193.038 309.433 209.775 308.396C218.514 307.801 223.254 311.213 226.811 310.765C223.402 315.067 217.709 329.857 195.406 329.889C173.103 329.92 175.55 349.391 175.55 349.391C178.217 363.771 182.521 376.881 182.521 376.881L159.413 391.113L141.046 377.476C141.046 377.476 145.786 365.024 148.748 350.792C148.764 350.729 148.775 350.66 148.791 350.597C150.479 342.315 145.918 334.075 138.105 330.873C135.637 329.862 133.696 328.409 133.491 326.329C99.7128 333.595 96.3087 313.877 94.0885 309.575C96.4561 310.018 97.7924 308.538 108.163 308.833C129.844 309.454 136.011 324.55 136.011 324.55L142.53 314.025C126.235 311.355 114.976 297.123 109.052 292.827C103.127 288.525 86.8331 290.157 86.8331 290.157C86.8331 290.157 106.389 282.596 117.496 292.827C128.603 303.057 139.42 303.652 139.42 303.652C135.569 297.797 129.866 291.01 123.273 285.566C96.0141 263.031 77.0522 280.822 73.5008 306.911C69.9442 333.001 113.792 372.732 113.792 372.732V465.237C57.5011 416.613 48.6095 368.578 48.6095 368.578L54.5337 266.585L48.6095 268.954L46.2419 341.894L33.2043 319.358V234.261C34.9826 160.432 104.311 127.524 104.311 127.524L98.6658 2.10596H221.918L215.694 127.524C264.877 144.426 287.39 222.699 287.39 222.699V313.424L274.947 338.329V260.645L264.282 263.015C264.282 263.015 267.244 329.431 269.023 362.639C270.801 395.846 201.472 465.227 201.472 465.227C201.472 465.227 207.991 404.15 212.732 369.757C244.731 344.853 254.212 306.901 248.282 292.074C242.353 277.247 231.946 258.676 194.953 280.806C187.088 285.508 177.028 294.443 180.138 303.931L180.143 303.942Z" stroke="white" stroke-miterlimit="10"/>
<path d="M159.403 391.108V412.158C159.403 412.158 149.922 407.709 143.108 410.674C136.295 413.638 130.665 417.197 130.665 417.197C130.665 417.197 149.627 421.646 157.624 424.016C165.622 426.385 173.766 420.456 179.917 419.867C186.067 419.272 191.697 417.792 191.697 417.792C191.697 417.792 178.659 435.583 165.032 436.173C151.405 436.768 132.444 420.162 132.444 420.162L122.963 429.944L124.446 442.102C124.446 442.102 139.72 463.137 171.256 458.113C187.845 453.369 201.772 434.989 201.772 434.989" stroke="white" stroke-miterlimit="10"/>
<path d="M38.5235 328.578C38.5235 328.578 36.7451 337.744 23.7076 343.078C10.67 348.417 2.3781 362.649 7.70783 376.881C13.0428 391.113 7.1133 390.518 2.96737 398.821C-1.17857 407.125 -6.72401 438.99 38.5182 436.773C25.4806 462.863 56.2963 517.421 87.7012 513.862C119.106 510.302 126.809 491.326 120.29 478.284" stroke="white" stroke-miterlimit="10"/>
<path d="M279.687 331.284C279.687 331.284 281.466 340.451 294.503 345.785C307.541 351.124 315.833 365.356 310.503 379.588C305.168 393.82 311.097 393.225 315.243 401.528C319.389 409.831 324.935 441.696 279.693 439.48C292.73 465.569 261.914 520.128 230.51 516.568C199.105 513.009 192.586 499.967 192.586 494.033" stroke="white" stroke-miterlimit="10"/>
<path d="M121.347 478.279C121.368 479.685 119.222 479.685 119.243 478.279C119.222 476.874 121.368 476.874 121.347 478.279Z" fill="white" stroke="white" stroke-width="4" stroke-miterlimit="10"/>
<path d="M39.5758 436.768C39.5968 438.174 37.4502 438.174 37.4712 436.768C37.4502 435.362 39.5968 435.362 39.5758 436.768Z" fill="white" stroke="white" stroke-width="4" stroke-miterlimit="10"/>
<path d="M114.829 465.232C114.85 466.638 112.703 466.638 112.724 465.232C112.703 463.826 114.85 463.826 114.829 465.232Z" fill="white" stroke="white" stroke-width="4" stroke-miterlimit="10"/>
<path d="M125.493 442.107C125.514 443.513 123.368 443.513 123.389 442.107C123.368 440.701 125.514 440.701 125.493 442.107Z" fill="white" stroke="white" stroke-width="4" stroke-miterlimit="10"/>
<path d="M124.01 429.95C124.031 431.356 121.884 431.356 121.905 429.95C121.884 428.544 124.031 428.544 124.01 429.95Z" fill="white" stroke="white" stroke-width="4" stroke-miterlimit="10"/>
<path d="M133.491 420.167C133.512 421.572 131.365 421.572 131.386 420.167C131.365 418.761 133.512 418.761 133.491 420.167Z" fill="white" stroke="white" stroke-width="4" stroke-miterlimit="10"/>
<path d="M131.717 417.202C131.739 418.608 129.592 418.608 129.613 417.202C129.592 415.796 131.739 415.796 131.717 417.202Z" fill="white" stroke="white" stroke-width="4" stroke-miterlimit="10"/>
<path d="M192.749 417.792C192.77 419.198 190.623 419.198 190.644 417.792C190.623 416.386 192.77 416.386 192.749 417.792Z" fill="white" stroke="white" stroke-width="4" stroke-miterlimit="10"/>
<path d="M213.784 369.762C213.805 371.168 211.658 371.168 211.679 369.762C211.658 368.357 213.805 368.357 213.784 369.762Z" fill="white" stroke="white" stroke-width="4" stroke-miterlimit="10"/>
<path d="M275.999 338.334C276.02 339.74 273.874 339.74 273.895 338.334C273.874 336.928 276.02 336.928 275.999 338.334Z" fill="white" stroke="white" stroke-width="4" stroke-miterlimit="10"/>
<path d="M288.447 313.43C288.468 314.836 286.322 314.836 286.343 313.43C286.322 312.024 288.468 312.024 288.447 313.43Z" fill="white" stroke="white" stroke-width="4" stroke-miterlimit="10"/>
<path d="M275.999 260.651C276.02 262.057 273.874 262.057 273.895 260.651C273.874 259.245 276.02 259.245 275.999 260.651Z" fill="white" stroke="white" stroke-width="4" stroke-miterlimit="10"/>
<path d="M288.447 222.699C288.468 224.105 286.322 224.105 286.343 222.699C286.322 221.293 288.468 221.293 288.447 222.699Z" fill="white" stroke="white" stroke-width="4" stroke-miterlimit="10"/>
<path d="M216.746 127.525C216.767 128.93 214.62 128.93 214.641 127.525C214.62 126.119 216.767 126.119 216.746 127.525Z" fill="white" stroke="white" stroke-width="4" stroke-miterlimit="10"/>
<path d="M105.348 127.525C105.369 128.93 103.222 128.93 103.243 127.525C103.222 126.119 105.369 126.119 105.348 127.525Z" fill="white" stroke="white" stroke-width="4" stroke-miterlimit="10"/>
<path d="M99.7181 2.10612C99.7391 3.51195 97.5925 3.51195 97.6136 2.10612C97.5925 0.700302 99.7391 0.700302 99.7181 2.10612Z" fill="white" stroke="white" stroke-width="4" stroke-miterlimit="10"/>
<path d="M222.97 2.10612C222.991 3.51195 220.845 3.51195 220.866 2.10612C220.845 0.700302 222.991 0.700302 222.97 2.10612Z" fill="white" stroke="white" stroke-width="4" stroke-miterlimit="10"/>
<path d="M265.334 263.026C265.355 264.431 263.209 264.431 263.23 263.026C263.209 261.62 265.355 261.62 265.334 263.026Z" fill="white" stroke="white" stroke-width="4" stroke-miterlimit="10"/>
<path d="M310.071 358.495C310.093 359.901 307.946 359.901 307.967 358.495C307.946 357.089 310.093 357.089 310.071 358.495Z" fill="white" stroke="white" stroke-width="4" stroke-miterlimit="10"/>
<path d="M279.687 439.48C279.708 440.885 277.562 440.885 277.583 439.48C277.562 438.074 279.708 438.074 279.687 439.48Z" fill="white" stroke="white" stroke-width="4" stroke-miterlimit="10"/>
<path d="M317.948 421.299C317.969 422.705 315.822 422.705 315.843 421.299C315.822 419.893 317.969 419.893 317.948 421.299Z" fill="white" stroke="white" stroke-width="4" stroke-miterlimit="10"/>
<path d="M309.019 391.108C309.04 392.514 306.894 392.514 306.915 391.108C306.894 389.702 309.04 389.702 309.019 391.108Z" fill="white" stroke="white" stroke-width="4" stroke-miterlimit="10"/>
<path d="M160.455 412.158C160.476 413.564 158.329 413.564 158.35 412.158C158.329 410.753 160.476 410.753 160.455 412.158Z" fill="white" stroke="white" stroke-width="4" stroke-miterlimit="10"/>
<path d="M160.455 391.108C160.476 392.514 158.329 392.514 158.35 391.108C158.329 389.702 160.476 389.702 160.455 391.108Z" fill="white" stroke="white" stroke-width="4" stroke-miterlimit="10"/>
<path d="M183.563 376.876C183.584 378.282 181.437 378.282 181.458 376.876C181.437 375.47 183.584 375.47 183.563 376.876Z" fill="white" stroke="white" stroke-width="4" stroke-miterlimit="10"/>
<path d="M142.082 377.471C142.103 378.877 139.957 378.877 139.978 377.471C139.957 376.065 142.103 376.065 142.082 377.471Z" fill="white" stroke="white" stroke-width="4" stroke-miterlimit="10"/>
<path d="M114.829 372.727C114.85 374.133 112.703 374.133 112.724 372.727C112.703 371.321 114.85 371.321 114.829 372.727Z" fill="white" stroke="white" stroke-width="4" stroke-miterlimit="10"/>
<path d="M49.6459 368.578C49.667 369.984 47.5204 369.984 47.5414 368.578C47.5204 367.172 49.667 367.172 49.6459 368.578Z" fill="white" stroke="white" stroke-width="4" stroke-miterlimit="10"/>
<path d="M9.71766 389.002C9.73871 390.407 7.59208 390.407 7.61313 389.002C7.59208 387.596 9.73871 387.596 9.71766 389.002Z" fill="white" stroke="white" stroke-width="4" stroke-miterlimit="10"/>
<path d="M47.2783 341.888C47.2994 343.294 45.1528 343.294 45.1738 341.888C45.1528 340.483 47.2994 340.483 47.2783 341.888Z" fill="white" stroke="white" stroke-width="4" stroke-miterlimit="10"/>
<path d="M49.6459 268.954C49.667 270.36 47.5204 270.36 47.5414 268.954C47.5204 267.548 49.667 267.548 49.6459 268.954Z" fill="white" stroke="white" stroke-width="4" stroke-miterlimit="10"/>
<path d="M55.5702 266.58C55.5912 267.986 53.4446 267.986 53.4657 266.58C53.4446 265.174 55.5912 265.174 55.5702 266.58Z" fill="white" stroke="white" stroke-width="4" stroke-miterlimit="10"/>
<path d="M34.2407 319.359C34.2618 320.764 32.1152 320.764 32.1362 319.359C32.1152 317.953 34.2618 317.953 34.2407 319.359Z" fill="white" stroke="white" stroke-width="4" stroke-miterlimit="10"/>
<path d="M227.858 310.76C227.879 312.166 225.732 312.166 225.753 310.76C225.732 309.355 227.879 309.355 227.858 310.76Z" fill="white" stroke="white" stroke-width="4" stroke-miterlimit="10"/>
<path d="M186.825 323.065C186.846 324.471 184.699 324.471 184.72 323.065C184.699 321.659 186.846 321.659 186.825 323.065Z" fill="white" stroke="white" stroke-width="4" stroke-miterlimit="10"/>
<path d="M180.969 314.019C180.99 315.425 178.843 315.425 178.864 314.019C178.843 312.613 180.99 312.613 180.969 314.019Z" fill="white" stroke="white" stroke-width="4" stroke-miterlimit="10"/>
<path d="M236.15 290.747C236.171 292.153 234.024 292.153 234.045 290.747C234.024 289.341 236.171 289.341 236.15 290.747Z" fill="white" stroke="white" stroke-width="4" stroke-miterlimit="10"/>
<path d="M181.195 303.942C181.216 305.347 179.07 305.347 179.091 303.942C179.07 302.536 181.216 302.536 181.195 303.942Z" fill="white" stroke="white" stroke-width="4" stroke-miterlimit="10"/>
<path d="M140.457 303.647C140.478 305.053 138.331 305.053 138.352 303.647C138.331 302.241 140.478 302.241 140.457 303.647Z" fill="white" stroke="white" stroke-width="4" stroke-miterlimit="10"/>
<path d="M87.8643 290.152C87.8853 291.558 85.7387 291.558 85.7597 290.152C85.7387 288.746 87.8853 288.746 87.8643 290.152Z" fill="white" stroke="white" stroke-width="4" stroke-miterlimit="10"/>
<path d="M137.047 324.545C137.068 325.95 134.922 325.95 134.943 324.545C134.922 323.139 137.068 323.139 137.047 324.545Z" fill="white" stroke="white" stroke-width="4" stroke-miterlimit="10"/>
<path d="M134.527 326.324C134.548 327.73 132.401 327.73 132.423 326.324C132.401 324.919 134.548 324.919 134.527 326.324Z" fill="white" stroke="white" stroke-width="4" stroke-miterlimit="10"/>
<path d="M95.1249 309.57C95.1459 310.976 92.9993 310.976 93.0204 309.57C92.9993 308.165 95.1459 308.165 95.1249 309.57Z" fill="white" stroke="white" stroke-width="4" stroke-miterlimit="10"/>
<path d="M202.819 434.988C202.84 436.394 200.694 436.394 200.715 434.988C200.694 433.583 202.84 433.583 202.819 434.988Z" fill="white" stroke="white" stroke-width="4" stroke-miterlimit="10"/>
<path d="M202.525 465.232C202.546 466.638 200.399 466.638 200.42 465.232C200.399 463.826 202.546 463.826 202.525 465.232Z" fill="white" stroke="white" stroke-width="4" stroke-miterlimit="10"/>
<path d="M193.638 494.033C193.659 495.439 191.513 495.439 191.534 494.033C191.513 492.627 193.659 492.627 193.638 494.033Z" fill="white" stroke="white" stroke-width="4" stroke-miterlimit="10"/>
</g>
<defs>
<clipPath id="clip0_33_1258">
<rect width="319" height="517" fill="white"/>
</clipPath>
</defs>
</svg>
