<svg id="Calque_2" xmlns="http://www.w3.org/2000/svg" viewBox="0 0 604.81 978.41" class="ani" style=""><defs><style>.cls-A-1{fill:none;stroke:white;stroke-miterlimit:10;}</style></defs><g id="athena_lignr"><path class="cls-A-1 QTjKzmED_0" d="m342.39,573.76s24.78-1.97,58.28-27.87c16.89-11.26,46.18,2.82,46.18,2.82,0,0-26.28-1.88-45.14,8.54-14.64,7.88-29.48,29.47-59.74,35.66,7.47,3.1,11.13,17.18,11.13,17.18,0,0,13.8-25.9,45.61-27.87,16.61-1.13,25.62,5.35,32.38,4.5-6.48,8.17-17.3,36.26-59.69,36.32-42.39.06-37.74,37.04-37.74,37.04,5.07,27.31,13.25,52.21,13.25,52.21l-43.92,27.03-34.91-25.9s9.01-23.65,14.64-50.68c.03-.12.05-.25.08-.37,3.21-15.73-5.46-31.38-20.31-37.46-4.69-1.92-8.38-4.68-8.77-8.63-64.2,13.8-70.67-23.65-74.89-31.82,4.5.84,7.04-1.97,26.75-1.41,41.21,1.18,52.93,29.85,52.93,29.85l12.39-19.99c-30.97-5.07-52.37-32.1-63.63-40.26-11.26-8.17-42.23-5.07-42.23-5.07,0,0,37.17-14.36,58.28,5.07s41.67,20.56,41.67,20.56c-7.32-11.12-18.16-24.01-30.69-34.35-51.81-42.8-87.85-9.01-94.6,40.54-6.76,49.55,76.58,125.01,76.58,125.01v175.69c-106.99-92.35-123.89-183.58-123.89-183.58l11.26-193.71-11.26,4.5-4.5,138.53-24.78-42.8v-161.62c3.38-140.22,135.15-202.72,135.15-202.72L187.53.5h234.26l-11.83,238.2c93.48,32.1,136.27,180.76,136.27,180.76v172.31l-23.65,47.3v-147.54l-20.27,4.5s5.63,126.14,9.01,189.21c3.38,63.07-128.39,194.84-128.39,194.84,0,0,12.39-116,21.4-181.32,60.82-47.3,78.84-119.38,67.57-147.54s-31.05-63.43-101.36-21.4c-14.95,8.93-34.07,25.9-28.16,43.92Z"></path><path class="cls-A-1 QTjKzmED_1" d="m302.97,739.31v39.98s-18.02-8.45-30.97-2.82c-12.95,5.63-23.65,12.39-23.65,12.39,0,0,36.04,8.45,51.24,12.95s30.68-6.76,42.37-7.88c11.69-1.13,22.39-3.94,22.39-3.94,0,0-24.78,33.79-50.68,34.91-25.9,1.13-61.94-30.41-61.94-30.41l-18.02,18.58,2.82,23.09s29.03,39.95,88.97,30.41c31.53-9.01,58-43.92,58-43.92"></path><path class="cls-A-1 QTjKzmED_2" d="m73.22,620.55s-3.38,17.41-28.16,27.54c-24.78,10.14-40.54,37.17-30.41,64.2,10.14,27.03-1.13,25.9-9.01,41.67-7.88,15.77-18.42,76.29,67.57,72.08-24.78,49.55,33.79,153.17,93.48,146.41,59.69-6.76,74.33-42.8,61.94-67.57"></path><path class="cls-A-1 QTjKzmED_3" d="m531.59,625.69s3.38,17.41,28.16,27.54c24.78,10.14,40.54,37.17,30.41,64.2-10.14,27.03,1.13,25.9,9.01,41.67,7.88,15.77,18.42,76.29-67.57,72.08,24.78,49.55-33.79,153.17-93.48,146.41-59.69-6.76-72.08-31.53-72.08-42.8"></path></g><style data-made-with="vivus-instant">.QTjKzmED_0{stroke-dasharray:5014 5016;stroke-dashoffset:5015;}.start .QTjKzmED_0{animation:QTjKzmED_draw 3000ms linear 0ms forwards;}.QTjKzmED_1{stroke-dasharray:573 575;stroke-dashoffset:574;}.start .QTjKzmED_1{animation:QTjKzmED_draw 3000ms linear 0ms forwards;}.QTjKzmED_2{stroke-dasharray:597 599;stroke-dashoffset:598;}.start .QTjKzmED_2{animation:QTjKzmED_draw 3000ms linear 0ms forwards;}.QTjKzmED_3{stroke-dasharray:579 581;stroke-dashoffset:580;}.start .QTjKzmED_3{animation:QTjKzmED_draw 3000ms linear 0ms forwards;}@keyframes QTjKzmED_draw{100%{stroke-dashoffset:0;}}@keyframes QTjKzmED_fade{0%{stroke-opacity:1;}94.44444444444444%{stroke-opacity:1;}100%{stroke-opacity:0;}}</style></svg>