<svg width="480" height="485" viewBox="0 0 480 485" fill="none" xmlns="http://www.w3.org/2000/svg">
<g clip-path="url(#clip0_33_1180)">
<path d="M341.89 265.004H348.155C353.01 265.004 357.569 262.675 360.423 258.744L374.069 239.936C375.57 237.865 376.723 235.568 377.486 233.123L390.017 192.889C390.385 191.714 390.57 190.486 390.57 189.253V153.725M390.57 153.725L386.579 151.971C383.315 150.532 379.703 150.063 376.181 150.616L375.607 150.706C372.879 151.133 370.226 151.939 367.715 153.093L361.612 155.902V159.464H363.187C366.072 159.464 368.936 158.995 371.669 158.068L377.007 154.69C379.745 153.762 382.941 153.631 385.826 153.725H390.57ZM390.57 153.725L389.285 173.866L381.772 173.471C381.772 173.471 378.255 168.464 371.337 168.86C364.419 169.255 356.079 174.693 356.079 174.693C356.079 174.693 364.971 176.87 368.925 175.879C372.879 174.888 374.638 166.81 366.535 169.777C358.432 172.743 350.151 177.259 352.92 196.451C356.674 205.947 356.674 208.377 355.489 209.436C354.305 210.495 351.735 212.872 350.151 211.681C348.566 210.49 354.894 205.051 353.51 207.375C352.125 209.699 351.535 212.076 348.371 212.076C345.207 212.076 340.721 204.656 338.615 207.375C336.509 210.094 340.663 211.085 340.663 211.085C340.663 211.085 327.222 212.271 333.35 203.17" stroke="white" stroke-miterlimit="10"/>
<path d="M304.461 131.767C304.483 133.132 302.334 133.132 302.356 131.767C302.334 130.402 304.483 130.402 304.461 131.767Z" fill="white" stroke="white" stroke-width="4" stroke-miterlimit="10"/>
<path d="M358.19 105.361C358.211 106.726 356.063 106.726 356.084 105.361C356.063 103.996 358.211 103.996 358.19 105.361Z" fill="white" stroke="white" stroke-width="4" stroke-miterlimit="10"/>
<path d="M259.562 66.6818C259.583 68.0467 257.435 68.0467 257.456 66.6818C257.435 65.317 259.583 65.317 259.562 66.6818Z" fill="white" stroke="white" stroke-width="4" stroke-miterlimit="10"/>
<path d="M356.084 263.46C356.105 264.825 353.957 264.825 353.978 263.46C353.957 262.095 356.105 262.095 356.084 263.46Z" fill="white" stroke="white" stroke-width="4" stroke-miterlimit="10"/>
<path d="M478.947 319.55C478.968 320.915 476.82 320.915 476.841 319.55C476.82 318.185 478.968 318.185 478.947 319.55Z" fill="white" stroke="white" stroke-width="4" stroke-miterlimit="10"/>
<path d="M466.185 265.004C466.206 266.369 464.058 266.369 464.079 265.004C464.058 263.639 466.206 263.639 466.185 265.004Z" fill="white" stroke="white" stroke-width="4" stroke-miterlimit="10"/>
<path d="M424.929 236.817C424.95 238.182 422.802 238.182 422.823 236.817C422.802 235.452 424.95 235.452 424.929 236.817Z" fill="white" stroke="white" stroke-width="4" stroke-miterlimit="10"/>
<path d="M449.942 182.645C449.963 184.01 447.815 184.01 447.836 182.645C447.815 181.28 449.963 181.28 449.942 182.645Z" fill="white" stroke="white" stroke-width="4" stroke-miterlimit="10"/>
<path d="M424.402 137.706C424.423 139.071 422.275 139.071 422.296 137.706C422.275 136.341 424.423 136.341 424.402 137.706Z" fill="white" stroke="white" stroke-width="4" stroke-miterlimit="10"/>
<path d="M419.495 96.7556C419.516 98.1204 417.368 98.1204 417.389 96.7556C417.368 95.3907 419.516 95.3907 419.495 96.7556Z" fill="white" stroke="white" stroke-width="4" stroke-miterlimit="10"/>
<path d="M391.628 85.3312C391.649 86.6961 389.501 86.6961 389.522 85.3312C389.501 83.9664 391.649 83.9664 391.628 85.3312Z" fill="white" stroke="white" stroke-width="4" stroke-miterlimit="10"/>
<path d="M382.83 116.933C382.851 118.298 380.703 118.298 380.724 116.933C380.703 115.568 382.851 115.568 382.83 116.933Z" fill="white" stroke="white" stroke-width="4" stroke-miterlimit="10"/>
<path d="M376.87 236.817C376.891 238.182 374.743 238.182 374.764 236.817C374.743 235.452 376.891 235.452 376.87 236.817Z" fill="white" stroke="white" stroke-width="4" stroke-miterlimit="10"/>
<path d="M310.084 198.001C310.105 199.366 307.957 199.366 307.978 198.001C307.957 196.636 310.105 196.636 310.084 198.001Z" fill="white" stroke="white" stroke-width="4" stroke-miterlimit="10"/>
<path d="M391.628 191.119C391.649 192.484 389.501 192.484 389.522 191.119C389.501 189.754 391.649 189.754 391.628 191.119Z" fill="white" stroke="white" stroke-width="4" stroke-miterlimit="10"/>
<path d="M391.628 153.731C391.649 155.095 389.501 155.095 389.522 153.731C389.501 152.366 391.649 152.366 391.628 153.731Z" fill="white" stroke="white" stroke-width="4" stroke-miterlimit="10"/>
<path d="M362.671 155.902C362.692 157.267 360.544 157.267 360.565 155.902C360.544 154.537 362.692 154.537 362.671 155.902Z" fill="white" stroke="white" stroke-width="4" stroke-miterlimit="10"/>
<path d="M330.649 156.771C330.67 158.136 328.522 158.136 328.543 156.771C328.522 155.406 330.67 155.406 330.649 156.771Z" fill="white" stroke="white" stroke-width="4" stroke-miterlimit="10"/>
<path d="M329.596 162.336C329.617 163.701 327.469 163.701 327.49 162.336C327.469 160.971 329.617 160.971 329.596 162.336Z" fill="white" stroke="white" stroke-width="4" stroke-miterlimit="10"/>
<path d="M328.28 175.721C328.301 177.086 326.153 177.086 326.174 175.721C326.153 174.356 328.301 174.356 328.28 175.721Z" fill="white" stroke="white" stroke-width="4" stroke-miterlimit="10"/>
<path d="M362.671 159.464C362.692 160.829 360.544 160.829 360.565 159.464C360.544 158.099 362.692 158.099 362.671 159.464Z" fill="white" stroke="white" stroke-width="4" stroke-miterlimit="10"/>
<path d="M390.343 173.871C390.364 175.236 388.216 175.236 388.237 173.871C388.216 172.506 390.364 172.506 390.343 173.871Z" fill="white" stroke="white" stroke-width="4" stroke-miterlimit="10"/>
<path d="M382.83 173.476C382.851 174.841 380.703 174.841 380.724 173.476C380.703 172.111 382.851 172.111 382.83 173.476Z" fill="white" stroke="white" stroke-width="4" stroke-miterlimit="10"/>
<path d="M357.137 174.698C357.158 176.063 355.01 176.063 355.031 174.698C355.01 173.334 357.158 173.334 357.137 174.698Z" fill="white" stroke="white" stroke-width="4" stroke-miterlimit="10"/>
<path d="M342.906 211.196C342.927 212.561 340.779 212.561 340.8 211.196C340.779 209.831 342.927 209.831 342.906 211.196Z" fill="white" stroke="white" stroke-width="4" stroke-miterlimit="10"/>
<path d="M342.427 220.149C342.448 221.514 340.3 221.514 340.321 220.149C340.3 218.784 342.448 218.784 342.427 220.149Z" fill="white" stroke="white" stroke-width="4" stroke-miterlimit="10"/>
<path d="M350.119 220.644C350.14 222.009 347.992 222.009 348.013 220.644C347.992 219.279 350.14 219.279 350.119 220.644Z" fill="white" stroke="white" stroke-width="4" stroke-miterlimit="10"/>
<path d="M354.384 230.404C354.405 231.769 352.257 231.769 352.278 230.404C352.257 229.039 354.405 229.039 354.384 230.404Z" fill="white" stroke="white" stroke-width="4" stroke-miterlimit="10"/>
<path d="M369.984 175.884C370.005 177.249 367.857 177.249 367.878 175.884C367.857 174.52 370.005 174.52 369.984 175.884Z" fill="white" stroke="white" stroke-width="4" stroke-miterlimit="10"/>
<path d="M332.961 233.007C332.982 234.372 330.834 234.372 330.855 233.007C330.834 231.642 332.982 231.642 332.961 233.007Z" fill="white" stroke="white" stroke-width="4" stroke-miterlimit="10"/>
<path d="M335.067 244.331C335.088 245.696 332.94 245.696 332.961 244.331C332.94 242.966 335.088 242.966 335.067 244.331Z" fill="white" stroke="white" stroke-width="4" stroke-miterlimit="10"/>
<path d="M334.409 203.186C334.43 204.551 332.281 204.551 332.303 203.186C332.281 201.821 334.43 201.821 334.409 203.186Z" fill="white" stroke="white" stroke-width="4" stroke-miterlimit="10"/>
<path d="M332.95 257.817L333.787 244.827L333.845 243.936L328.875 239.931C327.585 238.751 325.779 236.764 325.237 233.798C324.663 230.652 326.522 227.564 327.954 225.835C331.097 222.036 335.119 219.828 339.81 220.197L338.515 220.376C334.566 220.929 328.712 225.345 326.448 230.404C325.9 231.621 326.127 233.076 326.716 233.502C327.68 234.198 328.975 233.892 329.744 233.813C329.117 234.393 328.185 234.662 327.88 236.359C327.838 236.601 327.854 236.849 327.922 237.086C329.212 241.57 337.194 241.834 337.194 241.834L353.325 241.165C353.325 241.165 358.554 240 358.785 236.185C358.885 234.525 357.569 232.817 355.963 232.396L353.51 231.753C353.51 231.753 348.666 230.615 342.748 230.989C336.83 231.363 332.587 232.201 332.587 232.201C332.587 232.201 336.941 228.849 343.417 228.849C349.045 228.849 352.63 230.383 353.468 230.783C353.604 230.852 353.747 230.905 353.899 230.947L355.826 231.479C357.706 232.001 359.475 230.367 359.112 228.454C359.07 228.243 359.012 228.038 358.922 227.848C355.731 220.871 349.066 220.645 349.066 220.645" stroke="white" stroke-miterlimit="10"/>
<path d="M308.447 115.447C308.447 94.6742 318.824 73.3111 340.321 76.8681C361.818 80.4304 357.137 105.356 357.137 105.356C357.137 105.356 368.041 111.59 373.674 101.203C379.308 90.8168 379.229 50.7571 331.239 49.2711C308.663 48.5755 290.146 51.2894 274.857 57.7605" stroke="white" stroke-miterlimit="10"/>
<path d="M390.575 153.731C390.575 153.731 392.254 124.648 381.777 116.933C371.3 109.218 377.823 86.0743 397.393 83.6977C416.963 81.3211 422.891 103.285 419.332 115.748C415.773 128.21 421.112 138.892 432.968 146.606C444.825 154.321 457.871 183.473 441.861 204.209C425.85 224.945 416.958 237.186 430.004 242.635C443.051 248.089 465.132 251.203 467.054 277.91C468.633 299.9 482.933 308.226 477.894 319.545" stroke="white" stroke-miterlimit="10"/>
<path d="M313.054 167.969C315.95 168.011 319.188 168.67 322.71 170.309C327.227 173.671 327.227 175.721 327.227 175.721C327.227 175.721 320.498 177.739 313.854 178.018" stroke="white" stroke-miterlimit="10"/>
<path d="M312.569 152.877C320.398 154.3 329.596 156.771 329.596 156.771L328.212 161.593C328.212 161.593 318.703 159.306 311.406 157.52" stroke="white" stroke-miterlimit="10"/>
<path d="M368.931 175.884C368.931 175.884 376.481 181.818 373.316 193.885C370.152 205.953 370.352 210.305 367.188 216.439C364.024 222.573 366.398 224.154 367.188 223.959C367.978 223.764 369.331 222.378 369.842 217.63C370.352 212.882 377.06 189.738 376.87 185.185C376.681 180.632 381.777 173.476 381.777 173.476" stroke="white" stroke-miterlimit="10"/>
<path d="M327.227 175.721C327.227 175.721 321.451 175.953 320.504 182.645C319.556 189.337 313.375 197.173 313.059 202.158C312.738 207.138 315.112 216.212 316.892 221.171C318.672 226.13 322.51 233.028 320.146 234.029C317.782 235.03 313.675 233.381 313.059 223.969C312.443 214.558 308.905 207.718 309.342 202.158C309.779 196.594 309.305 198.053 309.305 198.053" stroke="white" stroke-miterlimit="10"/>
<path d="M253.57 105.519C278.195 85.0148 282.554 30.4848 262.942 11.2875C268.233 30.9169 262.942 42.6997 262.942 42.6997L254.223 32.229C254.223 32.229 266.864 87.6338 243.762 90.6849C220.659 93.7413 213.251 2.56104 213.251 2.56104C213.251 2.56104 199.305 87.6285 182.304 90.2475C165.304 92.8665 149.177 73.6693 163.998 40.9502C151.794 56.2216 150.488 46.1829 150.488 46.1829C150.488 46.1829 146.129 13.9013 162.255 7.79377C133.051 24.8094 139.153 67.1244 143.949 78.0325C148.745 88.9406 157.896 103.337 157.896 103.337L139.911 77.163C139.911 77.163 147.434 88.9406 134.793 89.8154C122.152 90.6902 127.385 106.831 121.283 111.194C115.181 115.557 108.205 129.954 103.851 175.326C99.4918 220.697 113.007 214.152 103.851 232.037C94.6954 249.922 81.6225 282.204 74.2147 285.698C66.807 289.186 19.5225 295.815 10.035 356.806" stroke="white" stroke-miterlimit="10"/>
<path d="M0.231689 51.7686C6.15476 62.7821 16.5951 74.586 34.9803 81.3048C4.25411 82.6116 10.7879 79.9979 10.7879 79.9979C10.7879 79.9979 33.0165 160.486 94.4742 191.898C53.9394 195.824 27.7884 221.998 36.9389 243.593L49.3589 245.559L50.0118 267.807L65.2327 288.696" stroke="white" stroke-miterlimit="10"/>
<path d="M0.415979 182.698C6.44434 187.456 12.9466 192.267 19.9437 197.131C31.7108 180.116 46.7475 181.428 46.7475 181.428C46.7475 181.428 19.4593 161.498 0.22644 130.06" stroke="white" stroke-miterlimit="10"/>
<path d="M38.2552 303.198L25.8299 285.909L8.82939 276.961C8.82939 276.961 11.0354 262.938 1.10571 258.976" stroke="white" stroke-miterlimit="10"/>
<path d="M253.57 105.519L280.374 78.0322C280.374 78.0322 288.219 105.951 294.321 110.751C300.423 115.552 316.987 135.181 312.627 152.629C308.268 170.077 320.909 165.281 307.831 202.364C294.753 239.446 352.725 271.728 352.725 271.728C352.725 271.728 424.929 272.102 422.028 356.795C465.179 386.895 440.334 427.466 440.334 427.466C440.334 427.466 471.718 464.111 463.868 482.433" stroke="white" stroke-miterlimit="10"/>
<path d="M122.831 111.189C122.863 113.197 119.704 113.197 119.735 111.189C119.704 109.181 122.863 109.181 122.831 111.189Z" fill="white" stroke="white" stroke-width="4" stroke-miterlimit="10"/>
<path d="M109.321 219.817C109.353 221.825 106.194 221.825 106.226 219.817C106.194 217.809 109.353 217.809 109.321 219.817Z" fill="white" stroke="white" stroke-width="4" stroke-miterlimit="10"/>
<path d="M97.5753 191.893C97.6069 193.901 94.4479 193.901 94.4795 191.893C94.4479 189.885 97.6069 189.885 97.5753 191.893Z" fill="white" stroke="white" stroke-width="4" stroke-miterlimit="10"/>
<path d="M48.3006 181.422C48.3322 183.43 45.1732 183.43 45.2048 181.422C45.1732 179.415 48.3322 179.415 48.3006 181.422Z" fill="white" stroke="white" stroke-width="4" stroke-miterlimit="10"/>
<path d="M21.4915 197.131C21.5231 199.139 18.3642 199.139 18.3957 197.131C18.3642 195.124 21.5231 195.124 21.4915 197.131Z" fill="white" stroke="white" stroke-width="4" stroke-miterlimit="10"/>
<path d="M465.421 482.439C465.453 484.447 462.294 484.447 462.326 482.439C462.294 480.431 465.453 480.431 465.421 482.439Z" fill="white" stroke="white" stroke-width="4" stroke-miterlimit="10"/>
<path d="M441.887 427.472C441.919 429.479 438.76 429.479 438.791 427.472C438.76 425.464 441.919 425.464 441.887 427.472Z" fill="white" stroke="white" stroke-width="4" stroke-miterlimit="10"/>
<path d="M423.581 356.795C423.612 358.803 420.454 358.803 420.485 356.795C420.454 354.788 423.612 354.788 423.581 356.795Z" fill="white" stroke="white" stroke-width="4" stroke-miterlimit="10"/>
<path d="M354.879 270.816C354.91 272.824 351.751 272.824 351.783 270.816C351.751 268.809 354.91 268.809 354.879 270.816Z" fill="white" stroke="white" stroke-width="4" stroke-miterlimit="10"/>
<path d="M312.433 157.525C312.464 159.533 309.305 159.533 309.337 157.525C309.305 155.517 312.464 155.517 312.433 157.525Z" fill="white" stroke="white" stroke-width="4" stroke-miterlimit="10"/>
<path d="M306.546 213.177C306.578 215.185 303.419 215.185 303.451 213.177C303.419 211.169 306.578 211.169 306.546 213.177Z" fill="white" stroke="white" stroke-width="4" stroke-miterlimit="10"/>
<path d="M75.7574 285.687C75.789 287.695 72.63 287.695 72.6616 285.687C72.63 283.679 75.789 283.679 75.7574 285.687Z" fill="white" stroke="white" stroke-width="4" stroke-miterlimit="10"/>
<path d="M66.786 288.691C66.8176 290.699 63.6586 290.699 63.6902 288.691C63.6586 286.683 66.8176 286.683 66.786 288.691Z" fill="white" stroke="white" stroke-width="4" stroke-miterlimit="10"/>
<path d="M36.5283 81.0468C36.5599 83.0545 33.4009 83.0545 33.4325 81.0468C33.4009 79.0391 36.5599 79.0391 36.5283 81.0468Z" fill="white" stroke="white" stroke-width="4" stroke-miterlimit="10"/>
<path d="M12.3411 79.998C12.3727 82.0057 9.21376 82.0057 9.24535 79.998C9.21376 77.9903 12.3727 77.9903 12.3411 79.998Z" fill="white" stroke="white" stroke-width="4" stroke-miterlimit="10"/>
<path d="M38.492 243.588C38.5236 245.596 35.3646 245.596 35.3962 243.588C35.3646 241.581 38.5236 241.581 38.492 243.588Z" fill="white" stroke="white" stroke-width="4" stroke-miterlimit="10"/>
<path d="M50.9121 245.554C50.9437 247.561 47.7847 247.561 47.8163 245.554C47.7847 243.546 50.9437 243.546 50.9121 245.554Z" fill="white" stroke="white" stroke-width="4" stroke-miterlimit="10"/>
<path d="M51.5701 267.802C51.6017 269.81 48.4428 269.81 48.4744 267.802C48.4428 265.794 51.6017 265.794 51.5701 267.802Z" fill="white" stroke="white" stroke-width="4" stroke-miterlimit="10"/>
<path d="M27.3778 285.914C27.4094 287.921 24.2504 287.921 24.282 285.914C24.2504 283.906 27.4094 283.906 27.3778 285.914Z" fill="white" stroke="white" stroke-width="4" stroke-miterlimit="10"/>
<path d="M10.3773 276.966C10.4089 278.973 7.2499 278.973 7.28149 276.966C7.2499 274.958 10.4089 274.958 10.3773 276.966Z" fill="white" stroke="white" stroke-width="4" stroke-miterlimit="10"/>
<path d="M39.8031 303.198C39.8346 305.206 36.6757 305.206 36.7073 303.198C36.6757 301.19 39.8346 301.19 39.8031 303.198Z" fill="white" stroke="white" stroke-width="4" stroke-miterlimit="10"/>
<path d="M281.922 78.0326C281.954 80.0404 278.795 80.0404 278.826 78.0326C278.795 76.0249 281.954 76.0249 281.922 78.0326Z" fill="white" stroke="white" stroke-width="4" stroke-miterlimit="10"/>
<path d="M255.118 105.519C255.15 107.527 251.991 107.527 252.023 105.519C251.991 103.511 255.15 103.511 255.118 105.519Z" fill="white" stroke="white" stroke-width="4" stroke-miterlimit="10"/>
<path d="M142.154 79.5395C142.185 81.5472 139.026 81.5472 139.058 79.5395C139.026 77.5318 142.185 77.5318 142.154 79.5395Z" fill="white" stroke="white" stroke-width="4" stroke-miterlimit="10"/>
<path d="M159.444 103.337C159.475 105.345 156.316 105.345 156.348 103.337C156.316 101.33 159.475 101.33 159.444 103.337Z" fill="white" stroke="white" stroke-width="4" stroke-miterlimit="10"/>
<path d="M163.803 7.79876C163.835 9.80649 160.676 9.80649 160.707 7.79876C160.676 5.79104 163.835 5.79104 163.803 7.79876Z" fill="white" stroke="white" stroke-width="4" stroke-miterlimit="10"/>
<path d="M166.899 41.2402C166.93 43.2479 163.772 43.2479 163.803 41.2402C163.772 39.2324 166.93 39.2324 166.899 41.2402Z" fill="white" stroke="white" stroke-width="4" stroke-miterlimit="10"/>
<path d="M214.799 2.56097C214.831 4.56869 211.672 4.56869 211.704 2.56097C211.672 0.553245 214.831 0.553245 214.799 2.56097Z" fill="white" stroke="white" stroke-width="4" stroke-miterlimit="10"/>
<path d="M255.771 32.2289C255.803 34.2367 252.644 34.2367 252.675 32.2289C252.644 30.2212 255.803 30.2212 255.771 32.2289Z" fill="white" stroke="white" stroke-width="4" stroke-miterlimit="10"/>
<path d="M263.569 9.97552C263.6 11.9832 260.441 11.9832 260.473 9.97552C260.441 7.9678 263.6 7.9678 263.569 9.97552Z" fill="white" stroke="white" stroke-width="4" stroke-miterlimit="10"/>
</g>
<defs>
<clipPath id="clip0_33_1180">
<rect width="480" height="485" fill="white"/>
</clipPath>
</defs>
</svg>
