<svg width="339" height="367" viewBox="0 0 339 367" fill="none" xmlns="http://www.w3.org/2000/svg">
<g clip-path="url(#clip0_129_13738)">
<path d="M15.4585 363.479C15.4585 363.479 16.0192 280.026 31.6661 258.741C47.3129 237.456 3.7221 252.579 23.5623 258.741C43.4024 264.902 122.768 269.94 119.413 260.422C116.059 250.898 50.6577 264.117 40.6085 255.941C30.5594 247.765 20.6741 242.688 21.2348 161.472C27.1948 196.01 21.9792 195.075 15.4585 194.891C8.93771 194.702 -2.05428 195.503 4.46648 169.061C10.9872 142.619 16.0192 99.676 79.7331 103.222C58.1213 94.0713 54.583 89.7795 41.7301 100.049C27.1998 110.691 55.1438 107.146 48.8116 78.9531C42.4794 50.7606 38.3804 38.9992 55.3324 36.1994C52.7221 26.1189 86.2588 28.3568 95.0127 38.8152C103.767 49.2687 106.005 53.7494 97.4344 53.7494C88.8641 53.7494 82.9042 54.6844 82.1598 60.2841C81.4154 65.8838 76.572 69.9916 76.1998 73.9154C75.4554 60.846 70.612 64.2079 69.8676 69.0616C69.1232 73.9154 73.7781 79.5151 70.0562 81.9419C66.3343 84.3688 54.9651 95.3842 51.799 75.4073C48.633 55.4303 46.9556 40.3071 69.1232 39.9342C91.2908 39.5612 100.794 50.2036 100.422 59.7221C100.05 69.2456 96.1392 98.3681 89.6184 98.3681C83.0977 98.3681 73.9716 96.6872 74.3438 93.6984C74.716 90.7095 84.9636 96.8712 88.6905 100.979C92.4173 105.087 104.198 98.4129 115.096 125.297C125.994 152.182 119.289 175.038 149.467 196.587C179.649 218.135 167.912 217.713 181.326 221.915C194.74 226.117 205.22 223.173 205.22 227.375C205.22 231.578 194.74 230.314 193.901 233.259C193.062 236.203 200.188 242.081 211.508 243.339C222.828 244.597 205.22 250.898 201.027 250.058C196.834 249.217 218.982 249.217 215.245 252.156C211.508 255.095 198.094 254.678 198.094 254.678C198.094 254.678 214.024 255.518 213.185 258.88C212.347 262.242 196.839 261.401 194.323 260.979C191.807 260.561 206.059 263.918 205.642 265.181C205.225 266.439 186.358 264.763 179.654 252.579C172.949 240.395 133.125 218.976 130.609 218.135C130.609 218.135 115.657 206.672 111.746 196.587C107.836 186.501 92.7448 155.698 96.6553 157.379C100.566 159.06 118.476 231.99 116.218 248.113C113.96 264.236 131.864 361.216 118.451 363.474C105.037 365.732 73.7384 370.77 74.8549 360.689C75.9715 350.609 75.9715 304.12 70.3837 309.72C64.7959 315.32 67.029 361.246 59.2081 363.489C51.3872 365.732 9.46374 367.97 10.5853 361.808L11.146 201.625V195.836C11.146 195.836 -1.70691 195.836 0.52623 181.459C2.75937 167.081 11.7018 137.397 11.7018 137.397V2.23803C11.7018 2.23803 17.2896 -2.24273 17.8504 2.23803C18.4112 6.7188 17.8504 123.219 17.8504 123.219" stroke="white" stroke-width="2" stroke-miterlimit="10"/>
<path d="M220.714 357.9C220.714 357.9 224.907 301.609 220.714 286.486C216.52 271.363 185.504 279.767 193.886 282.284C202.268 284.8 258.439 291.524 260.955 288.167C263.471 284.81 245.874 278.305 174.607 277.683C160.354 277.559 186.874 260.163 186.308 259.76C185.743 259.358 197.281 268.065 205.623 265.186C208.416 264.221 200.873 262.123 200.873 262.123C200.873 262.123 211.781 261.775 213.032 260.442C215.657 257.642 211.354 255.399 208.143 255.12C204.933 254.842 218.203 254.002 216.525 251.341C214.848 248.68 210.58 248.959 210.58 248.959C210.58 248.959 218.51 246.552 217.359 244.757C215.652 242.096 201.151 239.296 201.151 239.296C201.151 239.296 217.359 190.286 224.907 191.549C232.455 192.813 257.6 221.796 282.755 222.636C307.91 223.477 310.421 221.378 315.031 222.218C319.642 223.059 330.961 223.059 333.055 222.218C335.149 221.378 343.114 214.237 335.571 212.138C328.028 210.039 325.512 211.72 325.512 211.72L323.413 0.249023H320.197L321.314 212.133L320.058 211.994L320.619 209.756C320.619 209.756 321.875 207.796 319.22 208.776C316.565 209.756 318.942 212.556 314.887 212.695C310.833 212.834 275.068 209.895 272.13 208.214C269.192 206.533 239.993 178.251 238.737 175.029C237.482 171.806 246.702 95.7773 234.127 103.336C221.552 110.896 217.781 174.999 219.458 179.072C221.135 183.145 200.595 136.099 221.552 110.896C225.324 102.496 216.103 135.259 203.107 136.099C192.412 136.791 206.134 62.9449 228.381 33.0267C234.122 25.3035 243.189 20.773 252.796 20.6686C262.24 20.5641 271.753 20.5343 275.296 25.761C279.232 31.5746 271.922 37.3235 259.833 48.7268C247.164 60.6772 251.263 71.0362 251.263 79.7192C251.263 94.8424 261.039 115.66 254.568 122.94C248.097 130.221 243.903 134.14 243.903 134.14C243.903 134.14 249.983 130.191 245.303 104.734C243.566 95.29 241.884 86.7611 240.931 79.2418C239.313 66.4957 241.378 57.947 245.581 50.1292C252.151 37.9054 262.999 27.6309 272.969 30.2468C282.939 32.8626 276.135 51.5317 277.534 54.053C278.934 56.5744 283.683 60.4932 282.006 62.1741C280.328 63.855 278.095 64.412 278.373 65.5359C278.651 66.6598 279.956 68.6143 279.678 69.4547C279.4 70.2952 271.634 72.538 273.599 72.3391C277.232 71.9661 279.157 73.0602 278.78 75.5567C278.616 76.6657 274.641 87.9447 268.403 88.6857C262.166 89.4267 254.568 86.9153 254.568 86.9153C254.568 86.9153 251.124 85.7914 249.586 92.2315C248.047 98.6717 249.586 102.128 249.586 102.128C252.082 105.231 264.304 109.225 265.421 121.543C266.538 133.861 272.502 175.372 257.411 179.077C242.32 182.782 237.849 175.312 243.253 173.447C248.658 171.582 278.835 169.434 274.363 252.465C272.686 292.369 265.143 292.792 265.143 292.792L251.313 357.905H318.798L319.637 225.163H323.408V357.905" stroke="white" stroke-width="2" stroke-miterlimit="10"/>
</g>
<defs>
<clipPath id="clip0_129_13738">
<rect width="339" height="367" fill="white"/>
</clipPath>
</defs>
</svg>
