<svg width="726" height="594" viewBox="0 0 726 594" fill="none" xmlns="http://www.w3.org/2000/svg">
<g clip-path="url(#clip0_151_35)">
<g clip-path="url(#clip1_151_35)">
<path d="M182.717 72.6752C182.97 70.8375 183.096 69.2105 183.434 67.634C183.94 65.2399 185.071 63.1155 187.45 62.2051C193.178 60.0048 199.126 58.5886 205.293 59.1197C207.259 59.2883 209.36 60.0891 211.013 61.185C215.156 63.9332 219.695 64.8015 224.512 65.1219C227.541 65.3242 230.561 65.8974 233.565 66.4285C237.96 67.1957 240.508 69.9945 241.732 74.1589C243.326 79.5963 244.111 80.0768 249.763 78.9472C253.121 78.2812 256.268 78.1716 259.238 80.5405C261.473 82.3192 264.325 82.4457 266.966 81.4172C269.455 80.4393 271.969 79.3181 274.162 77.8092C278.946 74.5214 284.05 72.0177 289.559 70.2052C292.107 69.3622 294.588 68.2494 296.984 67.0271C301.168 64.8943 304.062 61.5391 306.171 57.3072C307.833 53.9605 309.698 50.639 311.992 47.7053C316.81 41.543 323.534 39.4354 331.119 40.1436C332.991 40.3206 334.805 41.4755 336.586 42.3101C338.45 43.1868 340.315 44.5525 342.356 43.2374C344.381 41.9307 343.419 39.8232 343.276 37.9602C342.938 33.526 342.5 29.0833 342.441 24.6491C342.424 23.0389 343.031 21.2012 343.934 19.844C349.215 11.8691 356.429 6.9628 366.291 6.81106C370.99 6.73518 374.846 8.69096 376.879 13.0325C379.933 19.5489 385.696 21.589 392.048 22.4067C394.774 22.7608 397.743 22.3477 400.435 21.6311C405.058 20.4003 408.23 17.4077 409.318 12.5351C409.504 11.7089 409.833 10.9165 410.044 10.0904C412.55 0.134436 422.328 0.791982 427.516 5.0576C431.094 7.9997 433.068 12.0799 434.325 16.3961C435.084 19.0009 433.751 21.4119 432.114 23.4605C430.545 25.4247 428.849 27.2877 426.782 29.6903C429.955 29.6903 432.528 29.7324 435.101 29.6818C437.505 29.6313 439.918 29.3446 442.314 29.4289C444.964 29.5217 447.064 28.704 448.583 26.5543C449.604 25.1127 450.625 23.6459 451.443 22.0864C452.329 20.4003 453.021 18.6047 453.729 16.826C457.07 8.45492 462.849 6.40641 470.51 11.3127C473.184 13.024 475.513 15.494 477.479 18.0315C479.858 21.1169 480.575 24.7924 479.436 28.7124C478.921 30.4743 478.651 32.312 478.44 34.1414C478.255 35.7515 478.854 37.1846 480.44 37.7831C485.949 39.8738 487.738 44.2996 488.185 49.6696C488.421 52.5189 489.045 53.0837 491.855 53.2776C499.203 53.775 503.506 57.206 505.691 64.262C506.189 65.8806 506.653 67.5329 507.302 69.0924C508.239 71.3686 509.968 72.4729 512.508 72.2874C517.401 71.9249 522.024 70.6099 526.234 68.123C530.183 65.7879 534.207 64.4812 538.805 65.8131C539.387 65.9818 540.172 65.6867 540.788 65.4338C542.163 64.869 543.454 64.0934 544.846 63.5792C550.144 61.615 554.126 62.4664 557.535 66.9596C560.133 70.3822 562.554 74.0746 564.259 78.003C566.503 83.1622 569.962 86.2392 575.412 87.4447C580.322 88.5322 585.131 89.645 590.286 89.4679C596.748 89.2403 602.131 92.4606 607.092 96.3384C608.602 97.5187 610.112 98.6904 611.648 99.8369C616.44 103.394 617.612 108.343 616.735 113.848C616.077 117.962 615.081 122.042 613.926 126.046C613.369 127.968 612.441 130 611.099 131.424C608.535 134.156 607.218 137.292 606.645 140.866C606.071 144.424 604.78 147.652 602.679 150.62C600.95 153.056 599.828 155.526 601.819 158.654C602.637 159.935 602.612 162.203 602.156 163.787C600.528 169.393 598.554 175.033 593.72 178.726C588.658 182.603 587.139 187.83 586.658 193.723C586.54 195.198 586.203 196.665 585.933 198.132C585.35 201.318 584.996 204.42 587.519 207.118C588.126 207.767 588.489 208.964 588.413 209.866C588.151 213.044 590.547 214.048 592.631 215.219C593.163 215.523 594.226 215.194 594.909 214.874C596.495 214.115 597.921 212.969 599.558 212.362C603.472 210.92 606.257 211.915 609.032 215.059C609.775 215.902 611.099 216.518 612.23 216.669C614.187 216.939 616.212 216.619 618.186 216.821C620.135 217.023 622.261 217.167 623.931 218.052C627.062 219.704 629.997 219.645 633.111 218.305C637.337 216.492 641.716 216.602 646.069 217.622C651.106 218.794 653.629 221.618 654.118 226.735C654.321 228.842 655.417 229.348 657.164 229.348C657.653 229.348 658.176 229.314 658.64 229.163C663.036 227.721 666.807 229.104 670.038 231.995C673.033 234.676 676.188 237.348 678.517 240.569C682.744 246.411 683.689 248.889 680.449 255.734C682.55 255.431 684.6 255.001 686.658 254.874C688.852 254.731 691.062 254.748 693.256 254.908C696.386 255.136 698.588 257.682 698.748 261.189C698.984 266.28 696.361 269.787 692.252 272.367C691.122 273.075 689.89 273.69 688.633 274.137C685.84 275.124 684.878 277.416 684.254 279.954C684.144 280.392 684.414 281.143 684.769 281.429C686.836 283.065 687.772 285.324 688.54 287.71C689.451 290.525 691.13 292.017 694.344 291.891C696.799 291.798 699.314 292.144 701.735 292.633C706.029 293.501 709.024 296.106 711.184 299.925C712.196 301.712 713.588 303.406 715.166 304.721C719.393 308.262 719.764 312.882 718.988 317.721C718.575 320.267 717.587 322.779 716.482 325.131C715.529 327.154 715.681 328.823 716.972 330.467C717.933 331.698 719.047 332.802 720.034 334.008C723.173 337.826 724.725 342.1 723.502 347.049C722.413 351.449 719.57 353.439 715.073 353.017C713.453 352.866 711.851 352.486 710.239 352.276C707.05 351.854 704.671 353.582 704.114 356.752C703.971 357.586 703.886 358.446 703.895 359.289C703.937 363.378 702.165 366.472 698.554 368.284C695.66 369.743 692.589 370.864 689.578 372.095C688.27 372.626 686.844 372.921 685.604 373.57C682.811 375.037 682.356 376.799 683.857 379.538C686.059 383.551 686.009 386.578 683.588 389.41C683.056 390.034 682.356 390.7 681.613 390.936C679.555 391.585 678.863 392.925 679.015 394.949C679.074 395.792 679.006 396.651 678.93 397.503C678.509 402.409 675.421 405.444 670.578 405.747C666.124 406.034 662.631 403.109 661.686 398.312C661.635 398.059 661.585 397.815 661.492 397.393C660.235 398.236 659.172 399.062 658.016 399.703C652.928 402.527 648.28 401.339 645.125 396.474C643.699 394.274 642.492 394.19 641.32 396.601C640.29 398.734 639.32 401.086 639.16 403.404C638.721 409.71 636.064 414.439 630.293 417.094C627.534 418.359 626.353 420.348 626.193 423.198C625.914 428.18 623.805 432.319 620.396 435.885C619.857 436.45 619.443 437.124 618.92 437.697C617.604 439.147 617.283 440.387 618.549 442.292C621.325 446.448 620.7 450.284 617.157 453.79C616.499 454.44 615.832 455.114 615.039 455.569C608.653 459.262 607.421 466.722 602.561 471.671C603.742 472.623 604.468 473.272 605.261 473.846C608.931 476.484 610.112 480 608.931 484.307C608.374 486.356 607.708 488.379 606.999 490.377C605.43 494.828 606.552 498.065 610.61 500.51C611.099 500.805 611.58 501.117 612.103 501.319C616.254 502.963 618.81 505.897 619.713 510.314C620.253 512.97 621.848 515.001 624.252 516.173C629.947 518.947 631.946 523.372 630.588 529.45C630.453 530.074 630.478 530.732 630.318 531.339C629.5 534.466 629.795 537.316 631.28 540.342C633.912 545.729 632.731 551.09 629.618 555.921C627.121 559.782 625.02 563.862 622.666 567.757C617.545 576.237 610.382 580.174 601.785 578.488C600.891 578.311 599.617 578.749 598.875 579.348C594.327 583.032 589.349 583.403 584.043 581.523C581.866 580.756 580.449 581.219 579.124 583.31C577.977 585.114 576.281 586.682 574.551 587.997C570.358 591.192 565.887 591.293 561.5 588.385C560.319 587.609 559.458 587.593 558.226 588.191C555.619 589.447 552.996 590.821 550.22 591.572C544.289 593.165 537.531 588.082 537.227 581.919C537.084 578.952 537.194 575.951 537.438 572.992C537.675 570.201 537.362 567.639 535.776 565.278C534.03 562.69 532.41 560.018 530.562 557.506C528.681 554.96 527.027 554.446 524.294 555.879C520.464 557.885 517.03 557.632 513.951 554.656C510.669 551.478 509.108 547.701 510.618 543.099C510.685 542.896 510.728 542.686 510.795 542.483C512.035 538.799 511.926 538.302 508.062 537.282C505.345 536.565 502.451 536.582 499.667 536.076C496.976 535.587 494.318 534.913 491.678 534.205C489.695 533.674 487.78 532.915 485.814 532.325C479.883 530.538 475.538 527.292 474.619 520.658C474.534 520.034 473.505 519.098 472.872 519.073C468.704 518.862 465.929 516.822 463.28 513.627C461.196 511.115 458.057 509.252 455.045 507.836C453.451 507.085 450.895 507.372 449.148 508.089C441.985 511.048 435.287 509.446 428.841 506.285C424.901 504.354 423.264 499.743 424.462 494.82C425.255 491.582 425.576 488.506 424.699 485.226C423.897 482.225 424.825 479.342 426.082 476.569C427.103 474.309 428.191 472.067 428.976 469.723C430.022 466.57 429.761 465.77 427.027 464.033C424.699 462.558 422.21 461.319 419.729 460.113C413.081 456.884 411.132 452.762 413.022 445.563C413.402 444.13 413.798 442.671 414.389 441.314C417.266 434.637 419.468 427.826 419.966 420.483C420.244 416.294 422.227 412.803 425.542 410.081C428.039 408.04 430.419 405.815 430.419 402.232C430.419 401.229 430.225 400.082 429.71 399.256C428.082 396.651 420.573 396.087 419.282 399.964C418.143 403.387 416.633 406.683 415.443 410.089C413.781 414.844 411.309 418.941 406.872 421.613C404.788 422.869 404.003 424.858 403.809 427.16C403.708 428.365 403.607 429.571 403.598 430.776C403.581 437.63 400.038 442.359 394.25 445.394C389.492 447.898 384.565 450.157 379.537 452.054C374.399 453.993 369.48 456.218 364.899 459.278C359.711 462.743 353.974 464.851 347.654 464.396C344.575 464.176 341.344 463.713 338.543 462.507C331.27 459.388 323.728 458.334 315.924 458.157C312.667 458.081 309.411 457.651 306.188 457.188C297.262 455.906 291.162 449.145 290.529 440.033C290.47 439.131 290.2 438.22 289.93 437.343C287.923 430.793 289.871 425.415 295.651 421.739C298.755 419.767 301.877 417.828 305.108 415.805C304.104 413.486 302.991 410.932 301.793 408.159C300.215 407.99 298.3 407.897 296.427 407.552C290.302 406.405 287.307 401.33 289.129 395.345C289.272 394.873 289.348 394.325 289.644 393.962C292.175 390.852 292.504 387.125 293.027 383.332C293.66 378.746 296.444 375.146 299.54 371.842C301.43 369.827 303.362 367.863 305.37 365.772C305.066 365.342 304.678 364.794 304.189 364.111C303.876 364.879 303.665 365.477 303.395 366.042C301.852 369.212 298.258 370.662 294.959 369.431C292.47 368.495 290.555 366.826 289.281 364.508C288.462 363.024 287.594 361.49 287.18 359.871C285.282 352.377 279.385 348.533 273.538 344.613C272.391 343.845 271.437 343.921 270.087 344.68C268.164 345.768 265.894 346.273 263.751 346.948C261.954 347.513 260.048 347.791 258.31 348.49C251.02 351.441 244.094 351.298 237.538 346.543C234.662 344.461 231.624 342.859 227.853 343.904C225.727 344.495 223.93 345.515 222.69 347.386C222.217 348.094 221.703 348.777 221.171 349.443C218.041 353.338 213.401 354.096 209.233 351.306C205.277 348.651 202.956 344.832 202.67 340.145C202.4 335.702 202.518 331.209 202.864 326.766C203.285 321.303 203.1 316.009 200.906 310.901C198.628 305.607 194.731 302.74 188.884 302.707C186.539 302.69 184.176 302.85 181.856 302.606C179.916 302.403 177.899 301.999 176.128 301.215C172.255 299.486 171.192 296.755 172.432 292.717C172.567 292.27 172.66 291.807 172.947 290.66C171.243 291.554 169.901 292.009 168.864 292.844C163.591 297.084 157.972 297.168 151.602 295.482C146.085 294.024 141.284 291.807 136.956 288.173C133.548 285.315 131.793 281.868 131.843 277.459C131.869 275.258 131.793 273.058 131.911 270.858C132.105 267.267 131.253 264.013 129.38 260.927C128.426 259.368 127.709 257.631 127.11 255.903C124.824 249.26 125.803 244.758 130.519 239.726C129.852 237.424 128.561 235.957 125.955 235.721C124.352 235.578 122.757 235.055 121.213 234.55C117.703 233.386 115.645 231.211 115.004 227.283C114.43 223.759 112.996 220.353 111.705 216.99C110.836 214.714 109.233 214.107 106.879 214.756C106.061 214.983 105.234 215.253 104.492 215.649C100.197 217.942 95.633 218.929 90.7566 218.836C87.1963 218.768 84.2181 220.379 82.0667 223.102C80.2782 225.369 78.5993 227.822 77.4013 230.436C74.9799 235.73 64.7124 239.178 59.4985 234.541C57.305 232.594 54.8921 231.152 51.8802 230.596C49.113 230.09 46.9953 228.261 45.6961 225.757C43.2494 221.045 40.0266 216.973 36.2301 213.264C34.8549 211.923 33.9944 210.018 32.9988 208.307C32.1805 206.899 31.6236 205.339 30.7715 203.965C29.7085 202.254 28.1899 201.31 26.0385 201.209C23.9969 201.116 21.9299 200.804 19.9641 200.239C13.316 198.342 9.93286 193.588 9.56165 185.874C9.51946 184.955 9.46884 184.011 9.62914 183.109C10.3463 179.122 9.93286 175.227 8.97951 171.316C7.95867 167.117 8.80234 163.299 11.8311 160.061C12.4133 159.438 12.9195 158.755 13.451 158.089C15.2649 155.829 15.4083 153.435 13.9487 150.974C12.2867 148.167 10.5572 145.401 8.8614 142.611C5.64701 137.309 3.00632 131.719 1.66488 125.658C0.64404 121.03 0.829648 116.377 4.27183 112.625C5.34329 111.462 6.96314 110.206 8.41425 110.105C14.2946 109.675 19.6941 107.668 24.8068 105.131C32.8638 101.127 40.6762 96.6251 48.5055 92.1908C56.4613 87.6808 64.1387 82.6396 72.2717 78.4751C82.1342 73.4255 90.2841 66.1588 98.8389 59.3979C104.77 54.7192 110.608 49.973 118.227 48.287C120.369 47.8149 122.521 47.3344 124.697 47.0225C129.92 46.2807 134.594 44.1141 139.251 41.8043C143.393 39.7474 147.628 37.9349 152.361 37.6989C157.542 37.4459 162.907 41.4502 163.903 46.5336C164.131 47.7138 163.869 49.0879 163.498 50.2681C161.001 58.2514 163.97 64.8015 169.1 70.5593C170.247 71.8406 172.635 72.3296 174.525 72.5656C177.174 72.8944 179.899 72.6499 182.734 72.6499L182.717 72.6752Z" fill="url(#paint0_linear_151_35)" stroke="url(#paint1_linear_151_35)" stroke-width="5" stroke-miterlimit="10"/>
</g>
<path d="M183.465 72.6752C183.718 70.8375 183.844 69.2105 184.181 67.6341C184.687 65.2399 185.816 63.1155 188.191 62.2051C193.912 60.0048 199.852 58.5886 206.011 59.1197C207.974 59.2883 210.072 60.0891 211.723 61.185C215.86 63.9333 220.392 64.8015 225.203 65.1219C228.228 65.3242 231.244 65.8975 234.243 66.4286C238.633 67.1957 241.177 69.9945 242.399 74.1589C243.991 79.5963 244.775 80.0768 250.419 78.9472C253.773 78.2812 256.915 78.1716 259.881 80.5405C262.113 82.3192 264.961 82.4457 267.598 81.4172C270.084 80.4393 272.594 79.3181 274.785 77.8092C279.562 74.5214 284.659 72.0177 290.161 70.2052C292.705 69.3622 295.182 68.2495 297.575 67.0271C301.754 64.8943 304.643 61.5391 306.75 57.3072C308.409 53.9605 310.271 50.639 312.563 47.7054C317.374 41.543 324.088 39.4355 331.663 40.1436C333.533 40.3206 335.344 41.4755 337.122 42.3101C338.984 43.1868 340.846 44.5525 342.885 43.2374C344.907 41.9308 343.946 39.8232 343.803 37.9602C343.466 33.526 343.028 29.0833 342.969 24.6491C342.952 23.039 343.559 21.2012 344.46 19.844C349.735 11.8691 356.938 6.9628 366.787 6.81106C371.48 6.73518 375.33 8.69096 377.36 13.0325C380.41 19.5489 386.165 21.589 392.509 22.4067C395.23 22.7608 398.196 22.3477 400.883 21.6311C405.5 20.4003 408.668 17.4077 409.755 12.5351C409.94 11.7089 410.269 10.9165 410.48 10.0904C412.982 0.134436 422.747 0.791982 427.928 5.0576C431.5 7.9997 433.472 12.0799 434.727 16.3961C435.485 19.0009 434.154 21.4119 432.52 23.4605C430.953 25.4247 429.259 27.2877 427.195 29.6903C430.363 29.6903 432.932 29.7324 435.502 29.6819C437.903 29.6313 440.313 29.3446 442.706 29.429C445.351 29.5217 447.449 28.704 448.965 26.5543C449.985 25.1128 451.004 23.6459 451.822 22.0864C452.706 20.4003 453.397 18.6047 454.105 16.826C457.441 8.45492 463.212 6.40641 470.862 11.3127C473.533 13.024 475.858 15.494 477.821 18.0315C480.197 21.1169 480.913 24.7924 479.776 28.7124C479.262 30.4743 478.993 32.312 478.782 34.1414C478.597 35.7515 479.195 37.1846 480.779 37.7832C486.28 39.8738 488.066 44.2996 488.513 49.6696C488.749 52.5189 489.372 53.0837 492.178 53.2776C499.516 53.775 503.813 57.2061 505.995 64.262C506.492 65.8806 506.955 67.5329 507.604 69.0925C508.539 71.3686 510.267 72.4729 512.802 72.2875C517.689 71.925 522.306 70.6099 526.51 68.123C530.453 65.7879 534.472 64.4812 539.064 65.8132C539.645 65.9818 540.428 65.6867 541.043 65.4338C542.417 64.869 543.706 64.0934 545.096 63.5792C550.387 61.615 554.364 62.4664 557.767 66.9596C560.362 70.3823 562.78 74.0746 564.482 78.003C566.723 83.1623 570.177 86.2392 575.62 87.4447C580.523 88.5322 585.326 89.645 590.474 89.4679C596.927 89.2403 602.302 92.4606 607.256 96.3385C608.764 97.5187 610.273 98.6905 611.806 99.8369C616.591 103.394 617.762 108.343 616.886 113.848C616.229 117.962 615.235 122.042 614.081 126.046C613.525 127.968 612.598 130 611.258 131.424C608.697 134.156 607.383 137.292 606.81 140.866C606.237 144.424 604.948 147.652 602.85 150.62C601.123 153.056 600.002 155.526 601.991 158.654C602.808 159.935 602.783 162.203 602.328 163.787C600.702 169.393 598.73 175.033 593.903 178.726C588.848 182.603 587.331 187.83 586.851 193.723C586.733 195.198 586.396 196.665 586.126 198.132C585.545 201.318 585.191 204.42 587.71 207.118C588.317 207.767 588.679 208.964 588.603 209.866C588.342 213.044 590.735 214.048 592.816 215.219C593.347 215.523 594.408 215.194 595.091 214.874C596.674 214.115 598.098 212.969 599.733 212.362C603.642 210.92 606.422 211.915 609.194 215.059C609.936 215.902 611.258 216.518 612.387 216.669C614.342 216.939 616.364 216.619 618.335 216.821C620.282 217.023 622.405 217.167 624.073 218.052C627.199 219.704 630.131 219.645 633.239 218.305C637.46 216.492 641.833 216.602 646.18 217.622C651.21 218.794 653.729 221.618 654.218 226.735C654.42 228.842 655.515 229.348 657.259 229.348C657.748 229.348 658.27 229.314 658.734 229.163C663.123 227.721 666.889 229.104 670.116 231.995C673.107 234.676 676.258 237.348 678.583 240.569C682.804 246.411 683.748 248.889 680.513 255.734C682.611 255.431 684.658 255.001 686.714 254.874C688.904 254.731 691.111 254.748 693.302 254.908C696.428 255.136 698.627 257.682 698.787 261.189C699.023 266.28 696.402 269.787 692.299 272.367C691.17 273.075 689.94 273.69 688.685 274.137C685.896 275.124 684.936 277.417 684.312 279.954C684.203 280.392 684.473 281.143 684.826 281.429C686.891 283.065 687.826 285.324 688.592 287.71C689.502 290.525 691.179 292.017 694.389 291.891C696.841 291.798 699.351 292.144 701.769 292.633C706.058 293.501 709.049 296.106 711.205 299.925C712.216 301.712 713.607 303.406 715.182 304.722C719.403 308.262 719.774 312.882 718.999 317.721C718.586 320.267 717.6 322.779 716.496 325.131C715.544 327.154 715.696 328.823 716.985 330.467C717.945 331.698 719.058 332.802 720.043 334.008C723.177 337.826 724.728 342.1 723.506 347.049C722.419 351.449 719.58 353.439 715.089 353.017C713.472 352.866 711.871 352.486 710.262 352.276C707.077 351.854 704.701 353.582 704.145 356.752C704.002 357.587 703.918 358.446 703.926 359.289C703.968 363.378 702.199 366.472 698.593 368.284C695.703 369.743 692.636 370.864 689.629 372.095C688.323 372.626 686.899 372.921 685.66 373.57C682.872 375.037 682.417 376.799 683.916 379.538C686.115 383.551 686.065 386.578 683.647 389.41C683.116 390.034 682.417 390.7 681.675 390.936C679.62 391.585 678.929 392.925 679.08 394.949C679.139 395.792 679.072 396.652 678.996 397.503C678.575 402.409 675.491 405.444 670.655 405.748C666.207 406.034 662.719 403.109 661.775 398.312C661.725 398.059 661.674 397.815 661.581 397.393C660.326 398.236 659.265 399.063 658.11 399.703C653.03 402.527 648.388 401.339 645.237 396.474C643.813 394.274 642.608 394.19 641.437 396.601C640.409 398.734 639.44 401.086 639.28 403.404C638.842 409.71 636.188 414.439 630.425 417.094C627.67 418.359 626.491 420.348 626.331 423.198C626.053 428.18 623.946 432.319 620.543 435.885C620.004 436.45 619.591 437.124 619.068 437.698C617.754 439.148 617.434 440.387 618.698 442.292C621.47 446.448 620.846 450.284 617.308 453.791C616.65 454.44 615.985 455.114 615.193 455.569C608.815 459.262 607.585 466.722 602.732 471.671C603.912 472.623 604.636 473.272 605.428 473.846C609.093 476.484 610.273 480 609.093 484.307C608.537 486.356 607.871 488.379 607.164 490.377C605.597 494.828 606.717 498.065 610.77 500.51C611.258 500.805 611.739 501.117 612.261 501.319C616.406 502.963 618.959 505.897 619.86 510.314C620.4 512.97 621.992 515.001 624.393 516.173C630.08 518.947 632.077 523.372 630.72 529.45C630.585 530.074 630.611 530.732 630.451 531.339C629.633 534.466 629.928 537.316 631.411 540.342C634.04 545.729 632.86 551.09 629.751 555.921C627.258 559.782 625.16 563.862 622.809 567.757C617.695 576.237 610.542 580.174 601.957 578.488C601.064 578.311 599.792 578.75 599.05 579.348C594.509 583.032 589.538 583.403 584.239 581.523C582.065 580.756 580.65 581.22 579.327 583.31C578.181 585.114 576.488 586.682 574.761 587.997C570.573 591.192 566.108 591.294 561.727 588.385C560.548 587.61 559.688 587.593 558.458 588.191C555.855 589.447 553.235 590.821 550.463 591.572C544.54 593.165 537.791 588.082 537.488 581.919C537.345 578.952 537.454 575.951 537.699 572.992C537.935 570.201 537.623 567.639 536.039 565.278C534.295 562.69 532.677 560.018 530.832 557.506C528.953 554.96 527.302 554.446 524.572 555.879C520.747 557.885 517.318 557.632 514.243 554.656C510.966 551.478 509.407 547.702 510.915 543.099C510.983 542.896 511.025 542.686 511.092 542.483C512.331 538.799 512.221 538.302 508.362 537.282C505.65 536.565 502.76 536.582 499.979 536.076C497.292 535.588 494.638 534.913 492.001 534.205C490.021 533.674 488.109 532.915 486.145 532.325C480.223 530.538 475.884 527.292 474.965 520.658C474.881 520.034 473.853 519.098 473.221 519.073C469.059 518.862 466.287 516.822 463.642 513.627C461.561 511.115 458.427 509.252 455.419 507.836C453.827 507.085 451.274 507.372 449.53 508.089C442.377 511.048 435.687 509.446 429.251 506.285C425.316 504.354 423.682 499.743 424.878 494.82C425.67 491.583 425.99 488.506 425.114 485.226C424.314 482.225 425.24 479.342 426.496 476.569C427.515 474.309 428.602 472.067 429.385 469.723C430.43 466.571 430.169 465.77 427.439 464.033C425.114 462.558 422.629 461.319 420.152 460.113C413.513 456.884 411.566 452.762 413.454 445.563C413.833 444.13 414.229 442.671 414.818 441.314C417.691 434.637 419.89 427.826 420.387 420.483C420.666 416.294 422.645 412.804 425.956 410.081C428.45 408.041 430.826 405.815 430.826 402.232C430.826 401.229 430.632 400.083 430.118 399.256C428.492 396.651 420.994 396.087 419.705 399.965C418.568 403.387 417.06 406.683 415.872 410.089C414.212 414.844 411.743 418.941 407.312 421.613C405.231 422.869 404.447 424.859 404.253 427.16C404.152 428.365 404.051 429.571 404.043 430.776C404.026 437.63 400.487 442.359 394.708 445.394C389.956 447.898 385.036 450.157 380.014 452.054C374.883 453.993 369.972 456.218 365.397 459.279C360.215 462.743 354.486 464.851 348.176 464.396C345.101 464.176 341.874 463.713 339.077 462.507C331.814 459.388 324.282 458.334 316.489 458.157C313.237 458.081 309.985 457.652 306.766 457.188C297.853 455.907 291.761 449.146 291.129 440.033C291.07 439.131 290.801 438.22 290.531 437.343C288.526 430.793 290.472 425.415 296.244 421.739C299.344 419.767 302.461 417.828 305.688 415.805C304.685 413.486 303.573 410.932 302.377 408.159C300.801 407.99 298.889 407.897 297.019 407.552C290.902 406.405 287.911 401.33 289.731 395.345C289.874 394.873 289.95 394.325 290.245 393.962C292.772 390.852 293.101 387.126 293.623 383.332C294.255 378.746 297.035 375.146 300.127 371.842C302.015 369.827 303.944 367.863 305.949 365.772C305.646 365.342 305.258 364.794 304.77 364.111C304.458 364.879 304.247 365.477 303.978 366.042C302.436 369.212 298.847 370.662 295.553 369.431C293.067 368.495 291.155 366.826 289.883 364.508C289.065 363.024 288.198 361.49 287.785 359.871C285.889 352.377 280 348.533 274.161 344.613C273.015 343.846 272.063 343.921 270.715 344.68C268.795 345.768 266.528 346.273 264.388 346.948C262.594 347.513 260.69 347.791 258.954 348.49C251.675 351.441 244.758 351.298 238.211 346.543C235.338 344.461 232.305 342.859 228.539 343.905C226.416 344.495 224.622 345.515 223.383 347.386C222.911 348.094 222.397 348.777 221.867 349.443C218.741 353.338 214.107 354.096 209.945 351.306C205.994 348.651 203.677 344.832 203.39 340.145C203.121 335.702 203.239 331.209 203.584 326.766C204.005 321.303 203.82 316.009 201.63 310.901C199.355 305.607 195.462 302.74 189.624 302.707C187.282 302.69 184.923 302.85 182.606 302.606C180.668 302.403 178.654 301.999 176.885 301.215C173.018 299.486 171.956 296.755 173.195 292.717C173.33 292.27 173.422 291.807 173.709 290.66C172.007 291.554 170.667 292.009 169.631 292.844C164.365 297.084 158.754 297.168 152.393 295.482C146.883 294.024 142.089 291.807 137.767 288.173C134.363 285.315 132.611 281.868 132.662 277.459C132.687 275.258 132.611 273.058 132.729 270.858C132.923 267.267 132.072 264.013 130.201 260.927C129.249 259.368 128.533 257.631 127.935 255.903C125.652 249.26 126.629 244.758 131.339 239.726C130.673 237.424 129.384 235.957 126.781 235.721C125.18 235.578 123.588 235.055 122.046 234.55C118.541 233.386 116.485 231.211 115.845 227.283C115.272 223.759 113.84 220.353 112.551 216.99C111.683 214.714 110.082 214.107 107.732 214.756C106.914 214.983 106.089 215.253 105.347 215.649C101.059 217.942 96.501 218.929 91.6313 218.836C88.0759 218.768 85.1019 220.379 82.9535 223.102C81.1673 225.369 79.4907 227.822 78.2944 230.436C75.8764 235.73 65.623 239.178 60.4163 234.541C58.2258 232.594 55.8162 231.152 52.8084 230.596C50.045 230.09 47.9303 228.261 46.6328 225.757C44.1895 221.045 40.9712 216.973 37.1799 213.264C35.8066 211.923 34.9472 210.018 33.953 208.307C33.1358 206.899 32.5797 205.339 31.7288 203.965C30.6672 202.254 29.1507 201.31 27.0023 201.209C24.9634 201.116 22.8993 200.804 20.9362 200.239C14.2973 198.342 10.9188 193.588 10.5481 185.874C10.506 184.955 10.4554 184.011 10.6155 183.109C11.3316 179.122 10.9188 175.227 9.96675 171.316C8.94731 167.117 9.78982 163.299 12.8144 160.061C13.3958 159.438 13.9013 158.755 14.4321 158.089C16.2435 155.83 16.3867 153.435 14.9291 150.974C13.2694 148.167 11.5422 145.402 9.8488 142.611C6.63883 137.309 4.00177 131.719 2.66218 125.658C1.64274 121.03 1.8281 116.377 5.26554 112.625C6.33553 111.462 7.95315 110.206 9.40227 110.105C15.2746 109.675 20.6666 107.668 25.7723 105.131C33.8182 101.127 41.6199 96.6251 49.4384 92.1909C57.3833 87.6808 65.0501 82.6396 73.1719 78.4751C83.0209 73.4255 91.1595 66.1588 99.7026 59.3979C105.625 54.7192 111.456 49.973 119.063 48.287C121.203 47.8149 123.352 47.3344 125.526 47.0225C130.741 46.2807 135.408 44.1141 140.059 41.8043C144.196 39.7474 148.425 37.9349 153.151 37.6989C158.324 37.446 163.683 41.4502 164.677 46.5336C164.905 47.7138 164.643 49.0879 164.273 50.2681C161.779 58.2514 164.744 64.8015 169.867 70.5593C171.013 71.8407 173.397 72.3296 175.284 72.5656C177.93 72.8944 180.651 72.6499 183.482 72.6499L183.465 72.6752Z" stroke="white" stroke-width="5" stroke-miterlimit="10"/>
</g>
<defs>
<linearGradient id="paint0_linear_151_35" x1="362.521" y1="2.11133" x2="362.521" y2="591.867" gradientUnits="userSpaceOnUse">
<stop offset="0.463542" stop-color="#FF5C00" stop-opacity="0"/>
<stop offset="0.463642" stop-color="#FF5C00"/>
</linearGradient>
<linearGradient id="paint1_linear_151_35" x1="677.999" y1="200" x2="0.999024" y2="203.5" gradientUnits="userSpaceOnUse">
<stop offset="0.484375" stop-color="#FF5C00"/>
<stop offset="0.506204" stop-color="#FF5C00" stop-opacity="0"/>
</linearGradient>
<clipPath id="clip0_151_35">
<rect width="726" height="594" fill="white"/>
</clipPath>
<clipPath id="clip1_151_35">
<rect width="727" height="594" fill="white" transform="translate(-1.00098)"/>
</clipPath>
</defs>
</svg>
