<svg width="615" height="465" viewBox="0 0 615 465" fill="none" xmlns="http://www.w3.org/2000/svg">
<path d="M65.6 235.248C84.8 235.248 95.04 247.664 95.04 265.072C95.04 284.784 79.424 295.792 62.528 295.792C43.968 295.792 33.216 287.344 31.424 270.192L31.296 268.912H45.376L45.504 270.192C47.296 279.28 52.288 285.04 62.144 285.04C73.024 285.04 79.808 277.744 79.808 265.712C79.808 253.808 73.408 246 62.528 246C54.976 246 49.728 249.2 45.888 257.392H32.704L38.976 205.68H91.328V216.816H50.368L46.784 244.848L51.776 238.832C55.872 236.4 60.352 235.248 65.6 235.248ZM153.483 247.152C164.875 249.968 171.531 257.392 171.531 269.04C171.531 285.552 156.939 295.792 138.507 295.792C120.331 295.792 108.299 287.344 106.379 268.656L106.251 267.376H120.331L120.459 268.656C121.739 279.536 129.163 285.04 139.147 285.04C149.259 285.04 156.299 279.152 156.299 269.68C156.299 259.952 150.027 254.576 136.971 254.448H134.411V244.08L136.971 243.952C146.955 243.824 154.251 238.064 154.251 228.208C154.251 220.144 148.747 214.64 140.171 214.64C131.467 214.64 125.067 220.272 124.043 230.384L123.915 231.664H109.963L110.091 230.384C111.627 214.64 122.635 203.888 141.707 203.888C159.371 203.888 169.483 213.488 169.483 226.544C169.483 236.784 163.467 244.336 153.483 247.152ZM202.07 204.272C213.846 204.272 221.398 212.08 221.398 224.88C221.398 237.68 213.846 245.616 202.07 245.616C190.166 245.616 182.742 237.68 182.742 224.88C182.742 212.08 190.166 204.272 202.07 204.272ZM191.19 294L248.534 205.68H260.822L203.478 294H191.19ZM194.262 224.88C194.262 232.816 197.206 237.168 202.07 237.168C206.806 237.168 209.878 232.816 209.878 224.88C209.878 216.944 206.806 212.72 202.07 212.72C197.206 212.72 194.262 216.944 194.262 224.88ZM230.23 275.056C230.23 262.256 237.782 254.448 249.558 254.448C261.462 254.448 268.886 262.256 268.886 275.056C268.886 287.856 261.462 295.792 249.558 295.792C237.782 295.792 230.23 287.856 230.23 275.056ZM241.75 275.056C241.75 282.992 244.822 287.344 249.558 287.344C254.422 287.344 257.366 282.992 257.366 275.056C257.366 267.12 254.422 262.896 249.558 262.896C244.822 262.896 241.75 267.12 241.75 275.056Z" fill="white"/>
<g clip-path="url(#clip0_307_7)">
<path d="M249.822 365.366C249.822 365.366 284.31 381.167 234.765 382.221C185.22 383.275 20.7726 382.221 20.7726 382.221C20.7726 382.221 -16.1241 383.275 9.17881 365.366C34.4818 347.458 1.79697 349.565 21.8272 360.097C41.8574 370.629 256.904 373.46 245.304 352.034C233.704 330.609 223.165 330.603 233.71 330.603C244.256 330.603 265.334 351.673 210.517 351.673C155.699 351.673 -10.8576 365.366 22.8755 330.603C46.0693 316.91 130.396 327.441 138.832 322.179C147.269 316.916 80.857 315.856 58.7177 316.91C36.5784 317.963 33.421 334.818 123.02 332.71C212.619 330.603 252.68 328.813 195.759 316.542C175.729 310.587 181.002 159.599 186.274 146.96C191.547 134.32 187.329 95.3418 289.583 140.637C391.837 185.932 468.788 229.126 486.709 229.126C504.63 229.126 495.139 213.325 463.515 202.793C431.891 192.261 325.419 134.32 302.231 130.105C279.044 125.89 231.601 94.288 224.226 98.5032C216.85 102.718 220.008 131.159 212.632 132.213C205.256 133.266 135.681 94.5748 129.354 98.1166C123.026 101.658 118.814 108.168 124.081 113.868C129.347 119.567 120.917 117.996 115.651 125.104C110.384 132.213 96.6752 145.906 128.299 163.814C159.923 181.723 199.984 199.631 206.305 165.922C212.626 132.213 189.438 157.498 213.686 146.96C237.935 136.422 140.598 122.379 130.059 106.927C119.52 91.4757 139.194 50.0405 156.061 52.8527C172.927 55.665 225.636 88.6697 234.771 85.1591C243.906 81.6485 240.156 60.5786 248.006 59.1756C255.856 57.7726 253.747 27.5738 222.123 16.3373C190.499 5.10088 170.818 -8.94158 160.279 8.6115C149.74 26.1646 155.362 36.7027 158.875 33.192C162.388 29.6814 142.314 32.5061 144.823 43.7239C147.331 54.9416 239.719 87.9963 235.476 93.5833C231.233 99.1704 216.501 124.48 221.424 127.997C226.347 131.514 255.157 130.105 274.832 148.363C294.506 166.62 385.871 197.524 405.546 205.948" stroke="white" stroke-width="3" stroke-miterlimit="10"/>
</g>
<path d="M18.96 420.208C28.416 420.208 33.264 425.248 33.936 431.776L33.984 432.256H25.344L25.248 431.776C24.528 428.224 22.368 426.544 18.864 426.544C14.736 426.544 11.616 430 11.616 437.152C11.616 445.504 15.072 448.336 18.912 448.336C22.272 448.336 24.432 446.272 25.152 442.624L25.248 442.144H33.888L33.84 442.624C33.024 450.592 26.928 454.672 18.624 454.672C9.744 454.672 2.592 448.912 2.592 437.68C2.592 426.16 9.984 420.208 18.96 420.208ZM64.482 454H39.09V420.88H47.73V446.704H64.482V454ZM77.5346 445.408L74.7506 454H65.5826L77.5346 420.88H88.0946L100.047 454H90.6386L87.8546 445.408H77.5346ZM79.6466 438.688H85.7906L82.7186 428.512L79.6466 438.688ZM114.222 420.208C122.958 420.208 126.606 424.96 127.326 431.104H118.686C118.302 428.368 116.862 426.544 114.03 426.544C112.062 426.544 110.718 427.504 110.718 429.52C110.718 431.632 112.254 432.928 117.726 434.224C125.022 435.952 127.998 439.6 127.998 444.688C127.998 451.312 121.662 454.672 114.99 454.672C106.59 454.672 100.926 451.312 100.398 443.872H109.038C109.614 446.992 112.158 448.336 114.75 448.336C117.15 448.336 118.974 447.088 118.974 445.264C118.974 443.536 117.726 442.048 113.646 441.04C106.11 439.168 101.694 436.816 101.694 430.192C101.694 423.808 107.646 420.208 114.222 420.208ZM144.269 420.208C153.005 420.208 156.653 424.96 157.373 431.104H148.733C148.349 428.368 146.909 426.544 144.077 426.544C142.109 426.544 140.765 427.504 140.765 429.52C140.765 431.632 142.301 432.928 147.773 434.224C155.069 435.952 158.045 439.6 158.045 444.688C158.045 451.312 151.709 454.672 145.037 454.672C136.637 454.672 130.973 451.312 130.445 443.872H139.085C139.661 446.992 142.205 448.336 144.797 448.336C147.197 448.336 149.021 447.088 149.021 445.264C149.021 443.536 147.773 442.048 143.693 441.04C136.157 439.168 131.741 436.816 131.741 430.192C131.741 423.808 137.693 420.208 144.269 420.208ZM172.587 418.72L176.955 412.72H184.635L177.195 418.72H172.587ZM162.699 454V420.88H187.611V427.6H171.339V434.032H186.651V440.752H171.339V447.28H188.091V454H162.699ZM213.409 420.208C222.145 420.208 225.793 424.96 226.513 431.104H217.873C217.489 428.368 216.049 426.544 213.217 426.544C211.249 426.544 209.905 427.504 209.905 429.52C209.905 431.632 211.441 432.928 216.913 434.224C224.209 435.952 227.185 439.6 227.185 444.688C227.185 451.312 220.849 454.672 214.177 454.672C205.777 454.672 200.113 451.312 199.585 443.872H208.225C208.801 446.992 211.345 448.336 213.937 448.336C216.337 448.336 218.161 447.088 218.161 445.264C218.161 443.536 216.913 442.048 212.833 441.04C205.297 439.168 200.881 436.816 200.881 430.192C200.881 423.808 206.833 420.208 213.409 420.208ZM239.582 445.408L236.798 454H227.63L239.582 420.88H250.142L262.094 454H252.686L249.902 445.408H239.582ZM241.694 438.688H247.838L244.766 428.512L241.694 438.688ZM273.567 432.112C273.855 435.472 273.855 438.4 273.855 440.32V454H265.215V420.88H275.967L288.543 443.728C288.303 440.368 288.255 436.96 288.255 435.04V420.88H296.895V454H285.615L273.567 432.112ZM314.94 420.208C323.676 420.208 327.324 424.96 328.044 431.104H319.404C319.02 428.368 317.58 426.544 314.748 426.544C312.78 426.544 311.436 427.504 311.436 429.52C311.436 431.632 312.972 432.928 318.444 434.224C325.74 435.952 328.716 439.6 328.716 444.688C328.716 451.312 322.38 454.672 315.708 454.672C307.308 454.672 301.644 451.312 301.116 443.872H309.756C310.332 446.992 312.876 448.336 315.468 448.336C317.868 448.336 319.692 447.088 319.692 445.264C319.692 443.536 318.444 442.048 314.364 441.04C306.828 439.168 302.412 436.816 302.412 430.192C302.412 423.808 308.364 420.208 314.94 420.208ZM353.425 420.208C362.161 420.208 365.809 424.96 366.529 431.104H357.889C357.505 428.368 356.065 426.544 353.233 426.544C351.265 426.544 349.921 427.504 349.921 429.52C349.921 431.632 351.457 432.928 356.929 434.224C364.225 435.952 367.201 439.6 367.201 444.688C367.201 451.312 360.865 454.672 354.193 454.672C345.793 454.672 340.129 451.312 339.601 443.872H348.241C348.817 446.992 351.361 448.336 353.953 448.336C356.353 448.336 358.177 447.088 358.177 445.264C358.177 443.536 356.929 442.048 352.849 441.04C345.313 439.168 340.897 436.816 340.897 430.192C340.897 423.808 346.849 420.208 353.425 420.208ZM400.656 439.456C400.656 441.136 400.656 442.144 400.512 444.112C400.128 449.68 396.192 454.672 385.968 454.672C375.744 454.672 371.808 449.68 371.424 444.112C371.28 442.144 371.28 441.136 371.28 439.456V420.88H379.92V441.04C379.92 441.952 379.92 442.432 379.968 443.008C380.208 446.464 382.176 448.336 385.968 448.336C389.76 448.336 391.728 446.464 391.968 443.008C392.016 442.432 392.016 441.952 392.016 441.04V420.88H400.656V439.456ZM406.309 454V420.88H414.949V454H406.309ZM437.627 427.6V454H428.987V427.6H418.235V420.88H448.379V427.6H437.627ZM477.123 454H451.731V420.88H476.643V427.6H460.371V434.032H475.683V440.752H460.371V447.28H477.123V454Z" fill="white"/>
<defs>
<clipPath id="clip0_307_7">
<rect width="496" height="383" fill="white"/>
</clipPath>
</defs>
</svg>
