<svg width="372" height="272" viewBox="0 0 372 272" fill="none" xmlns="http://www.w3.org/2000/svg">
<g clip-path="url(#clip0_140_64)">
<path d="M129.434 180.063C129.434 180.063 173.633 176.453 182.201 97.7271C190.768 19.0014 140.151 30.2498 129.434 32.7252C107.318 37.8235 39.8095 94.8413 75.2227 180.063C120.038 164.172 88.9568 104.948 109.192 87.6139C129.427 70.2796 153.584 55.7735 168.46 64.5015C183.337 73.2296 166.291 99.5869 162.678 105.16C159.065 110.733 147.057 140.348 124.255 135.288C112.805 133.12 104.854 124.565 104.854 124.565C104.854 124.565 115.039 139.258 128.888 139.982C115.7 151.179 94.4953 213.052 94.4953 213.052C94.4953 213.052 69.7997 130.953 83.8932 98.4518C97.9866 65.9508 136.294 26.588 165.206 47.1736C188.034 63.4305 177.291 100.453 171.759 115.312C170.334 119.146 168.332 122.731 165.829 125.976C154.611 140.534 118.896 187.637 116.053 201.015C112.677 216.906 103.532 221.6 78.6498 228.462C53.7681 235.324 41.247 225.756 27.1536 231.168C13.0602 236.581 46.1246 234.42 48.8393 225.749C51.554 217.079 64.2933 143.413 29.8683 122.289C-4.55662 101.165 0.596848 205.702 0.596848 205.702C0.596848 205.702 29.3292 220.869 41.2535 219.785C53.1777 218.702 11.4365 210.576 6.01987 215.995C0.603266 221.414 13.0666 262.579 13.0666 262.579" stroke="white" stroke-width="2" stroke-miterlimit="10"/>
<path d="M232.176 87.473C219.706 86.3892 198.566 99.3883 189.895 103.723C181.225 108.059 176.495 139.322 173.1 139.861C179.877 122.103 180.288 105.5 181.501 97.9198C201.325 93.2768 228.928 99.9334 237.599 90.7244C246.269 81.5154 228.928 78.8091 233.26 59.3072C237.592 39.8054 250.068 53.8883 245.73 41.4343C241.392 28.9802 247.899 8.93328 271.773 2.43052C295.648 -4.07224 314.336 5.84223 319.997 13.8071C323.822 19.1812 336.028 38.8691 323.571 67.9583C333.185 62.456 323.167 90.4102 311.474 93.9501C293.587 132.954 267.955 157.894 251.692 158.978C235.43 160.061 234.884 105.891 239.222 103.723C243.561 101.556 246.815 129.991 271.767 129.991C236.553 123.219 243.554 81.5089 240.301 80.4252C237.047 79.3414 233.254 59.3008 239.762 51.1756C246.269 43.0503 250.062 53.8818 250.062 53.8818C250.062 53.8818 252.77 28.961 263.071 21.3809C273.371 13.8007 286.926 30.0448 295.949 30.5899C304.973 31.135 308.066 27.8836 314.574 30.5899C321.081 33.2962 315.658 75.5513 315.658 75.5513C315.658 75.5513 318.88 68.6638 325.413 67.426C330.965 66.3743 322.673 91.417 311.467 93.9437L312.655 98.5097C317.012 116.755 331.375 107.514 331.375 107.514C319.99 117.806 302.643 194.185 315.113 189.311C350.892 174.683 372.918 188.227 366.07 186.06C359.222 183.892 318.366 181.725 315.113 205.562C310.357 240.416 329.206 238.063 334.084 233.727C338.961 229.392 324.329 230.476 298.304 236.434C272.28 242.391 243.914 240.525 243.914 240.525C243.914 240.525 239.165 229.399 234.287 231.566C234.57 235.19 233.613 240.91 233.613 240.91C233.613 240.91 235.089 213.45 233.665 208.512C232.888 205.825 206.883 205.805 205.908 208.512C204.932 211.218 219.462 212.5 230.847 210.872C242.232 209.243 202.68 204.837 203.976 210.878C204.515 213.405 202.115 237.293 206.594 236.761C221.259 235.023 232.907 240.237 232.375 238.447C231.521 235.581 200.536 234.324 199.496 235.882C199.496 235.882 191.705 243.494 207.05 243.045C216.099 242.782 195.344 239.852 194.709 244.187C194.709 244.187 194.285 249.574 194.888 250.055C195.492 250.536 207.024 252.344 207.987 251.863C208.95 251.382 197.687 250.414 196.005 251.741C195.428 252.197 195.184 257.763 196.993 258C198.803 258.238 211.562 260.861 209.521 259.899C207.48 258.937 198.797 259.142 198.675 259.508C198.553 259.873 198.617 263.541 199.58 264.503C200.543 265.465 208.616 266.581 208.616 266.581C220.271 268.659 235 267.998 238.613 267.03C242.226 266.062 275.72 273.808 324.309 271.102C372.898 268.396 361.693 266.228 367.296 252.145C372.898 238.063 378.52 138.392 347.08 106.975" stroke="white" stroke-width="2" stroke-miterlimit="10"/>
</g>
<defs>
<clipPath id="clip0_140_64">
<rect width="372" height="272" fill="white"/>
</clipPath>
</defs>
</svg>
