<svg width="738" height="688" viewBox="0 0 738 688" fill="none" xmlns="http://www.w3.org/2000/svg">
<path d="M37.28 96V79.44H39.92V96H37.28ZM54.2803 89.304C54.2803 89.544 54.2803 89.904 54.2323 90.36H45.0883C45.3043 93.408 46.6963 94.416 48.4243 94.416C49.9603 94.416 51.1603 93.48 51.4243 91.872H54.0883C53.5363 94.896 51.1123 96.336 48.3283 96.336C44.9203 96.336 42.3523 94.176 42.3523 89.664C42.3523 85.632 44.9203 82.92 48.5923 82.92C52.2883 82.92 54.2803 85.704 54.2803 89.304ZM45.1123 88.512H51.5683C51.3763 86.16 50.3443 84.84 48.4963 84.84C46.6963 84.84 45.4003 86.064 45.1123 88.512ZM59.3328 92.112C59.3328 92.544 59.3328 92.928 59.3568 93.312C59.4048 94.032 59.7408 94.272 60.8688 94.176V96.024C60.3408 96.096 59.7408 96.144 59.1408 96.144C57.7488 96.144 56.8128 95.64 56.7168 94.008C56.6928 93.528 56.6928 92.952 56.6928 92.184V78.36H59.3328V92.112ZM85.8714 86.04C85.9674 86.688 85.9914 87.264 85.9914 88.296V96H83.3514V89.256C83.3514 88.296 83.3274 87.6 83.2554 86.952C83.0874 85.584 82.2474 84.864 80.8794 84.864C79.3434 84.864 78.3114 86.136 78.3114 89.592V96H75.6954V89.256C75.6954 88.296 75.6714 87.6 75.5994 86.952C75.4074 85.584 74.5914 84.864 73.2234 84.864C71.6634 84.864 70.6554 86.136 70.6554 89.592V96H68.0154V83.256H70.6554V85.152L71.5194 83.664C72.1914 83.136 73.0794 82.92 74.2314 82.92C76.2474 82.92 77.5194 83.928 77.9994 85.344L79.1754 83.664C79.8714 83.136 80.7594 82.92 81.8874 82.92C84.2394 82.92 85.5834 84.288 85.8714 86.04ZM90.2589 84.624H88.0509L89.9229 78.36H92.6109V78.6L90.2589 84.624ZM102.034 95.52C101.17 96.12 100.066 96.336 98.8659 96.336C96.6099 96.336 94.7619 95.04 94.7619 92.664C94.7619 89.832 97.0179 88.296 101.842 88.296H102.658V87.984C102.658 87.504 102.658 87.072 102.61 86.592C102.538 85.56 101.89 84.84 100.378 84.84C98.8419 84.84 98.0499 85.704 97.9059 87.288H95.2659C95.4339 84.504 97.5219 82.92 100.426 82.92C103.714 82.92 105.01 84.312 105.226 86.472C105.274 87 105.298 87.672 105.298 88.272V92.76C105.298 93.72 105.346 94.584 105.538 96H102.922L102.682 94.152L102.034 95.52ZM97.5459 92.448C97.5459 93.792 98.4339 94.416 99.8259 94.416C101.482 94.416 102.658 93.288 102.658 91.224V90.048C99.5619 89.808 97.5459 90.504 97.5459 92.448ZM119.913 96H116.841L111.969 83.256H114.873L118.449 94.056L121.977 83.256H124.785L119.913 96ZM126.515 96V83.256H129.155V96H126.515ZM126.515 81.864V78.816H129.179V81.864H126.515ZM138.035 82.92C142.307 82.92 144.491 85.896 144.491 89.616C144.491 93.336 142.307 96.336 138.035 96.336C133.739 96.336 131.579 93.336 131.579 89.616C131.579 85.896 133.739 82.92 138.035 82.92ZM134.363 89.616C134.363 92.496 135.707 94.416 138.035 94.416C140.339 94.416 141.683 92.496 141.683 89.616C141.683 86.736 140.339 84.84 138.035 84.84C135.707 84.84 134.363 86.736 134.363 89.616ZM149.356 92.112C149.356 92.544 149.356 92.928 149.38 93.312C149.428 94.032 149.764 94.272 150.892 94.176V96.024C150.364 96.096 149.764 96.144 149.164 96.144C147.772 96.144 146.836 95.64 146.74 94.008C146.716 93.528 146.716 92.952 146.716 92.184V78.36H149.356V92.112ZM157.294 82.128L158.95 79.392H161.35L158.878 82.128H157.294ZM152.134 89.664C152.134 85.632 154.702 82.92 158.374 82.92C162.07 82.92 164.062 85.704 164.062 89.304C164.062 89.544 164.062 89.904 164.014 90.36H154.87C155.086 93.408 156.478 94.416 158.206 94.416C159.742 94.416 160.942 93.48 161.206 91.872H163.87C163.318 94.896 160.894 96.336 158.11 96.336C154.702 96.336 152.134 94.176 152.134 89.664ZM154.894 88.512H161.35C161.158 86.16 160.126 84.84 158.278 84.84C156.478 84.84 155.182 86.064 154.894 88.512ZM165.826 92.832H169.354V96.336H165.826V92.832Z" fill="white"/>
<path d="M408.312 29.448C408.312 30.12 408.312 30.648 408.24 31.584C408.072 34.392 406.344 36.336 402.648 36.336C399.216 36.336 397.392 34.32 397.296 31.104L397.272 30.192H399.912L399.96 31.104C400.08 33.36 401.112 34.32 402.888 34.32C404.64 34.32 405.504 33.216 405.648 31.416C405.672 30.912 405.672 30.336 405.672 29.568V19.44H408.312V29.448ZM422.265 29.304C422.265 29.544 422.265 29.904 422.217 30.36H413.073C413.289 33.408 414.681 34.416 416.409 34.416C417.945 34.416 419.145 33.48 419.409 31.872H422.073C421.521 34.896 419.097 36.336 416.313 36.336C412.905 36.336 410.337 34.176 410.337 29.664C410.337 25.632 412.905 22.92 416.577 22.92C420.273 22.92 422.265 25.704 422.265 29.304ZM413.097 28.512H419.553C419.361 26.16 418.329 24.84 416.481 24.84C414.681 24.84 413.385 26.064 413.097 28.512ZM432.863 31.872C432.863 32.304 432.863 32.592 432.887 32.928C432.983 34.176 433.463 34.44 435.191 34.272V36.096C434.519 36.192 433.895 36.24 433.247 36.24C431.255 36.24 430.391 35.496 430.271 33.816C430.247 33.384 430.247 32.832 430.247 32.112V25.2H428.447V23.352H430.247V20.304H432.863V23.352H435.359V25.2H432.863V31.872ZM448.444 29.304C448.444 29.544 448.444 29.904 448.396 30.36H439.252C439.468 33.408 440.86 34.416 442.588 34.416C444.124 34.416 445.324 33.48 445.588 31.872H448.252C447.7 34.896 445.276 36.336 442.492 36.336C439.084 36.336 436.516 34.176 436.516 29.664C436.516 25.632 439.084 22.92 442.756 22.92C446.452 22.92 448.444 25.704 448.444 29.304ZM439.276 28.512H445.732C445.54 26.16 444.508 24.84 442.66 24.84C440.86 24.84 439.564 26.064 439.276 28.512ZM461.106 22.92C464.322 22.92 466.362 24.864 466.674 27.672H464.01C463.626 25.728 462.594 24.84 461.034 24.84C459.186 24.84 457.722 26.304 457.722 29.496C457.722 32.952 459.162 34.416 460.938 34.416C462.45 34.416 463.53 33.504 463.914 31.776H466.602C466.002 34.824 463.794 36.336 460.794 36.336C457.458 36.336 454.938 34.224 454.938 29.688C454.938 25.344 457.77 22.92 461.106 22.92ZM474.641 22.944C475.001 22.944 475.265 22.992 475.529 23.088V25.152C473.105 24.984 471.593 26.232 471.593 29.376V36H468.953V23.256H471.593V25.416L472.673 23.664C473.249 23.208 473.993 22.944 474.641 22.944ZM482.699 22.92C486.971 22.92 489.155 25.896 489.155 29.616C489.155 33.336 486.971 36.336 482.699 36.336C478.403 36.336 476.243 33.336 476.243 29.616C476.243 25.896 478.403 22.92 482.699 22.92ZM479.027 29.616C479.027 32.496 480.371 34.416 482.699 34.416C485.003 34.416 486.347 32.496 486.347 29.616C486.347 26.736 485.003 24.84 482.699 24.84C480.371 24.84 479.027 26.736 479.027 29.616ZM491.476 36V23.256H494.116V36H491.476ZM491.476 21.864V18.816H494.14V21.864H491.476ZM501.604 22.92C504.532 22.92 506.164 24.576 506.452 26.904H503.764C503.5 25.56 502.708 24.768 501.412 24.768C500.164 24.768 499.564 25.464 499.564 26.424C499.564 27.576 500.5 28.056 502.396 28.56C505.18 29.28 506.644 30.384 506.644 32.64C506.644 35.112 504.46 36.336 501.676 36.336C498.844 36.336 496.756 35.064 496.396 32.184H499.06C499.372 33.816 500.452 34.464 501.772 34.464C502.996 34.464 503.98 33.936 503.98 32.832C503.98 31.728 503.116 31.128 500.956 30.552C498.628 29.952 496.9 28.968 496.9 26.736C496.9 24.36 498.772 22.92 501.604 22.92ZM524.827 29.304C524.827 29.544 524.827 29.904 524.779 30.36H515.635C515.851 33.408 517.243 34.416 518.971 34.416C520.507 34.416 521.707 33.48 521.971 31.872H524.635C524.083 34.896 521.659 36.336 518.875 36.336C515.467 36.336 512.899 34.176 512.899 29.664C512.899 25.632 515.467 22.92 519.139 22.92C522.835 22.92 524.827 25.704 524.827 29.304ZM515.659 28.512H522.115C521.923 26.16 520.891 24.84 519.043 24.84C517.243 24.84 515.947 26.064 515.659 28.512ZM530.48 31.872C530.48 32.304 530.48 32.592 530.504 32.928C530.6 34.176 531.08 34.44 532.808 34.272V36.096C532.136 36.192 531.512 36.24 530.864 36.24C528.872 36.24 528.008 35.496 527.888 33.816C527.864 33.384 527.864 32.832 527.864 32.112V25.2H526.064V23.352H527.864V20.304H530.48V23.352H532.976V25.2H530.48V31.872ZM542.84 36.744C542.84 37.224 542.816 37.848 542.792 38.28C542.624 40.032 541.64 41.04 539.24 41.04C538.808 41.04 538.472 41.04 538.136 40.992V39C539.504 39.12 540.08 38.76 540.176 37.896C540.224 37.56 540.224 37.176 540.224 36.816V23.256H542.84V36.744ZM540.2 21.816V18.768H542.864V21.816H540.2ZM557.171 29.304C557.171 29.544 557.171 29.904 557.123 30.36H547.979C548.195 33.408 549.587 34.416 551.315 34.416C552.851 34.416 554.051 33.48 554.315 31.872H556.979C556.427 34.896 554.003 36.336 551.219 36.336C547.811 36.336 545.243 34.176 545.243 29.664C545.243 25.632 547.811 22.92 551.483 22.92C555.179 22.92 557.171 25.704 557.171 29.304ZM548.003 28.512H554.459C554.267 26.16 553.235 24.84 551.387 24.84C549.587 24.84 548.291 26.064 548.003 28.512ZM568.729 22.92C571.657 22.92 573.289 24.576 573.577 26.904H570.889C570.625 25.56 569.833 24.768 568.537 24.768C567.289 24.768 566.689 25.464 566.689 26.424C566.689 27.576 567.625 28.056 569.521 28.56C572.305 29.28 573.769 30.384 573.769 32.64C573.769 35.112 571.585 36.336 568.801 36.336C565.969 36.336 563.881 35.064 563.521 32.184H566.185C566.497 33.816 567.577 34.464 568.897 34.464C570.121 34.464 571.105 33.936 571.105 32.832C571.105 31.728 570.241 31.128 568.081 30.552C565.753 29.952 564.025 28.968 564.025 26.736C564.025 24.36 565.897 22.92 568.729 22.92ZM587.151 36H584.535V33.816L583.647 35.4C582.639 36.12 581.703 36.336 580.431 36.336C577.791 36.336 576.255 34.848 575.967 33.096C575.871 32.448 575.847 31.872 575.847 30.84V23.256H578.463V30.312C578.463 30.72 578.487 31.416 578.559 32.064C578.751 33.456 579.663 34.368 581.295 34.368C583.143 34.368 584.535 32.952 584.535 29.256V23.256H587.151V36ZM590.523 36V23.256H593.163V36H590.523ZM590.523 21.864V18.816H593.187V21.864H590.523ZM600.651 22.92C603.579 22.92 605.211 24.576 605.499 26.904H602.811C602.547 25.56 601.755 24.768 600.459 24.768C599.211 24.768 598.611 25.464 598.611 26.424C598.611 27.576 599.547 28.056 601.443 28.56C604.227 29.28 605.691 30.384 605.691 32.64C605.691 35.112 603.507 36.336 600.723 36.336C597.891 36.336 595.803 35.064 595.443 32.184H598.107C598.419 33.816 599.499 34.464 600.819 34.464C602.043 34.464 603.027 33.936 603.027 32.832C603.027 31.728 602.163 31.128 600.003 30.552C597.675 29.952 595.947 28.968 595.947 26.736C595.947 24.36 597.819 22.92 600.651 22.92ZM615.45 32.112C615.45 32.544 615.45 32.928 615.474 33.312C615.522 34.032 615.858 34.272 616.986 34.176V36.024C616.458 36.096 615.858 36.144 615.258 36.144C613.866 36.144 612.93 35.64 612.834 34.008C612.81 33.528 612.81 32.952 612.81 32.184V18.36H615.45V32.112ZM621.386 19.392H623.786L625.418 22.128H623.834L621.386 19.392ZM618.77 32.664C618.77 29.832 621.026 28.296 625.85 28.296H626.666V27.984C626.666 27.504 626.666 27.072 626.618 26.592C626.546 25.56 625.898 24.84 624.386 24.84C622.85 24.84 622.058 25.704 621.914 27.288H619.274C619.442 24.504 621.53 22.92 624.434 22.92C627.722 22.92 629.018 24.312 629.234 26.472C629.282 27 629.306 27.672 629.306 28.272V32.76C629.306 33.72 629.354 34.584 629.546 36H626.93L626.69 34.152L626.042 35.52C625.178 36.12 624.074 36.336 622.874 36.336C620.618 36.336 618.77 35.04 618.77 32.664ZM621.554 32.448C621.554 33.792 622.442 34.416 623.834 34.416C625.49 34.416 626.666 33.288 626.666 31.224V30.048C623.57 29.808 621.554 30.504 621.554 32.448ZM644.545 22.92C648.193 22.92 650.281 25.68 650.281 29.4C650.281 34.08 647.401 36.336 644.113 36.336C643.057 36.336 641.737 36.048 641.089 35.544L640.249 34.272V40.704H637.609V23.256H640.249V25.248L641.209 23.88C641.929 23.28 643.249 22.92 644.545 22.92ZM640.249 30.144C640.249 33.264 642.121 34.416 643.801 34.416C645.913 34.416 647.497 32.808 647.497 29.64C647.497 26.88 646.225 24.84 643.921 24.84C641.953 24.84 640.249 26.088 640.249 29.496V30.144ZM658.129 22.92C662.401 22.92 664.585 25.896 664.585 29.616C664.585 33.336 662.401 36.336 658.129 36.336C653.833 36.336 651.673 33.336 651.673 29.616C651.673 25.896 653.833 22.92 658.129 22.92ZM654.457 29.616C654.457 32.496 655.801 34.416 658.129 34.416C660.433 34.416 661.777 32.496 661.777 29.616C661.777 26.736 660.433 24.84 658.129 24.84C655.801 24.84 654.457 26.736 654.457 29.616ZM678.018 36H675.402V33.816L674.514 35.4C673.506 36.12 672.57 36.336 671.298 36.336C668.658 36.336 667.122 34.848 666.834 33.096C666.738 32.448 666.714 31.872 666.714 30.84V23.256H669.33V30.312C669.33 30.72 669.354 31.416 669.426 32.064C669.618 33.456 670.53 34.368 672.162 34.368C674.01 34.368 675.402 32.952 675.402 29.256V23.256H678.018V36ZM687.078 22.944C687.438 22.944 687.702 22.992 687.966 23.088V25.152C685.542 24.984 684.03 26.232 684.03 29.376V36H681.39V23.256H684.03V25.416L685.11 23.664C685.686 23.208 686.43 22.944 687.078 22.944ZM400.8 65.872C400.8 66.304 400.8 66.592 400.824 66.928C400.92 68.176 401.4 68.44 403.128 68.272V70.096C402.456 70.192 401.832 70.24 401.184 70.24C399.192 70.24 398.328 69.496 398.208 67.816C398.184 67.384 398.184 66.832 398.184 66.112V59.2H396.384V57.352H398.184V54.304H400.8V57.352H403.296V59.2H400.8V65.872ZM406.751 58.624H404.543L406.415 52.36H409.103V52.6L406.751 58.624ZM416.27 56.128L417.926 53.392H420.326L417.854 56.128H416.27ZM411.11 63.664C411.11 59.632 413.678 56.92 417.35 56.92C421.046 56.92 423.038 59.704 423.038 63.304C423.038 63.544 423.038 63.904 422.99 64.36H413.846C414.062 67.408 415.454 68.416 417.182 68.416C418.718 68.416 419.918 67.48 420.182 65.872H422.846C422.294 68.896 419.87 70.336 417.086 70.336C413.678 70.336 411.11 68.176 411.11 63.664ZM413.87 62.512H420.326C420.134 60.16 419.102 58.84 417.254 58.84C415.454 58.84 414.158 60.064 413.87 62.512ZM430.755 56.92C433.971 56.92 436.011 58.864 436.323 61.672H433.659C433.275 59.728 432.243 58.84 430.683 58.84C428.835 58.84 427.371 60.304 427.371 63.496C427.371 66.952 428.811 68.416 430.587 68.416C432.099 68.416 433.179 67.504 433.563 65.776H436.251C435.651 68.824 433.443 70.336 430.443 70.336C427.107 70.336 424.587 68.224 424.587 63.688C424.587 59.344 427.419 56.92 430.755 56.92ZM444.097 56.92C448.369 56.92 450.553 59.896 450.553 63.616C450.553 67.336 448.369 70.336 444.097 70.336C439.801 70.336 437.641 67.336 437.641 63.616C437.641 59.896 439.801 56.92 444.097 56.92ZM440.425 63.616C440.425 66.496 441.769 68.416 444.097 68.416C446.401 68.416 447.745 66.496 447.745 63.616C447.745 60.736 446.401 58.84 444.097 58.84C441.769 58.84 440.425 60.736 440.425 63.616ZM463.987 70H461.371V67.816L460.483 69.4C459.475 70.12 458.539 70.336 457.267 70.336C454.627 70.336 453.091 68.848 452.803 67.096C452.707 66.448 452.683 65.872 452.683 64.84V57.256H455.299V64.312C455.299 64.72 455.323 65.416 455.395 66.064C455.587 67.456 456.499 68.368 458.131 68.368C459.979 68.368 461.371 66.952 461.371 63.256V57.256H463.987V70ZM470.503 65.872C470.503 66.304 470.503 66.592 470.527 66.928C470.623 68.176 471.103 68.44 472.831 68.272V70.096C472.159 70.192 471.535 70.24 470.887 70.24C468.895 70.24 468.031 69.496 467.911 67.816C467.887 67.384 467.887 66.832 467.887 66.112V59.2H466.087V57.352H467.887V54.304H470.503V57.352H472.999V59.2H470.503V65.872ZM486.085 63.304C486.085 63.544 486.085 63.904 486.037 64.36H476.893C477.109 67.408 478.501 68.416 480.229 68.416C481.765 68.416 482.965 67.48 483.229 65.872H485.893C485.341 68.896 482.917 70.336 480.133 70.336C476.725 70.336 474.157 68.176 474.157 63.664C474.157 59.632 476.725 56.92 480.397 56.92C484.093 56.92 486.085 59.704 486.085 63.304ZM476.917 62.512H483.373C483.181 60.16 482.149 58.84 480.301 58.84C478.501 58.84 477.205 60.064 476.917 62.512ZM494.282 56.944C494.642 56.944 494.906 56.992 495.17 57.088V59.152C492.746 58.984 491.234 60.232 491.234 63.376V70H488.594V57.256H491.234V59.416L492.314 57.664C492.89 57.208 493.634 56.944 494.282 56.944ZM496.31 66.832H499.838V70.336H496.31V66.832Z" fill="white"/>
<g clip-path="url(#clip0_307_6)">
<path d="M140.295 687.457C140.295 687.457 147.681 595.219 184.595 543.568C199.359 522.659 174.193 515.278 170.777 501.751C167.361 488.225 161.884 480.843 170.777 421.81C179.671 362.776 181.31 321.782 200.998 308.664C220.685 295.545 240.373 284.064 236.273 278.328C232.172 272.591 202.636 212.735 242.012 190.596C246.936 171.741 278.926 170.096 285.489 175.84C292.051 181.584 301.892 202.077 285.489 213.558C269.086 225.038 274.002 238.157 273.187 245.531C272.371 252.906 254.322 281.604 269.909 281.604C285.496 281.604 297.653 256.189 291.986 243.886C286.319 231.583 284.586 224.208 294.477 223.386C304.368 222.563 309.285 214.366 311.747 193.872C314.209 173.379 312.57 165.175 297.798 163.537C283.027 161.899 246.936 149.595 232.995 175.833C210.845 179.931 187.056 243.886 221.509 282.419C242.019 287.34 315.024 272.584 357.685 292.254C400.346 311.925 413.464 293.892 432.336 302.912C451.208 311.932 440.538 294.715 453.663 298.814C466.788 302.912 516.827 309.472 520.112 325.051C523.397 340.63 529.953 371.789 477.459 370.143C424.965 368.498 401.169 352.926 371.641 361.123C342.113 369.321 337.189 376.703 338.004 407.038C338.82 437.374 314.216 446.394 324.879 448.032C335.543 449.67 362.616 438.197 381.481 453.769C400.346 469.341 424.135 475.085 430.697 463.604C437.26 452.123 459.41 401.294 458.587 377.511C458.587 377.511 474.99 416.866 470.073 434.084C478.275 451.301 472.535 478.361 463.51 497.216C454.486 516.071 450.385 566.907 477.459 618.559C504.532 670.211 494.685 687.428 494.685 687.428" stroke="white" stroke-width="2" stroke-miterlimit="10"/>
<path d="M338.813 663.681C338.813 663.681 340.452 535.778 345.376 533.318C350.3 530.857 398.7 484.942 399.516 478.383C400.332 471.823 380.651 452.968 352.754 450.507C324.858 448.047 314.202 472.646 301.076 474.284C287.951 475.922 210.023 490.679 201.821 484.119C193.62 477.56 187.057 455.079 187.057 450.333C187.057 445.586 188.63 431.15 178.855 432.468C169.081 433.785 170.093 453.783 170.785 461.165C171.477 468.547 152.532 492.964 170.37 509.541C188.208 526.118 257.607 547.994 287.958 548.03C318.31 548.067 248.583 400.494 248.583 400.494C248.583 400.494 194.027 347.452 187.88 348.019C181.733 348.587 161.629 360.315 148.504 356.217C135.379 352.118 121.431 318.499 148.504 305.38C175.578 292.262 202.644 304.558 212.492 305.38C222.339 306.203 264.17 287.341 271.555 289.801C278.941 292.262 263.354 303.742 251.044 311.117C238.735 318.492 249.515 319.314 266.275 325.058C283.035 330.802 305.184 348.835 299.445 353.756C293.705 358.677 265.809 337.362 260.069 339C254.329 340.638 254.329 343.921 274.017 351.296C293.705 358.67 304.216 374.249 291.986 375.072C279.757 375.895 253.506 355.394 248.583 357.032C243.659 358.67 281.396 375.887 281.396 380.809C281.396 385.73 271.555 395.565 260.069 382.447C248.583 369.328 227.256 358.67 231.357 366.052C235.457 373.434 263.347 392.289 255.968 396.388C248.59 400.487 277.273 457.882 283.858 466.902C290.442 475.922 322.41 464.441 327.334 419.349C332.258 374.257 335.536 358.677 360.971 348.019C386.405 337.362 367.191 296.23 367.191 296.23C367.191 296.23 388.86 300.466 392.138 293.907C395.415 287.348 385.575 286.525 385.575 283.249C385.575 279.973 394.599 272.591 389.268 271.769C383.936 270.946 380.243 278.736 378.604 277.92C376.966 277.105 374.504 272.591 381.474 265.624C388.445 258.657 379.835 261.118 376.55 261.526C373.265 261.933 374.496 256.604 376.143 254.966C377.789 253.328 373.273 252.098 369.172 252.913C365.071 253.729 360.555 249.223 365.479 246.354C370.403 243.486 372.042 241.848 368.757 240.618C365.472 239.387 355.224 238.565 360.963 235.289C366.703 232.013 365.064 227.907 360.555 227.499C356.047 227.091 349.069 225.038 351.531 220.532C353.993 216.026 349.892 212.742 354.401 208.236C358.909 203.73 352.762 198.808 356.455 195.94C360.147 193.072 359.324 190.203 355.224 191.019C351.123 191.834 347.022 186.513 347.43 185.282C347.838 184.052 341.69 187.743 339.229 185.282C336.767 182.822 334.829 188.041 331.289 185.02C327.749 181.999 324.88 186.782 322.826 184.598C320.772 182.414 317.902 179.538 322.418 176.67C326.934 173.802 327.043 169.703 331.289 170.111C335.536 170.518 336.359 163.551 340.46 164.782C344.56 166.012 345.383 160.683 350.3 161.091C355.216 161.498 353.993 164.367 359.324 164.367C364.656 164.367 361.786 170.103 367.941 170.926C374.096 171.749 379.012 171.334 379.427 173.794C379.843 176.255 380.658 174.202 386.813 175.432C392.968 176.663 395.43 169.281 397.884 170.926C400.339 172.571 404.447 170.926 407.317 173.387C410.187 175.847 405.263 181.176 407.317 183.222C409.371 185.268 412.86 191.419 408.242 192.242C403.624 193.065 408.956 194.295 408.14 197.571C407.324 200.847 400.754 200.847 404.039 206.183C407.324 211.519 399.938 213.15 402.4 214.795C404.862 216.441 408.555 211.104 413.472 214.795C418.388 218.486 420.442 206.183 422.496 208.644C424.55 211.104 435.621 204.953 436.029 209.874C436.437 214.795 438.491 220.124 440.538 224.631C442.585 229.137 439.307 227.907 440.538 234.058C441.769 240.21 439.307 242.671 434.798 244.716C430.29 246.762 429.875 245.947 429.059 251.683C428.243 257.42 420.857 248.407 418.803 250.453C416.749 252.499 415.934 258.65 417.98 261.518C420.027 264.387 419.619 268.078 418.388 273.814C417.157 279.551 416.749 281.604 421.666 282.012C426.582 282.419 428.228 270.946 433.968 274.63C439.708 278.313 439.708 264.794 446.27 268.07C452.833 271.346 455.295 264.379 456.934 269.301C458.572 274.222 453.241 272.992 453.241 279.959C453.241 286.926 456.111 287.341 454.88 293.077C453.649 298.814 456.934 302.913 464.72 297.584C472.506 292.255 464.312 289.386 470.875 284.873C477.437 280.359 465.543 282.004 470.875 275.445C476.206 268.886 472.514 273.392 475.799 265.195C479.083 256.998 468.828 253.307 472.521 251.669C476.214 250.031 474.983 238.55 471.698 236.912C468.413 235.274 482.449 229.53 476.454 225.024C470.46 220.517 474.568 209.037 467.59 208.629C460.612 208.221 469.229 193.05 457.749 192.642C446.27 192.235 465.135 176.655 452.826 178.701C440.516 180.747 437.646 173.372 432.73 174.195C427.813 175.017 431.907 159.802 424.528 161.054C417.15 162.306 420.02 149.188 415.912 151.241C411.804 153.294 415.912 142.629 404.425 143.859C392.939 145.089 401.148 136.477 388.022 141.398C381.868 142.629 383.514 134.839 372.027 142.221C367.519 145.912 365.465 133.609 356.44 143.859C352.747 148.78 350.285 136.477 340.853 145.912C337.575 152.064 328.551 144.682 326.905 156.978C326.905 161.076 315.418 156.432 319.111 170.504C319.111 170.504 315.418 171.734 317.057 180.339C317.057 180.339 312.548 184.03 314.595 189.767C316.642 195.503 313.772 200.425 313.772 200.425C313.772 200.425 310.079 204.931 308.848 217.642C308.44 223.378 295.315 225.024 294.9 231.583C294.485 238.142 301.055 243.064 301.055 245.109C301.055 247.155 294.077 249.077 293.37 251.232C291.957 255.563 296.131 259.866 298.185 260.689C300.239 261.511 291.469 258.636 291.957 266.017C292.445 273.399 292.03 276.268 297.777 277.906" stroke="white" stroke-width="2" stroke-miterlimit="10"/>
</g>
<mask id="path-5-inside-1_307_6" fill="white">
<path fill-rule="evenodd" clip-rule="evenodd" d="M-1.90735e-06 64H270V111.108H270.029L285 144.08L226.367 115H-1.90735e-06V98.6329V64Z"/>
</mask>
<path d="M270 64V62H272V64H270ZM-1.90735e-06 64H-2V62H-1.90735e-06V64ZM270 111.108V113.108H268V111.108H270ZM270.029 111.108V109.108H271.318L271.85 110.282L270.029 111.108ZM285 144.08L286.821 143.253L289.143 148.367L284.111 145.871L285 144.08ZM226.367 115V113H226.835L227.255 113.208L226.367 115ZM-1.90735e-06 115V117H-2V115H-1.90735e-06ZM270 66H-1.90735e-06V62H270V66ZM268 111.108V64H272V111.108H268ZM270.029 113.108H270V109.108H270.029V113.108ZM283.179 144.907L268.208 111.935L271.85 110.282L286.821 143.253L283.179 144.907ZM227.255 113.208L285.889 142.288L284.111 145.871L225.478 116.792L227.255 113.208ZM-1.90735e-06 113H226.367V117H-1.90735e-06V113ZM2 98.6329V115H-2V98.6329H2ZM2 64V98.6329H-2V64H2Z" fill="white" mask="url(#path-5-inside-1_307_6)"/>
<mask id="path-7-inside-2_307_6" fill="white">
<path fill-rule="evenodd" clip-rule="evenodd" d="M738 0H358L358 85.8578H357.735L345 123.805L401.341 86H738L738 0Z"/>
</mask>
<path d="M358 0V-2H356L356 9.99685e-07L358 0ZM738 0L740 -7.09711e-07V-2H738V0ZM358 85.8578V87.8578H360L360 85.8578H358ZM357.735 85.8578V83.8578H356.297L355.839 85.2214L357.735 85.8578ZM345 123.805L343.104 123.168L341.234 128.74L346.114 125.465L345 123.805ZM401.341 86V84H400.732L400.227 84.3392L401.341 86ZM738 86V88H740V86H738ZM358 2H738V-2H358V2ZM360 85.8578L360 -9.99685e-07L356 9.99685e-07L356 85.8578H360ZM357.735 87.8578H358V83.8578H357.735V87.8578ZM346.896 124.441L359.631 86.4941L355.839 85.2214L343.104 123.168L346.896 124.441ZM400.227 84.3392L343.886 122.144L346.114 125.465L402.455 87.6608L400.227 84.3392ZM738 84H401.341V88H738V84ZM736 7.09711e-07L736 86H740L740 -7.09711e-07L736 7.09711e-07Z" fill="white" mask="url(#path-7-inside-2_307_6)"/>
<defs>
<clipPath id="clip0_307_6">
<rect width="390" height="549" fill="white" transform="translate(133 139)"/>
</clipPath>
</defs>
</svg>
