<?xml version="1.0" encoding="UTF-8"?><svg id="Calque_2" xmlns="http://www.w3.org/2000/svg" viewBox="0 0 741.94 666.62"><defs><style>.cls-1{fill:none;}.cls-1,.cls-2{stroke:#fff;stroke-miterlimit:10;}.cls-2{fill:#231f20;stroke-width:4px;}</style></defs><g id="Layer_2"><path class="cls-1" d="m268.99,303.09l10.21,44.25c1.03,4.45,3.91,8.25,7.92,10.44l91.31,49.83c2.99,1.63,6.33,2.48,9.73,2.48h24.95c9.22,0,17.88-4.42,23.3-11.88l25.92-35.69c2.85-3.93,5.04-8.29,6.49-12.93l23.8-76.35c.7-2.23,1.05-4.56,1.05-6.9v-67.42l-7.58-3.33c-6.2-2.73-13.06-3.62-19.75-2.57l-1.09.17c-5.18.81-10.22,2.34-14.99,4.53l-11.59,5.33v6.76h2.99c5.48,0,10.92-.89,16.11-2.65l10.14-6.41c5.2-1.76,11.27-2.01,16.75-1.83h9.01l-3.19,33.41-14.27-.75s-7.51-8.63-20.65-7.88c-13.14.75-27.41,15.02-27.41,15.02,0,0,16.89,4.13,24.4,2.25s8.22-19.1-7.17-13.47c-15.39,5.63-28.49,16.1-23.24,52.51,7.13,18.02,7.13,22.63,4.88,24.64-2.25,2.01-7.13,6.52-10.14,4.26s9.01-12.58,6.38-8.17c-2.63,4.41-3.75,8.92-9.76,8.92s-14.53-14.08-18.53-8.92c-4,5.16,3.89,7.04,3.89,7.04,0,0-25.53,2.25-13.89-15.02"/><path class="cls-2" d="m270.6,301.9c.04,2.59-4.04,2.59-4,0-.04-2.59,4.04-2.59,4,0Z"/><path class="cls-2" d="m260.85,251.85c.04,2.59-4.04,2.59-4,0-.04-2.59,4.04-2.59,4,0Z"/><path class="cls-2" d="m330.11,157.25c.04,2.59-4.04,2.59-4,0-.04-2.59,4.04-2.59,4,0Z"/><path class="cls-2" d="m432.16,107.13c.04,2.59-4.04,2.59-4,0-.04-2.59,4.04-2.59,4,0Z"/><path class="cls-2" d="m244.83,33.74c.04,2.59-4.04,2.59-4,0-.04-2.59,4.04-2.59,4,0Z"/><path class="cls-2" d="m160.99,194.54c.04,2.59-4.04,2.59-4,0-.04-2.59,4.04-2.59,4,0Z"/><path class="cls-2" d="m74.2,311.67c.04,2.59-4.04,2.59-4,0-.04-2.59,4.04-2.59,4,0Z"/><path class="cls-2" d="m90.1,401.44c.04,2.59-4.04,2.59-4,0-.04-2.59,4.04-2.59,4,0Z"/><path class="cls-2" d="m26.77,482.61c.04,2.59-4.04,2.59-4,0-.04-2.59,4.04-2.59,4,0Z"/><path class="cls-2" d="m284.59,353.64c.04,2.59-4.04,2.59-4,0-.04-2.59,4.04-2.59,4,0Z"/><path class="cls-2" d="m294.07,419.66c.04,2.59-4.04,2.59-4,0-.04-2.59,4.04-2.59,4,0Z"/><path class="cls-2" d="m200.31,535.49c.04,2.59-4.04,2.59-4,0-.04-2.59,4.04-2.59,4,0Z"/><path class="cls-2" d="m247.17,579.1c.04,2.59-4.04,2.59-4,0-.04-2.59,4.04-2.59,4,0Z"/><path class="cls-2" d="m228.27,660.75c.04,2.59-4.04,2.59-4,0-.04-2.59,4.04-2.59,4,0Z"/><path class="cls-2" d="m8.51,641.79c.04,2.59-4.04,2.59-4,0-.04-2.59,4.04-2.59,4,0Z"/><path class="cls-2" d="m385.33,409.34c.04,2.59-4.04,2.59-4,0-.04-2.59,4.04-2.59,4,0Z"/><path class="cls-2" d="m428.17,407.16c.04,2.59-4.04,2.59-4,0-.04-2.59,4.04-2.59,4,0Z"/><path class="cls-2" d="m450.06,421.61c.04,2.59-4.04,2.59-4,0-.04-2.59,4.04-2.59,4,0Z"/><path class="cls-2" d="m673.34,592.23c.04,2.59-4.04,2.59-4,0-.04-2.59,4.04-2.59,4,0Z"/><path class="cls-2" d="m639.77,531.6c.04,2.59-4.04,2.59-4,0-.04-2.59,4.04-2.59,4,0Z"/><path class="cls-2" d="m534.78,502.13c.04,2.59-4.04,2.59-4,0-.04-2.59,4.04-2.59,4,0Z"/><path class="cls-2" d="m683.57,417.83c.04,2.59-4.04,2.59-4,0-.04-2.59,4.04-2.59,4,0Z"/><path class="cls-2" d="m558.93,356.59c.04,2.59-4.04,2.59-4,0-.04-2.59,4.04-2.59,4,0Z"/><path class="cls-2" d="m606.43,253.8c.04,2.59-4.04,2.59-4,0-.04-2.59,4.04-2.59,4,0Z"/><path class="cls-2" d="m557.93,168.51c.04,2.59-4.04,2.59-4,0-.04-2.59,4.04-2.59,4,0Z"/><path class="cls-2" d="m548.6,90.8c.04,2.59-4.04,2.59-4,0-.04-2.59,4.04-2.59,4,0Z"/><path class="cls-2" d="m495.67,69.12c.04,2.59-4.04,2.59-4,0-.04-2.59,4.04-2.59,4,0Z"/><path class="cls-2" d="m478.96,129.09c.04,2.59-4.04,2.59-4,0-.04-2.59,4.04-2.59,4,0Z"/><path class="cls-2" d="m467.64,356.59c.04,2.59-4.04,2.59-4,0-.04-2.59,4.04-2.59,4,0Z"/><path class="cls-2" d="m495.67,269.87c.04,2.59-4.04,2.59-4,0-.04-2.59,4.04-2.59,4,0Z"/><path class="cls-2" d="m495.67,198.92c.04,2.59-4.04,2.59-4,0-.04-2.59,4.04-2.59,4,0Z"/><path class="cls-2" d="m440.67,203.05c.04,2.59-4.04,2.59-4,0-.04-2.59,4.04-2.59,4,0Z"/><path class="cls-2" d="m379.85,204.7c.04,2.59-4.04,2.59-4,0-.04-2.59,4.04-2.59,4,0Z"/><path class="cls-2" d="m377.85,215.25c.04,2.59-4.04,2.59-4,0-.04-2.59,4.04-2.59,4,0Z"/><path class="cls-2" d="m310.71,205c.04,2.59-4.04,2.59-4,0-.04-2.59,4.04-2.59,4,0Z"/><path class="cls-2" d="m294.65,211.75c.04,2.59-4.04,2.59-4,0-.04-2.59,4.04-2.59,4,0Z"/><path class="cls-2" d="m318.66,238.71c.04,2.59-4.04,2.59-4,0-.04-2.59,4.04-2.59,4,0Z"/><path class="cls-2" d="m375.35,240.66c.04,2.59-4.04,2.59-4,0-.04-2.59,4.04-2.59,4,0Z"/><path class="cls-2" d="m332.11,242.09c.04,2.59-4.04,2.59-4,0-.04-2.59,4.04-2.59,4,0Z"/><path class="cls-2" d="m440.67,209.81c.04,2.59-4.04,2.59-4,0-.04-2.59,4.04-2.59,4,0Z"/><path class="cls-2" d="m492.48,232.33c.04,2.59-4.04,2.59-4,0-.04-2.59,4.04-2.59,4,0Z"/><path class="cls-2" d="m478.96,231.21c.04,2.59-4.04,2.59-4,0-.04-2.59,4.04-2.59,4,0Z"/><path class="cls-2" d="m430.16,238.71c.04,2.59-4.04,2.59-4,0-.04-2.59,4.04-2.59,4,0Z"/><path class="cls-2" d="m403.13,307.98c.04,2.59-4.04,2.59-4,0-.04-2.59,4.04-2.59,4,0Z"/><path class="cls-2" d="m402.22,324.96c.04,2.59-4.04,2.59-4,0-.04-2.59,4.04-2.59,4,0Z"/><path class="cls-2" d="m416.83,325.9c.04,2.59-4.04,2.59-4,0-.04-2.59,4.04-2.59,4,0Z"/><path class="cls-2" d="m424.93,344.43c.04,2.59-4.04,2.59-4,0-.04-2.59,4.04-2.59,4,0Z"/><path class="cls-2" d="m437.67,345.33c.04,2.59-4.04,2.59-4,0-.04-2.59,4.04-2.59,4,0Z"/><path class="cls-2" d="m384.97,343.92c.04,2.59-4.04,2.59-4,0-.04-2.59,4.04-2.59,4,0Z"/><path class="cls-2" d="m364.77,345.33c.04,2.59-4.04,2.59-4,0-.04-2.59,4.04-2.59,4,0Z"/><path class="cls-2" d="m387.93,370.86c.04,2.59-4.04,2.59-4,0-.04-2.59,4.04-2.59,4,0Z"/><path class="cls-2" d="m386.99,292.77c.04,2.59-4.04,2.59-4,0-.04-2.59,4.04-2.59,4,0Z"/><path class="cls-1" d="m414.83,325.9s13.01.44,18.97,14.23l1.87,5.2h-12.11l-.63-.9c-3.17-4.52-6.27-6.04-11.79-5.79,0,0-20.61-1.34-28.17,5.28h0s8.55,7.04,19.78,6.33,20.53-3.26,20.53-3.26l12.39-.12-10.01,16.29c-2.66,3.27-7.64,4.77-9.5,4.94l-13.4,1.15c-15.09,0-17.58-2.43-29.17-11.4l-10.97-11.72,10.24-12.06c5.02-5.67,14.45-7.62,21.94-8.67l2.46-.34h0c-9.06-.71-17.98,2.58-24.4,9.02l-12.08,13.13,4.69,4.32,20.46,18.58-2.6,40.22"/><path class="cls-1" d="m268.6,301.9l-9.75-50.04s78.84-86.16,78.84-125.58,19.71-79.96,60.54-73.21c40.83,6.76,31.94,54.06,31.94,54.06,0,0,20.71,11.83,31.41-7.88,10.7-19.71,10.55-95.73-80.6-98.55-91.15-2.82-147.46,23.65-184.07,85.59-36.6,61.94-1.13,77.01-67.57,142.96-66.45,65.95-67.13,101.79-44.05,154.16,23.09,52.37-47.38,64.65-62.02,102.94-14.64,38.29-32.1,113.19-16.89,154.29,15.2,41.11,219.9,20.09,219.9,20.09,0,0,58-70.95.56-95.73-57.44-24.78-19.23-46.81,16.81-71.59,36.04-24.78,52.93-21.4,48.43-73.77"/><path class="cls-1" d="m493.67,198.92s3.19-55.19-16.71-69.83c-19.9-14.64-7.51-58.56,29.66-63.07,37.17-4.5,48.43,37.17,41.67,60.82-6.76,23.65,3.38,43.92,25.9,58.56,22.52,14.64,47.3,69.96,16.89,109.31-30.41,39.35-47.3,62.58-22.52,72.92,26.49,11.06,96.2,32.59,131.15,64.33,36.04,32.73,56.31,95.8,29.28,123.96-27.03,28.16-57.65,36.3-57.65,36.3,0,0,1.97-29.54-35.58-62.58-53.46-47.04-78.47-27.77-108.87-26.65-30.41,1.13-95.42-16.38-78.84-81.4"/><path class="cls-1" d="m290.65,213.85s4.27-3.79,13.81-8.85c.96-.51,6.35-2.96,7.32-3.44,6.07-3.06,12.17-5.6,16.34-6.01,11.45-1.13,49.74,9.15,49.74,9.15l-2.63,9.15s-24.01-5.78-37.92-9.2c-15.39-3.79-29.19.34-29.19.34l8.54,33.72s18.89-21.91,48.11-8.33c8.58,6.38,8.58,10.27,8.58,10.27,0,0-29.65,8.9-43.24,1.43"/></g></svg>