<svg width="548" height="397" viewBox="0 0 548 397" fill="none" xmlns="http://www.w3.org/2000/svg">
<g clip-path="url(#clip0_310_9)">
<path d="M88.0288 292.707C88.0288 292.707 76.0934 351.584 45.0518 369.421C14.0102 387.258 41.4691 383.694 41.4691 383.694C41.4691 383.694 43.2604 380.721 49.827 380.124C56.3936 379.527 64.7516 372.99 73.1042 374.77C81.4569 376.549 86.2374 374.77 88.0288 369.416C89.8202 364.061 80.8686 357.524 88.0288 346.224C95.189 334.924 114.889 301.621 114.29 297.46C113.691 293.299 108.916 307.572 104.739 327.79C100.563 348.009 79.6708 370.609 77.2806 381.312C74.8903 392.016 65.9387 399.746 83.8472 395.585C101.756 391.424 101.756 377.743 105.932 376.555C110.108 375.367 113.717 372.394 114.3 356.927C114.883 341.461 135.776 320.651 136.375 314.109C136.973 307.566 142.342 279.021 142.342 279.021C142.342 279.021 143.535 286.155 148.31 289.724C153.085 293.294 153.684 306.373 157.86 309.351C162.037 312.329 166.218 318.866 166.218 324.221C166.218 329.575 178.753 341.424 188.902 337.876C199.051 334.327 195.469 333.139 185.918 326.597C176.368 320.055 178.159 313.512 163.235 301.621C148.31 289.729 152.492 250.475 142.342 249.287C132.193 248.099 117.867 252.856 116.675 257.017C115.482 261.178 117.867 282.59 116.076 281.994C114.285 281.397 111.004 277.542 110.108 270.699C110.707 284.37 111.004 290.02 108.916 288.832C106.828 287.644 105.932 273.666 105.932 273.666C105.932 273.666 108.02 290.616 105.932 290.912C103.844 291.208 101.756 275.15 101.756 275.15C101.756 275.15 103.844 285.262 101.459 284.665C99.0738 284.069 96.6835 266.823 97.876 265.339C96.3814 275.15 93.3976 275.747 93.3976 275.747C93.3976 275.747 92.2051 258.205 109.515 244.524C126.824 230.843 161.146 215.683 167.713 207.952C174.28 200.222 185.918 193.384 188.902 186.841C191.886 180.299 200.244 165.434 214.866 166.623C229.489 167.811 221.433 163.65 221.433 163.65C221.433 163.65 213.377 155.323 205.915 155.027C198.452 154.731 192.485 165.139 192.485 165.139L200.843 150.57C200.843 150.57 207.409 154.435 212.481 152.355C217.553 150.275 219.048 148.785 212.778 137.485C208.003 128.266 218.746 122.024 217.85 118.751C216.954 115.477 209.492 114.59 207.701 109.832C205.909 105.074 202.629 96.1559 193.672 97.6397C184.715 99.1235 190.985 111.617 197.848 116.374C204.712 121.132 205.311 155.919 191.282 157.704C177.253 159.489 166.213 147.592 166.51 141.351C166.807 135.109 177.852 135.996 178.445 133.024C179.039 130.051 181.122 120.784 187.699 116.966C194.276 113.148 194.859 93.6847 188.595 92.391C182.33 91.0973 176.357 99.4192 173.076 99.4192C169.796 99.4192 156.366 100.016 155.767 108.338C155.168 116.66 157.262 130.637 152.184 130.637C147.107 130.637 126.22 133.314 131.589 142.232C136.958 151.151 152.778 149.071 151.585 154.721C150.393 160.371 147.107 166.913 160.839 163.639C174.571 160.365 163.823 166.612 162.63 167.209C161.438 167.805 156.064 166.021 149.497 190.997C142.931 215.973 126.946 229.058 126.946 229.058C126.946 229.058 159.943 213.893 162.63 201.7C165.317 189.508 161.136 181.777 161.136 181.777C161.136 181.777 162.328 192.185 169.192 190.997C176.055 189.809 196.947 161.854 215.751 161.854C234.555 161.854 233.957 182.374 227.39 185.046C220.823 187.718 212.169 194.265 211.273 196.05C210.377 197.835 196.947 210.027 189.485 214.484C182.023 218.941 171.577 232.025 168.296 233.219C165.015 234.412 141.733 246.599 141.733 246.599C141.733 246.599 176.951 240.653 191.87 246.003C206.789 251.352 179.357 231.45 178.44 228.16C177.523 224.87 186.496 227.268 195.749 219.833C201.42 215.371 206.795 219.833 211.57 214.479C216.345 209.124 223.351 185.933 229.399 188.61C235.446 191.287 233.029 215.968 231.55 230.536C230.072 245.105 240.221 257.894 247.683 266.812C255.146 275.731 244.699 304.578 239.325 309.927" stroke="white" stroke-width="2" stroke-miterlimit="10"/>
<path d="M264.113 272.003C264.113 272.003 265.756 285.568 269.784 288.246C273.812 290.923 302.914 322.589 302.914 332.4C302.914 342.211 301.721 348.458 283.516 358.717C269.789 363.179 269.789 364.515 270.685 368.528C271.581 372.541 277.845 366.744 285.456 368.528C293.067 370.313 298.441 368.085 302.914 364.959C307.387 361.833 320.822 360.053 327.537 362.282C334.252 364.51 340.072 357.82 332.911 343.996C325.751 330.166 316.349 309.652 312.766 292.702C309.184 275.752 295.308 269.579 295.308 271.998C295.308 274.416 307.843 293.595 324.405 289.581C331.565 286.904 307.843 284.676 304.705 268.618C301.568 252.561 308.288 263.264 315.899 259.251C317.24 266.834 312.766 271.739 357.084 329.274C369.619 348.901 365.591 363.174 351.71 372.536C337.83 381.898 354.233 387.701 364.61 385.473C374.987 383.245 389.764 365.402 390.209 364.066C390.654 362.731 382.598 354.256 383.494 348.901C384.389 343.547 374.987 335.072 376.334 331.059C377.68 327.046 371.41 292.253 353.056 279.765C345.446 275.752 357.98 278.429 360.667 278.873C363.354 279.316 372.306 271.739 374.547 259.246C383.054 268.613 365.596 281.994 365.596 281.994C365.596 281.994 372.756 288.24 374.998 299.387C377.24 310.534 411.26 312.324 417.079 305.634C422.899 298.944 430.509 277.537 411.26 261.479C392.011 245.422 374.102 251.668 373.657 246.314C373.212 240.96 382.163 222.23 381.713 217.325C381.262 212.419 361.568 203.052 357.09 204.837C352.611 206.621 352.611 226.243 347.242 227.585C341.874 228.926 297.105 237.554 283.675 252.191C270.245 266.828 274.724 289.581 277.856 292.253C280.988 294.925 283.23 290.469 283.23 290.469C283.23 290.469 276.515 281.291 285.917 276.639C295.319 271.987 293.973 260.138 294.869 257.904C295.764 255.671 296.66 253.891 325.311 254.784C343.856 256.12 346.797 252.265 349.039 252.186C352.622 252.107 357.095 252.186 357.095 252.186C357.095 252.186 368.733 242.296 371.421 234.269C374.108 226.243 380.372 213.75 392.906 200.818C405.441 187.887 391.565 157.556 379.922 161.569C368.278 165.582 359.777 183.425 354.853 197.698C349.929 211.97 350.375 231.149 335.604 224.459C320.833 217.768 319.487 191.451 319.487 191.451C319.487 191.451 334.65 206.637 306.952 217.768C279.197 228.92 270.245 226.243 268.899 226.243C258.087 226.243 233.024 213.697 233.024 213.697V197.713C233.024 197.713 258.601 205.729 268.003 206.173C277.405 206.616 291.281 189.671 296.204 183.874C301.128 178.076 307.843 172.278 315.008 173.614C322.174 174.95 327.993 179.412 332.021 185.658C336.049 191.905 342.319 187.887 344.11 182.538C345.901 177.189 351.721 143.289 344.11 134.365C336.499 125.441 336.95 137.042 334.708 137.042C332.466 137.042 323.515 124.997 319.041 126.339C314.568 127.68 310.986 134.365 308.299 134.814C305.612 135.262 305.612 127.231 299.792 129.016C293.973 130.8 292.182 134.814 292.182 134.814C292.182 134.814 295.314 111.173 312.327 106.268C329.339 101.362 330.68 106.711 333.367 108.053C336.054 109.394 350.38 108.945 349.929 125.003C349.479 141.06 346.797 147.302 343.66 148.643C340.522 149.984 336.945 149.086 336.049 153.548C335.153 158.01 333.812 166.485 318.591 168.714C303.37 170.942 299.787 142.396 299.787 135.706C299.787 129.016 313.842 103.591 328.3 110.281C342.759 116.971 349.028 122.769 350.375 145.96C351.721 169.152 357.535 154.435 367.832 154.879C378.13 155.323 393.352 153.543 405.886 187.887C418.42 222.23 430.059 235.611 429.614 240.516C429.168 245.422 432.746 262.815 432.746 262.815" stroke="white" stroke-width="2" stroke-miterlimit="10"/>
</g>
<path d="M15.3 38.44L13.8 43H11.46L16.42 29.2H19.26L24.08 43H21.7L20.2 38.44H15.3ZM15.88 36.7H19.62L17.8 31.02L15.88 36.7ZM27.625 39.76C27.625 40.12 27.625 40.44 27.645 40.76C27.685 41.36 27.965 41.56 28.905 41.48V43.02C28.465 43.08 27.965 43.12 27.465 43.12C26.305 43.12 25.525 42.7 25.445 41.34C25.425 40.94 25.425 40.46 25.425 39.82V28.3H27.625V39.76ZM32.8594 39.76C32.8594 40.12 32.8594 40.44 32.8794 40.76C32.9194 41.36 33.1994 41.56 34.1394 41.48V43.02C33.6994 43.08 33.1994 43.12 32.6994 43.12C31.5394 43.12 30.7594 42.7 30.6794 41.34C30.6594 40.94 30.6594 40.46 30.6594 39.82V28.3H32.8594V39.76ZM45.1138 37.42C45.1138 37.62 45.1138 37.92 45.0738 38.3H37.4538C37.6338 40.84 38.7938 41.68 40.2338 41.68C41.5138 41.68 42.5138 40.9 42.7338 39.56H44.9538C44.4938 42.08 42.4738 43.28 40.1538 43.28C37.3138 43.28 35.1738 41.48 35.1738 37.72C35.1738 34.36 37.3138 32.1 40.3738 32.1C43.4538 32.1 45.1138 34.42 45.1138 37.42ZM37.4738 36.76H42.8538C42.6938 34.8 41.8338 33.7 40.2938 33.7C38.7938 33.7 37.7138 34.72 37.4738 36.76ZM54.8042 43H46.3042V41.48L52.2842 34.04H46.7042V32.46H54.7242V34.04L48.7842 41.42H54.8042V43ZM64.2961 32.1C66.7361 32.1 68.0961 33.48 68.3361 35.42H66.0961C65.8761 34.3 65.2161 33.64 64.1361 33.64C63.0961 33.64 62.5961 34.22 62.5961 35.02C62.5961 35.98 63.3761 36.38 64.9561 36.8C67.2761 37.4 68.4961 38.32 68.4961 40.2C68.4961 42.26 66.6761 43.28 64.3561 43.28C61.9961 43.28 60.2561 42.22 59.9561 39.82H62.1761C62.4361 41.18 63.3361 41.72 64.4361 41.72C65.4561 41.72 66.2761 41.28 66.2761 40.36C66.2761 39.44 65.5561 38.94 63.7561 38.46C61.8161 37.96 60.3761 37.14 60.3761 35.28C60.3761 33.3 61.9361 32.1 64.2961 32.1ZM71.2678 33.52H69.4278L70.9878 28.3H73.2278V28.5L71.2678 33.52ZM75.7003 43V32.38H77.9003V43H75.7003ZM75.7003 31.22V28.68H77.9203V31.22H75.7003ZM82.8398 39.76C82.8398 40.12 82.8398 40.44 82.8598 40.76C82.8998 41.36 83.1798 41.56 84.1198 41.48V43.02C83.6798 43.08 83.1798 43.12 82.6798 43.12C81.5198 43.12 80.7398 42.7 80.6598 41.34C80.6398 40.94 80.6398 40.46 80.6398 39.82V28.3H82.8398V39.76ZM92.6953 39.56C92.6953 39.92 92.6953 40.16 92.7153 40.44C92.7953 41.48 93.1953 41.7 94.6353 41.56V43.08C94.0753 43.16 93.5553 43.2 93.0153 43.2C91.3553 43.2 90.6353 42.58 90.5353 41.18C90.5153 40.82 90.5153 40.36 90.5153 39.76V34H89.0153V32.46H90.5153V29.92H92.6953V32.46H94.7753V34H92.6953V39.56ZM105.68 37.42C105.68 37.62 105.68 37.92 105.64 38.3H98.0202C98.2002 40.84 99.3602 41.68 100.8 41.68C102.08 41.68 103.08 40.9 103.3 39.56H105.52C105.06 42.08 103.04 43.28 100.72 43.28C97.8802 43.28 95.7402 41.48 95.7402 37.72C95.7402 34.36 97.8802 32.1 100.94 32.1C104.02 32.1 105.68 34.42 105.68 37.42ZM98.0402 36.76H103.42C103.26 34.8 102.4 33.7 100.86 33.7C99.3602 33.7 98.2802 34.72 98.0402 36.76ZM117.672 32.1C120.712 32.1 122.452 34.4 122.452 37.5C122.452 41.4 120.052 43.28 117.312 43.28C116.432 43.28 115.332 43.04 114.792 42.62L114.092 41.56V46.92H111.892V32.38H114.092V34.04L114.892 32.9C115.492 32.4 116.592 32.1 117.672 32.1ZM114.092 38.12C114.092 40.72 115.652 41.68 117.052 41.68C118.812 41.68 120.132 40.34 120.132 37.7C120.132 35.4 119.072 33.7 117.152 33.7C115.512 33.7 114.092 34.74 114.092 37.58V38.12ZM126.531 39.76C126.531 40.12 126.531 40.44 126.551 40.76C126.591 41.36 126.871 41.56 127.811 41.48V43.02C127.371 43.08 126.871 43.12 126.371 43.12C125.211 43.12 124.431 42.7 124.351 41.34C124.331 40.94 124.331 40.46 124.331 39.82V28.3H126.531V39.76ZM135.358 42.6C134.638 43.1 133.718 43.28 132.718 43.28C130.838 43.28 129.298 42.2 129.298 40.22C129.298 37.86 131.178 36.58 135.198 36.58H135.878V36.32C135.878 35.92 135.878 35.56 135.838 35.16C135.778 34.3 135.238 33.7 133.978 33.7C132.698 33.7 132.038 34.42 131.918 35.74H129.718C129.858 33.42 131.598 32.1 134.018 32.1C136.758 32.1 137.838 33.26 138.018 35.06C138.058 35.5 138.078 36.06 138.078 36.56V40.3C138.078 41.1 138.118 41.82 138.278 43H136.098L135.898 41.46L135.358 42.6ZM131.618 40.04C131.618 41.16 132.358 41.68 133.518 41.68C134.898 41.68 135.878 40.74 135.878 39.02V38.04C133.298 37.84 131.618 38.42 131.618 40.04ZM140.876 43V32.38H143.076V43H140.876ZM140.876 31.22V28.68H143.096V31.22H140.876ZM148.516 39.56C148.516 39.92 148.516 40.16 148.536 40.44C148.616 41.48 149.016 41.7 150.456 41.56V43.08C149.896 43.16 149.376 43.2 148.836 43.2C147.176 43.2 146.456 42.58 146.356 41.18C146.336 40.82 146.336 40.36 146.336 39.76V34H144.836V32.46H146.336V29.92H148.516V32.46H150.596V34H148.516V39.56ZM156.656 45.42H154.736L156.316 40.64H158.536V40.84L156.656 45.42ZM169.685 41.68C170.945 41.68 171.845 40.92 172.165 39.48H174.405C173.925 41.88 172.265 43.14 169.965 43.26L169.685 43.82C170.785 43.96 171.365 44.52 171.365 45.44C171.365 46.62 170.245 47.2 168.685 47.2C168.305 47.2 167.945 47.16 167.645 47.04V46.02C168.005 46.18 168.345 46.22 168.725 46.22C169.565 46.22 169.965 45.92 169.965 45.44C169.965 44.82 169.445 44.52 168.045 44.62L168.765 43.22C166.385 42.92 164.685 41.16 164.685 37.74C164.685 34.12 167.045 32.1 169.825 32.1C172.505 32.1 174.205 33.72 174.465 36.06H172.245C171.925 34.44 171.065 33.7 169.765 33.7C168.225 33.7 167.005 34.92 167.005 37.58C167.005 40.46 168.205 41.68 169.685 41.68ZM181.744 42.6C181.024 43.1 180.104 43.28 179.104 43.28C177.224 43.28 175.684 42.2 175.684 40.22C175.684 37.86 177.564 36.58 181.584 36.58H182.264V36.32C182.264 35.92 182.264 35.56 182.224 35.16C182.164 34.3 181.624 33.7 180.364 33.7C179.084 33.7 178.424 34.42 178.304 35.74H176.104C176.244 33.42 177.984 32.1 180.404 32.1C183.144 32.1 184.224 33.26 184.404 35.06C184.444 35.5 184.464 36.06 184.464 36.56V40.3C184.464 41.1 184.504 41.82 184.664 43H182.484L182.284 41.46L181.744 42.6ZM178.004 40.04C178.004 41.16 178.744 41.68 179.904 41.68C181.284 41.68 182.264 40.74 182.264 39.02V38.04C179.684 37.84 178.004 38.42 178.004 40.04ZM196.644 43H194.084L190.024 32.38H192.444L195.424 41.38L198.364 32.38H200.704L196.644 43ZM207.526 42.6C206.806 43.1 205.886 43.28 204.886 43.28C203.006 43.28 201.466 42.2 201.466 40.22C201.466 37.86 203.346 36.58 207.366 36.58H208.046V36.32C208.046 35.92 208.046 35.56 208.006 35.16C207.946 34.3 207.406 33.7 206.146 33.7C204.866 33.7 204.206 34.42 204.086 35.74H201.886C202.026 33.42 203.766 32.1 206.186 32.1C208.926 32.1 210.006 33.26 210.186 35.06C210.226 35.5 210.246 36.06 210.246 36.56V40.3C210.246 41.1 210.286 41.82 210.446 43H208.266L208.066 41.46L207.526 42.6ZM203.786 40.04C203.786 41.16 204.526 41.68 205.686 41.68C207.066 41.68 208.046 40.74 208.046 39.02V38.04C205.466 37.84 203.786 38.42 203.786 40.04ZM21.76 63.14C21.8 63.68 21.82 64.16 21.82 65.02V71H19.62V65.26C19.62 64.76 19.62 64.3 19.58 63.76C19.48 62.56 18.84 61.72 17.34 61.72C15.82 61.72 14.58 62.92 14.58 66.24V71H12.38V60.38H14.58V62.14L15.3 60.92C16.14 60.28 16.92 60.1 17.98 60.1C20.26 60.1 21.56 61.28 21.76 63.14ZM29.0889 60.1C32.6489 60.1 34.4689 62.58 34.4689 65.68C34.4689 68.78 32.6489 71.28 29.0889 71.28C25.5089 71.28 23.7089 68.78 23.7089 65.68C23.7089 62.58 25.5089 60.1 29.0889 60.1ZM26.0289 65.68C26.0289 68.08 27.1489 69.68 29.0889 69.68C31.0089 69.68 32.1289 68.08 32.1289 65.68C32.1289 63.28 31.0089 61.7 29.0889 61.7C27.1489 61.7 26.0289 63.28 26.0289 65.68ZM45.6634 71H43.4834V69.18L42.7434 70.5C41.9034 71.1 41.1234 71.28 40.0634 71.28C37.8634 71.28 36.5834 70.04 36.3434 68.58C36.2634 68.04 36.2434 67.56 36.2434 66.7V60.38H38.4234V66.26C38.4234 66.6 38.4434 67.18 38.5034 67.72C38.6634 68.88 39.4234 69.64 40.7834 69.64C42.3234 69.64 43.4834 68.46 43.4834 65.38V60.38H45.6634V71ZM51.8938 60.1C54.3338 60.1 55.6938 61.48 55.9338 63.42H53.6938C53.4738 62.3 52.8138 61.64 51.7338 61.64C50.6938 61.64 50.1938 62.22 50.1938 63.02C50.1938 63.98 50.9738 64.38 52.5538 64.8C54.8738 65.4 56.0938 66.32 56.0938 68.2C56.0938 70.26 54.2738 71.28 51.9538 71.28C49.5938 71.28 47.8538 70.22 47.5538 67.82H49.7738C50.0337 69.18 50.9338 69.72 52.0338 69.72C53.0538 69.72 53.8738 69.28 53.8738 68.36C53.8738 67.44 53.1538 66.94 51.3538 66.46C49.4138 65.96 47.9738 65.14 47.9738 63.28C47.9738 61.3 49.5338 60.1 51.8938 60.1ZM64.5266 58.64C64.4866 58.92 64.4666 59.36 64.4666 59.66V60.46H66.6466V62H64.4666V71H62.2866V62H61.1466V60.46H62.2866V59.78C62.2866 59.4 62.2866 58.88 62.3266 58.52C62.5066 56.88 63.6066 55.92 65.6066 55.92C66.0466 55.92 66.4666 55.96 66.8266 56.04V57.68C65.5266 57.44 64.6466 57.76 64.5266 58.64ZM73.717 70.6C72.997 71.1 72.077 71.28 71.077 71.28C69.197 71.28 67.657 70.2 67.657 68.22C67.657 65.86 69.537 64.58 73.557 64.58H74.237V64.32C74.237 63.92 74.237 63.56 74.197 63.16C74.137 62.3 73.597 61.7 72.337 61.7C71.057 61.7 70.397 62.42 70.277 63.74H68.077C68.217 61.42 69.957 60.1 72.377 60.1C75.117 60.1 76.197 61.26 76.377 63.06C76.417 63.5 76.437 64.06 76.437 64.56V68.3C76.437 69.1 76.477 69.82 76.637 71H74.457L74.257 69.46L73.717 70.6ZM69.977 68.04C69.977 69.16 70.717 69.68 71.877 69.68C73.257 69.68 74.237 68.74 74.237 67.02V66.04C71.657 65.84 69.977 66.42 69.977 68.04ZM79.2355 71V60.38H81.4355V71H79.2355ZM79.2355 59.22V56.68H81.4555V59.22H79.2355ZM88.995 60.12C89.295 60.12 89.515 60.16 89.735 60.24V61.96C87.715 61.82 86.455 62.86 86.455 65.48V71H84.255V60.38H86.455V62.18L87.355 60.72C87.835 60.34 88.455 60.12 88.995 60.12ZM100.27 65.42C100.27 65.62 100.27 65.92 100.23 66.3H92.61C92.79 68.84 93.95 69.68 95.39 69.68C96.67 69.68 97.67 68.9 97.89 67.56H100.11C99.65 70.08 97.63 71.28 95.31 71.28C92.47 71.28 90.33 69.48 90.33 65.72C90.33 62.36 92.47 60.1 95.53 60.1C98.61 60.1 100.27 62.42 100.27 65.42ZM92.63 64.76H98.01C97.85 62.8 96.99 61.7 95.45 61.7C93.95 61.7 92.87 62.72 92.63 64.76ZM116.242 71H114.042V69.32L113.242 70.48C112.642 70.96 111.542 71.28 110.462 71.28C107.422 71.28 105.682 68.98 105.682 65.86C105.682 61.98 108.082 60.1 110.822 60.1C111.702 60.1 112.802 60.34 113.342 60.76L114.042 61.82V56.3H116.242V71ZM108.002 65.68C108.002 67.98 109.062 69.68 110.962 69.68C112.622 69.68 114.042 68.64 114.042 65.8V65.24C114.042 62.66 112.482 61.7 111.062 61.7C109.322 61.7 108.002 63.04 108.002 65.68ZM128.32 71H126.14V69.18L125.4 70.5C124.56 71.1 123.78 71.28 122.72 71.28C120.52 71.28 119.24 70.04 119 68.58C118.92 68.04 118.9 67.56 118.9 66.7V60.38H121.08V66.26C121.08 66.6 121.1 67.18 121.16 67.72C121.32 68.88 122.08 69.64 123.44 69.64C124.98 69.64 126.14 68.46 126.14 65.38V60.38H128.32V71ZM141.031 60.1C144.071 60.1 145.811 62.4 145.811 65.5C145.811 69.4 143.411 71.28 140.671 71.28C139.791 71.28 138.691 71.04 138.151 70.62L137.451 69.56V71H135.251V56.3H137.451V62.04L138.251 60.9C138.851 60.4 139.951 60.1 141.031 60.1ZM137.451 66.12C137.451 68.72 139.011 69.68 140.411 69.68C142.171 69.68 143.491 68.34 143.491 65.7C143.491 63.4 142.431 61.7 140.511 61.7C138.871 61.7 137.451 62.74 137.451 65.58V66.12ZM147.771 71V60.38H149.971V71H147.771ZM147.771 59.22V56.68H149.991V59.22H147.771ZM161.93 65.42C161.93 65.62 161.93 65.92 161.89 66.3H154.27C154.45 68.84 155.61 69.68 157.05 69.68C158.33 69.68 159.33 68.9 159.55 67.56H161.77C161.31 70.08 159.29 71.28 156.97 71.28C154.13 71.28 151.99 69.48 151.99 65.72C151.99 62.36 154.13 60.1 157.19 60.1C160.27 60.1 161.93 62.42 161.93 65.42ZM154.29 64.76H159.67C159.51 62.8 158.65 61.7 157.11 61.7C155.61 61.7 154.53 62.72 154.29 64.76ZM173.401 63.14C173.441 63.68 173.461 64.16 173.461 65.02V71H171.261V65.26C171.261 64.76 171.261 64.3 171.221 63.76C171.121 62.56 170.481 61.72 168.981 61.72C167.461 61.72 166.221 62.92 166.221 66.24V71H164.021V60.38H166.221V62.14L166.941 60.92C167.781 60.28 168.561 60.1 169.621 60.1C171.901 60.1 173.201 61.28 173.401 63.14ZM175.53 68.36H178.47V71.28H175.53V68.36Z" fill="white"/>
<path d="M315.26 23.54C315.26 24.1 315.26 24.54 315.2 25.32C315.06 27.66 313.62 29.28 310.54 29.28C307.68 29.28 306.16 27.6 306.08 24.92L306.06 24.16H308.26L308.3 24.92C308.4 26.8 309.26 27.6 310.74 27.6C312.2 27.6 312.92 26.68 313.04 25.18C313.06 24.76 313.06 24.28 313.06 23.64V15.2H315.26V23.54ZM326.887 23.42C326.887 23.62 326.887 23.92 326.847 24.3H319.227C319.407 26.84 320.567 27.68 322.007 27.68C323.287 27.68 324.287 26.9 324.507 25.56H326.727C326.267 28.08 324.247 29.28 321.927 29.28C319.087 29.28 316.947 27.48 316.947 23.72C316.947 20.36 319.087 18.1 322.147 18.1C325.227 18.1 326.887 20.42 326.887 23.42ZM319.247 22.76H324.627C324.467 20.8 323.607 19.7 322.067 19.7C320.567 19.7 319.487 20.72 319.247 22.76ZM335.719 25.56C335.719 25.92 335.719 26.16 335.739 26.44C335.819 27.48 336.219 27.7 337.659 27.56V29.08C337.099 29.16 336.579 29.2 336.039 29.2C334.379 29.2 333.659 28.58 333.559 27.18C333.539 26.82 333.539 26.36 333.539 25.76V20H332.039V18.46H333.539V15.92H335.719V18.46H337.799V20H335.719V25.56ZM340.678 19.52H338.838L340.398 14.3H342.638V14.5L340.678 19.52ZM350.49 28.6C349.77 29.1 348.85 29.28 347.85 29.28C345.97 29.28 344.43 28.2 344.43 26.22C344.43 23.86 346.31 22.58 350.33 22.58H351.01V22.32C351.01 21.92 351.01 21.56 350.97 21.16C350.91 20.3 350.37 19.7 349.11 19.7C347.83 19.7 347.17 20.42 347.05 21.74H344.85C344.99 19.42 346.73 18.1 349.15 18.1C351.89 18.1 352.97 19.26 353.15 21.06C353.19 21.5 353.21 22.06 353.21 22.56V26.3C353.21 27.1 353.25 27.82 353.41 29H351.23L351.03 27.46L350.49 28.6ZM346.75 26.04C346.75 27.16 347.49 27.68 348.65 27.68C350.03 27.68 351.01 26.74 351.01 25.02V24.04C348.43 23.84 346.75 24.42 346.75 26.04ZM356.009 29V18.38H358.209V29H356.009ZM356.009 17.22V14.68H358.229V17.22H356.009ZM374.91 29H372.71V27.32L371.91 28.48C371.31 28.96 370.21 29.28 369.13 29.28C366.09 29.28 364.35 26.98 364.35 23.86C364.35 19.98 366.75 18.1 369.49 18.1C370.37 18.1 371.47 18.34 372.01 18.76L372.71 19.82V14.3H374.91V29ZM366.67 23.68C366.67 25.98 367.73 27.68 369.63 27.68C371.29 27.68 372.71 26.64 372.71 23.8V23.24C372.71 20.66 371.15 19.7 369.73 19.7C367.99 19.7 366.67 21.04 366.67 23.68ZM381.228 17.44L382.608 15.16H384.608L382.548 17.44H381.228ZM376.928 23.72C376.928 20.36 379.068 18.1 382.128 18.1C385.208 18.1 386.868 20.42 386.868 23.42C386.868 23.62 386.868 23.92 386.828 24.3H379.208C379.388 26.84 380.548 27.68 381.988 27.68C383.268 27.68 384.268 26.9 384.488 25.56H386.708C386.248 28.08 384.228 29.28 381.908 29.28C379.068 29.28 376.928 27.48 376.928 23.72ZM379.228 22.76H384.608C384.448 20.8 383.588 19.7 382.048 19.7C380.548 19.7 379.468 20.72 379.228 22.76ZM391.058 29.62C391.058 30.02 391.038 30.54 391.018 30.9C390.878 32.36 390.058 33.2 388.058 33.2C387.698 33.2 387.418 33.2 387.138 33.16V31.5C388.278 31.6 388.758 31.3 388.838 30.58C388.878 30.3 388.878 29.98 388.878 29.68V18.38H391.058V29.62ZM388.858 17.18V14.64H391.078V17.18H388.858ZM399.24 28.6C398.52 29.1 397.6 29.28 396.6 29.28C394.72 29.28 393.18 28.2 393.18 26.22C393.18 23.86 395.06 22.58 399.08 22.58H399.76V22.32C399.76 21.92 399.76 21.56 399.72 21.16C399.66 20.3 399.12 19.7 397.86 19.7C396.58 19.7 395.92 20.42 395.8 21.74H393.6C393.74 19.42 395.48 18.1 397.9 18.1C400.64 18.1 401.72 19.26 401.9 21.06C401.94 21.5 401.96 22.06 401.96 22.56V26.3C401.96 27.1 402 27.82 402.16 29H399.98L399.78 27.46L399.24 28.6ZM395.5 26.04C395.5 27.16 396.24 27.68 397.4 27.68C398.78 27.68 399.76 26.74 399.76 25.02V24.04C397.18 23.84 395.5 24.42 395.5 26.04ZM418.64 29H416.44V27.32L415.64 28.48C415.04 28.96 413.94 29.28 412.86 29.28C409.82 29.28 408.08 26.98 408.08 23.86C408.08 19.98 410.48 18.1 413.22 18.1C414.1 18.1 415.2 18.34 415.74 18.76L416.44 19.82V14.3H418.64V29ZM410.4 23.68C410.4 25.98 411.46 27.68 413.36 27.68C415.02 27.68 416.44 26.64 416.44 23.8V23.24C416.44 20.66 414.88 19.7 413.46 19.7C411.72 19.7 410.4 21.04 410.4 23.68ZM421.458 29V18.38H423.658V29H421.458ZM421.458 17.22V14.68H423.678V17.22H421.458ZM429.098 25.56C429.098 25.92 429.098 26.16 429.118 26.44C429.198 27.48 429.598 27.7 431.038 27.56V29.08C430.478 29.16 429.958 29.2 429.418 29.2C427.758 29.2 427.038 28.58 426.938 27.18C426.918 26.82 426.918 26.36 426.918 25.76V20H425.418V18.46H426.918V15.92H429.098V18.46H431.178V20H429.098V25.56ZM446.678 21.14C446.718 21.68 446.738 22.16 446.738 23.02V29H444.538V23.26C444.538 22.76 444.538 22.3 444.498 21.76C444.398 20.56 443.758 19.72 442.258 19.72C440.738 19.72 439.498 20.92 439.498 24.24V29H437.298V18.38H439.498V20.14L440.218 18.92C441.058 18.28 441.838 18.1 442.898 18.1C445.178 18.1 446.478 19.28 446.678 21.14ZM454.007 18.1C457.567 18.1 459.387 20.58 459.387 23.68C459.387 26.78 457.567 29.28 454.007 29.28C450.427 29.28 448.627 26.78 448.627 23.68C448.627 20.58 450.427 18.1 454.007 18.1ZM450.947 23.68C450.947 26.08 452.067 27.68 454.007 27.68C455.927 27.68 457.047 26.08 457.047 23.68C457.047 21.28 455.927 19.7 454.007 19.7C452.067 19.7 450.947 21.28 450.947 23.68ZM470.701 21.14C470.741 21.68 470.761 22.16 470.761 23.02V29H468.561V23.26C468.561 22.76 468.561 22.3 468.521 21.76C468.421 20.56 467.781 19.72 466.281 19.72C464.761 19.72 463.521 20.92 463.521 24.24V29H461.321V18.38H463.521V20.14L464.241 18.92C465.081 18.28 465.861 18.1 466.921 18.1C469.201 18.1 470.501 19.28 470.701 21.14ZM477.511 31.42H475.591L477.171 26.64H479.391V26.84L477.511 31.42ZM488.441 29.62C488.441 30.02 488.421 30.54 488.401 30.9C488.261 32.36 487.441 33.2 485.441 33.2C485.081 33.2 484.801 33.2 484.521 33.16V31.5C485.661 31.6 486.141 31.3 486.221 30.58C486.261 30.3 486.261 29.98 486.261 29.68V18.38H488.441V29.62ZM486.241 17.18V14.64H488.461V17.18H486.241ZM492.123 19.52H490.283L491.843 14.3H494.083V14.5L492.123 19.52ZM501.936 28.6C501.216 29.1 500.296 29.28 499.296 29.28C497.416 29.28 495.876 28.2 495.876 26.22C495.876 23.86 497.756 22.58 501.776 22.58H502.456V22.32C502.456 21.92 502.456 21.56 502.416 21.16C502.356 20.3 501.816 19.7 500.556 19.7C499.276 19.7 498.616 20.42 498.496 21.74H496.296C496.436 19.42 498.176 18.1 500.596 18.1C503.336 18.1 504.416 19.26 504.596 21.06C504.636 21.5 504.656 22.06 504.656 22.56V26.3C504.656 27.1 504.696 27.82 504.856 29H502.676L502.476 27.46L501.936 28.6ZM498.196 26.04C498.196 27.16 498.936 27.68 500.096 27.68C501.476 27.68 502.456 26.74 502.456 25.02V24.04C499.876 23.84 498.196 24.42 498.196 26.04ZM507.454 29V18.38H509.654V29H507.454ZM507.454 17.22V14.68H509.674V17.22H507.454ZM312.16 46.1C315.2 46.1 316.94 48.4 316.94 51.5C316.94 55.4 314.54 57.28 311.8 57.28C310.92 57.28 309.82 57.04 309.28 56.62L308.58 55.56V60.92H306.38V46.38H308.58V48.04L309.38 46.9C309.98 46.4 311.08 46.1 312.16 46.1ZM308.58 52.12C308.58 54.72 310.14 55.68 311.54 55.68C313.3 55.68 314.62 54.34 314.62 51.7C314.62 49.4 313.56 47.7 311.64 47.7C310 47.7 308.58 48.74 308.58 51.58V52.12ZM324.28 56.6C323.56 57.1 322.64 57.28 321.64 57.28C319.76 57.28 318.22 56.2 318.22 54.22C318.22 51.86 320.1 50.58 324.12 50.58H324.8V50.32C324.8 49.92 324.8 49.56 324.76 49.16C324.7 48.3 324.16 47.7 322.9 47.7C321.62 47.7 320.96 48.42 320.84 49.74H318.64C318.78 47.42 320.52 46.1 322.94 46.1C325.68 46.1 326.76 47.26 326.94 49.06C326.98 49.5 327 50.06 327 50.56V54.3C327 55.1 327.04 55.82 327.2 57H325.02L324.82 55.46L324.28 56.6ZM320.54 54.04C320.54 55.16 321.28 55.68 322.44 55.68C323.82 55.68 324.8 54.74 324.8 53.02V52.04C322.22 51.84 320.54 52.42 320.54 54.04ZM333.218 46.1C335.658 46.1 337.018 47.48 337.258 49.42H335.018C334.798 48.3 334.138 47.64 333.058 47.64C332.018 47.64 331.518 48.22 331.518 49.02C331.518 49.98 332.298 50.38 333.878 50.8C336.198 51.4 337.418 52.32 337.418 54.2C337.418 56.26 335.598 57.28 333.278 57.28C330.918 57.28 329.178 56.22 328.878 53.82H331.098C331.358 55.18 332.258 55.72 333.358 55.72C334.378 55.72 335.198 55.28 335.198 54.36C335.198 53.44 334.478 52.94 332.678 52.46C330.738 51.96 329.298 51.14 329.298 49.28C329.298 47.3 330.858 46.1 333.218 46.1ZM352.571 51.42C352.571 51.62 352.571 51.92 352.531 52.3H344.911C345.091 54.84 346.251 55.68 347.691 55.68C348.971 55.68 349.971 54.9 350.191 53.56H352.411C351.951 56.08 349.931 57.28 347.611 57.28C344.771 57.28 342.631 55.48 342.631 51.72C342.631 48.36 344.771 46.1 347.831 46.1C350.911 46.1 352.571 48.42 352.571 51.42ZM344.931 50.76H350.311C350.151 48.8 349.291 47.7 347.751 47.7C346.251 47.7 345.171 48.72 344.931 50.76ZM364.041 49.14C364.081 49.68 364.101 50.16 364.101 51.02V57H361.901V51.26C361.901 50.76 361.901 50.3 361.861 49.76C361.761 48.56 361.121 47.72 359.621 47.72C358.101 47.72 356.861 48.92 356.861 52.24V57H354.661V46.38H356.861V48.14L357.581 46.92C358.421 46.28 359.201 46.1 360.261 46.1C362.541 46.1 363.841 47.28 364.041 49.14ZM372.05 57H369.49L365.43 46.38H367.85L370.83 55.38L373.77 46.38H376.11L372.05 57ZM377.552 57V46.38H379.752V57H377.552ZM377.552 45.22V42.68H379.772V45.22H377.552ZM391.711 51.42C391.711 51.62 391.711 51.92 391.671 52.3H384.051C384.231 54.84 385.391 55.68 386.831 55.68C388.111 55.68 389.111 54.9 389.331 53.56H391.551C391.091 56.08 389.071 57.28 386.751 57.28C383.911 57.28 381.771 55.48 381.771 51.72C381.771 48.36 383.911 46.1 386.971 46.1C390.051 46.1 391.711 48.42 391.711 51.42ZM384.071 50.76H389.451C389.291 48.8 388.431 47.7 386.891 47.7C385.391 47.7 384.311 48.72 384.071 50.76ZM393.182 54.36H396.122V57.28H393.182V54.36Z" fill="white"/>
<mask id="path-5-inside-1_310_9" fill="white">
<path fill-rule="evenodd" clip-rule="evenodd" d="M548 0H278V66.1084H277.971L263 99.0796L321.633 70H548V47.5354V0Z"/>
</mask>
<path d="M278 0V-2H276V0H278ZM548 0H550V-2H548V0ZM278 66.1084V68.1084H280V66.1084H278ZM277.971 66.1084V64.1084H276.682L276.15 65.2816L277.971 66.1084ZM263 99.0796L261.179 98.2528L258.857 103.367L263.889 100.871L263 99.0796ZM321.633 70V68H321.165L320.745 68.2083L321.633 70ZM548 70V72H550V70H548ZM278 2H548V-2H278V2ZM280 66.1084V0H276V66.1084H280ZM277.971 68.1084H278V64.1084H277.971V68.1084ZM264.821 99.9065L279.792 66.9353L276.15 65.2816L261.179 98.2528L264.821 99.9065ZM320.745 68.2083L262.111 97.2879L263.889 100.871L322.522 71.7917L320.745 68.2083ZM548 68H321.633V72H548V68ZM546 47.5354V70H550V47.5354H546ZM546 0V47.5354H550V0H546Z" fill="white" mask="url(#path-5-inside-1_310_9)"/>
<mask id="path-7-inside-2_310_9" fill="white">
<path fill-rule="evenodd" clip-rule="evenodd" d="M-1.90735e-06 14H270V80.1084H270.029L285 113.08L226.367 84H-1.90735e-06V61.5354V14Z"/>
</mask>
<path d="M270 14V12H272V14H270ZM-1.90735e-06 14H-2V12H-1.90735e-06V14ZM270 80.1084V82.1084H268V80.1084H270ZM270.029 80.1084V78.1084H271.318L271.85 79.2816L270.029 80.1084ZM285 113.08L286.821 112.253L289.143 117.367L284.111 114.871L285 113.08ZM226.367 84V82H226.835L227.255 82.2083L226.367 84ZM-1.90735e-06 84V86H-2V84H-1.90735e-06ZM270 16H-1.90735e-06V12H270V16ZM268 80.1084V14H272V80.1084H268ZM270.029 82.1084H270V78.1084H270.029V82.1084ZM283.179 113.907L268.208 80.9353L271.85 79.2816L286.821 112.253L283.179 113.907ZM227.255 82.2083L285.889 111.288L284.111 114.871L225.478 85.7917L227.255 82.2083ZM-1.90735e-06 82H226.367V86H-1.90735e-06V82ZM2 61.5354V84H-2V61.5354H2ZM2 14V61.5354H-2V14H2Z" fill="white" mask="url(#path-7-inside-2_310_9)"/>
<defs>
<clipPath id="clip0_310_9">
<rect width="403" height="305" fill="white" transform="translate(30 92)"/>
</clipPath>
</defs>
</svg>
