<svg width="177" height="556" viewBox="0 0 177 556" fill="none" xmlns="http://www.w3.org/2000/svg">
<g clip-path="url(#clip0_143_379)">
<path d="M2.94917 547.749C2.94917 547.749 20.4805 553.577 27.3045 547.749C34.1285 541.921 39.9665 527.36 39.9665 527.36C39.9665 527.36 43.8585 558.914 19.0275 555.276C-5.80353 551.638 5.146 530.998 20.0048 517.411C-1.66935 512.557 6.85848 489.495 11.2348 436.336C13.6738 401.781 24.7098 392.074 24.7098 392.074C24.7098 392.074 24.3812 279.763 41.5925 271.349C58.8039 262.934 61.7272 275.883 81.5332 276.202C62.0558 292.247 30.8852 275.228 38.3492 244.803C45.8132 214.379 42.2412 145.115 47.4392 140.589C52.6372 136.062 57.5065 171.332 36.4032 168.746C27.9618 167.125 19.5205 166.478 19.5205 166.478C19.5205 166.478 41.6012 164.858 40.3038 178.126C39.0065 191.394 32.5112 207.257 31.8625 216.319C31.2138 225.38 33.8085 233.794 27.3132 248.037C20.8178 262.279 24.0698 275.547 26.0158 284.608C27.9618 293.669 35.4345 307.584 30.8852 313.093C26.3358 318.602 27.6418 298.204 22.7638 300.791C17.8858 303.377 16.9172 321.827 23.4125 330.569C12.6965 339.63 -1.59151 318.594 0.683156 304.998C2.95782 291.402 8.14717 293.35 4.90383 246.416C3.27783 214.051 12.0478 207.576 11.7192 200.136C11.3905 192.696 13.0165 164.53 13.0165 164.53C13.0165 164.53 5.55249 163.883 6.84983 153.529C8.14717 143.175 16.5885 112.423 31.8538 102.387C47.1192 92.352 62.6959 88.1448 64.6505 88.4724C66.6052 88.8 67.2452 96.5679 75.0379 102.068C82.8305 107.569 107.186 107.25 107.186 107.25C107.186 107.25 73.4205 105.629 73.0919 92.3607C72.9535 86.7395 74.0951 77.9199 74.5795 69.3761C75.2281 57.7545 74.64 46.6502 67.9025 44.788C56.2178 41.555 65.3078 58.0563 68.2312 60.9703C71.1545 63.8843 74.7265 67.7639 76.6725 78.4458C78.6185 89.1276 112.064 90.4208 113.361 86.5412C114.659 82.6616 113.033 82.334 103.294 82.6616C93.5552 82.9892 78.9385 75.868 79.9158 71.3332C80.8932 66.7983 82.5105 65.5051 89.0059 69.7123C95.5012 73.9196 112.055 75.8594 116.276 69.0657C120.497 62.2721 129.267 39.9342 126.343 29.5799C123.42 19.2257 121.898 -0.198237 100.414 0.448365C78.9299 1.09497 63.0332 14.3632 63.6732 26.6659C64.3132 38.9686 70.8085 51.2626 73.4032 45.1156C75.9979 38.9686 72.1059 23.1053 83.1419 23.7519C94.1779 24.3985 102.948 20.1913 107.817 17.2773C112.687 14.3632 122.105 18.2515 121.457 33.1405C120.808 48.0296 123.731 68.7468 121.457 73.6006C119.182 78.4544 113.335 81.696 116.907 90.7571C120.479 99.8181 135.087 99.1715 146.452 102.405C157.817 105.638 166.587 112.759 166.907 129.588C167.227 146.417 174.094 165.789 173.073 171.988C166.578 169.401 143.849 181.049 140.925 180.402C138.002 179.755 141.903 154.512 152.61 143.184C151.633 169.72 129.232 181.376 128.903 187.851C128.575 194.325 127.606 195.619 138.322 195.291C143.84 194.963 143.52 226.362 142.214 226.69C140.908 227.018 138.962 189.773 152.281 181.057C165.601 172.341 168.844 179.117 169.164 183.971C169.484 188.825 166.569 219.25 169.813 225.724C173.056 232.199 173.264 240.286 173.16 266.503C173.056 292.721 177.605 323.465 176.299 325.732C174.993 328 166.881 339 159.737 337.38C152.593 335.759 163.629 329.284 165.583 324.43C167.538 319.577 163.957 304.36 161.034 305.334C158.111 306.308 157.142 306.627 155.836 316.335C154.53 326.043 151.615 322.81 149.989 320.87C148.363 318.93 149.341 294.98 154.21 289.152C159.079 283.324 159.079 270.702 150.638 251.606C147.066 241.251 146.089 237.691 146.089 237.691C146.089 237.691 138.625 249.019 140.242 260.994C141.859 272.969 147.057 283.005 134.724 282.677C122.391 282.35 104.851 285.91 103.225 283.005C101.599 280.099 129.526 284.298 134.724 288.833C139.922 293.368 147.715 288.833 139.922 331.233C132.129 373.632 127.58 383.34 129.855 401.143C132.129 418.946 136.67 426.714 132.778 438.689C128.886 450.664 128.557 467.493 131.152 482.382C133.747 497.271 134.075 518.307 123.359 518.635C112.643 518.963 100.31 516.049 103.225 515.721C106.139 515.393 128.549 514.747 131.801 522.515C135.053 530.283 145.44 538.05 151.278 538.697C157.116 539.344 154.85 557.147 133.418 548.086C111.986 539.025 97.698 535.783 93.1573 537.404C88.6167 539.025 80.1667 512.16 94.4547 508.272C108.743 504.384 93.4773 513.773 86.662 506.979C79.8467 500.185 88.5994 463.286 88.4437 455.837C88.288 448.388 85.3647 374.279 84.0673 364.563C82.77 354.846 84.396 330.258 84.396 330.258C84.396 330.258 63.6127 375.245 62.3153 400.816C61.018 426.387 53.2253 464.898 48.0273 477.201C42.8293 489.504 50.622 506.651 47.3786 518.307" stroke="white" stroke-width="2" stroke-miterlimit="10"/>
</g>
<defs>
<clipPath id="clip0_143_379">
<rect width="177" height="556" fill="white"/>
</clipPath>
</defs>
</svg>
