<svg width="498" height="418" viewBox="0 0 498 418" fill="none" xmlns="http://www.w3.org/2000/svg">
<g clip-path="url(#clip0_32_994)">
<path d="M186.065 191.034L192.5 218.924C193.149 221.729 194.964 224.124 197.491 225.505L255.034 256.912C256.918 257.939 259.023 258.475 261.166 258.475H276.889C282.7 258.475 288.157 255.689 291.573 250.987L307.908 228.492C309.704 226.015 311.084 223.267 311.998 220.343L326.996 172.22C327.437 170.815 327.658 169.346 327.658 167.871V125.377M327.658 125.377L322.881 123.278C318.974 121.558 314.651 120.997 310.435 121.659L309.748 121.766C306.483 122.276 303.307 123.241 300.301 124.621L292.997 127.98V132.241H294.881C298.335 132.241 301.763 131.68 305.034 130.571L311.424 126.531C314.701 125.421 318.526 125.264 321.98 125.377H327.658ZM327.658 125.377L325.648 146.435L316.655 145.962C316.655 145.962 311.922 140.523 303.641 140.996C295.36 141.468 286.367 150.463 286.367 150.463C286.367 150.463 297.011 153.066 301.744 151.881C306.477 150.696 306.924 139.842 297.226 143.391C287.527 146.939 279.271 153.538 282.58 176.487C287.073 187.845 287.073 190.751 285.655 192.018C284.237 193.284 281.162 196.127 279.265 194.703C277.368 193.278 284.943 186.774 283.286 189.553C281.628 192.333 280.923 195.175 277.135 195.175C273.348 195.175 267.978 186.301 265.458 189.553C262.937 192.805 267.909 193.99 267.909 193.99C267.909 193.99 251.82 195.408 259.156 184.523" stroke="white" stroke-miterlimit="10"/>
<path d="M187.086 190.284C187.112 191.916 184.54 191.916 184.566 190.284C184.54 188.651 187.112 188.651 187.086 190.284Z" fill="white" stroke="white" stroke-width="4" stroke-miterlimit="10"/>
<path d="M180.942 158.738C180.967 160.37 178.396 160.37 178.421 158.738C178.396 157.106 180.967 157.106 180.942 158.738Z" fill="white" stroke="white" stroke-width="4" stroke-miterlimit="10"/>
<path d="M224.589 99.113C224.615 100.745 222.043 100.745 222.069 99.113C222.043 97.4806 224.615 97.4806 224.589 99.113Z" fill="white" stroke="white" stroke-width="4" stroke-miterlimit="10"/>
<path d="M288.901 67.5232C288.926 69.1556 286.355 69.1556 286.38 67.5232C286.355 65.8907 288.926 65.8907 288.901 67.5232Z" fill="white" stroke="white" stroke-width="4" stroke-miterlimit="10"/>
<path d="M170.846 21.2663C170.871 22.8988 168.3 22.8988 168.325 21.2663C168.3 19.6339 170.871 19.6339 170.846 21.2663Z" fill="white" stroke="white" stroke-width="4" stroke-miterlimit="10"/>
<path d="M118.011 122.616C118.036 124.248 115.465 124.248 115.49 122.616C115.465 120.983 118.036 120.983 118.011 122.616Z" fill="white" stroke="white" stroke-width="4" stroke-miterlimit="10"/>
<path d="M68.3259 195.339C68.3511 196.971 65.7799 196.971 65.8051 195.339C65.7799 193.706 68.3511 193.706 68.3259 195.339Z" fill="white" stroke="white" stroke-width="4" stroke-miterlimit="10"/>
<path d="M80.8668 253.148C80.892 254.781 78.3208 254.781 78.346 253.148C78.3208 251.516 80.892 251.516 80.8668 253.148Z" fill="white" stroke="white" stroke-width="4" stroke-miterlimit="10"/>
<path d="M16.8704 302.961C16.8956 304.593 14.3244 304.593 14.3496 302.961C14.3244 301.328 16.8956 301.328 16.8704 302.961Z" fill="white" stroke="white" stroke-width="4" stroke-miterlimit="10"/>
<path d="M195.897 222.895C195.922 224.528 193.351 224.528 193.376 222.895C193.351 221.263 195.922 221.263 195.897 222.895Z" fill="white" stroke="white" stroke-width="4" stroke-miterlimit="10"/>
<path d="M201.877 264.507C201.902 266.139 199.331 266.139 199.356 264.507C199.331 262.874 201.902 262.874 201.877 264.507Z" fill="white" stroke="white" stroke-width="4" stroke-miterlimit="10"/>
<path d="M157.889 326.268C157.915 327.901 155.343 327.901 155.369 326.268C155.343 324.636 157.915 324.636 157.889 326.268Z" fill="white" stroke="white" stroke-width="4" stroke-miterlimit="10"/>
<path d="M203.137 361.759C203.163 363.392 200.591 363.392 200.617 361.759C200.591 360.127 203.163 360.127 203.137 361.759Z" fill="white" stroke="white" stroke-width="4" stroke-miterlimit="10"/>
<path d="M191.233 413.222C191.258 414.855 188.687 414.855 188.712 413.222C188.687 411.59 191.258 411.59 191.233 413.222Z" fill="white" stroke="white" stroke-width="4" stroke-miterlimit="10"/>
<path d="M5.36298 403.283C5.38819 404.915 2.81699 404.915 2.84219 403.283C2.81699 401.65 5.38819 401.65 5.36298 403.283Z" fill="white" stroke="white" stroke-width="4" stroke-miterlimit="10"/>
<path d="M259.382 258.002C259.408 259.634 256.836 259.634 256.862 258.002C256.836 256.369 259.408 256.369 259.382 258.002Z" fill="white" stroke="white" stroke-width="4" stroke-miterlimit="10"/>
<path d="M286.38 256.628C286.405 258.26 283.834 258.26 283.859 256.628C283.834 254.995 286.405 254.995 286.38 256.628Z" fill="white" stroke="white" stroke-width="4" stroke-miterlimit="10"/>
<path d="M300.175 265.735C300.2 267.368 297.629 267.368 297.654 265.735C297.629 264.103 300.2 264.103 300.175 265.735Z" fill="white" stroke="white" stroke-width="4" stroke-miterlimit="10"/>
<path d="M459.161 325.039C459.186 326.671 456.615 326.671 456.64 325.039C456.615 323.406 459.186 323.406 459.161 325.039Z" fill="white" stroke="white" stroke-width="4" stroke-miterlimit="10"/>
<path d="M433.613 294.086C433.638 295.718 431.067 295.718 431.092 294.086C431.067 292.453 433.638 292.453 433.613 294.086Z" fill="white" stroke="white" stroke-width="4" stroke-miterlimit="10"/>
<path d="M353.565 316.486C353.59 318.118 351.019 318.118 351.044 316.486C351.019 314.854 353.59 314.854 353.565 316.486Z" fill="white" stroke="white" stroke-width="4" stroke-miterlimit="10"/>
<path d="M460.421 225.983C460.447 227.616 457.875 227.616 457.901 225.983C457.875 224.351 460.447 224.351 460.421 225.983Z" fill="white" stroke="white" stroke-width="4" stroke-miterlimit="10"/>
<path d="M368.785 224.755C368.81 226.387 366.239 226.387 366.264 224.755C366.239 223.122 368.81 223.122 368.785 224.755Z" fill="white" stroke="white" stroke-width="4" stroke-miterlimit="10"/>
<path d="M398.725 159.967C398.75 161.599 396.179 161.599 396.204 159.967C396.179 158.334 398.75 158.334 398.725 159.967Z" fill="white" stroke="white" stroke-width="4" stroke-miterlimit="10"/>
<path d="M368.154 106.21C368.18 107.842 365.608 107.842 365.634 106.21C365.608 104.577 368.18 104.577 368.154 106.21Z" fill="white" stroke="white" stroke-width="4" stroke-miterlimit="10"/>
<path d="M362.281 57.2302C362.306 58.8626 359.735 58.8626 359.76 57.2302C359.735 55.5977 362.306 55.5977 362.281 57.2302Z" fill="white" stroke="white" stroke-width="4" stroke-miterlimit="10"/>
<path d="M328.925 43.5652C328.95 45.1976 326.379 45.1976 326.404 43.5652C326.379 41.9327 328.95 41.9327 328.925 43.5652Z" fill="white" stroke="white" stroke-width="4" stroke-miterlimit="10"/>
<path d="M318.394 81.364C318.419 82.9964 315.848 82.9964 315.873 81.364C315.848 79.7315 318.419 79.7315 318.394 81.364Z" fill="white" stroke="white" stroke-width="4" stroke-miterlimit="10"/>
<path d="M311.26 224.755C311.285 226.387 308.714 226.387 308.739 224.755C308.714 223.122 311.285 223.122 311.26 224.755Z" fill="white" stroke="white" stroke-width="4" stroke-miterlimit="10"/>
<path d="M328.925 170.095C328.95 171.728 326.379 171.728 326.404 170.095C326.379 168.463 328.95 168.463 328.925 170.095Z" fill="white" stroke="white" stroke-width="4" stroke-miterlimit="10"/>
<path d="M328.925 125.377C328.95 127.009 326.379 127.009 326.404 125.377C326.379 123.744 328.95 123.744 328.925 125.377Z" fill="white" stroke="white" stroke-width="4" stroke-miterlimit="10"/>
<path d="M294.264 127.98C294.289 129.613 291.718 129.613 291.743 127.98C291.718 126.348 294.289 126.348 294.264 127.98Z" fill="white" stroke="white" stroke-width="4" stroke-miterlimit="10"/>
<path d="M255.935 129.02C255.961 130.653 253.389 130.653 253.415 129.02C253.389 127.388 255.961 127.388 255.935 129.02Z" fill="white" stroke="white" stroke-width="4" stroke-miterlimit="10"/>
<path d="M254.675 135.67C254.7 137.302 252.129 137.302 252.154 135.67C252.129 134.037 254.7 134.037 254.675 135.67Z" fill="white" stroke="white" stroke-width="4" stroke-miterlimit="10"/>
<path d="M212.364 129.209C212.389 130.841 209.818 130.841 209.843 129.209C209.818 127.576 212.389 127.576 212.364 129.209Z" fill="white" stroke="white" stroke-width="4" stroke-miterlimit="10"/>
<path d="M202.236 133.464C202.262 135.096 199.69 135.096 199.716 133.464C199.69 131.831 202.262 131.831 202.236 133.464Z" fill="white" stroke="white" stroke-width="4" stroke-miterlimit="10"/>
<path d="M217.374 150.456C217.399 152.088 214.828 152.088 214.853 150.456C214.828 148.823 217.399 148.823 217.374 150.456Z" fill="white" stroke="white" stroke-width="4" stroke-miterlimit="10"/>
<path d="M253.099 151.685C253.125 153.318 250.553 153.318 250.579 151.685C250.553 150.053 253.125 150.053 253.099 151.685Z" fill="white" stroke="white" stroke-width="4" stroke-miterlimit="10"/>
<path d="M225.85 152.587C225.875 154.219 223.304 154.219 223.329 152.587C223.304 150.954 225.875 150.954 225.85 152.587Z" fill="white" stroke="white" stroke-width="4" stroke-miterlimit="10"/>
<path d="M294.264 132.241C294.289 133.873 291.718 133.873 291.743 132.241C291.718 130.608 294.289 130.608 294.264 132.241Z" fill="white" stroke="white" stroke-width="4" stroke-miterlimit="10"/>
<path d="M326.914 146.434C326.94 148.067 324.368 148.067 324.394 146.434C324.368 144.802 326.94 144.802 326.914 146.434Z" fill="white" stroke="white" stroke-width="4" stroke-miterlimit="10"/>
<path d="M318.394 145.729C318.419 147.362 315.848 147.362 315.873 145.729C315.848 144.097 318.419 144.097 318.394 145.729Z" fill="white" stroke="white" stroke-width="4" stroke-miterlimit="10"/>
<path d="M287.64 150.456C287.666 152.088 285.094 152.088 285.12 150.456C285.094 148.823 287.666 148.823 287.64 150.456Z" fill="white" stroke="white" stroke-width="4" stroke-miterlimit="10"/>
<path d="M270.606 194.116C270.632 195.748 268.06 195.748 268.086 194.116C268.06 192.483 270.632 192.483 270.606 194.116Z" fill="white" stroke="white" stroke-width="4" stroke-miterlimit="10"/>
<path d="M270.033 204.818C270.058 206.451 267.487 206.451 267.512 204.818C267.487 203.186 270.058 203.186 270.033 204.818Z" fill="white" stroke="white" stroke-width="4" stroke-miterlimit="10"/>
<path d="M279.24 205.411C279.265 207.043 276.694 207.043 276.719 205.411C276.694 203.778 279.265 203.778 279.24 205.411Z" fill="white" stroke="white" stroke-width="4" stroke-miterlimit="10"/>
<path d="M284.345 217.09C284.37 218.722 281.799 218.722 281.824 217.09C281.799 215.457 284.37 215.457 284.345 217.09Z" fill="white" stroke="white" stroke-width="4" stroke-miterlimit="10"/>
<path d="M292.367 217.657C292.392 219.289 289.821 219.289 289.846 217.657C289.821 216.025 292.392 216.025 292.367 217.657Z" fill="white" stroke="white" stroke-width="4" stroke-miterlimit="10"/>
<path d="M259.162 216.768C259.187 218.401 256.616 218.401 256.641 216.768C256.616 215.136 259.187 215.136 259.162 216.768Z" fill="white" stroke="white" stroke-width="4" stroke-miterlimit="10"/>
<path d="M246.432 217.657C246.457 219.289 243.886 219.289 243.911 217.657C243.886 216.025 246.457 216.025 246.432 217.657Z" fill="white" stroke="white" stroke-width="4" stroke-miterlimit="10"/>
<path d="M261.021 233.749C261.046 235.381 258.475 235.381 258.5 233.749C258.475 232.116 261.046 232.116 261.021 233.749Z" fill="white" stroke="white" stroke-width="4" stroke-miterlimit="10"/>
<path d="M260.429 184.529C260.454 186.161 257.883 186.161 257.908 184.529C257.883 182.897 260.454 182.897 260.429 184.529Z" fill="white" stroke="white" stroke-width="4" stroke-miterlimit="10"/>
<path d="M277.98 205.411C277.98 205.411 286.178 205.688 289.934 214.38L291.113 217.657H283.481L283.084 217.09C281.086 214.241 279.133 213.283 275.654 213.441C275.654 213.441 262.666 212.596 257.902 216.768C257.902 216.768 263.29 221.206 270.367 220.758C277.444 220.311 283.305 218.703 283.305 218.703L291.113 218.628L284.805 228.895C283.128 230.956 279.99 231.902 278.818 232.009L270.373 232.734C260.863 232.734 259.294 231.202 251.99 225.548L245.077 218.161L251.53 210.56C254.694 206.986 260.637 205.757 265.357 205.096L266.907 204.881C261.197 204.434 255.576 206.507 251.53 210.566L243.917 218.842L246.873 221.565L259.767 233.276L258.128 258.626" stroke="white" stroke-miterlimit="10"/>
<path d="M185.826 190.284L179.682 158.744C179.682 158.744 229.366 104.439 229.366 79.5928C229.366 54.7469 241.787 29.1951 267.518 33.4495C293.249 37.7103 287.647 67.5228 287.647 67.5228C287.647 67.5228 300.698 74.9791 307.441 62.5562C314.184 50.1332 314.09 2.2188 256.647 0.44139C199.205 -1.33602 163.719 15.3477 140.647 54.3876C117.582 93.4276 139.935 102.926 98.0649 144.493C56.1883 186.061 63.2843 208.776 77.8356 241.785C92.3868 274.793 23.8971 281.184 14.6647 305.317C5.43861 329.451 -5.56462 376.66 4.02067 402.564C13.5996 428.476 189.973 413.21 189.973 413.21C189.973 413.21 226.524 368.491 190.326 352.873C154.127 337.254 147.384 326.609 170.096 310.99C192.809 295.372 203.453 297.502 200.617 264.494" stroke="white" stroke-miterlimit="10"/>
<path d="M327.664 125.377C327.664 125.377 329.675 90.5913 317.134 81.3639C304.593 72.1365 312.401 44.4543 335.825 41.6117C359.25 38.7754 366.346 65.0394 362.086 79.9457C357.825 94.852 364.216 107.628 378.408 116.855C392.6 126.083 408.216 160.95 389.052 185.752C369.887 210.554 359.243 225.195 374.86 231.713C390.476 238.236 448.675 211.884 471.387 232.513C494.099 253.142 506.873 292.894 489.839 310.643C472.805 328.392 457.901 325.033 457.901 325.033C457.901 325.033 451.51 289.346 420.284 293.607C389.058 297.867 367.764 316.322 348.599 317.034C329.435 317.747 288.466 306.71 298.915 265.729" stroke="white" stroke-miterlimit="10"/>
<path d="M199.722 134.787C199.722 134.787 202.413 132.398 208.425 129.209C209.03 128.888 212.427 127.343 213.038 127.041C216.863 125.112 220.707 123.511 223.335 123.253C230.551 122.541 254.681 129.02 254.681 129.02L253.024 134.787C253.024 134.787 237.893 131.144 229.127 128.989C219.428 126.6 210.731 129.203 210.731 129.203L216.113 150.456C216.113 150.456 228.018 136.647 246.432 145.206C251.839 149.227 251.839 151.679 251.839 151.679C251.839 151.679 233.154 157.288 224.589 152.58" stroke="white" stroke-miterlimit="10"/>
</g>
<defs>
<clipPath id="clip0_32_994">
<rect width="498" height="418" fill="white"/>
</clipPath>
</defs>
</svg>
