<svg width="405" height="476" viewBox="0 0 405 476" fill="none" xmlns="http://www.w3.org/2000/svg">
<g clip-path="url(#clip0_33_1310)">
<path d="M103.095 242.824L110.26 273.831C110.982 276.949 113 279.61 115.816 281.142L179.888 316.057C181.982 317.197 184.329 317.799 186.719 317.799H204.231C210.701 317.799 216.779 314.708 220.58 309.478L238.77 284.464C240.772 281.712 242.307 278.653 243.324 275.406L260.023 221.908C260.513 220.343 260.76 218.715 260.76 217.075V169.834L255.442 167.501C251.092 165.592 246.279 164.969 241.585 165.7L240.821 165.818C237.187 166.388 233.645 167.452 230.307 168.99L222.173 172.726V177.462H224.273C228.116 177.462 231.045 178.693 234.689 177.462L243.184 175.241C246.829 174.01 250.597 169.705 254.446 169.834H260.766L258.526 193.245L248.519 192.718C248.519 192.718 243.249 186.67 234.033 187.192C224.811 187.718 214.803 197.712 214.803 197.712C214.803 197.712 226.657 200.604 231.928 199.292C237.198 197.981 237.699 185.912 226.894 189.858C216.095 193.804 206.901 201.136 210.588 226.654C215.595 239.282 215.595 242.513 214.012 243.921C212.429 245.33 209.006 248.485 206.901 246.91C204.796 245.33 213.221 238.099 211.38 241.19C209.533 244.281 208.747 247.437 204.532 247.437C200.317 247.437 194.336 237.572 191.532 241.19C188.727 244.808 194.261 246.12 194.261 246.12C194.261 246.12 176.351 247.7 184.512 235.6" stroke="white" stroke-miterlimit="10"/>
<path d="M104.231 241.991C104.258 243.808 101.399 243.808 101.426 241.991C101.399 240.174 104.258 240.174 104.231 241.991Z" fill="white" stroke="white" stroke-width="4" stroke-miterlimit="10"/>
<path d="M114.045 278.245C114.072 280.062 111.213 280.062 111.24 278.245C111.213 276.428 114.072 276.428 114.045 278.245Z" fill="white" stroke="white" stroke-width="4" stroke-miterlimit="10"/>
<path d="M187.957 411.314C187.984 413.131 185.125 413.131 185.152 411.314C185.125 409.497 187.984 409.497 187.957 411.314Z" fill="white" stroke="white" stroke-width="4" stroke-miterlimit="10"/>
<path d="M104.5 301.86C104.527 303.677 101.668 303.677 101.695 301.86C101.668 300.043 104.527 300.043 104.5 301.86Z" fill="white" stroke="white" stroke-width="4" stroke-miterlimit="10"/>
<path d="M131.368 426.49C131.395 428.307 128.536 428.307 128.563 426.49C128.536 424.673 131.395 424.673 131.368 426.49Z" fill="white" stroke="white" stroke-width="4" stroke-miterlimit="10"/>
<path d="M105.905 396.515C105.932 398.332 103.073 398.332 103.1 396.515C103.073 394.698 105.932 394.698 105.905 396.515Z" fill="white" stroke="white" stroke-width="4" stroke-miterlimit="10"/>
<path d="M184.732 317.272C184.759 319.089 181.901 319.089 181.928 317.272C181.901 315.455 184.759 315.455 184.732 317.272Z" fill="white" stroke="white" stroke-width="4" stroke-miterlimit="10"/>
<path d="M214.793 315.746C214.82 317.563 211.961 317.563 211.988 315.746C211.961 313.929 214.82 313.929 214.793 315.746Z" fill="white" stroke="white" stroke-width="4" stroke-miterlimit="10"/>
<path d="M272.038 367.712C272.065 369.529 269.207 369.529 269.234 367.712C269.207 365.895 272.065 365.895 272.038 367.712Z" fill="white" stroke="white" stroke-width="4" stroke-miterlimit="10"/>
<path d="M226.372 341.081C226.399 342.898 223.541 342.898 223.567 341.081C223.541 339.264 226.399 339.264 226.372 341.081Z" fill="white" stroke="white" stroke-width="4" stroke-miterlimit="10"/>
<path d="M290.95 298.468C290.977 300.285 288.118 300.285 288.145 298.468C288.118 296.651 290.977 296.651 290.95 298.468Z" fill="white" stroke="white" stroke-width="4" stroke-miterlimit="10"/>
<path d="M317.694 291.673C317.721 293.49 314.862 293.49 314.889 291.673C314.862 289.856 317.721 289.856 317.694 291.673Z" fill="white" stroke="white" stroke-width="4" stroke-miterlimit="10"/>
<path d="M289.55 240.626C289.577 242.443 286.719 242.443 286.746 240.626C286.719 238.809 289.577 238.809 289.55 240.626Z" fill="white" stroke="white" stroke-width="4" stroke-miterlimit="10"/>
<path d="M275.198 194.61C275.225 196.427 272.367 196.427 272.394 194.61C272.367 192.793 275.225 192.793 275.198 194.61Z" fill="white" stroke="white" stroke-width="4" stroke-miterlimit="10"/>
<path d="M341.58 161.152C341.606 162.969 338.748 162.969 338.775 161.152C338.748 159.335 341.606 159.335 341.58 161.152Z" fill="white" stroke="white" stroke-width="4" stroke-miterlimit="10"/>
<path d="M324.983 182.735C325.01 184.552 322.151 184.552 322.178 182.735C322.151 180.918 325.01 180.918 324.983 182.735Z" fill="white" stroke="white" stroke-width="4" stroke-miterlimit="10"/>
<path d="M327.793 111.045C327.82 112.862 324.961 112.862 324.988 111.045C324.961 109.228 327.82 109.228 327.793 111.045Z" fill="white" stroke="white" stroke-width="4" stroke-miterlimit="10"/>
<path d="M403.923 135.504C403.95 137.321 401.092 137.321 401.119 135.504C401.092 133.687 403.95 133.687 403.923 135.504Z" fill="white" stroke="white" stroke-width="4" stroke-miterlimit="10"/>
<path d="M274.606 144.977C274.633 146.793 271.775 146.793 271.802 144.977C271.775 143.16 274.633 143.16 274.606 144.977Z" fill="white" stroke="white" stroke-width="4" stroke-miterlimit="10"/>
<path d="M250.435 133.139C250.462 134.956 247.604 134.956 247.631 133.139C247.604 131.322 250.462 131.322 250.435 133.139Z" fill="white" stroke="white" stroke-width="4" stroke-miterlimit="10"/>
<path d="M283.715 38.0488C283.742 39.8657 280.883 39.8657 280.91 38.0488C280.883 36.2318 283.742 36.2318 283.715 38.0488Z" fill="white" stroke="white" stroke-width="4" stroke-miterlimit="10"/>
<path d="M262.16 3.52094C262.187 5.33792 259.328 5.33792 259.355 3.52094C259.328 1.70396 262.187 1.70396 262.16 3.52094Z" fill="white" stroke="white" stroke-width="4" stroke-miterlimit="10"/>
<path d="M254.65 2.44037C254.677 4.25735 251.819 4.25735 251.846 2.44037C251.819 0.623392 254.677 0.623392 254.65 2.44037Z" fill="white" stroke="white" stroke-width="4" stroke-miterlimit="10"/>
<path d="M210.793 93.2895C210.82 95.1065 207.961 95.1065 207.988 93.2895C207.961 91.4725 210.82 91.4725 210.793 93.2895Z" fill="white" stroke="white" stroke-width="4" stroke-miterlimit="10"/>
<path d="M181.158 10.8212C181.185 12.6382 178.326 12.6382 178.353 10.8212C178.326 9.00425 181.185 9.00425 181.158 10.8212Z" fill="white" stroke="white" stroke-width="4" stroke-miterlimit="10"/>
<path d="M154.285 46.3329C154.312 48.1499 151.453 48.1499 151.48 46.3329C151.453 44.516 154.312 44.516 154.285 46.3329Z" fill="white" stroke="white" stroke-width="4" stroke-miterlimit="10"/>
<path d="M147.572 64.0888C147.599 65.9058 144.74 65.9058 144.767 64.0888C144.74 62.2718 147.599 62.2718 147.572 64.0888Z" fill="white" stroke="white" stroke-width="4" stroke-miterlimit="10"/>
<path d="M144.762 81.0541C144.789 82.8711 141.93 82.8711 141.957 81.0541C141.93 79.2372 144.789 79.2372 144.762 81.0541Z" fill="white" stroke="white" stroke-width="4" stroke-miterlimit="10"/>
<path d="M144.762 99.6005C144.789 101.418 141.93 101.418 141.957 99.6005C141.93 97.7835 144.789 97.7835 144.762 99.6005Z" fill="white" stroke="white" stroke-width="4" stroke-miterlimit="10"/>
<path d="M4.53266 187.197C4.55958 189.014 1.70106 189.014 1.72797 187.197C1.70106 185.38 4.55958 185.38 4.53266 187.197Z" fill="white" stroke="white" stroke-width="4" stroke-miterlimit="10"/>
<path d="M92.2531 214.817C92.28 216.634 89.4215 216.634 89.4484 214.817C89.4215 213 92.28 213 92.2531 214.817Z" fill="white" stroke="white" stroke-width="4" stroke-miterlimit="10"/>
<path d="M67.3555 229.81C67.3825 231.627 64.5239 231.627 64.5508 229.81C64.5239 227.993 67.3825 227.993 67.3555 229.81Z" fill="white" stroke="white" stroke-width="4" stroke-miterlimit="10"/>
<path d="M75.2581 326.873C75.285 328.69 72.4265 328.69 72.4534 326.873C72.4265 325.056 75.285 325.056 75.2581 326.873Z" fill="white" stroke="white" stroke-width="4" stroke-miterlimit="10"/>
<path d="M32.7841 284.556C32.811 286.373 29.9525 286.373 29.9794 284.556C29.9525 282.739 32.811 282.739 32.7841 284.556Z" fill="white" stroke="white" stroke-width="4" stroke-miterlimit="10"/>
<path d="M20.7309 64.0888C20.7578 65.9058 17.8993 65.9058 17.9262 64.0888C17.8993 62.2718 20.7578 62.2718 20.7309 64.0888Z" fill="white" stroke="white" stroke-width="4" stroke-miterlimit="10"/>
<path d="M48.3902 99.2563C48.4171 101.073 45.5586 101.073 45.5855 99.2563C45.5586 97.4393 48.4171 97.4393 48.3902 99.2563Z" fill="white" stroke="white" stroke-width="4" stroke-miterlimit="10"/>
<path d="M36.5362 121.996C36.5631 123.813 33.7046 123.813 33.7315 121.996C33.7046 120.179 36.5631 120.179 36.5362 121.996Z" fill="white" stroke="white" stroke-width="4" stroke-miterlimit="10"/>
<path d="M53.5258 150.6C53.5527 152.417 50.6942 152.417 50.7211 150.6C50.6942 148.783 53.5527 148.783 53.5258 150.6Z" fill="white" stroke="white" stroke-width="4" stroke-miterlimit="10"/>
<path d="M96.0699 30.9477C96.0968 32.7647 93.2383 32.7647 93.2652 30.9477C93.2383 29.1307 96.0968 29.1307 96.0699 30.9477Z" fill="white" stroke="white" stroke-width="4" stroke-miterlimit="10"/>
<path d="M120.569 126.957C120.596 128.774 117.738 128.774 117.764 126.957C117.738 125.14 120.596 125.14 120.569 126.957Z" fill="white" stroke="white" stroke-width="4" stroke-miterlimit="10"/>
<path d="M108.979 151.965C109.006 153.782 106.147 153.782 106.174 151.965C106.147 150.148 109.006 150.148 108.979 151.965Z" fill="white" stroke="white" stroke-width="4" stroke-miterlimit="10"/>
<path d="M308.962 425.124C308.989 426.941 306.131 426.941 306.158 425.124C306.131 423.307 308.989 423.307 308.962 425.124Z" fill="white" stroke="white" stroke-width="4" stroke-miterlimit="10"/>
<path d="M350.01 437.354C350.037 439.171 347.178 439.171 347.205 437.354C347.178 435.537 350.037 435.537 350.01 437.354Z" fill="white" stroke="white" stroke-width="4" stroke-miterlimit="10"/>
<path d="M339.211 449.589C339.238 451.406 336.379 451.406 336.406 449.589C336.379 447.772 339.238 447.772 339.211 449.589Z" fill="white" stroke="white" stroke-width="4" stroke-miterlimit="10"/>
<path d="M242.49 280.314C242.516 282.131 239.658 282.131 239.685 280.314C239.658 278.497 242.516 278.497 242.49 280.314Z" fill="white" stroke="white" stroke-width="4" stroke-miterlimit="10"/>
<path d="M262.16 219.553C262.187 221.37 259.328 221.37 259.355 219.553C259.328 217.736 262.187 217.736 262.16 219.553Z" fill="white" stroke="white" stroke-width="4" stroke-miterlimit="10"/>
<path d="M262.16 169.833C262.187 171.65 259.328 171.65 259.355 169.833C259.328 168.016 262.187 168.016 262.16 169.833Z" fill="white" stroke="white" stroke-width="4" stroke-miterlimit="10"/>
<path d="M223.567 172.731C223.594 174.548 220.736 174.548 220.763 172.731C220.736 170.914 223.594 170.914 223.567 172.731Z" fill="white" stroke="white" stroke-width="4" stroke-miterlimit="10"/>
<path d="M180.894 173.881C180.921 175.698 178.063 175.698 178.09 173.881C178.063 172.064 180.921 172.064 180.894 173.881Z" fill="white" stroke="white" stroke-width="4" stroke-miterlimit="10"/>
<path d="M179.489 181.278C179.516 183.095 176.657 183.095 176.684 181.278C176.657 179.461 179.516 179.461 179.489 181.278Z" fill="white" stroke="white" stroke-width="4" stroke-miterlimit="10"/>
<path d="M133.78 177.462C133.807 179.279 130.948 179.279 130.975 177.462C130.948 175.645 133.807 175.645 133.78 177.462Z" fill="white" stroke="white" stroke-width="4" stroke-miterlimit="10"/>
<path d="M121.102 178.827C121.129 180.644 118.271 180.644 118.297 178.827C118.271 177.01 121.129 177.01 121.102 178.827Z" fill="white" stroke="white" stroke-width="4" stroke-miterlimit="10"/>
<path d="M137.957 197.717C137.984 199.534 135.126 199.534 135.153 197.717C135.126 195.9 137.984 195.9 137.957 197.717Z" fill="white" stroke="white" stroke-width="4" stroke-miterlimit="10"/>
<path d="M177.734 199.082C177.761 200.899 174.903 200.899 174.93 199.082C174.903 197.265 177.761 197.265 177.734 199.082Z" fill="white" stroke="white" stroke-width="4" stroke-miterlimit="10"/>
<path d="M147.394 200.088C147.421 201.905 144.562 201.905 144.589 200.088C144.562 198.271 147.421 198.271 147.394 200.088Z" fill="white" stroke="white" stroke-width="4" stroke-miterlimit="10"/>
<path d="M155.604 194.954C155.63 196.771 152.772 196.771 152.799 194.954C152.772 193.137 155.63 193.137 155.604 194.954Z" fill="white" stroke="white" stroke-width="4" stroke-miterlimit="10"/>
<path d="M223.567 177.462C223.594 179.279 220.736 179.279 220.763 177.462C220.736 175.645 223.594 175.645 223.567 177.462Z" fill="white" stroke="white" stroke-width="4" stroke-miterlimit="10"/>
<path d="M259.921 193.245C259.948 195.062 257.089 195.062 257.116 193.245C257.089 191.428 259.948 191.428 259.921 193.245Z" fill="white" stroke="white" stroke-width="4" stroke-miterlimit="10"/>
<path d="M250.435 192.46C250.462 194.277 247.604 194.277 247.631 192.46C247.604 190.643 250.462 190.643 250.435 192.46Z" fill="white" stroke="white" stroke-width="4" stroke-miterlimit="10"/>
<path d="M226.641 195.298C226.668 197.115 223.81 197.115 223.837 195.298C223.81 193.481 226.668 193.481 226.641 195.298Z" fill="white" stroke="white" stroke-width="4" stroke-miterlimit="10"/>
<path d="M216.192 197.717C216.219 199.534 213.361 199.534 213.388 197.717C213.361 195.9 216.219 195.9 216.192 197.717Z" fill="white" stroke="white" stroke-width="4" stroke-miterlimit="10"/>
<path d="M197.227 246.249C197.254 248.066 194.395 248.066 194.422 246.249C194.395 244.432 197.254 244.432 197.227 246.249Z" fill="white" stroke="white" stroke-width="4" stroke-miterlimit="10"/>
<path d="M196.586 258.15C196.613 259.967 193.755 259.967 193.782 258.15C193.755 256.333 196.613 256.333 196.586 258.15Z" fill="white" stroke="white" stroke-width="4" stroke-miterlimit="10"/>
<path d="M206.842 258.812C206.868 260.629 204.01 260.629 204.037 258.812C204.01 256.995 206.868 256.995 206.842 258.812Z" fill="white" stroke="white" stroke-width="4" stroke-miterlimit="10"/>
<path d="M212.521 271.794C212.548 273.611 209.689 273.611 209.716 271.794C209.689 269.977 212.548 269.977 212.521 271.794Z" fill="white" stroke="white" stroke-width="4" stroke-miterlimit="10"/>
<path d="M221.457 272.423C221.484 274.24 218.626 274.24 218.653 272.423C218.626 270.606 221.484 270.606 221.457 272.423Z" fill="white" stroke="white" stroke-width="4" stroke-miterlimit="10"/>
<path d="M184.485 271.439C184.512 273.256 181.653 273.256 181.68 271.439C181.653 269.622 184.512 269.622 184.485 271.439Z" fill="white" stroke="white" stroke-width="4" stroke-miterlimit="10"/>
<path d="M170.311 272.423C170.338 274.24 167.479 274.24 167.506 272.423C167.479 270.606 170.338 270.606 170.311 272.423Z" fill="white" stroke="white" stroke-width="4" stroke-miterlimit="10"/>
<path d="M186.557 290.313C186.584 292.13 183.726 292.13 183.753 290.313C183.726 288.496 186.584 288.496 186.557 290.313Z" fill="white" stroke="white" stroke-width="4" stroke-miterlimit="10"/>
<path d="M185.895 235.6C185.922 237.417 183.064 237.417 183.091 235.6C183.064 233.783 185.922 233.783 185.895 235.6Z" fill="white" stroke="white" stroke-width="4" stroke-miterlimit="10"/>
<path d="M118.297 180.295C118.297 180.295 121.291 177.639 127.987 174.091C128.66 173.736 132.439 172.021 133.123 171.677C137.381 169.533 141.661 167.753 144.584 167.468C152.616 166.678 179.489 173.881 179.489 173.881L177.643 180.295C177.643 180.295 160.266 179.859 150.511 177.462C139.712 174.806 132.375 177.462 132.375 177.462L136.547 197.717C136.547 197.717 139.265 194.572 144.137 192.008C150.032 188.912 159.081 186.67 170.305 191.879C176.324 196.352 176.324 199.077 176.324 199.077C176.324 199.077 155.517 205.313 145.984 200.083C145.984 200.083 153.143 203.206 156.04 201.448C158.936 199.69 162.096 194.83 156.96 191.471C151.825 188.111 144.977 191.987 144.579 193.927C144.18 195.868 148.659 200.475 151.426 197.712L154.193 194.949" stroke="white" stroke-miterlimit="10"/>
<path d="M255.318 236.96C255.318 236.96 264.308 219.548 282.089 229.02C299.87 238.492 271.419 260.355 295.127 279.605C318.835 298.855 344.912 296.979 355.581 318.632C366.251 340.286 356.766 359.224 331.873 376.98C306.981 394.736 316.461 403.02 340.169 414.857C363.877 426.694 360.453 432.876 361.508 437.085C362.564 441.295 368.356 443.396 368.092 449.976C367.828 456.551 366.246 461.023 366.246 461.023C366.246 461.023 369.669 451.288 364.927 451.551C360.184 451.815 354.392 452.078 354.392 463.915C352.545 453.659 348.072 454.97 344.906 453.922C341.746 452.868 334.899 449.449 335.685 445.767C336.476 442.085 340.428 440.768 343.324 442.085C346.22 443.402 349.122 447.874 346.22 449.713C343.318 451.551 327.518 446.03 326.2 448.923C324.881 451.815 323.567 453.395 334.366 461.287C339.372 465.232 338.581 476.279 351.49 470.759C348.594 477.333 360.975 472.275 360.975 472.275C360.975 472.275 348.858 481.542 334.635 469.705L320.413 457.868C320.413 457.868 289.066 428.275 314.615 421.566C340.169 414.857 348.594 437.349 348.594 437.349C348.594 437.349 345.434 430.511 326.205 429.984C306.976 429.457 279.844 416.045 288.797 378.426C290.772 367.906 327.718 350.935 326.135 336.141C324.552 321.347 298.869 302.21 281.879 294.711C264.889 287.212 253.256 261.763 257.094 251.307C260.933 240.852 281.088 228.627 292.15 243.916C303.213 259.199 340.551 288.598 302.82 296.291C265.083 303.984 244.142 296.683 237.424 297.275C230.706 297.866 221.818 301.054 223.002 315.74C224.186 330.421 268.442 330.421 275.554 328.056C282.665 325.691 304.796 309.779 309.732 314.38C314.669 318.982 312.499 337.727 288.199 344.237C263.899 350.747 240.191 356.665 231.298 348.381C222.41 340.097 220.235 323.917 224.579 325.696C228.924 327.47 222.997 349.763 227.939 354.3C232.875 358.837 249.87 366.729 270.612 367.718" stroke="white" stroke-miterlimit="10"/>
<path d="M260.755 169.834C260.755 169.834 261.939 179.666 274.978 196.352C288.016 213.038 324.17 224.875 342.543 208.893C360.916 192.911 363.436 179.3 368.103 148.525C372.77 117.749 398.847 122.485 401.813 127.812C404.774 133.139 401.813 135.505 401.813 135.505C401.813 135.505 384.624 136.687 382.848 154.443C381.071 172.199 373.362 230.923 323.578 240.626C273.793 250.329 267.866 181.117 277.346 172.516C286.832 163.915 336.616 223.822 344.32 197.717C352.023 171.608 334.242 142.606 309.942 134.322C285.642 126.038 258.203 128.403 257.105 141.423C256.007 154.443 273.196 144.977 273.196 144.977C273.196 144.977 328.315 137.633 323.572 182.735C368.098 148.53 326.533 101.181 301.049 97.0363C275.564 92.8916 261.336 79.8717 276.749 66.8519C292.161 53.832 320.606 61.5246 321.796 81.6457C322.98 101.767 322.98 117.157 334.242 110.647C345.504 104.138 354.392 38.4414 282.676 37.8501C313.495 21.2769 290.223 -2.98893 262.149 3.52101C278.525 13.5843 276.749 24.8302 236.444 36.0707C196.14 47.3166 219.611 96.4396 204.021 104.132C188.431 111.825 161.186 110.062 185.884 94.6602C210.583 79.2589 247.964 120.109 249.019 133.129" stroke="white" stroke-miterlimit="10"/>
<path d="M153.832 301.86C153.832 301.86 217.269 375.211 186.557 411.314C190.676 363.621 168.017 356.273 148.896 346.801C129.769 337.329 110.804 298.947 103.1 301.86C95.397 304.779 92.1186 323.718 111.24 340.291C130.361 356.864 180.673 388.822 175.968 418.416C171.263 448.009 174.816 468.13 126.808 453.927C94.2127 442.681 92.4308 406.578 92.4308 406.578C92.4308 406.578 97.7656 425.893 79.9847 426.484C62.2037 427.076 62.2037 411.309 62.2037 411.309C62.2037 411.309 35.6534 389.064 49.7576 370.47C64.5562 350.962 85.3195 362.186 87.6881 365.143C90.0568 368.099 103.693 382.898 103.1 388.226C102.508 393.553 91.2465 397.698 84.7273 397.101C78.2082 396.51 87.2844 379.775 88.8778 388.226C90.4713 396.671 69.9126 390.591 61.6115 395.327C53.3159 400.063 49.7576 391.774 53.3159 390.591C56.8743 389.408 58.0586 405.385 79.3925 403.02C100.732 400.654 103.752 391.774 104.505 396.51C105.254 401.246 120.661 436.166 137.963 422.549C155.264 408.938 137.693 371.056 101.432 355.079C65.1699 339.097 71.689 309.504 77.616 309.504C83.543 309.504 79.3925 330.814 62.2037 331.405C45.0149 331.996 0.565199 316.568 1.15736 281.669C1.15198 265.117 11.827 264.526 18.9383 264.526C26.0496 264.526 37.4083 261.666 39.2871 264.526C41.1659 267.386 41.1659 281.099 41.1659 281.099C41.1659 281.099 39.3894 267.682 35.6319 269.063C31.8743 270.445 30.0978 279.024 31.3845 284.55C32.6711 290.077 37.7044 305.956 28.9135 304.871C20.1226 303.785 2.24478 285.239 3.03074 282.578C3.82208 279.917 16.8604 276.955 18.0447 271.729C23.3795 275.181 24.0686 285.636 24.0686 285.636C24.0686 285.636 26.5395 271.729 21.6999 268.966C24.5638 264.822 29.4034 265.413 30.69 272.713C31.9766 280.013 31.4813 305.069 45.8062 302.306C60.1311 299.543 88.4795 258.145 65.9558 229.805C65.9558 229.805 90.8481 223.886 90.8481 214.812C77.2177 226.198 39.4809 233.718 18.54 182.638C11.4286 168.468 3.12764 187.192 3.12764 187.192C3.12764 187.192 -5.95933 174.994 8.26328 168.468C22.4859 161.942 50.1452 219.155 89.2654 187.589C128.386 156.023 96.7751 128.403 80.9698 142.606C65.1645 156.808 51.3349 157.206 51.3349 147.342C51.3349 137.477 51.4964 110.25 114.045 126.823C147.394 133.532 154.15 75.9205 132.375 67.2441C110.599 58.5624 95.9838 53.8265 84.9157 79.0814C73.8531 104.336 73.8531 119.141 59.6251 121.995C45.3971 124.85 14.1849 127.221 18.5292 88.9458C22.8735 50.6709 16.6989 65.4379 15.3692 68.8246C13.302 74.0928 14.1849 80.6618 7.85954 78.689C1.53957 76.7161 2.72389 43.5697 24.0578 45.5425C45.3971 47.5154 29.9848 90.1284 35.1204 94.8644C40.2561 99.6003 55.27 105.519 65.1484 85C75.0267 64.4811 75.0267 14.7668 127.578 33.7053C180.13 52.6438 151.679 71.5823 141.408 61.3255C131.137 51.0687 122.044 3.32198 156.422 6.47751C190.799 9.63303 190.799 21.0778 203.445 15.1592C216.09 9.2406 190.799 -1.80641 170.251 17.9223C149.703 37.6511 129.155 101.966 155.237 110.255C181.314 118.539 174.994 67.6419 196.333 32.9205C217.683 -1.80641 253.245 2.44037 253.245 2.44037" stroke="white" stroke-miterlimit="10"/>
<path d="M205.437 258.812C205.437 258.812 214.567 259.124 218.744 268.784L220.057 272.428H211.563C211.563 272.428 210.179 267.037 207.348 266.838C204.516 266.639 194.245 264.666 190.223 265.919C186.207 267.166 183.08 271.445 183.08 271.445C183.08 271.445 188.382 276.772 197.598 277.363C207.52 277.998 211.364 273.6 211.364 273.6L220.057 273.52L213.032 284.938C211.17 287.233 207.671 288.281 206.362 288.4L196.963 289.206C186.374 289.206 184.63 287.507 176.496 281.218L168.798 273.004L175.985 264.553M175.985 264.553C179.505 260.58 186.121 259.21 191.381 258.479L193.109 258.237C186.751 257.737 180.49 260.043 175.985 264.553ZM175.985 264.553L167.511 273.756L170.806 276.783L185.163 289.803L183.338 317.982" stroke="white" stroke-miterlimit="10"/>
<path d="M191.51 265.644L192.99 271.794L195.822 265.644L202.137 266.176L202.406 272.423L206.093 266.703" stroke="white" stroke-miterlimit="10"/>
<path d="M214.787 197.717C214.787 197.717 224.009 188.509 227.696 192.455C231.384 196.4 229.22 198.604 227.696 199.077C226.173 199.55 224.8 195.271 224.8 195.271" stroke="white" stroke-miterlimit="10"/>
</g>
<defs>
<clipPath id="clip0_33_1310">
<rect width="405" height="476" fill="white"/>
</clipPath>
</defs>
</svg>
