<svg xmlns="http://www.w3.org/2000/svg" id="Layer_2" data-name="Layer 2" viewBox="0 0 790.23 663.19" class="" style=""><defs><style>.cls-1,.cls-2{stroke:#231f20;stroke-miterlimit:10}.cls-1{fill:#231f20;stroke-width:4px}.cls-2{fill:none}</style></defs><g id="Layer_2-2" data-name="Layer 2"><path fill="#fff" d="m295.25 303.09 10.21 44.25c1.03 4.45 3.91 8.25 7.92 10.44l91.31 49.83a20.31 20.31 0 0 0 9.73 2.48h24.95c9.22 0 17.88-4.42 23.3-11.88l25.92-35.69a44.74 44.74 0 0 0 6.49-12.93l23.8-76.35c.7-2.23 1.05-4.56 1.05-6.9v-67.42l-7.58-3.33a35.404 35.404 0 0 0-19.75-2.57l-1.09.17a57.05 57.05 0 0 0-14.99 4.53l-11.59 5.33v6.76h2.99c5.48 0 10.92-.89 16.11-2.65l10.14-6.41c5.2-1.76 11.27-2.01 16.75-1.83h9.01l-3.19 33.41-14.27-.75s-7.51-8.63-20.65-7.88c-13.14.75-27.41 15.02-27.41 15.02s16.89 4.13 24.4 2.25c7.51-1.88 8.22-19.1-7.17-13.47-15.39 5.63-28.49 16.1-23.24 52.51 7.13 18.02 7.13 22.63 4.88 24.64-2.25 2.01-7.13 6.52-10.14 4.26s9.01-12.58 6.38-8.17-3.75 8.92-9.76 8.92-14.53-14.08-18.53-8.92 3.89 7.04 3.89 7.04-25.53 2.25-13.89-15.02" class="cls-2 dEyDbNhi_0"></path><path fill="#fff" d="M296.87 301.9c.04 2.59-4.04 2.59-4 0-.04-2.59 4.04-2.59 4 0ZM287.12 251.85c.04 2.59-4.04 2.59-4 0-.04-2.59 4.04-2.59 4 0ZM356.38 157.25c.04 2.59-4.04 2.59-4 0-.04-2.59 4.04-2.59 4 0ZM458.43 107.13c.04 2.59-4.04 2.59-4 0-.04-2.59 4.04-2.59 4 0ZM271.1 33.74c.04 2.59-4.04 2.59-4 0-.04-2.59 4.04-2.59 4 0ZM187.26 194.54c.04 2.59-4.04 2.59-4 0-.04-2.59 4.04-2.59 4 0ZM108.42 309.92c.04 2.59-4.04 2.59-4 0-.04-2.59 4.04-2.59 4 0ZM128.32 401.64c.04 2.59-4.04 2.59-4 0-.04-2.59 4.04-2.59 4 0ZM26.77 480.67c.04 2.59-4.04 2.59-4 0-.04-2.59 4.04-2.59 4 0ZM310.85 353.64c.04 2.59-4.04 2.59-4 0-.04-2.59 4.04-2.59 4 0ZM320.34 419.66c.04 2.59-4.04 2.59-4 0-.04-2.59 4.04-2.59 4 0ZM250.54 517.65c.04 2.59-4.04 2.59-4 0-.04-2.59 4.04-2.59 4 0ZM322.34 573.96c.04 2.59-4.04 2.59-4 0-.04-2.59 4.04-2.59 4 0ZM303.45 655.61c.04 2.59-4.04 2.59-4 0-.04-2.59 4.04-2.59 4 0ZM8.51 639.84c.04 2.59-4.04 2.59-4 0-.04-2.59 4.04-2.59 4 0ZM411.59 409.34c.04 2.59-4.04 2.59-4 0-.04-2.59 4.04-2.59 4 0ZM454.43 407.16c.04 2.59-4.04 2.59-4 0-.04-2.59 4.04-2.59 4 0ZM476.32 421.61c.04 2.59-4.04 2.59-4 0-.04-2.59 4.04-2.59 4 0ZM728.6 515.7c.04 2.59-4.04 2.59-4 0-.04-2.59 4.04-2.59 4 0ZM688.06 466.59c.04 2.59-4.04 2.59-4 0-.04-2.59 4.04-2.59 4 0ZM561.04 502.13c.04 2.59-4.04 2.59-4 0-.04-2.59 4.04-2.59 4 0ZM730.6 358.54c.04 2.59-4.04 2.59-4 0-.04-2.59 4.04-2.59 4 0ZM585.19 356.59c.04 2.59-4.04 2.59-4 0-.04-2.59 4.04-2.59 4 0ZM632.7 253.8c.04 2.59-4.04 2.59-4 0-.04-2.59 4.04-2.59 4 0ZM584.19 168.51c.04 2.59-4.04 2.59-4 0-.04-2.59 4.04-2.59 4 0ZM574.87 90.8c.04 2.59-4.04 2.59-4 0-.04-2.59 4.04-2.59 4 0ZM521.94 69.12c.04 2.59-4.04 2.59-4 0-.04-2.59 4.04-2.59 4 0ZM505.23 129.09c.04 2.59-4.04 2.59-4 0-.04-2.59 4.04-2.59 4 0ZM493.91 356.59c.04 2.59-4.04 2.59-4 0-.04-2.59 4.04-2.59 4 0ZM521.94 269.87c.04 2.59-4.04 2.59-4 0-.04-2.59 4.04-2.59 4 0ZM521.94 198.92c.04 2.59-4.04 2.59-4 0-.04-2.59 4.04-2.59 4 0ZM466.94 203.05c.04 2.59-4.04 2.59-4 0-.04-2.59 4.04-2.59 4 0ZM406.12 204.7c.04 2.59-4.04 2.59-4 0-.04-2.59 4.04-2.59 4 0ZM404.12 215.25c.04 2.59-4.04 2.59-4 0-.04-2.59 4.04-2.59 4 0ZM336.98 205c.04 2.59-4.04 2.59-4 0-.04-2.59 4.04-2.59 4 0ZM320.91 211.75c.04 2.59-4.04 2.59-4 0-.04-2.59 4.04-2.59 4 0ZM344.93 238.71c.04 2.59-4.04 2.59-4 0-.04-2.59 4.04-2.59 4 0ZM401.62 240.66c.04 2.59-4.04 2.59-4 0-.04-2.59 4.04-2.59 4 0ZM358.38 242.09c.04 2.59-4.04 2.59-4 0-.04-2.59 4.04-2.59 4 0ZM466.94 209.81c.04 2.59-4.04 2.59-4 0-.04-2.59 4.04-2.59 4 0ZM518.75 232.33c.04 2.59-4.04 2.59-4 0-.04-2.59 4.04-2.59 4 0ZM505.23 231.21c.04 2.59-4.04 2.59-4 0-.04-2.59 4.04-2.59 4 0ZM456.43 238.71c.04 2.59-4.04 2.59-4 0-.04-2.59 4.04-2.59 4 0ZM429.4 307.98c.04 2.59-4.04 2.59-4 0-.04-2.59 4.04-2.59 4 0ZM428.49 324.96c.04 2.59-4.04 2.59-4 0-.04-2.59 4.04-2.59 4 0ZM443.1 325.9c.04 2.59-4.04 2.59-4 0-.04-2.59 4.04-2.59 4 0ZM451.2 344.43c.04 2.59-4.04 2.59-4 0-.04-2.59 4.04-2.59 4 0ZM463.93 345.33c.04 2.59-4.04 2.59-4 0-.04-2.59 4.04-2.59 4 0ZM411.24 343.92c.04 2.59-4.04 2.59-4 0-.04-2.59 4.04-2.59 4 0ZM391.04 345.33c.04 2.59-4.04 2.59-4 0-.04-2.59 4.04-2.59 4 0ZM414.19 370.86c.04 2.59-4.04 2.59-4 0-.04-2.59 4.04-2.59 4 0ZM413.25 292.77c.04 2.59-4.04 2.59-4 0-.04-2.59 4.04-2.59 4 0Z" class="cls-1 dEyDbNhi_1"></path><path fill="#fff" d="M441.1 325.9s13.01.44 18.97 14.23l1.87 5.2h-12.11l-.63-.9c-3.17-4.52-6.27-6.04-11.79-5.79 0 0-20.61-1.34-28.17 5.28s8.55 7.04 19.78 6.33 20.53-3.26 20.53-3.26l12.39-.12-10.01 16.29c-2.66 3.27-7.64 4.77-9.5 4.94l-13.4 1.15c-15.09 0-17.58-2.43-29.17-11.4l-10.97-11.72 10.24-12.06c5.02-5.67 14.45-7.62 21.94-8.67l2.46-.34a31.025 31.025 0 0 0-24.4 9.02l-12.08 13.13 4.69 4.32 20.46 18.58-2.6 40.22" class="cls-2 dEyDbNhi_2"></path><path fill="#fff" d="m294.87 301.9-9.75-50.04s78.84-86.16 78.84-125.58 19.71-79.96 60.54-73.21c40.83 6.76 31.94 54.06 31.94 54.06s20.71 11.83 31.41-7.88S498.4 3.52 407.25.7C316.1-2.12 259.79 24.35 223.18 86.29c-36.6 61.94-1.13 77.01-67.57 142.96-66.45 65.95-55.19 101.99-32.1 154.36 23.09 52.37-85.59 62.51-100.24 100.8C8.63 522.7-8.83 597.6 6.38 638.7c15.2 41.11 295.07 16.89 295.07 16.89s58-70.95.56-95.73-68.14-41.67-32.1-66.45 52.93-21.4 48.43-73.77" class="cls-2 dEyDbNhi_3"></path><path fill="#fff" d="M519.94 198.92s3.19-55.19-16.71-69.83c-19.9-14.64-7.51-58.56 29.66-63.07 37.17-4.5 48.43 37.17 41.67 60.82s3.38 43.92 25.9 58.56 47.3 69.96 16.89 109.31c-30.41 39.35-47.3 62.58-22.52 72.92 24.78 10.35 117.13-31.46 153.17 1.27 36.04 32.73 56.31 95.8 29.28 123.96-27.03 28.16-50.68 22.83-50.68 22.83s-10.14-56.62-59.69-49.86-83.34 36.04-113.75 37.17c-30.41 1.13-95.42-16.38-78.84-81.4M316.92 213.85s4.27-3.79 13.81-8.85c.96-.51 6.35-2.96 7.32-3.44 6.07-3.06 12.17-5.6 16.34-6.01 11.45-1.13 49.74 9.15 49.74 9.15l-2.63 9.15s-24.01-5.78-37.92-9.2c-15.39-3.79-29.19.34-29.19.34l8.54 33.72s18.89-21.91 48.11-8.33c8.58 6.38 8.58 10.27 8.58 10.27s-29.65 8.9-43.24 1.43" class="cls-2 dEyDbNhi_4"></path></g><style data-made-with="vivus-instant">.dEyDbNhi_0{stroke-dasharray:905 907;stroke-dashoffset:906;}.start .dEyDbNhi_0{animation:dEyDbNhi_draw 2000ms ease 0ms forwards;}.dEyDbNhi_1{stroke-dasharray:653 655;stroke-dashoffset:654;}.start .dEyDbNhi_1{animation:dEyDbNhi_draw 2000ms ease 250ms forwards;}.dEyDbNhi_2{stroke-dasharray:400 402;stroke-dashoffset:401;}.start .dEyDbNhi_2{animation:dEyDbNhi_draw 2000ms ease 500ms forwards;}.dEyDbNhi_3{stroke-dasharray:2046 2048;stroke-dashoffset:2047;}.start .dEyDbNhi_3{animation:dEyDbNhi_draw 2000ms ease 750ms forwards;}.dEyDbNhi_4{stroke-dasharray:1539 1541;stroke-dashoffset:1540;}.start .dEyDbNhi_4{animation:dEyDbNhi_draw 2000ms ease 1000ms forwards;}@keyframes dEyDbNhi_draw{100%{stroke-dashoffset:0;}}@keyframes dEyDbNhi_fade{0%{stroke-opacity:1;}94.44444444444444%{stroke-opacity:1;}100%{stroke-opacity:0;}}</style></svg>