<svg  xmlns="http://www.w3.org/2000/svg" viewBox="0 0 964.32 809.26" style="" class="ani "><defs><style>.cls-1{fill:none;stroke:#fff;stroke-miterlimit:10;}</style></defs><g id="Calque_13"><path class="cls-1 rAYJrsfP_0" d="m360.27,369.83l12.46,54.02c1.25,5.43,4.77,10.07,9.66,12.74l111.45,60.82c3.64,1.99,7.73,3.03,11.88,3.03h30.46c11.25,0,21.83-5.39,28.44-14.5l31.64-43.57c3.48-4.79,6.16-10.12,7.92-15.78l29.05-93.19c.85-2.73,1.28-5.56,1.28-8.42v-82.3l-9.26-4.07c-7.57-3.33-15.94-4.42-24.11-3.13l-1.33.21c-6.32.99-12.48,2.85-18.29,5.53l-14.15,6.51v8.25h3.65c6.69,0,13.33-1.09,19.66-3.23l12.37-7.82c6.34-2.14,13.76-2.45,20.45-2.23h11l-3.89,40.78-17.41-.92s-9.16-10.54-25.2-9.62c-16.04.92-33.45,18.33-33.45,18.33,0,0,20.62,5.04,29.78,2.75,9.16-2.29,10.04-23.31-8.75-16.44-18.79,6.87-34.78,19.65-28.36,64.09,8.71,21.99,8.71,27.62,5.96,30.08-2.75,2.46-8.71,7.95-12.37,5.2s11-15.35,7.79-9.97c-3.21,5.38-4.58,10.88-11.91,10.88s-17.74-17.18-22.62-10.88,4.75,8.59,4.75,8.59c0,0-31.16,2.75-16.95-18.33"></path><path class="cls-1 rAYJrsfP_1" d="m359.8,368.38l-11.9-61.08s96.23-105.16,96.23-153.27,24.06-97.6,73.89-89.35c49.83,8.25,38.98,65.98,38.98,65.98,0,0,25.28,14.43,38.34-9.62,13.06-24.06,12.88-116.85-98.38-120.28-111.26-3.44-179.99,28.87-224.67,104.47-44.68,75.61-1.37,94-82.48,174.5-81.1,80.5-67.36,124.49-39.18,188.41,28.18,63.92-104.47,76.29-122.34,123.03-17.87,46.74-39.18,138.15-20.62,188.33,18.56,50.18,360.16,20.62,360.16,20.62,0,0,70.79-86.6.69-116.85-70.11-30.24-83.17-50.86-39.18-81.1,43.99-30.24,64.61-26.12,59.11-90.04"></path><path class="cls-1 rAYJrsfP_2" d="m634.51,242.69s3.89-67.36-20.39-85.23c-24.29-17.87-9.16-71.48,36.2-76.98,45.36-5.5,59.11,45.36,50.86,74.23s4.12,53.61,31.62,71.48c27.49,17.87,57.74,85.4,20.62,133.43-37.12,48.03-57.74,76.38-27.49,89.01,30.24,12.63,142.96-38.4,186.95,1.55,43.99,39.95,68.73,116.93,35.74,151.3-32.99,34.37-61.86,27.87-61.86,27.87,0,0-12.37-69.11-72.86-60.86s-101.72,43.99-138.84,45.36c-37.12,1.37-116.47-19.99-96.23-99.35"></path><path class="cls-1 rAYJrsfP_3" d="m538.29,397.68s15.88.54,23.15,17.37l2.28,6.35h-14.78l-.77-1.1c-3.87-5.52-7.65-7.38-14.39-7.06,0,0-25.16-1.63-34.38,6.44h0s10.43,8.59,24.15,7.73,25.06-3.98,25.06-3.98l15.12-.14-12.22,19.89c-3.24,4-9.33,5.83-11.6,6.03l-16.35,1.41c-18.42,0-21.46-2.96-35.6-13.92l-13.4-14.31,12.5-14.72c6.13-6.92,17.63-9.3,26.78-10.58l3-.42h0c-11.06-.87-21.95,3.15-29.79,11.01l-14.74,16.03,5.73,5.27,24.97,22.68-3.17,49.09"></path><path class="cls-1 rAYJrsfP_4" d="m386.71,260.91s5.21-4.63,16.86-10.81c1.17-.62,7.75-3.61,8.93-4.2,7.41-3.74,14.85-6.83,19.94-7.33,13.98-1.37,60.71,11.17,60.71,11.17l-3.21,11.17s-29.31-7.05-46.28-11.23c-18.79-4.62-35.63.42-35.63.42l10.42,41.16s23.05-26.74,58.72-10.16c10.47,7.79,10.47,12.54,10.47,12.54,0,0-36.19,10.86-52.77,1.75"></path></g><style data-made-with="vivus-instant">.rAYJrsfP_0{stroke-dasharray:1104 1106;stroke-dashoffset:1105;}.start .rAYJrsfP_0{animation:rAYJrsfP_draw 2000ms ease-out 0ms forwards;}.rAYJrsfP_1{stroke-dasharray:2498 2500;stroke-dashoffset:2499;}.start .rAYJrsfP_1{animation:rAYJrsfP_draw 2000ms ease-out 250ms forwards;}.rAYJrsfP_2{stroke-dasharray:1493 1495;stroke-dashoffset:1494;}.start .rAYJrsfP_2{animation:rAYJrsfP_draw 2000ms ease-out 500ms forwards;}.rAYJrsfP_3{stroke-dasharray:482 484;stroke-dashoffset:483;}.start .rAYJrsfP_3{animation:rAYJrsfP_draw 2000ms ease-out 750ms forwards;}.rAYJrsfP_4{stroke-dasharray:386 388;stroke-dashoffset:387;}.start .rAYJrsfP_4{animation:rAYJrsfP_draw 2000ms ease-out 1000ms forwards;}@keyframes rAYJrsfP_draw{100%{stroke-dashoffset:0;}}@keyframes rAYJrsfP_fade{0%{stroke-opacity:1;}94.44444444444444%{stroke-opacity:1;}100%{stroke-opacity:0;}}</style></svg>