<svg id="Calque_2" xmlns="http://www.w3.org/2000/svg" viewBox="0 0 749.36 881.74" class="ani" style=""><defs><style>.cls-Mo-1{fill:none;stroke:white;stroke-miterlimit:10;}</style></defs><g id="medusa2_ligne"><path class="cls-Mo-1 jWSinfqL_0" d="m191.51,447.98l13.31,57.68c1.34,5.8,5.09,10.75,10.32,13.6l119.02,64.95c3.89,2.12,8.25,3.24,12.69,3.24h32.53c12.02,0,23.31-5.75,30.37-15.48l33.79-46.53c3.72-5.12,6.57-10.81,8.46-16.85l31.02-99.52c.91-2.91,1.37-5.94,1.37-8.99v-87.88l-9.88-4.34c-8.08-3.55-17.02-4.71-25.74-3.35l-1.42.22c-6.75,1.06-13.33,3.04-19.53,5.9l-15.11,6.95v8.81h3.9c7.14,0,12.58,2.29,19.35,0l15.78-4.13c6.77-2.29,13.77-10.3,20.92-10.06h11.74l-4.16,43.55-18.59-.98s-9.79-11.25-26.91-10.28c-17.13.98-35.72,19.57-35.72,19.57,0,0,22.02,5.38,31.81,2.94s10.72-24.89-9.35-17.55c-20.06,7.34-37.14,20.98-30.29,68.45,9.3,23.49,9.3,29.5,6.36,32.12-2.94,2.62-9.3,8.49-13.21,5.56s11.74-16.39,8.32-10.64c-3.43,5.75-4.89,11.62-12.72,11.62s-18.94-18.35-24.15-11.62c-5.21,6.73,5.07,9.17,5.07,9.17,0,0-33.27,2.94-18.11-19.57"></path><path class="cls-Mo-1 jWSinfqL_1" d="m219.75,331.66s5.56-4.94,18-11.54c1.25-.66,8.27-3.85,9.54-4.49,7.91-3.99,15.86-7.3,21.29-7.83,14.92-1.47,64.84,11.93,64.84,11.93l-3.43,11.93s-32.28-.81-50.4-5.27c-20.06-4.94-33.69,0-33.69,0l7.75,37.68s5.05-5.85,14.1-10.62c10.95-5.76,27.76-9.93,48.61-.24,11.18,8.32,11.18,13.39,11.18,13.39,0,0-38.65,11.6-56.36,1.87,0,0,13.3,5.81,18.68,2.54,5.38-3.27,11.25-12.31,1.71-18.56-9.54-6.25-22.26.96-23,4.57-.73,3.62,7.58,12.18,12.72,7.04l5.14-5.14"></path><path class="cls-Mo-1 jWSinfqL_2" d="m474.28,437.07s16.7-32.39,49.73-14.77c33.03,17.62-19.82,58.29,24.22,94.1,44.04,35.81,92.48,32.32,112.3,72.6,19.82,40.28,2.2,75.51-44.04,108.54-46.24,33.03-28.63,48.44,15.41,70.46,44.04,22.02,37.68,33.52,39.64,41.35,1.96,7.83,12.72,11.74,12.23,23.98s-3.43,20.55-3.43,20.55c0,0,6.36-18.11-2.45-17.62s-19.57.98-19.57,23c-3.43-19.08-11.74-16.64-17.62-18.59s-18.59-8.32-17.13-15.17c1.47-6.85,8.81-9.3,14.19-6.85,5.38,2.45,10.77,10.77,5.38,14.19-5.38,3.43-34.74-6.85-37.19-1.47-2.45,5.38-4.89,8.32,15.17,23,9.3,7.34,7.83,27.89,31.81,17.62-5.38,12.23,17.62,2.82,17.62,2.82,0,0-22.51,17.24-48.93-4.78l-26.42-22.02s-58.23-55.05-10.77-67.53c47.47-12.48,63.12,29.36,63.12,29.36,0,0-5.87-12.72-41.59-13.7-35.72-.98-86.12-25.93-69.49-95.91,3.67-19.57,72.3-51.14,69.36-78.66s-50.65-63.12-82.21-77.07c-31.56-13.95-53.17-61.29-46.04-80.74,7.13-19.45,44.57-42.19,65.12-13.75,20.55,28.43,89.91,83.12,19.82,97.43-70.1,14.31-109,.73-121.48,1.83-12.48,1.1-28.99,7.03-26.79,34.35,2.2,27.31,84.41,27.31,97.62,22.91,13.21-4.4,54.32-34,63.49-25.44,9.17,8.56,5.14,43.43-40,55.54-45.14,12.11-89.18,23.12-105.7,7.71-16.51-15.41-20.55-45.51-12.48-42.2,8.07,3.3-2.94,44.77,6.24,53.21,9.17,8.44,40.74,23.12,79.27,24.96"></path><path class="cls-Mo-1 jWSinfqL_3" d="m484.38,312.2s2.2,18.29,26.42,49.33c24.22,31.04,91.38,53.06,125.51,23.33,34.13-29.73,38.81-55.05,47.48-112.3,8.67-57.25,57.11-48.44,62.62-38.53,5.5,9.91,0,14.31,0,14.31,0,0-31.93,2.2-35.23,35.23-3.3,33.03-17.62,142.27-110.1,160.32-92.48,18.05-103.49-110.7-85.88-126.7,17.62-16,110.1,95.44,124.41,46.88,14.31-48.57-18.72-102.52-63.86-117.93-45.14-15.41-96.11-11.01-98.15,13.21s29.89,6.61,29.89,6.61c0,0,102.39-13.66,93.58,70.24,82.71-63.63,5.5-151.71-41.84-159.42-47.34-7.71-73.77-31.93-45.14-56.15,28.63-24.22,81.47-9.91,83.68,27.52,2.2,37.43,2.2,66.06,23.12,53.95,20.92-12.11,37.43-134.32-95.79-135.42,57.25-30.83,14.02-75.97-38.13-63.86,30.42,18.72,27.12,39.64-47.75,60.55-74.87,20.92-31.27,112.3-60.23,126.61s-79.57,11.03-33.69-17.62c45.88-28.65,115.32,47.34,117.28,71.56"></path><path class="cls-Mo-1 jWSinfqL_4" d="m285.76,557.8s117.84,136.45,60.79,203.61c7.65-88.72-34.44-102.39-69.96-120.01-35.53-17.62-70.76-89.02-85.07-83.6-14.31,5.43-20.4,40.66,15.12,71.49,35.52,30.83,128.98,90.28,120.24,145.33-8.74,55.05-2.14,92.48-91.32,66.06-60.55-20.92-63.86-88.08-63.86-88.08,0,0,9.91,35.93-23.12,37.03-33.03,1.1-33.03-28.23-33.03-28.23,0,0-49.32-41.38-23.12-75.97,27.49-36.29,66.06-15.41,70.46-9.91,4.4,5.5,29.73,33.03,28.63,42.94-1.1,9.91-22.02,17.62-34.13,16.51-12.11-1.1,4.75-32.23,7.71-16.51,2.96,15.71-35.23,4.4-50.65,13.21-15.41,8.81-22.02-6.61-15.41-8.81,6.61-2.2,8.81,27.52,48.44,23.12,39.64-4.4,45.25-20.92,46.65-12.11,1.39,8.81,30.01,73.77,62.15,48.44,32.14-25.32-.5-95.79-67.86-125.51-67.36-29.73-55.25-84.78-44.24-84.78s3.3,39.64-28.63,40.74c-31.93,1.1-114.5-27.6-113.4-92.52-.01-30.79,19.82-31.89,33.03-31.89s34.31-5.32,37.8,0c3.49,5.32,3.49,30.83,3.49,30.83,0,0-3.3-24.96-10.28-22.39-6.97,2.57-10.28,18.53-7.89,28.81,2.39,10.28,11.74,39.82-4.59,37.8-16.33-2.02-49.54-36.52-48.08-41.47s25.69-10.46,27.89-20.18c9.91,6.42,11.19,25.87,11.19,25.87,0,0,4.59-25.87-4.4-31.01,5.32-7.71,14.31-6.61,16.7,6.97,2.39,13.58,1.47,60.19,28.08,55.05,26.61-5.14,79.27-82.15,37.43-134.87,0,0,46.24-11.01,46.24-27.89-25.32,21.18-95.42,35.17-134.32-59.85-13.21-26.36-28.63,8.47-28.63,8.47,0,0-16.88-22.69,9.54-34.83,26.42-12.14,77.8,94.29,150.47,35.57,72.67-58.72,13.95-110.1-15.41-83.68-29.36,26.42-55.05,27.16-55.05,8.81s.3-69,116.49-38.17c61.95,12.48,74.5-94.69,34.05-110.83-40.45-16.15-67.6-24.96-88.16,22.02-20.55,46.98-20.55,74.52-46.98,79.83s-84.41,9.72-76.34-61.48c8.07-71.2-3.4-43.73-5.87-37.43-3.84,9.8-2.2,22.02-13.95,18.35-11.74-3.67-9.54-65.33,30.09-61.66,39.64,3.67,11.01,82.94,20.55,91.75,9.54,8.81,37.43,19.82,55.78-18.35,18.35-38.17,18.35-130.65,115.97-95.42,97.62,35.23,44.77,70.46,25.69,51.38-19.08-19.08-35.97-107.9,27.89-102.03,63.86,5.87,63.86,27.16,87.35,16.15,23.49-11.01-23.49-31.56-61.66,5.14s-76.34,156.34-27.89,171.76c48.44,15.41,36.7-79.27,76.34-143.86C404.37-7.09,470.43.8,470.43.8"></path><path class="cls-Mo-1 jWSinfqL_5" d="m381.62,477.72s16.96.58,24.72,18.55l2.44,6.78h-15.78s-2.57-10.03-7.83-10.4-24.34-4.04-31.81-1.71c-7.46,2.32-13.27,10.28-13.27,10.28h0s9.85,9.91,26.97,11.01c18.43,1.18,25.57-7,25.57-7l16.15-.15-13.05,21.24c-3.46,4.27-9.96,6.22-12.39,6.44l-17.46,1.5c-19.67,0-22.91-3.16-38.02-14.86l-14.3-15.28,13.35-15.72c6.54-7.39,18.83-9.94,28.6-11.3l3.21-.45h0c-11.81-.93-23.44,3.36-31.81,11.75l-15.74,17.12,6.12,5.63,26.67,24.22-3.39,52.42"></path><path class="cls-Mo-1 jWSinfqL_6" d="M355.75,490.42L358.5,501.86L363.76,490.42L375.49,491.42L375.99,503.04L382.84,492.4"></path><path class="cls-Mo-1 jWSinfqL_7" d="m398.99,364.07s17.13-17.13,23.98-9.79c6.85,7.34,2.83,11.44,0,12.32s-5.38-7.08-5.38-7.08"></path></g><style data-made-with="vivus-instant">.jWSinfqL_0{stroke-dasharray:1179 1181;stroke-dashoffset:1180;}.start .jWSinfqL_0{animation:jWSinfqL_draw 3000ms linear 0ms forwards;}.jWSinfqL_1{stroke-dasharray:494 496;stroke-dashoffset:495;}.start .jWSinfqL_1{animation:jWSinfqL_draw 3000ms linear 0ms forwards;}.jWSinfqL_2{stroke-dasharray:2619 2621;stroke-dashoffset:2620;}.start .jWSinfqL_2{animation:jWSinfqL_draw 3000ms linear 0ms forwards;}.jWSinfqL_3{stroke-dasharray:2777 2779;stroke-dashoffset:2778;}.start .jWSinfqL_3{animation:jWSinfqL_draw 3000ms linear 0ms forwards;}.jWSinfqL_4{stroke-dasharray:5630 5632;stroke-dashoffset:5631;}.start .jWSinfqL_4{animation:jWSinfqL_draw 3000ms linear 0ms forwards;}.jWSinfqL_5{stroke-dasharray:522 524;stroke-dashoffset:523;}.start .jWSinfqL_5{animation:jWSinfqL_draw 3000ms linear 0ms forwards;}.jWSinfqL_6{stroke-dasharray:61 63;stroke-dashoffset:62;}.start .jWSinfqL_6{animation:jWSinfqL_draw 3000ms linear 0ms forwards;}.jWSinfqL_7{stroke-dasharray:53 55;stroke-dashoffset:54;}.start .jWSinfqL_7{animation:jWSinfqL_draw 3000ms linear 0ms forwards;}@keyframes jWSinfqL_draw{100%{stroke-dashoffset:0;}}@keyframes jWSinfqL_fade{0%{stroke-opacity:1;}94.44444444444444%{stroke-opacity:1;}100%{stroke-opacity:0;}}</style></svg>