<svg width="442" height="401" viewBox="0 0 442 401" fill="none" xmlns="http://www.w3.org/2000/svg">
<g clip-path="url(#clip0_312_10)">
<path d="M177.929 198.386C183.802 192.518 190.415 195.266 187.292 194.717C184.169 194.167 183.986 196.182 184.536 198.936C190.598 195.816 192.432 190.314 190.965 183.708C189.498 177.102 179.213 169.769 182.336 148.118C185.459 126.467 190.415 123.17 197.944 122.065C205.474 120.96 209.626 129.83 217.043 139.674C224.46 149.524 225.926 169.432 225.305 173.61C224.684 177.793 215.203 185.9 200.417 184.252C185.63 182.603 186.009 171.045 180.496 171.595C165.621 174.348 161.215 173.243 160.665 169.946C160.115 166.643 171.133 163.34 165.071 162.79C159.008 162.241 163.421 158.937 171.133 157.289C178.846 155.64 186.009 136.377 187.109 130.87C187.884 126.999 189.475 124.766 193.639 123.773C195.395 123.353 197.613 123.164 200.417 123.164C209.868 123.164 220.71 148.479 225.122 166.643C229.528 184.807 241.647 176.546 225.672 147.379C209.697 118.213 200.417 114.909 190.415 117.663C180.413 120.417 179.946 140.23 181.052 146.28C182.152 152.337 177.196 158.937 171.139 163.34C165.077 167.742 153.514 166.643 156.264 162.241C159.02 157.838 167.833 149.034 169.483 138.025C171.133 127.017 175.546 120.966 178.296 117.114C181.052 113.261 191.515 115.465 200.417 114.909C209.318 114.354 214.103 111.057 221.266 114.909C228.428 118.762 241.647 127.567 241.647 134.173C241.647 140.779 247.154 151.232 243.854 158.388C240.553 165.544 241.647 176.552 241.647 176.552C241.647 176.552 235.585 172.15 227.322 176.552C219.059 180.954 224.016 198.569 227.322 206.824C230.628 215.079 221.295 231.707 221.295 231.707L226.216 236.328C226.216 236.328 231.179 231.589 235.354 228.286C239.53 224.982 239.991 222.784 244.954 223.334C249.916 223.883 248.26 217.277 247.16 213.43C246.06 209.584 224.572 194.717 224.022 198.569C223.472 202.422 230.084 200.773 248.81 204.626C248.81 204.626 269.328 212.444 271.995 231.411C271.995 232.853 271.883 235.294 271.883 235.294C271.883 235.294 274.101 236.623 275.438 235.737C276.774 234.851 279.655 229.196 279.992 228.859C280.329 228.522 284.765 227.86 285.321 230.968C285.877 234.076 291.159 244.464 283.99 253.003C280.767 258.256 275 264.141 275 264.141L280.767 353.775C278.371 358.248 258.179 362.58 252.672 360.931C247.166 359.282 246.61 330.11 246.06 325.158C245.51 320.206 242.688 300.624 245.634 300.618C251.489 300.6 245.362 352.729 245.362 352.729L195.093 351.76" stroke="white" stroke-width="2" stroke-miterlimit="10"/>
<path d="M62.8249 361.286C62.8249 361.286 75.7128 385.394 118.345 396.042C160.978 406.69 194.555 397.372 195.087 385.394C195.62 373.417 199.364 251.792 199.364 251.792C199.364 251.792 217.504 273.43 250.01 287.648C258.309 291.276 285.983 249.381 286.397 245.221C287.036 238.863 284.776 229.544 281.311 230.07C279.495 230.348 278.265 233.409 278.265 233.409C278.265 233.409 276.934 239.152 271.883 235.294C270.126 233.952 267.216 232.877 266.554 233.74C263.998 237.066 269.268 240.417 270.215 241.061C273.657 243.389 264.655 259.001 254.003 261.193C248.721 262.28 190.953 197.062 187.623 202.386C184.293 207.71 180.295 229.674 188.292 229.674C196.288 229.674 189.622 197.73 159.647 193.736C129.672 189.741 146.327 132.512 150.32 138.498C154.318 144.49 155.649 167.665 148.989 164.451C142.329 161.236 153.65 129.847 146.327 120.529C138.999 111.21 108.356 97.2356 99.6966 111.21C85.0402 113.208 83.7094 139.16 89.7068 154.47C76.9549 137.831 85.7085 170.442 92.3684 169.775C99.0282 169.107 96.3667 164.451 96.3667 164.451C96.3667 164.451 99.1584 169.255 105.114 172.652C111.502 176.298 121.533 178.337 135.669 171.104C162.983 157.129 134.09 182.503 122.178 182.751C110.272 182.999 105.694 179.093 101.696 175.76C101.696 175.76 106.356 192.4 103.86 194.563C101.365 196.726 57.833 200.886 55.8634 215.859C53.8998 230.832 54.3966 266.269 61.8904 258.286C69.3842 250.303 62.89 203.881 45.9032 218.855C28.9165 233.828 22.8599 250.71 9.91284 267.013C-7.25135 288.634 -0.331254 321.435 21.8544 313.6C40.4026 307.047 41.8399 292.635 57.8271 278.252C57.8271 278.252 56.8275 306.946 57.4959 312.27" stroke="white" stroke-width="2" stroke-miterlimit="10"/>
</g>
<path d="M190.3 28.44L188.8 33H186.46L191.42 19.2H194.26L199.08 33H196.7L195.2 28.44H190.3ZM190.88 26.7H194.62L192.8 21.02L190.88 26.7ZM202.625 29.76C202.625 30.12 202.625 30.44 202.645 30.76C202.685 31.36 202.965 31.56 203.905 31.48V33.02C203.465 33.08 202.965 33.12 202.465 33.12C201.305 33.12 200.525 32.7 200.445 31.34C200.425 30.94 200.425 30.46 200.425 29.82V18.3H202.625V29.76ZM207.859 29.76C207.859 30.12 207.859 30.44 207.879 30.76C207.919 31.36 208.199 31.56 209.139 31.48V33.02C208.699 33.08 208.199 33.12 207.699 33.12C206.539 33.12 205.759 32.7 205.679 31.34C205.659 30.94 205.659 30.46 205.659 29.82V18.3H207.859V29.76ZM220.114 27.42C220.114 27.62 220.114 27.92 220.074 28.3H212.454C212.634 30.84 213.794 31.68 215.234 31.68C216.514 31.68 217.514 30.9 217.734 29.56H219.954C219.494 32.08 217.474 33.28 215.154 33.28C212.314 33.28 210.174 31.48 210.174 27.72C210.174 24.36 212.314 22.1 215.374 22.1C218.454 22.1 220.114 24.42 220.114 27.42ZM212.474 26.76H217.854C217.694 24.8 216.834 23.7 215.294 23.7C213.794 23.7 212.714 24.72 212.474 26.76ZM229.804 33H221.304V31.48L227.284 24.04H221.704V22.46H229.724V24.04L223.784 31.42H229.804V33ZM250.756 24.7C250.836 25.24 250.856 25.72 250.856 26.58V33H248.656V27.38C248.656 26.58 248.636 26 248.576 25.46C248.436 24.32 247.736 23.72 246.596 23.72C245.316 23.72 244.456 24.78 244.456 27.66V33H242.276V27.38C242.276 26.58 242.256 26 242.196 25.46C242.036 24.32 241.356 23.72 240.216 23.72C238.916 23.72 238.076 24.78 238.076 27.66V33H235.876V22.38H238.076V23.96L238.796 22.72C239.356 22.28 240.096 22.1 241.056 22.1C242.736 22.1 243.796 22.94 244.196 24.12L245.176 22.72C245.756 22.28 246.496 22.1 247.436 22.1C249.396 22.1 250.516 23.24 250.756 24.7ZM258.112 22.1C261.672 22.1 263.492 24.58 263.492 27.68C263.492 30.78 261.672 33.28 258.112 33.28C254.532 33.28 252.732 30.78 252.732 27.68C252.732 24.58 254.532 22.1 258.112 22.1ZM255.052 27.68C255.052 30.08 256.172 31.68 258.112 31.68C260.032 31.68 261.152 30.08 261.152 27.68C261.152 25.28 260.032 23.7 258.112 23.7C256.172 23.7 255.052 25.28 255.052 27.68ZM274.807 25.14C274.847 25.68 274.867 26.16 274.867 27.02V33H272.667V27.26C272.667 26.76 272.667 26.3 272.627 25.76C272.527 24.56 271.887 23.72 270.387 23.72C268.867 23.72 267.627 24.92 267.627 28.24V33H265.427V22.38H267.627V24.14L268.347 22.92C269.187 22.28 269.967 22.1 271.027 22.1C273.307 22.1 274.607 23.28 274.807 25.14ZM287.057 32.6C286.337 33.1 285.417 33.28 284.417 33.28C282.537 33.28 280.997 32.2 280.997 30.22C280.997 27.86 282.877 26.58 286.897 26.58H287.577V26.32C287.577 25.92 287.577 25.56 287.537 25.16C287.477 24.3 286.937 23.7 285.677 23.7C284.397 23.7 283.737 24.42 283.617 25.74H281.417C281.557 23.42 283.297 22.1 285.717 22.1C288.457 22.1 289.537 23.26 289.717 25.06C289.757 25.5 289.777 26.06 289.777 26.56V30.3C289.777 31.1 289.817 31.82 289.977 33H287.797L287.597 31.46L287.057 32.6ZM283.317 30.04C283.317 31.16 284.057 31.68 285.217 31.68C286.597 31.68 287.577 30.74 287.577 29.02V28.04C284.997 27.84 283.317 28.42 283.317 30.04ZM307.455 24.7C307.535 25.24 307.555 25.72 307.555 26.58V33H305.355V27.38C305.355 26.58 305.335 26 305.275 25.46C305.135 24.32 304.435 23.72 303.295 23.72C302.015 23.72 301.155 24.78 301.155 27.66V33H298.975V27.38C298.975 26.58 298.955 26 298.895 25.46C298.735 24.32 298.055 23.72 296.915 23.72C295.615 23.72 294.775 24.78 294.775 27.66V33H292.575V22.38H294.775V23.96L295.495 22.72C296.055 22.28 296.795 22.1 297.755 22.1C299.435 22.1 300.495 22.94 300.895 24.12L301.875 22.72C302.455 22.28 303.195 22.1 304.135 22.1C306.095 22.1 307.215 23.24 307.455 24.7ZM314.812 22.1C318.372 22.1 320.192 24.58 320.192 27.68C320.192 30.78 318.372 33.28 314.812 33.28C311.232 33.28 309.432 30.78 309.432 27.68C309.432 24.58 311.232 22.1 314.812 22.1ZM311.752 27.68C311.752 30.08 312.872 31.68 314.812 31.68C316.732 31.68 317.852 30.08 317.852 27.68C317.852 25.28 316.732 23.7 314.812 23.7C312.872 23.7 311.752 25.28 311.752 27.68ZM331.386 33H329.206V31.18L328.466 32.5C327.626 33.1 326.846 33.28 325.786 33.28C323.586 33.28 322.306 32.04 322.066 30.58C321.986 30.04 321.966 29.56 321.966 28.7V22.38H324.146V28.26C324.146 28.6 324.166 29.18 324.226 29.72C324.386 30.88 325.146 31.64 326.506 31.64C328.046 31.64 329.206 30.46 329.206 27.38V22.38H331.386V33ZM338.936 22.12C339.236 22.12 339.456 22.16 339.676 22.24V23.96C337.656 23.82 336.396 24.86 336.396 27.48V33H334.196V22.38H336.396V24.18L337.296 22.72C337.776 22.34 338.396 22.12 338.936 22.12ZM341.187 35.42H339.267L340.847 30.64H343.067V30.84L341.187 35.42ZM352.137 29.76C352.137 30.12 352.137 30.44 352.157 30.76C352.197 31.36 352.477 31.56 353.417 31.48V33.02C352.977 33.08 352.477 33.12 351.977 33.12C350.817 33.12 350.037 32.7 349.957 31.34C349.937 30.94 349.937 30.46 349.937 29.82V18.3H352.137V29.76ZM360.963 32.6C360.243 33.1 359.323 33.28 358.323 33.28C356.443 33.28 354.903 32.2 354.903 30.22C354.903 27.86 356.783 26.58 360.803 26.58H361.483V26.32C361.483 25.92 361.483 25.56 361.443 25.16C361.383 24.3 360.843 23.7 359.583 23.7C358.303 23.7 357.643 24.42 357.523 25.74H355.323C355.463 23.42 357.203 22.1 359.623 22.1C362.363 22.1 363.443 23.26 363.623 25.06C363.663 25.5 363.683 26.06 363.683 26.56V30.3C363.683 31.1 363.723 31.82 363.883 33H361.703L361.503 31.46L360.963 32.6ZM357.223 30.04C357.223 31.16 357.963 31.68 359.123 31.68C360.503 31.68 361.483 30.74 361.483 29.02V28.04C358.903 27.84 357.223 28.42 357.223 30.04ZM366.482 33V22.38H368.682V33H366.482ZM366.482 21.22V18.68H368.702V21.22H366.482ZM374.921 22.1C377.361 22.1 378.721 23.48 378.961 25.42H376.721C376.501 24.3 375.841 23.64 374.761 23.64C373.721 23.64 373.221 24.22 373.221 25.02C373.221 25.98 374.001 26.38 375.581 26.8C377.901 27.4 379.121 28.32 379.121 30.2C379.121 32.26 377.301 33.28 374.981 33.28C372.621 33.28 370.881 32.22 370.581 29.82H372.801C373.061 31.18 373.961 31.72 375.061 31.72C376.081 31.72 376.901 31.28 376.901 30.36C376.901 29.44 376.181 28.94 374.381 28.46C372.441 27.96 371.001 27.14 371.001 25.28C371.001 23.3 372.561 22.1 374.921 22.1ZM384.433 22.1C386.873 22.1 388.233 23.48 388.473 25.42H386.233C386.013 24.3 385.353 23.64 384.273 23.64C383.233 23.64 382.733 24.22 382.733 25.02C382.733 25.98 383.513 26.38 385.093 26.8C387.413 27.4 388.633 28.32 388.633 30.2C388.633 32.26 386.813 33.28 384.493 33.28C382.133 33.28 380.393 32.22 380.093 29.82H382.313C382.573 31.18 383.473 31.72 384.573 31.72C385.593 31.72 386.413 31.28 386.413 30.36C386.413 29.44 385.693 28.94 383.893 28.46C381.953 27.96 380.513 27.14 380.513 25.28C380.513 23.3 382.073 22.1 384.433 22.1ZM399.665 27.42C399.665 27.62 399.665 27.92 399.625 28.3H392.005C392.185 30.84 393.345 31.68 394.785 31.68C396.065 31.68 397.065 30.9 397.285 29.56H399.505C399.045 32.08 397.025 33.28 394.705 33.28C391.865 33.28 389.725 31.48 389.725 27.72C389.725 24.36 391.865 22.1 394.925 22.1C398.005 22.1 399.665 24.42 399.665 27.42ZM392.025 26.76H397.405C397.245 24.8 396.385 23.7 394.845 23.7C393.345 23.7 392.265 24.72 392.025 26.76ZM408.496 29.56C408.496 29.92 408.496 30.16 408.516 30.44C408.596 31.48 408.996 31.7 410.436 31.56V33.08C409.876 33.16 409.356 33.2 408.816 33.2C407.156 33.2 406.436 32.58 406.336 31.18C406.316 30.82 406.316 30.36 406.316 29.76V24H404.816V22.46H406.316V19.92H408.496V22.46H410.576V24H408.496V29.56ZM416.921 22.1C420.481 22.1 422.301 24.58 422.301 27.68C422.301 30.78 420.481 33.28 416.921 33.28C413.341 33.28 411.541 30.78 411.541 27.68C411.541 24.58 413.341 22.1 416.921 22.1ZM413.861 27.68C413.861 30.08 414.981 31.68 416.921 31.68C418.841 31.68 419.961 30.08 419.961 27.68C419.961 25.28 418.841 23.7 416.921 23.7C414.981 23.7 413.861 25.28 413.861 27.68ZM424.235 33V22.38H426.435V33H424.235ZM424.235 21.22V18.68H426.455V21.22H424.235ZM189.8 48.64C189.76 48.92 189.74 49.36 189.74 49.66V50.46H191.92V52H189.74V61H187.56V52H186.42V50.46H187.56V49.78C187.56 49.4 187.56 48.88 187.6 48.52C187.78 46.88 188.88 45.92 190.88 45.92C191.32 45.92 191.74 45.96 192.1 46.04V47.68C190.8 47.44 189.92 47.76 189.8 48.64ZM198.99 60.6C198.27 61.1 197.35 61.28 196.35 61.28C194.47 61.28 192.93 60.2 192.93 58.22C192.93 55.86 194.81 54.58 198.83 54.58H199.51V54.32C199.51 53.92 199.51 53.56 199.47 53.16C199.41 52.3 198.87 51.7 197.61 51.7C196.33 51.7 195.67 52.42 195.55 53.74H193.35C193.49 51.42 195.23 50.1 197.65 50.1C200.39 50.1 201.47 51.26 201.65 53.06C201.69 53.5 201.71 54.06 201.71 54.56V58.3C201.71 59.1 201.75 59.82 201.91 61H199.73L199.53 59.46L198.99 60.6ZM195.25 58.04C195.25 59.16 195.99 59.68 197.15 59.68C198.53 59.68 199.51 58.74 199.51 57.02V56.04C196.93 55.84 195.25 56.42 195.25 58.04ZM204.509 61V50.38H206.709V61H204.509ZM204.509 49.22V46.68H206.729V49.22H204.509ZM214.268 50.12C214.568 50.12 214.788 50.16 215.008 50.24V51.96C212.988 51.82 211.728 52.86 211.728 55.48V61H209.528V50.38H211.728V52.18L212.628 50.72C213.108 50.34 213.728 50.12 214.268 50.12ZM225.543 55.42C225.543 55.62 225.543 55.92 225.503 56.3H217.883C218.063 58.84 219.223 59.68 220.663 59.68C221.943 59.68 222.943 58.9 223.163 57.56H225.383C224.923 60.08 222.903 61.28 220.583 61.28C217.743 61.28 215.603 59.48 215.603 55.72C215.603 52.36 217.743 50.1 220.803 50.1C223.883 50.1 225.543 52.42 225.543 55.42ZM217.903 54.76H223.283C223.123 52.8 222.263 51.7 220.723 51.7C219.223 51.7 218.143 52.72 217.903 54.76ZM231.955 57.24L231.715 47.2H234.055L233.815 57.24H231.955ZM231.955 61.28V58.36H233.815V61.28H231.955Z" fill="white"/>
<mask id="path-4-inside-1_312_10" fill="white">
<path fill-rule="evenodd" clip-rule="evenodd" d="M442 0H172V72.1084H171.971L157 105.08L215.633 76H442V51.6098V0Z"/>
</mask>
<path d="M172 0V-2H170V0H172ZM442 0H444V-2H442V0ZM172 72.1084V74.1084H174V72.1084H172ZM171.971 72.1084V70.1084H170.682L170.15 71.2816L171.971 72.1084ZM157 105.08L155.179 104.253L152.857 109.367L157.889 106.871L157 105.08ZM215.633 76V74H215.165L214.745 74.2083L215.633 76ZM442 76V78H444V76H442ZM172 2H442V-2H172V2ZM174 72.1084V0H170V72.1084H174ZM171.971 74.1084H172V70.1084H171.971V74.1084ZM158.821 105.907L173.792 72.9353L170.15 71.2816L155.179 104.253L158.821 105.907ZM214.745 74.2083L156.111 103.288L157.889 106.871L216.522 77.7917L214.745 74.2083ZM442 74H215.633V78H442V74ZM440 51.6098V76H444V51.6098H440ZM440 0V51.6098H444V0H440Z" fill="white" mask="url(#path-4-inside-1_312_10)"/>
<defs>
<clipPath id="clip0_312_10">
<rect width="288" height="296" fill="white" transform="translate(0 105)"/>
</clipPath>
</defs>
</svg>
