<svg width="479" height="661" viewBox="0 0 479 661" fill="none" xmlns="http://www.w3.org/2000/svg">
<g clip-path="url(#clip0_113_9122)">
<path d="M0.338867 597.953C0.338867 597.953 86.495 463.442 89.229 381.415C91.9629 299.388 164.167 192.62 165.538 156.718C166.909 120.817 189.031 132.413 193.249 137.166C197.466 141.919 211.983 185.18 190.128 213.657C168.272 242.134 203.959 286.937 173.167 295.886C142.376 304.835 186.055 266.601 200.281 295.983C214.507 325.364 184.361 464.717 144.295 459.076C104.229 453.435 180.926 425.934 193.241 438.894C205.555 451.854 203.773 495.227 344.06 480.468C429.837 469.607 442.184 494.784 440.515 400.515C439.475 341.6 449.386 346.554 458.459 350.516C464.846 353.3 471.564 362.112 470.04 368.923C465.927 387.289 440.636 410.522 437.483 364.751C438.023 334.16 438.144 262.914 452.233 260.404C466.322 257.894 497.969 291.221 455.846 315.688C430.644 317.052 437.587 250.777 438.91 227.464C440.233 204.151 459.443 153.733 475.298 184.986C491.154 216.239 444.797 268.191 440.241 204.151C435.684 140.111 455.419 7.39974 399.868 3.84915C372.4 0.290482 380.674 0.0161173 371.722 14.5494C362.77 29.0826 347.826 27.6381 302.849 26.6456C257.872 25.653 239.339 16.4618 319.6 10.1595C399.86 3.85722 323.576 36.2968 293.357 21.5618C266.687 8.56176 349.915 18.1 357.682 9.054C364.117 1.5574 310.865 -4.09128 254.549 5.42271C198.233 14.9367 210.507 0.379247 204.596 55.825C198.684 111.271 180.522 437.361 224.419 452.975C268.316 468.59 398.199 466.516 416.748 453.847C435.297 441.178 439.983 29.0665 411.07 31.1645C382.158 33.2626 238.581 25.3948 227.822 36.6034C217.064 47.812 179.434 446.407 229.564 446.625C279.695 446.843 344.988 428.242 348.093 439.128C354.907 462.982 333.786 461.618 324.253 458.213C314.72 454.807 316.761 425.499 337.874 431.631C358.988 437.764 360.351 483.438 294.276 495.704C273.034 499.408 255.339 531.468 239.024 552.82C229.419 565.392 213.169 570.896 197.862 566.917C168.691 554.829 116.907 528.264 147.352 529.023C177.796 529.781 206.031 558.896 177.603 660.895" stroke="white" stroke-width="2" stroke-miterlimit="10"/>
<path d="M237.922 180.951H239.537V182.583H237.582L236.851 186H235.117L235.848 182.583H234.369L233.638 186H231.904L232.635 182.583H231.207V180.951H232.975L233.332 179.319H231.717V177.687H233.672L234.403 174.27H236.137L235.406 177.687H236.885L237.616 174.27H239.35L238.619 177.687H240.047V179.319H238.279L237.922 180.951ZM234.709 180.951H236.188L236.528 179.319H235.049L234.709 180.951ZM251.218 180.917C251.218 181.461 251.218 181.835 251.167 182.702C251.048 184.759 249.705 186.238 246.662 186.238C243.483 186.238 242.174 184.572 242.089 182.022L242.072 181.512H245.132L245.166 182.022C245.268 183.552 245.88 183.994 246.747 183.994C247.597 183.994 248.039 183.45 248.124 182.515C248.158 182.124 248.158 181.75 248.158 181.393V174.27H251.218V180.917ZM262.45 186H253.457V174.27H262.28V176.65H256.517V178.928H261.94V181.308H256.517V183.62H262.45V186ZM267.272 178.248C267.374 179.438 267.374 180.475 267.374 181.155V186H264.314V174.27H268.122L272.576 182.362C272.491 181.172 272.474 179.965 272.474 179.285V174.27H275.534V186H271.539L267.272 178.248ZM280.752 182.957L279.766 186H276.519L280.752 174.27H284.492L288.725 186H285.393L284.407 182.957H280.752ZM281.5 180.577H283.676L282.588 176.973L281.5 180.577ZM289.831 186V174.27H292.891V186H289.831ZM301.432 174.355C303.132 174.559 304.679 175.766 304.679 178.078C304.679 180.39 303.132 181.597 301.432 181.801C300.803 181.869 300.327 181.886 299.596 181.886H298.236V186H295.176V174.27H299.596C300.327 174.27 300.803 174.287 301.432 174.355ZM298.236 179.506H299.426C299.749 179.506 300.021 179.506 300.242 179.489C301.024 179.421 301.483 178.962 301.483 178.078C301.483 177.194 301.024 176.735 300.242 176.667C300.021 176.65 299.749 176.65 299.426 176.65H298.236V179.506ZM307.979 182.957L306.993 186H303.746L307.979 174.27H311.719L315.952 186H312.62L311.634 182.957H307.979ZM308.727 180.577H310.903L309.815 176.973L308.727 180.577ZM320.972 174.032C324.066 174.032 325.358 175.715 325.613 177.891H322.553C322.417 176.922 321.907 176.276 320.904 176.276C320.207 176.276 319.731 176.616 319.731 177.33C319.731 178.078 320.275 178.537 322.213 178.996C324.797 179.608 325.851 180.9 325.851 182.702C325.851 185.048 323.607 186.238 321.244 186.238C318.269 186.238 316.263 185.048 316.076 182.413H319.136C319.34 183.518 320.241 183.994 321.159 183.994C322.009 183.994 322.655 183.552 322.655 182.906C322.655 182.294 322.213 181.767 320.768 181.41C318.099 180.747 316.535 179.914 316.535 177.568C316.535 175.307 318.643 174.032 320.972 174.032ZM333.756 174.355C335.456 174.559 337.003 175.766 337.003 178.078C337.003 180.39 335.456 181.597 333.756 181.801C333.127 181.869 332.651 181.886 331.92 181.886H330.56V186H327.5V174.27H331.92C332.651 174.27 333.127 174.287 333.756 174.355ZM330.56 179.506H331.75C332.073 179.506 332.345 179.506 332.566 179.489C333.348 179.421 333.807 178.962 333.807 178.078C333.807 177.194 333.348 176.735 332.566 176.667C332.345 176.65 332.073 176.65 331.75 176.65H330.56V179.506ZM347.433 186H338.44V174.27H341.5V183.416H347.433V186ZM352.056 182.957L351.07 186H347.823L352.056 174.27H355.796L360.029 186H356.697L355.711 182.957H352.056ZM352.804 180.577H354.98L353.892 176.973L352.804 180.577ZM361.134 186V174.27H364.194V186H361.134ZM369.438 178.248C369.54 179.438 369.54 180.475 369.54 181.155V186H366.48V174.27H370.288L374.742 182.362C374.657 181.172 374.64 179.965 374.64 179.285V174.27H377.7V186H373.705L369.438 178.248ZM385.723 176.65V186H382.663V176.65H378.855V174.27H389.531V176.65H385.723ZM399.711 186H390.718V174.27H399.541V176.65H393.778V178.928H399.201V181.308H393.778V183.62H399.711V186Z" fill="white"/>
<path d="M237.922 123.951H239.537V125.583H237.582L236.851 129H235.117L235.848 125.583H234.369L233.638 129H231.904L232.635 125.583H231.207V123.951H232.975L233.332 122.319H231.717V120.687H233.672L234.403 117.27H236.137L235.406 120.687H236.885L237.616 117.27H239.35L238.619 120.687H240.047V122.319H238.279L237.922 123.951ZM234.709 123.951H236.188L236.528 122.319H235.049L234.709 123.951ZM251.218 123.917C251.218 124.461 251.218 124.835 251.167 125.702C251.048 127.759 249.705 129.238 246.662 129.238C243.483 129.238 242.174 127.572 242.089 125.022L242.072 124.512H245.132L245.166 125.022C245.268 126.552 245.88 126.994 246.747 126.994C247.597 126.994 248.039 126.45 248.124 125.515C248.158 125.124 248.158 124.75 248.158 124.393V117.27H251.218V123.917ZM262.45 129H253.457V117.27H262.28V119.65H256.517V121.928H261.94V124.308H256.517V126.62H262.45V129ZM267.272 121.248C267.374 122.438 267.374 123.475 267.374 124.155V129H264.314V117.27H268.122L272.576 125.362C272.491 124.172 272.474 122.965 272.474 122.285V117.27H275.534V129H271.539L267.272 121.248ZM280.752 125.957L279.766 129H276.519L280.752 117.27H284.492L288.725 129H285.393L284.407 125.957H280.752ZM281.5 123.577H283.676L282.588 119.973L281.5 123.577ZM289.831 129V117.27H292.891V129H289.831ZM301.432 117.355C303.132 117.559 304.679 118.766 304.679 121.078C304.679 123.39 303.132 124.597 301.432 124.801C300.803 124.869 300.327 124.886 299.596 124.886H298.236V129H295.176V117.27H299.596C300.327 117.27 300.803 117.287 301.432 117.355ZM298.236 122.506H299.426C299.749 122.506 300.021 122.506 300.242 122.489C301.024 122.421 301.483 121.962 301.483 121.078C301.483 120.194 301.024 119.735 300.242 119.667C300.021 119.65 299.749 119.65 299.426 119.65H298.236V122.506ZM307.979 125.957L306.993 129H303.746L307.979 117.27H311.719L315.952 129H312.62L311.634 125.957H307.979ZM308.727 123.577H310.903L309.815 119.973L308.727 123.577ZM320.972 117.032C324.066 117.032 325.358 118.715 325.613 120.891H322.553C322.417 119.922 321.907 119.276 320.904 119.276C320.207 119.276 319.731 119.616 319.731 120.33C319.731 121.078 320.275 121.537 322.213 121.996C324.797 122.608 325.851 123.9 325.851 125.702C325.851 128.048 323.607 129.238 321.244 129.238C318.269 129.238 316.263 128.048 316.076 125.413H319.136C319.34 126.518 320.241 126.994 321.159 126.994C322.009 126.994 322.655 126.552 322.655 125.906C322.655 125.294 322.213 124.767 320.768 124.41C318.099 123.747 316.535 122.914 316.535 120.568C316.535 118.307 318.643 117.032 320.972 117.032ZM333.756 117.355C335.456 117.559 337.003 118.766 337.003 121.078C337.003 123.39 335.456 124.597 333.756 124.801C333.127 124.869 332.651 124.886 331.92 124.886H330.56V129H327.5V117.27H331.92C332.651 117.27 333.127 117.287 333.756 117.355ZM330.56 122.506H331.75C332.073 122.506 332.345 122.506 332.566 122.489C333.348 122.421 333.807 121.962 333.807 121.078C333.807 120.194 333.348 119.735 332.566 119.667C332.345 119.65 332.073 119.65 331.75 119.65H330.56V122.506ZM347.433 129H338.44V117.27H341.5V126.416H347.433V129ZM352.056 125.957L351.07 129H347.823L352.056 117.27H355.796L360.029 129H356.697L355.711 125.957H352.056ZM352.804 123.577H354.98L353.892 119.973L352.804 123.577ZM361.134 129V117.27H364.194V129H361.134ZM369.438 121.248C369.54 122.438 369.54 123.475 369.54 124.155V129H366.48V117.27H370.288L374.742 125.362C374.657 124.172 374.64 122.965 374.64 122.285V117.27H377.7V129H373.705L369.438 121.248ZM385.723 119.65V129H382.663V119.65H378.855V117.27H389.531V119.65H385.723ZM399.711 129H390.718V117.27H399.541V119.65H393.778V121.928H399.201V124.308H393.778V126.62H399.711V129Z" fill="white"/>
<path d="M237.922 66.951H239.537V68.583H237.582L236.851 72H235.117L235.848 68.583H234.369L233.638 72H231.904L232.635 68.583H231.207V66.951H232.975L233.332 65.319H231.717V63.687H233.672L234.403 60.27H236.137L235.406 63.687H236.885L237.616 60.27H239.35L238.619 63.687H240.047V65.319H238.279L237.922 66.951ZM234.709 66.951H236.188L236.528 65.319H235.049L234.709 66.951ZM251.218 66.917C251.218 67.461 251.218 67.835 251.167 68.702C251.048 70.759 249.705 72.238 246.662 72.238C243.483 72.238 242.174 70.572 242.089 68.022L242.072 67.512H245.132L245.166 68.022C245.268 69.552 245.88 69.994 246.747 69.994C247.597 69.994 248.039 69.45 248.124 68.515C248.158 68.124 248.158 67.75 248.158 67.393V60.27H251.218V66.917ZM262.45 72H253.457V60.27H262.28V62.65H256.517V64.928H261.94V67.308H256.517V69.62H262.45V72ZM267.272 64.248C267.374 65.438 267.374 66.475 267.374 67.155V72H264.314V60.27H268.122L272.576 68.362C272.491 67.172 272.474 65.965 272.474 65.285V60.27H275.534V72H271.539L267.272 64.248ZM280.752 68.957L279.766 72H276.519L280.752 60.27H284.492L288.725 72H285.393L284.407 68.957H280.752ZM281.5 66.577H283.676L282.588 62.973L281.5 66.577ZM289.831 72V60.27H292.891V72H289.831ZM301.432 60.355C303.132 60.559 304.679 61.766 304.679 64.078C304.679 66.39 303.132 67.597 301.432 67.801C300.803 67.869 300.327 67.886 299.596 67.886H298.236V72H295.176V60.27H299.596C300.327 60.27 300.803 60.287 301.432 60.355ZM298.236 65.506H299.426C299.749 65.506 300.021 65.506 300.242 65.489C301.024 65.421 301.483 64.962 301.483 64.078C301.483 63.194 301.024 62.735 300.242 62.667C300.021 62.65 299.749 62.65 299.426 62.65H298.236V65.506ZM307.979 68.957L306.993 72H303.746L307.979 60.27H311.719L315.952 72H312.62L311.634 68.957H307.979ZM308.727 66.577H310.903L309.815 62.973L308.727 66.577ZM320.972 60.032C324.066 60.032 325.358 61.715 325.613 63.891H322.553C322.417 62.922 321.907 62.276 320.904 62.276C320.207 62.276 319.731 62.616 319.731 63.33C319.731 64.078 320.275 64.537 322.213 64.996C324.797 65.608 325.851 66.9 325.851 68.702C325.851 71.048 323.607 72.238 321.244 72.238C318.269 72.238 316.263 71.048 316.076 68.413H319.136C319.34 69.518 320.241 69.994 321.159 69.994C322.009 69.994 322.655 69.552 322.655 68.906C322.655 68.294 322.213 67.767 320.768 67.41C318.099 66.747 316.535 65.914 316.535 63.568C316.535 61.307 318.643 60.032 320.972 60.032ZM333.756 60.355C335.456 60.559 337.003 61.766 337.003 64.078C337.003 66.39 335.456 67.597 333.756 67.801C333.127 67.869 332.651 67.886 331.92 67.886H330.56V72H327.5V60.27H331.92C332.651 60.27 333.127 60.287 333.756 60.355ZM330.56 65.506H331.75C332.073 65.506 332.345 65.506 332.566 65.489C333.348 65.421 333.807 64.962 333.807 64.078C333.807 63.194 333.348 62.735 332.566 62.667C332.345 62.65 332.073 62.65 331.75 62.65H330.56V65.506ZM347.433 72H338.44V60.27H341.5V69.416H347.433V72ZM352.056 68.957L351.07 72H347.823L352.056 60.27H355.796L360.029 72H356.697L355.711 68.957H352.056ZM352.804 66.577H354.98L353.892 62.973L352.804 66.577ZM361.134 72V60.27H364.194V72H361.134ZM369.438 64.248C369.54 65.438 369.54 66.475 369.54 67.155V72H366.48V60.27H370.288L374.742 68.362C374.657 67.172 374.64 65.965 374.64 65.285V60.27H377.7V72H373.705L369.438 64.248ZM385.723 62.65V72H382.663V62.65H378.855V60.27H389.531V62.65H385.723ZM399.711 72H390.718V60.27H399.541V62.65H393.778V64.928H399.201V67.308H393.778V69.62H399.711V72Z" fill="white"/>
<path d="M237.922 236.951H239.537V238.583H237.582L236.851 242H235.117L235.848 238.583H234.369L233.638 242H231.904L232.635 238.583H231.207V236.951H232.975L233.332 235.319H231.717V233.687H233.672L234.403 230.27H236.137L235.406 233.687H236.885L237.616 230.27H239.35L238.619 233.687H240.047V235.319H238.279L237.922 236.951ZM234.709 236.951H236.188L236.528 235.319H235.049L234.709 236.951ZM251.218 236.917C251.218 237.461 251.218 237.835 251.167 238.702C251.048 240.759 249.705 242.238 246.662 242.238C243.483 242.238 242.174 240.572 242.089 238.022L242.072 237.512H245.132L245.166 238.022C245.268 239.552 245.88 239.994 246.747 239.994C247.597 239.994 248.039 239.45 248.124 238.515C248.158 238.124 248.158 237.75 248.158 237.393V230.27H251.218V236.917ZM262.45 242H253.457V230.27H262.28V232.65H256.517V234.928H261.94V237.308H256.517V239.62H262.45V242ZM267.272 234.248C267.374 235.438 267.374 236.475 267.374 237.155V242H264.314V230.27H268.122L272.576 238.362C272.491 237.172 272.474 235.965 272.474 235.285V230.27H275.534V242H271.539L267.272 234.248ZM280.752 238.957L279.766 242H276.519L280.752 230.27H284.492L288.725 242H285.393L284.407 238.957H280.752ZM281.5 236.577H283.676L282.588 232.973L281.5 236.577ZM289.831 242V230.27H292.891V242H289.831ZM301.432 230.355C303.132 230.559 304.679 231.766 304.679 234.078C304.679 236.39 303.132 237.597 301.432 237.801C300.803 237.869 300.327 237.886 299.596 237.886H298.236V242H295.176V230.27H299.596C300.327 230.27 300.803 230.287 301.432 230.355ZM298.236 235.506H299.426C299.749 235.506 300.021 235.506 300.242 235.489C301.024 235.421 301.483 234.962 301.483 234.078C301.483 233.194 301.024 232.735 300.242 232.667C300.021 232.65 299.749 232.65 299.426 232.65H298.236V235.506ZM307.979 238.957L306.993 242H303.746L307.979 230.27H311.719L315.952 242H312.62L311.634 238.957H307.979ZM308.727 236.577H310.903L309.815 232.973L308.727 236.577ZM320.972 230.032C324.066 230.032 325.358 231.715 325.613 233.891H322.553C322.417 232.922 321.907 232.276 320.904 232.276C320.207 232.276 319.731 232.616 319.731 233.33C319.731 234.078 320.275 234.537 322.213 234.996C324.797 235.608 325.851 236.9 325.851 238.702C325.851 241.048 323.607 242.238 321.244 242.238C318.269 242.238 316.263 241.048 316.076 238.413H319.136C319.34 239.518 320.241 239.994 321.159 239.994C322.009 239.994 322.655 239.552 322.655 238.906C322.655 238.294 322.213 237.767 320.768 237.41C318.099 236.747 316.535 235.914 316.535 233.568C316.535 231.307 318.643 230.032 320.972 230.032ZM333.756 230.355C335.456 230.559 337.003 231.766 337.003 234.078C337.003 236.39 335.456 237.597 333.756 237.801C333.127 237.869 332.651 237.886 331.92 237.886H330.56V242H327.5V230.27H331.92C332.651 230.27 333.127 230.287 333.756 230.355ZM330.56 235.506H331.75C332.073 235.506 332.345 235.506 332.566 235.489C333.348 235.421 333.807 234.962 333.807 234.078C333.807 233.194 333.348 232.735 332.566 232.667C332.345 232.65 332.073 232.65 331.75 232.65H330.56V235.506ZM347.433 242H338.44V230.27H341.5V239.416H347.433V242ZM352.056 238.957L351.07 242H347.823L352.056 230.27H355.796L360.029 242H356.697L355.711 238.957H352.056ZM352.804 236.577H354.98L353.892 232.973L352.804 236.577ZM361.134 242V230.27H364.194V242H361.134ZM369.438 234.248C369.54 235.438 369.54 236.475 369.54 237.155V242H366.48V230.27H370.288L374.742 238.362C374.657 237.172 374.64 235.965 374.64 235.285V230.27H377.7V242H373.705L369.438 234.248ZM385.723 232.65V242H382.663V232.65H378.855V230.27H389.531V232.65H385.723ZM399.711 242H390.718V230.27H399.541V232.65H393.778V234.928H399.201V237.308H393.778V239.62H399.711V242Z" fill="white"/>
<path d="M237.922 293.951H239.537V295.583H237.582L236.851 299H235.117L235.848 295.583H234.369L233.638 299H231.904L232.635 295.583H231.207V293.951H232.975L233.332 292.319H231.717V290.687H233.672L234.403 287.27H236.137L235.406 290.687H236.885L237.616 287.27H239.35L238.619 290.687H240.047V292.319H238.279L237.922 293.951ZM234.709 293.951H236.188L236.528 292.319H235.049L234.709 293.951ZM251.218 293.917C251.218 294.461 251.218 294.835 251.167 295.702C251.048 297.759 249.705 299.238 246.662 299.238C243.483 299.238 242.174 297.572 242.089 295.022L242.072 294.512H245.132L245.166 295.022C245.268 296.552 245.88 296.994 246.747 296.994C247.597 296.994 248.039 296.45 248.124 295.515C248.158 295.124 248.158 294.75 248.158 294.393V287.27H251.218V293.917ZM262.45 299H253.457V287.27H262.28V289.65H256.517V291.928H261.94V294.308H256.517V296.62H262.45V299ZM267.272 291.248C267.374 292.438 267.374 293.475 267.374 294.155V299H264.314V287.27H268.122L272.576 295.362C272.491 294.172 272.474 292.965 272.474 292.285V287.27H275.534V299H271.539L267.272 291.248ZM280.752 295.957L279.766 299H276.519L280.752 287.27H284.492L288.725 299H285.393L284.407 295.957H280.752ZM281.5 293.577H283.676L282.588 289.973L281.5 293.577ZM289.831 299V287.27H292.891V299H289.831ZM301.432 287.355C303.132 287.559 304.679 288.766 304.679 291.078C304.679 293.39 303.132 294.597 301.432 294.801C300.803 294.869 300.327 294.886 299.596 294.886H298.236V299H295.176V287.27H299.596C300.327 287.27 300.803 287.287 301.432 287.355ZM298.236 292.506H299.426C299.749 292.506 300.021 292.506 300.242 292.489C301.024 292.421 301.483 291.962 301.483 291.078C301.483 290.194 301.024 289.735 300.242 289.667C300.021 289.65 299.749 289.65 299.426 289.65H298.236V292.506ZM307.979 295.957L306.993 299H303.746L307.979 287.27H311.719L315.952 299H312.62L311.634 295.957H307.979ZM308.727 293.577H310.903L309.815 289.973L308.727 293.577ZM320.972 287.032C324.066 287.032 325.358 288.715 325.613 290.891H322.553C322.417 289.922 321.907 289.276 320.904 289.276C320.207 289.276 319.731 289.616 319.731 290.33C319.731 291.078 320.275 291.537 322.213 291.996C324.797 292.608 325.851 293.9 325.851 295.702C325.851 298.048 323.607 299.238 321.244 299.238C318.269 299.238 316.263 298.048 316.076 295.413H319.136C319.34 296.518 320.241 296.994 321.159 296.994C322.009 296.994 322.655 296.552 322.655 295.906C322.655 295.294 322.213 294.767 320.768 294.41C318.099 293.747 316.535 292.914 316.535 290.568C316.535 288.307 318.643 287.032 320.972 287.032ZM333.756 287.355C335.456 287.559 337.003 288.766 337.003 291.078C337.003 293.39 335.456 294.597 333.756 294.801C333.127 294.869 332.651 294.886 331.92 294.886H330.56V299H327.5V287.27H331.92C332.651 287.27 333.127 287.287 333.756 287.355ZM330.56 292.506H331.75C332.073 292.506 332.345 292.506 332.566 292.489C333.348 292.421 333.807 291.962 333.807 291.078C333.807 290.194 333.348 289.735 332.566 289.667C332.345 289.65 332.073 289.65 331.75 289.65H330.56V292.506ZM347.433 299H338.44V287.27H341.5V296.416H347.433V299ZM352.056 295.957L351.07 299H347.823L352.056 287.27H355.796L360.029 299H356.697L355.711 295.957H352.056ZM352.804 293.577H354.98L353.892 289.973L352.804 293.577ZM361.134 299V287.27H364.194V299H361.134ZM369.438 291.248C369.54 292.438 369.54 293.475 369.54 294.155V299H366.48V287.27H370.288L374.742 295.362C374.657 294.172 374.64 292.965 374.64 292.285V287.27H377.7V299H373.705L369.438 291.248ZM385.723 289.65V299H382.663V289.65H378.855V287.27H389.531V289.65H385.723ZM399.711 299H390.718V287.27H399.541V289.65H393.778V291.928H399.201V294.308H393.778V296.62H399.711V299Z" fill="white"/>
<path d="M237.922 350.951H239.537V352.583H237.582L236.851 356H235.117L235.848 352.583H234.369L233.638 356H231.904L232.635 352.583H231.207V350.951H232.975L233.332 349.319H231.717V347.687H233.672L234.403 344.27H236.137L235.406 347.687H236.885L237.616 344.27H239.35L238.619 347.687H240.047V349.319H238.279L237.922 350.951ZM234.709 350.951H236.188L236.528 349.319H235.049L234.709 350.951ZM251.218 350.917C251.218 351.461 251.218 351.835 251.167 352.702C251.048 354.759 249.705 356.238 246.662 356.238C243.483 356.238 242.174 354.572 242.089 352.022L242.072 351.512H245.132L245.166 352.022C245.268 353.552 245.88 353.994 246.747 353.994C247.597 353.994 248.039 353.45 248.124 352.515C248.158 352.124 248.158 351.75 248.158 351.393V344.27H251.218V350.917ZM262.45 356H253.457V344.27H262.28V346.65H256.517V348.928H261.94V351.308H256.517V353.62H262.45V356ZM267.272 348.248C267.374 349.438 267.374 350.475 267.374 351.155V356H264.314V344.27H268.122L272.576 352.362C272.491 351.172 272.474 349.965 272.474 349.285V344.27H275.534V356H271.539L267.272 348.248ZM280.752 352.957L279.766 356H276.519L280.752 344.27H284.492L288.725 356H285.393L284.407 352.957H280.752ZM281.5 350.577H283.676L282.588 346.973L281.5 350.577ZM289.831 356V344.27H292.891V356H289.831ZM301.432 344.355C303.132 344.559 304.679 345.766 304.679 348.078C304.679 350.39 303.132 351.597 301.432 351.801C300.803 351.869 300.327 351.886 299.596 351.886H298.236V356H295.176V344.27H299.596C300.327 344.27 300.803 344.287 301.432 344.355ZM298.236 349.506H299.426C299.749 349.506 300.021 349.506 300.242 349.489C301.024 349.421 301.483 348.962 301.483 348.078C301.483 347.194 301.024 346.735 300.242 346.667C300.021 346.65 299.749 346.65 299.426 346.65H298.236V349.506ZM307.979 352.957L306.993 356H303.746L307.979 344.27H311.719L315.952 356H312.62L311.634 352.957H307.979ZM308.727 350.577H310.903L309.815 346.973L308.727 350.577ZM320.972 344.032C324.066 344.032 325.358 345.715 325.613 347.891H322.553C322.417 346.922 321.907 346.276 320.904 346.276C320.207 346.276 319.731 346.616 319.731 347.33C319.731 348.078 320.275 348.537 322.213 348.996C324.797 349.608 325.851 350.9 325.851 352.702C325.851 355.048 323.607 356.238 321.244 356.238C318.269 356.238 316.263 355.048 316.076 352.413H319.136C319.34 353.518 320.241 353.994 321.159 353.994C322.009 353.994 322.655 353.552 322.655 352.906C322.655 352.294 322.213 351.767 320.768 351.41C318.099 350.747 316.535 349.914 316.535 347.568C316.535 345.307 318.643 344.032 320.972 344.032ZM333.756 344.355C335.456 344.559 337.003 345.766 337.003 348.078C337.003 350.39 335.456 351.597 333.756 351.801C333.127 351.869 332.651 351.886 331.92 351.886H330.56V356H327.5V344.27H331.92C332.651 344.27 333.127 344.287 333.756 344.355ZM330.56 349.506H331.75C332.073 349.506 332.345 349.506 332.566 349.489C333.348 349.421 333.807 348.962 333.807 348.078C333.807 347.194 333.348 346.735 332.566 346.667C332.345 346.65 332.073 346.65 331.75 346.65H330.56V349.506ZM347.433 356H338.44V344.27H341.5V353.416H347.433V356ZM352.056 352.957L351.07 356H347.823L352.056 344.27H355.796L360.029 356H356.697L355.711 352.957H352.056ZM352.804 350.577H354.98L353.892 346.973L352.804 350.577ZM361.134 356V344.27H364.194V356H361.134ZM369.438 348.248C369.54 349.438 369.54 350.475 369.54 351.155V356H366.48V344.27H370.288L374.742 352.362C374.657 351.172 374.64 349.965 374.64 349.285V344.27H377.7V356H373.705L369.438 348.248ZM385.723 346.65V356H382.663V346.65H378.855V344.27H389.531V346.65H385.723ZM399.711 356H390.718V344.27H399.541V346.65H393.778V348.928H399.201V351.308H393.778V353.62H399.711V356Z" fill="white"/>
<path d="M237.922 403.951H239.537V405.583H237.582L236.851 409H235.117L235.848 405.583H234.369L233.638 409H231.904L232.635 405.583H231.207V403.951H232.975L233.332 402.319H231.717V400.687H233.672L234.403 397.27H236.137L235.406 400.687H236.885L237.616 397.27H239.35L238.619 400.687H240.047V402.319H238.279L237.922 403.951ZM234.709 403.951H236.188L236.528 402.319H235.049L234.709 403.951ZM251.218 403.917C251.218 404.461 251.218 404.835 251.167 405.702C251.048 407.759 249.705 409.238 246.662 409.238C243.483 409.238 242.174 407.572 242.089 405.022L242.072 404.512H245.132L245.166 405.022C245.268 406.552 245.88 406.994 246.747 406.994C247.597 406.994 248.039 406.45 248.124 405.515C248.158 405.124 248.158 404.75 248.158 404.393V397.27H251.218V403.917ZM262.45 409H253.457V397.27H262.28V399.65H256.517V401.928H261.94V404.308H256.517V406.62H262.45V409ZM267.272 401.248C267.374 402.438 267.374 403.475 267.374 404.155V409H264.314V397.27H268.122L272.576 405.362C272.491 404.172 272.474 402.965 272.474 402.285V397.27H275.534V409H271.539L267.272 401.248ZM280.752 405.957L279.766 409H276.519L280.752 397.27H284.492L288.725 409H285.393L284.407 405.957H280.752ZM281.5 403.577H283.676L282.588 399.973L281.5 403.577ZM289.831 409V397.27H292.891V409H289.831ZM301.432 397.355C303.132 397.559 304.679 398.766 304.679 401.078C304.679 403.39 303.132 404.597 301.432 404.801C300.803 404.869 300.327 404.886 299.596 404.886H298.236V409H295.176V397.27H299.596C300.327 397.27 300.803 397.287 301.432 397.355ZM298.236 402.506H299.426C299.749 402.506 300.021 402.506 300.242 402.489C301.024 402.421 301.483 401.962 301.483 401.078C301.483 400.194 301.024 399.735 300.242 399.667C300.021 399.65 299.749 399.65 299.426 399.65H298.236V402.506ZM307.979 405.957L306.993 409H303.746L307.979 397.27H311.719L315.952 409H312.62L311.634 405.957H307.979ZM308.727 403.577H310.903L309.815 399.973L308.727 403.577ZM320.972 397.032C324.066 397.032 325.358 398.715 325.613 400.891H322.553C322.417 399.922 321.907 399.276 320.904 399.276C320.207 399.276 319.731 399.616 319.731 400.33C319.731 401.078 320.275 401.537 322.213 401.996C324.797 402.608 325.851 403.9 325.851 405.702C325.851 408.048 323.607 409.238 321.244 409.238C318.269 409.238 316.263 408.048 316.076 405.413H319.136C319.34 406.518 320.241 406.994 321.159 406.994C322.009 406.994 322.655 406.552 322.655 405.906C322.655 405.294 322.213 404.767 320.768 404.41C318.099 403.747 316.535 402.914 316.535 400.568C316.535 398.307 318.643 397.032 320.972 397.032ZM333.756 397.355C335.456 397.559 337.003 398.766 337.003 401.078C337.003 403.39 335.456 404.597 333.756 404.801C333.127 404.869 332.651 404.886 331.92 404.886H330.56V409H327.5V397.27H331.92C332.651 397.27 333.127 397.287 333.756 397.355ZM330.56 402.506H331.75C332.073 402.506 332.345 402.506 332.566 402.489C333.348 402.421 333.807 401.962 333.807 401.078C333.807 400.194 333.348 399.735 332.566 399.667C332.345 399.65 332.073 399.65 331.75 399.65H330.56V402.506ZM347.433 409H338.44V397.27H341.5V406.416H347.433V409ZM352.056 405.957L351.07 409H347.823L352.056 397.27H355.796L360.029 409H356.697L355.711 405.957H352.056ZM352.804 403.577H354.98L353.892 399.973L352.804 403.577ZM361.134 409V397.27H364.194V409H361.134ZM369.438 401.248C369.54 402.438 369.54 403.475 369.54 404.155V409H366.48V397.27H370.288L374.742 405.362C374.657 404.172 374.64 402.965 374.64 402.285V397.27H377.7V409H373.705L369.438 401.248ZM385.723 399.65V409H382.663V399.65H378.855V397.27H389.531V399.65H385.723ZM399.711 409H390.718V397.27H399.541V399.65H393.778V401.928H399.201V404.308H393.778V406.62H399.711V409Z" fill="white"/>
<path d="M237.922 208.951H239.537V210.583H237.582L236.851 214H235.117L235.848 210.583H234.369L233.638 214H231.904L232.635 210.583H231.207V208.951H232.975L233.332 207.319H231.717V205.687H233.672L234.403 202.27H236.137L235.406 205.687H236.885L237.616 202.27H239.35L238.619 205.687H240.047V207.319H238.279L237.922 208.951ZM234.709 208.951H236.188L236.528 207.319H235.049L234.709 208.951ZM255.757 214H251.677L250.198 204.871L248.617 214H244.52L241.698 202.27H244.945L246.509 211.62L248.056 202.44H252.442L253.921 211.654L255.621 202.27H258.749L255.757 214ZM270.693 214H267.633V209.444H262.941V214H259.881V202.27H262.941V207.064H267.633V202.27H270.693V214ZM279.033 214H275.973V209.512L271.842 202.27H275.276L277.588 206.911L279.815 202.27H283.164L279.033 209.512V214ZM284.236 214V202.27H287.296V214H284.236ZM295.515 202.338C298.235 202.644 300.479 204.31 300.479 207.982C300.479 211.654 298.235 213.626 295.515 213.932C294.92 214 294.648 214 294.019 214H289.582V202.27H294.019C294.648 202.27 294.92 202.27 295.515 202.338ZM292.642 211.62H293.594C294.036 211.62 294.308 211.62 294.699 211.586C296.229 211.45 297.283 210.124 297.283 208.033C297.283 205.942 296.229 204.82 294.699 204.684C294.308 204.65 294.036 204.65 293.594 204.65H292.642V211.62ZM302.315 214V202.27H305.375V214H302.315ZM313.594 202.338C316.314 202.644 318.558 204.31 318.558 207.982C318.558 211.654 316.314 213.626 313.594 213.932C312.999 214 312.727 214 312.098 214H307.661V202.27H312.098C312.727 202.27 312.999 202.27 313.594 202.338ZM310.721 211.62H311.673C312.115 211.62 312.387 211.62 312.778 211.586C314.308 211.45 315.362 210.124 315.362 208.033C315.362 205.942 314.308 204.82 312.778 204.684C312.387 204.65 312.115 204.65 311.673 204.65H310.721V211.62ZM323.352 206.248C323.454 207.438 323.454 208.475 323.454 209.155V214H320.394V202.27H324.202L328.656 210.362C328.571 209.172 328.554 207.965 328.554 207.285V202.27H331.614V214H327.619L323.352 206.248ZM335.166 206.537H332.82L334.18 201.505H337.019V201.675L335.166 206.537ZM345.116 204.65V214H342.056V204.65H338.248V202.27H348.924V204.65H345.116ZM359.257 211.144C359.41 212.47 359.682 213.303 360.141 214H356.809C356.537 213.167 356.367 212.487 356.265 211.654C356.112 210.362 355.602 209.614 354.82 209.563C354.48 209.546 354.191 209.546 353.851 209.546H353.171V214H350.111V202.27H354.769C355.5 202.27 355.976 202.287 356.605 202.355C358.305 202.559 359.784 203.392 359.784 205.466C359.784 206.945 358.985 207.931 357.421 208.39C358.645 208.832 359.087 209.733 359.257 211.144ZM353.171 207.336H354.276C354.599 207.336 354.871 207.336 355.092 207.319C355.874 207.251 356.588 206.979 356.588 205.993C356.588 205.007 355.959 204.735 355.177 204.667C354.956 204.65 354.684 204.65 354.361 204.65H353.171V207.336ZM370.692 214H361.699V202.27H370.522V204.65H364.759V206.928H370.182V209.308H364.759V211.62H370.692V214ZM378.812 202.355C380.512 202.559 382.059 203.766 382.059 206.078C382.059 208.39 380.512 209.597 378.812 209.801C378.183 209.869 377.707 209.886 376.976 209.886H375.616V214H372.556V202.27H376.976C377.707 202.27 378.183 202.287 378.812 202.355ZM375.616 207.506H376.806C377.129 207.506 377.401 207.506 377.622 207.489C378.404 207.421 378.863 206.962 378.863 206.078C378.863 205.194 378.404 204.735 377.622 204.667C377.401 204.65 377.129 204.65 376.806 204.65H375.616V207.506ZM389.056 202.032C392.711 202.032 395.057 204.361 395.057 208.135C395.057 211.892 392.711 214.238 389.056 214.238C385.401 214.238 383.055 211.892 383.055 208.135C383.055 204.361 385.401 202.032 389.056 202.032ZM386.183 208.135C386.183 210.617 387.288 211.994 389.056 211.994C390.824 211.994 391.929 210.617 391.929 208.135C391.929 205.636 390.824 204.276 389.056 204.276C387.288 204.276 386.183 205.636 386.183 208.135ZM406.04 211.144C406.193 212.47 406.465 213.303 406.924 214H403.592C403.32 213.167 403.15 212.487 403.048 211.654C402.895 210.362 402.385 209.614 401.603 209.563C401.263 209.546 400.974 209.546 400.634 209.546H399.954V214H396.894V202.27H401.552C402.283 202.27 402.759 202.287 403.388 202.355C405.088 202.559 406.567 203.392 406.567 205.466C406.567 206.945 405.768 207.931 404.204 208.39C405.428 208.832 405.87 209.733 406.04 211.144ZM399.954 207.336H401.059C401.382 207.336 401.654 207.336 401.875 207.319C402.657 207.251 403.371 206.979 403.371 205.993C403.371 205.007 402.742 204.735 401.96 204.667C401.739 204.65 401.467 204.65 401.144 204.65H399.954V207.336ZM414.228 204.65V214H411.168V204.65H407.36V202.27H418.036V204.65H414.228Z" fill="white"/>
<path d="M237.922 151.951H239.537V153.583H237.582L236.851 157H235.117L235.848 153.583H234.369L233.638 157H231.904L232.635 153.583H231.207V151.951H232.975L233.332 150.319H231.717V148.687H233.672L234.403 145.27H236.137L235.406 148.687H236.885L237.616 145.27H239.35L238.619 148.687H240.047V150.319H238.279L237.922 151.951ZM234.709 151.951H236.188L236.528 150.319H235.049L234.709 151.951ZM255.757 157H251.677L250.198 147.871L248.617 157H244.52L241.698 145.27H244.945L246.509 154.62L248.056 145.44H252.442L253.921 154.654L255.621 145.27H258.749L255.757 157ZM270.693 157H267.633V152.444H262.941V157H259.881V145.27H262.941V150.064H267.633V145.27H270.693V157ZM279.033 157H275.973V152.512L271.842 145.27H275.276L277.588 149.911L279.815 145.27H283.164L279.033 152.512V157ZM284.236 157V145.27H287.296V157H284.236ZM295.515 145.338C298.235 145.644 300.479 147.31 300.479 150.982C300.479 154.654 298.235 156.626 295.515 156.932C294.92 157 294.648 157 294.019 157H289.582V145.27H294.019C294.648 145.27 294.92 145.27 295.515 145.338ZM292.642 154.62H293.594C294.036 154.62 294.308 154.62 294.699 154.586C296.229 154.45 297.283 153.124 297.283 151.033C297.283 148.942 296.229 147.82 294.699 147.684C294.308 147.65 294.036 147.65 293.594 147.65H292.642V154.62ZM302.315 157V145.27H305.375V157H302.315ZM313.594 145.338C316.314 145.644 318.558 147.31 318.558 150.982C318.558 154.654 316.314 156.626 313.594 156.932C312.999 157 312.727 157 312.098 157H307.661V145.27H312.098C312.727 145.27 312.999 145.27 313.594 145.338ZM310.721 154.62H311.673C312.115 154.62 312.387 154.62 312.778 154.586C314.308 154.45 315.362 153.124 315.362 151.033C315.362 148.942 314.308 147.82 312.778 147.684C312.387 147.65 312.115 147.65 311.673 147.65H310.721V154.62ZM323.352 149.248C323.454 150.438 323.454 151.475 323.454 152.155V157H320.394V145.27H324.202L328.656 153.362C328.571 152.172 328.554 150.965 328.554 150.285V145.27H331.614V157H327.619L323.352 149.248ZM335.166 149.537H332.82L334.18 144.505H337.019V144.675L335.166 149.537ZM345.116 147.65V157H342.056V147.65H338.248V145.27H348.924V147.65H345.116ZM359.257 154.144C359.41 155.47 359.682 156.303 360.141 157H356.809C356.537 156.167 356.367 155.487 356.265 154.654C356.112 153.362 355.602 152.614 354.82 152.563C354.48 152.546 354.191 152.546 353.851 152.546H353.171V157H350.111V145.27H354.769C355.5 145.27 355.976 145.287 356.605 145.355C358.305 145.559 359.784 146.392 359.784 148.466C359.784 149.945 358.985 150.931 357.421 151.39C358.645 151.832 359.087 152.733 359.257 154.144ZM353.171 150.336H354.276C354.599 150.336 354.871 150.336 355.092 150.319C355.874 150.251 356.588 149.979 356.588 148.993C356.588 148.007 355.959 147.735 355.177 147.667C354.956 147.65 354.684 147.65 354.361 147.65H353.171V150.336ZM370.692 157H361.699V145.27H370.522V147.65H364.759V149.928H370.182V152.308H364.759V154.62H370.692V157ZM378.812 145.355C380.512 145.559 382.059 146.766 382.059 149.078C382.059 151.39 380.512 152.597 378.812 152.801C378.183 152.869 377.707 152.886 376.976 152.886H375.616V157H372.556V145.27H376.976C377.707 145.27 378.183 145.287 378.812 145.355ZM375.616 150.506H376.806C377.129 150.506 377.401 150.506 377.622 150.489C378.404 150.421 378.863 149.962 378.863 149.078C378.863 148.194 378.404 147.735 377.622 147.667C377.401 147.65 377.129 147.65 376.806 147.65H375.616V150.506ZM389.056 145.032C392.711 145.032 395.057 147.361 395.057 151.135C395.057 154.892 392.711 157.238 389.056 157.238C385.401 157.238 383.055 154.892 383.055 151.135C383.055 147.361 385.401 145.032 389.056 145.032ZM386.183 151.135C386.183 153.617 387.288 154.994 389.056 154.994C390.824 154.994 391.929 153.617 391.929 151.135C391.929 148.636 390.824 147.276 389.056 147.276C387.288 147.276 386.183 148.636 386.183 151.135ZM406.04 154.144C406.193 155.47 406.465 156.303 406.924 157H403.592C403.32 156.167 403.15 155.487 403.048 154.654C402.895 153.362 402.385 152.614 401.603 152.563C401.263 152.546 400.974 152.546 400.634 152.546H399.954V157H396.894V145.27H401.552C402.283 145.27 402.759 145.287 403.388 145.355C405.088 145.559 406.567 146.392 406.567 148.466C406.567 149.945 405.768 150.931 404.204 151.39C405.428 151.832 405.87 152.733 406.04 154.144ZM399.954 150.336H401.059C401.382 150.336 401.654 150.336 401.875 150.319C402.657 150.251 403.371 149.979 403.371 148.993C403.371 148.007 402.742 147.735 401.96 147.667C401.739 147.65 401.467 147.65 401.144 147.65H399.954V150.336ZM414.228 147.65V157H411.168V147.65H407.36V145.27H418.036V147.65H414.228Z" fill="white"/>
<path d="M237.922 94.951H239.537V96.583H237.582L236.851 100H235.117L235.848 96.583H234.369L233.638 100H231.904L232.635 96.583H231.207V94.951H232.975L233.332 93.319H231.717V91.687H233.672L234.403 88.27H236.137L235.406 91.687H236.885L237.616 88.27H239.35L238.619 91.687H240.047V93.319H238.279L237.922 94.951ZM234.709 94.951H236.188L236.528 93.319H235.049L234.709 94.951ZM255.757 100H251.677L250.198 90.871L248.617 100H244.52L241.698 88.27H244.945L246.509 97.62L248.056 88.44H252.442L253.921 97.654L255.621 88.27H258.749L255.757 100ZM270.693 100H267.633V95.444H262.941V100H259.881V88.27H262.941V93.064H267.633V88.27H270.693V100ZM279.033 100H275.973V95.512L271.842 88.27H275.276L277.588 92.911L279.815 88.27H283.164L279.033 95.512V100ZM284.236 100V88.27H287.296V100H284.236ZM295.515 88.338C298.235 88.644 300.479 90.31 300.479 93.982C300.479 97.654 298.235 99.626 295.515 99.932C294.92 100 294.648 100 294.019 100H289.582V88.27H294.019C294.648 88.27 294.92 88.27 295.515 88.338ZM292.642 97.62H293.594C294.036 97.62 294.308 97.62 294.699 97.586C296.229 97.45 297.283 96.124 297.283 94.033C297.283 91.942 296.229 90.82 294.699 90.684C294.308 90.65 294.036 90.65 293.594 90.65H292.642V97.62ZM302.315 100V88.27H305.375V100H302.315ZM313.594 88.338C316.314 88.644 318.558 90.31 318.558 93.982C318.558 97.654 316.314 99.626 313.594 99.932C312.999 100 312.727 100 312.098 100H307.661V88.27H312.098C312.727 88.27 312.999 88.27 313.594 88.338ZM310.721 97.62H311.673C312.115 97.62 312.387 97.62 312.778 97.586C314.308 97.45 315.362 96.124 315.362 94.033C315.362 91.942 314.308 90.82 312.778 90.684C312.387 90.65 312.115 90.65 311.673 90.65H310.721V97.62ZM323.352 92.248C323.454 93.438 323.454 94.475 323.454 95.155V100H320.394V88.27H324.202L328.656 96.362C328.571 95.172 328.554 93.965 328.554 93.285V88.27H331.614V100H327.619L323.352 92.248ZM335.166 92.537H332.82L334.18 87.505H337.019V87.675L335.166 92.537ZM345.116 90.65V100H342.056V90.65H338.248V88.27H348.924V90.65H345.116ZM359.257 97.144C359.41 98.47 359.682 99.303 360.141 100H356.809C356.537 99.167 356.367 98.487 356.265 97.654C356.112 96.362 355.602 95.614 354.82 95.563C354.48 95.546 354.191 95.546 353.851 95.546H353.171V100H350.111V88.27H354.769C355.5 88.27 355.976 88.287 356.605 88.355C358.305 88.559 359.784 89.392 359.784 91.466C359.784 92.945 358.985 93.931 357.421 94.39C358.645 94.832 359.087 95.733 359.257 97.144ZM353.171 93.336H354.276C354.599 93.336 354.871 93.336 355.092 93.319C355.874 93.251 356.588 92.979 356.588 91.993C356.588 91.007 355.959 90.735 355.177 90.667C354.956 90.65 354.684 90.65 354.361 90.65H353.171V93.336ZM370.692 100H361.699V88.27H370.522V90.65H364.759V92.928H370.182V95.308H364.759V97.62H370.692V100ZM378.812 88.355C380.512 88.559 382.059 89.766 382.059 92.078C382.059 94.39 380.512 95.597 378.812 95.801C378.183 95.869 377.707 95.886 376.976 95.886H375.616V100H372.556V88.27H376.976C377.707 88.27 378.183 88.287 378.812 88.355ZM375.616 93.506H376.806C377.129 93.506 377.401 93.506 377.622 93.489C378.404 93.421 378.863 92.962 378.863 92.078C378.863 91.194 378.404 90.735 377.622 90.667C377.401 90.65 377.129 90.65 376.806 90.65H375.616V93.506ZM389.056 88.032C392.711 88.032 395.057 90.361 395.057 94.135C395.057 97.892 392.711 100.238 389.056 100.238C385.401 100.238 383.055 97.892 383.055 94.135C383.055 90.361 385.401 88.032 389.056 88.032ZM386.183 94.135C386.183 96.617 387.288 97.994 389.056 97.994C390.824 97.994 391.929 96.617 391.929 94.135C391.929 91.636 390.824 90.276 389.056 90.276C387.288 90.276 386.183 91.636 386.183 94.135ZM406.04 97.144C406.193 98.47 406.465 99.303 406.924 100H403.592C403.32 99.167 403.15 98.487 403.048 97.654C402.895 96.362 402.385 95.614 401.603 95.563C401.263 95.546 400.974 95.546 400.634 95.546H399.954V100H396.894V88.27H401.552C402.283 88.27 402.759 88.287 403.388 88.355C405.088 88.559 406.567 89.392 406.567 91.466C406.567 92.945 405.768 93.931 404.204 94.39C405.428 94.832 405.87 95.733 406.04 97.144ZM399.954 93.336H401.059C401.382 93.336 401.654 93.336 401.875 93.319C402.657 93.251 403.371 92.979 403.371 91.993C403.371 91.007 402.742 90.735 401.96 90.667C401.739 90.65 401.467 90.65 401.144 90.65H399.954V93.336ZM414.228 90.65V100H411.168V90.65H407.36V88.27H418.036V90.65H414.228Z" fill="white"/>
<path d="M237.922 264.951H239.537V266.583H237.582L236.851 270H235.117L235.848 266.583H234.369L233.638 270H231.904L232.635 266.583H231.207V264.951H232.975L233.332 263.319H231.717V261.687H233.672L234.403 258.27H236.137L235.406 261.687H236.885L237.616 258.27H239.35L238.619 261.687H240.047V263.319H238.279L237.922 264.951ZM234.709 264.951H236.188L236.528 263.319H235.049L234.709 264.951ZM255.757 270H251.677L250.198 260.871L248.617 270H244.52L241.698 258.27H244.945L246.509 267.62L248.056 258.44H252.442L253.921 267.654L255.621 258.27H258.749L255.757 270ZM270.693 270H267.633V265.444H262.941V270H259.881V258.27H262.941V263.064H267.633V258.27H270.693V270ZM279.033 270H275.973V265.512L271.842 258.27H275.276L277.588 262.911L279.815 258.27H283.164L279.033 265.512V270ZM284.236 270V258.27H287.296V270H284.236ZM295.515 258.338C298.235 258.644 300.479 260.31 300.479 263.982C300.479 267.654 298.235 269.626 295.515 269.932C294.92 270 294.648 270 294.019 270H289.582V258.27H294.019C294.648 258.27 294.92 258.27 295.515 258.338ZM292.642 267.62H293.594C294.036 267.62 294.308 267.62 294.699 267.586C296.229 267.45 297.283 266.124 297.283 264.033C297.283 261.942 296.229 260.82 294.699 260.684C294.308 260.65 294.036 260.65 293.594 260.65H292.642V267.62ZM302.315 270V258.27H305.375V270H302.315ZM313.594 258.338C316.314 258.644 318.558 260.31 318.558 263.982C318.558 267.654 316.314 269.626 313.594 269.932C312.999 270 312.727 270 312.098 270H307.661V258.27H312.098C312.727 258.27 312.999 258.27 313.594 258.338ZM310.721 267.62H311.673C312.115 267.62 312.387 267.62 312.778 267.586C314.308 267.45 315.362 266.124 315.362 264.033C315.362 261.942 314.308 260.82 312.778 260.684C312.387 260.65 312.115 260.65 311.673 260.65H310.721V267.62ZM323.352 262.248C323.454 263.438 323.454 264.475 323.454 265.155V270H320.394V258.27H324.202L328.656 266.362C328.571 265.172 328.554 263.965 328.554 263.285V258.27H331.614V270H327.619L323.352 262.248ZM335.166 262.537H332.82L334.18 257.505H337.019V257.675L335.166 262.537ZM345.116 260.65V270H342.056V260.65H338.248V258.27H348.924V260.65H345.116ZM359.257 267.144C359.41 268.47 359.682 269.303 360.141 270H356.809C356.537 269.167 356.367 268.487 356.265 267.654C356.112 266.362 355.602 265.614 354.82 265.563C354.48 265.546 354.191 265.546 353.851 265.546H353.171V270H350.111V258.27H354.769C355.5 258.27 355.976 258.287 356.605 258.355C358.305 258.559 359.784 259.392 359.784 261.466C359.784 262.945 358.985 263.931 357.421 264.39C358.645 264.832 359.087 265.733 359.257 267.144ZM353.171 263.336H354.276C354.599 263.336 354.871 263.336 355.092 263.319C355.874 263.251 356.588 262.979 356.588 261.993C356.588 261.007 355.959 260.735 355.177 260.667C354.956 260.65 354.684 260.65 354.361 260.65H353.171V263.336ZM370.692 270H361.699V258.27H370.522V260.65H364.759V262.928H370.182V265.308H364.759V267.62H370.692V270ZM378.812 258.355C380.512 258.559 382.059 259.766 382.059 262.078C382.059 264.39 380.512 265.597 378.812 265.801C378.183 265.869 377.707 265.886 376.976 265.886H375.616V270H372.556V258.27H376.976C377.707 258.27 378.183 258.287 378.812 258.355ZM375.616 263.506H376.806C377.129 263.506 377.401 263.506 377.622 263.489C378.404 263.421 378.863 262.962 378.863 262.078C378.863 261.194 378.404 260.735 377.622 260.667C377.401 260.65 377.129 260.65 376.806 260.65H375.616V263.506ZM389.056 258.032C392.711 258.032 395.057 260.361 395.057 264.135C395.057 267.892 392.711 270.238 389.056 270.238C385.401 270.238 383.055 267.892 383.055 264.135C383.055 260.361 385.401 258.032 389.056 258.032ZM386.183 264.135C386.183 266.617 387.288 267.994 389.056 267.994C390.824 267.994 391.929 266.617 391.929 264.135C391.929 261.636 390.824 260.276 389.056 260.276C387.288 260.276 386.183 261.636 386.183 264.135ZM406.04 267.144C406.193 268.47 406.465 269.303 406.924 270H403.592C403.32 269.167 403.15 268.487 403.048 267.654C402.895 266.362 402.385 265.614 401.603 265.563C401.263 265.546 400.974 265.546 400.634 265.546H399.954V270H396.894V258.27H401.552C402.283 258.27 402.759 258.287 403.388 258.355C405.088 258.559 406.567 259.392 406.567 261.466C406.567 262.945 405.768 263.931 404.204 264.39C405.428 264.832 405.87 265.733 406.04 267.144ZM399.954 263.336H401.059C401.382 263.336 401.654 263.336 401.875 263.319C402.657 263.251 403.371 262.979 403.371 261.993C403.371 261.007 402.742 260.735 401.96 260.667C401.739 260.65 401.467 260.65 401.144 260.65H399.954V263.336ZM414.228 260.65V270H411.168V260.65H407.36V258.27H418.036V260.65H414.228Z" fill="white"/>
<path d="M237.922 321.951H239.537V323.583H237.582L236.851 327H235.117L235.848 323.583H234.369L233.638 327H231.904L232.635 323.583H231.207V321.951H232.975L233.332 320.319H231.717V318.687H233.672L234.403 315.27H236.137L235.406 318.687H236.885L237.616 315.27H239.35L238.619 318.687H240.047V320.319H238.279L237.922 321.951ZM234.709 321.951H236.188L236.528 320.319H235.049L234.709 321.951ZM255.757 327H251.677L250.198 317.871L248.617 327H244.52L241.698 315.27H244.945L246.509 324.62L248.056 315.44H252.442L253.921 324.654L255.621 315.27H258.749L255.757 327ZM270.693 327H267.633V322.444H262.941V327H259.881V315.27H262.941V320.064H267.633V315.27H270.693V327ZM279.033 327H275.973V322.512L271.842 315.27H275.276L277.588 319.911L279.815 315.27H283.164L279.033 322.512V327ZM284.236 327V315.27H287.296V327H284.236ZM295.515 315.338C298.235 315.644 300.479 317.31 300.479 320.982C300.479 324.654 298.235 326.626 295.515 326.932C294.92 327 294.648 327 294.019 327H289.582V315.27H294.019C294.648 315.27 294.92 315.27 295.515 315.338ZM292.642 324.62H293.594C294.036 324.62 294.308 324.62 294.699 324.586C296.229 324.45 297.283 323.124 297.283 321.033C297.283 318.942 296.229 317.82 294.699 317.684C294.308 317.65 294.036 317.65 293.594 317.65H292.642V324.62ZM302.315 327V315.27H305.375V327H302.315ZM313.594 315.338C316.314 315.644 318.558 317.31 318.558 320.982C318.558 324.654 316.314 326.626 313.594 326.932C312.999 327 312.727 327 312.098 327H307.661V315.27H312.098C312.727 315.27 312.999 315.27 313.594 315.338ZM310.721 324.62H311.673C312.115 324.62 312.387 324.62 312.778 324.586C314.308 324.45 315.362 323.124 315.362 321.033C315.362 318.942 314.308 317.82 312.778 317.684C312.387 317.65 312.115 317.65 311.673 317.65H310.721V324.62ZM323.352 319.248C323.454 320.438 323.454 321.475 323.454 322.155V327H320.394V315.27H324.202L328.656 323.362C328.571 322.172 328.554 320.965 328.554 320.285V315.27H331.614V327H327.619L323.352 319.248ZM335.166 319.537H332.82L334.18 314.505H337.019V314.675L335.166 319.537ZM345.116 317.65V327H342.056V317.65H338.248V315.27H348.924V317.65H345.116ZM359.257 324.144C359.41 325.47 359.682 326.303 360.141 327H356.809C356.537 326.167 356.367 325.487 356.265 324.654C356.112 323.362 355.602 322.614 354.82 322.563C354.48 322.546 354.191 322.546 353.851 322.546H353.171V327H350.111V315.27H354.769C355.5 315.27 355.976 315.287 356.605 315.355C358.305 315.559 359.784 316.392 359.784 318.466C359.784 319.945 358.985 320.931 357.421 321.39C358.645 321.832 359.087 322.733 359.257 324.144ZM353.171 320.336H354.276C354.599 320.336 354.871 320.336 355.092 320.319C355.874 320.251 356.588 319.979 356.588 318.993C356.588 318.007 355.959 317.735 355.177 317.667C354.956 317.65 354.684 317.65 354.361 317.65H353.171V320.336ZM370.692 327H361.699V315.27H370.522V317.65H364.759V319.928H370.182V322.308H364.759V324.62H370.692V327ZM378.812 315.355C380.512 315.559 382.059 316.766 382.059 319.078C382.059 321.39 380.512 322.597 378.812 322.801C378.183 322.869 377.707 322.886 376.976 322.886H375.616V327H372.556V315.27H376.976C377.707 315.27 378.183 315.287 378.812 315.355ZM375.616 320.506H376.806C377.129 320.506 377.401 320.506 377.622 320.489C378.404 320.421 378.863 319.962 378.863 319.078C378.863 318.194 378.404 317.735 377.622 317.667C377.401 317.65 377.129 317.65 376.806 317.65H375.616V320.506ZM389.056 315.032C392.711 315.032 395.057 317.361 395.057 321.135C395.057 324.892 392.711 327.238 389.056 327.238C385.401 327.238 383.055 324.892 383.055 321.135C383.055 317.361 385.401 315.032 389.056 315.032ZM386.183 321.135C386.183 323.617 387.288 324.994 389.056 324.994C390.824 324.994 391.929 323.617 391.929 321.135C391.929 318.636 390.824 317.276 389.056 317.276C387.288 317.276 386.183 318.636 386.183 321.135ZM406.04 324.144C406.193 325.47 406.465 326.303 406.924 327H403.592C403.32 326.167 403.15 325.487 403.048 324.654C402.895 323.362 402.385 322.614 401.603 322.563C401.263 322.546 400.974 322.546 400.634 322.546H399.954V327H396.894V315.27H401.552C402.283 315.27 402.759 315.287 403.388 315.355C405.088 315.559 406.567 316.392 406.567 318.466C406.567 319.945 405.768 320.931 404.204 321.39C405.428 321.832 405.87 322.733 406.04 324.144ZM399.954 320.336H401.059C401.382 320.336 401.654 320.336 401.875 320.319C402.657 320.251 403.371 319.979 403.371 318.993C403.371 318.007 402.742 317.735 401.96 317.667C401.739 317.65 401.467 317.65 401.144 317.65H399.954V320.336ZM414.228 317.65V327H411.168V317.65H407.36V315.27H418.036V317.65H414.228Z" fill="white"/>
<path d="M237.922 378.951H239.537V380.583H237.582L236.851 384H235.117L235.848 380.583H234.369L233.638 384H231.904L232.635 380.583H231.207V378.951H232.975L233.332 377.319H231.717V375.687H233.672L234.403 372.27H236.137L235.406 375.687H236.885L237.616 372.27H239.35L238.619 375.687H240.047V377.319H238.279L237.922 378.951ZM234.709 378.951H236.188L236.528 377.319H235.049L234.709 378.951ZM255.757 384H251.677L250.198 374.871L248.617 384H244.52L241.698 372.27H244.945L246.509 381.62L248.056 372.44H252.442L253.921 381.654L255.621 372.27H258.749L255.757 384ZM270.693 384H267.633V379.444H262.941V384H259.881V372.27H262.941V377.064H267.633V372.27H270.693V384ZM279.033 384H275.973V379.512L271.842 372.27H275.276L277.588 376.911L279.815 372.27H283.164L279.033 379.512V384ZM284.236 384V372.27H287.296V384H284.236ZM295.515 372.338C298.235 372.644 300.479 374.31 300.479 377.982C300.479 381.654 298.235 383.626 295.515 383.932C294.92 384 294.648 384 294.019 384H289.582V372.27H294.019C294.648 372.27 294.92 372.27 295.515 372.338ZM292.642 381.62H293.594C294.036 381.62 294.308 381.62 294.699 381.586C296.229 381.45 297.283 380.124 297.283 378.033C297.283 375.942 296.229 374.82 294.699 374.684C294.308 374.65 294.036 374.65 293.594 374.65H292.642V381.62ZM302.315 384V372.27H305.375V384H302.315ZM313.594 372.338C316.314 372.644 318.558 374.31 318.558 377.982C318.558 381.654 316.314 383.626 313.594 383.932C312.999 384 312.727 384 312.098 384H307.661V372.27H312.098C312.727 372.27 312.999 372.27 313.594 372.338ZM310.721 381.62H311.673C312.115 381.62 312.387 381.62 312.778 381.586C314.308 381.45 315.362 380.124 315.362 378.033C315.362 375.942 314.308 374.82 312.778 374.684C312.387 374.65 312.115 374.65 311.673 374.65H310.721V381.62ZM323.352 376.248C323.454 377.438 323.454 378.475 323.454 379.155V384H320.394V372.27H324.202L328.656 380.362C328.571 379.172 328.554 377.965 328.554 377.285V372.27H331.614V384H327.619L323.352 376.248ZM335.166 376.537H332.82L334.18 371.505H337.019V371.675L335.166 376.537ZM345.116 374.65V384H342.056V374.65H338.248V372.27H348.924V374.65H345.116ZM359.257 381.144C359.41 382.47 359.682 383.303 360.141 384H356.809C356.537 383.167 356.367 382.487 356.265 381.654C356.112 380.362 355.602 379.614 354.82 379.563C354.48 379.546 354.191 379.546 353.851 379.546H353.171V384H350.111V372.27H354.769C355.5 372.27 355.976 372.287 356.605 372.355C358.305 372.559 359.784 373.392 359.784 375.466C359.784 376.945 358.985 377.931 357.421 378.39C358.645 378.832 359.087 379.733 359.257 381.144ZM353.171 377.336H354.276C354.599 377.336 354.871 377.336 355.092 377.319C355.874 377.251 356.588 376.979 356.588 375.993C356.588 375.007 355.959 374.735 355.177 374.667C354.956 374.65 354.684 374.65 354.361 374.65H353.171V377.336ZM370.692 384H361.699V372.27H370.522V374.65H364.759V376.928H370.182V379.308H364.759V381.62H370.692V384ZM378.812 372.355C380.512 372.559 382.059 373.766 382.059 376.078C382.059 378.39 380.512 379.597 378.812 379.801C378.183 379.869 377.707 379.886 376.976 379.886H375.616V384H372.556V372.27H376.976C377.707 372.27 378.183 372.287 378.812 372.355ZM375.616 377.506H376.806C377.129 377.506 377.401 377.506 377.622 377.489C378.404 377.421 378.863 376.962 378.863 376.078C378.863 375.194 378.404 374.735 377.622 374.667C377.401 374.65 377.129 374.65 376.806 374.65H375.616V377.506ZM389.056 372.032C392.711 372.032 395.057 374.361 395.057 378.135C395.057 381.892 392.711 384.238 389.056 384.238C385.401 384.238 383.055 381.892 383.055 378.135C383.055 374.361 385.401 372.032 389.056 372.032ZM386.183 378.135C386.183 380.617 387.288 381.994 389.056 381.994C390.824 381.994 391.929 380.617 391.929 378.135C391.929 375.636 390.824 374.276 389.056 374.276C387.288 374.276 386.183 375.636 386.183 378.135ZM406.04 381.144C406.193 382.47 406.465 383.303 406.924 384H403.592C403.32 383.167 403.15 382.487 403.048 381.654C402.895 380.362 402.385 379.614 401.603 379.563C401.263 379.546 400.974 379.546 400.634 379.546H399.954V384H396.894V372.27H401.552C402.283 372.27 402.759 372.287 403.388 372.355C405.088 372.559 406.567 373.392 406.567 375.466C406.567 376.945 405.768 377.931 404.204 378.39C405.428 378.832 405.87 379.733 406.04 381.144ZM399.954 377.336H401.059C401.382 377.336 401.654 377.336 401.875 377.319C402.657 377.251 403.371 376.979 403.371 375.993C403.371 375.007 402.742 374.735 401.96 374.667C401.739 374.65 401.467 374.65 401.144 374.65H399.954V377.336ZM414.228 374.65V384H411.168V374.65H407.36V372.27H418.036V374.65H414.228Z" fill="white"/>
</g>
<defs>
<clipPath id="clip0_113_9122">
<rect width="479" height="661" fill="white"/>
</clipPath>
</defs>
</svg>
