<svg width="543" height="158" viewBox="0 0 543 158" fill="none" xmlns="http://www.w3.org/2000/svg">
<path d="M65.2 8.19999C102.8 8.19999 121.6 29.6 121.6 77.4C121.6 125 98.6 151.8 61.8 151.8C30.2 151.8 13.8 136.4 11.4 111.8L11.2 109.8H47.2L47.6 111.8C49.6 121.4 54.6 125.4 63.8 125.4C77.2 125.4 84.4 112.6 85.4 83.8L79 96.2C71.6 102 64.4 103.4 54.8 103.4C23.4 103.4 9.8 83.2 9.8 59.6C9.8 25.6 36.4 8.19999 65.2 8.19999ZM47.4 55.2C47.4 68.6 54.2 77 66 77C75.8 77 84 69.4 84 56C84 43 77 34.6 65.6 34.6C53.4 34.6 47.4 44.4 47.4 55.2Z" fill="white"/>
<path d="M175.288 8.51499C172.291 8.191 170.023 8.11 166.54 8.11H145.48V64H160.06V44.398H166.54C170.023 44.398 172.291 44.317 175.288 43.993C183.388 43.021 190.759 37.27 190.759 26.254C190.759 15.238 183.388 9.487 175.288 8.51499ZM160.06 33.058V19.45H165.73C167.269 19.45 168.565 19.45 169.618 19.531C173.344 19.855 175.531 22.042 175.531 26.254C175.531 30.466 173.344 32.653 169.618 32.977C168.565 33.058 167.269 33.058 165.73 33.058H160.06ZM240.457 64V51.688H212.188V8.11H197.608V64H240.457ZM262.483 49.501H279.898L284.596 64H300.472L280.303 8.11H262.483L242.314 64H257.785L262.483 49.501ZM266.047 38.161L271.231 20.989L276.415 38.161H266.047ZM305.74 64H320.32V8.11H305.74V64ZM345.304 27.064L365.635 64H384.67V8.11H370.09V32.005C370.09 35.245 370.171 40.996 370.576 46.666L349.354 8.11H331.21V64H345.79V40.915C345.79 37.675 345.79 32.734 345.304 27.064ZM422.898 19.45H441.042V8.11H390.174V19.45H408.318V64H422.898V19.45ZM489.548 64V52.66H461.279V41.644H487.118V30.304H461.279V19.45H488.738V8.11H446.699V64H489.548ZM518.033 6.976C506.936 6.976 496.892 13.051 496.892 23.824C496.892 35.002 504.344 38.971 517.061 42.13C523.946 43.831 526.052 46.342 526.052 49.258C526.052 52.336 522.974 54.442 518.924 54.442C514.55 54.442 510.257 52.174 509.285 46.909H494.705C495.596 59.464 505.154 65.134 519.329 65.134C530.588 65.134 541.28 59.464 541.28 48.286C541.28 39.7 536.258 33.544 523.946 30.628C514.712 28.441 512.12 26.254 512.12 22.69C512.12 19.288 514.388 17.668 517.709 17.668C522.488 17.668 524.918 20.746 525.566 25.363H540.146C538.931 14.995 532.775 6.976 518.033 6.976Z" fill="white"/>
<path d="M176.84 98.2C173.88 97.88 171.64 97.8 168.2 97.8H147.4V153H161.8V133.64H168.2C171.64 133.64 173.88 133.56 176.84 133.24C184.84 132.28 192.12 126.6 192.12 115.72C192.12 104.84 184.84 99.16 176.84 98.2ZM161.8 122.44V109H167.4C168.92 109 170.2 109 171.24 109.08C174.92 109.4 177.08 111.56 177.08 115.72C177.08 119.88 174.92 122.04 171.24 122.36C170.2 122.44 168.92 122.44 167.4 122.44H161.8ZM207.646 138.68H224.846L229.486 153H245.166L225.246 97.8H207.646L187.726 153H203.006L207.646 138.68ZM211.166 127.48L216.286 110.52L221.406 127.48H211.166ZM293.409 139.56C292.609 132.92 290.529 128.68 284.769 126.6C292.129 124.44 295.889 119.8 295.889 112.84C295.889 103.08 288.929 99.16 280.929 98.2C277.969 97.88 275.729 97.8 272.289 97.8H250.369V153H264.769V132.04H267.969C269.569 132.04 270.929 132.04 272.529 132.12C276.209 132.36 278.609 135.88 279.329 141.96C279.809 145.88 280.609 149.08 281.889 153H297.569C295.409 149.72 294.129 145.8 293.409 139.56ZM264.769 121.64V109H270.369C271.889 109 273.169 109 274.209 109.08C277.889 109.4 280.849 110.68 280.849 115.32C280.849 119.96 277.489 121.24 273.809 121.56C272.769 121.64 271.489 121.64 269.969 121.64H264.769ZM359.443 129.08V97.8H345.043V131.32C345.043 133 345.043 134.76 344.883 136.6C344.483 141 342.403 143.56 338.403 143.56C334.323 143.56 331.443 141.48 330.963 134.28L330.803 131.88H316.403L316.483 134.28C316.883 146.28 323.043 154.12 338.003 154.12C352.323 154.12 358.643 147.16 359.203 137.48C359.443 133.4 359.443 131.64 359.443 129.08ZM396.138 96.68C378.938 96.68 367.898 107.64 367.898 125.4C367.898 143.08 378.938 154.12 396.138 154.12C413.338 154.12 424.378 143.08 424.378 125.4C424.378 107.64 413.338 96.68 396.138 96.68ZM382.618 125.4C382.618 113.64 387.818 107.24 396.138 107.24C404.458 107.24 409.658 113.64 409.658 125.4C409.658 137.08 404.458 143.56 396.138 143.56C387.818 143.56 382.618 137.08 382.618 125.4ZM481.025 128.76V97.8H466.625V131.4C466.625 132.92 466.625 133.72 466.545 134.68C466.145 140.44 462.865 143.56 456.545 143.56C450.225 143.56 446.945 140.44 446.545 134.68C446.465 133.72 446.465 132.92 446.465 131.4V97.8H432.065V128.76C432.065 131.56 432.065 133.24 432.305 136.52C432.945 145.8 439.505 154.12 456.545 154.12C473.585 154.12 480.145 145.8 480.785 136.52C481.025 133.24 481.025 131.56 481.025 128.76ZM533.487 139.56C532.687 132.92 530.607 128.68 524.847 126.6C532.207 124.44 535.967 119.8 535.967 112.84C535.967 103.08 529.007 99.16 521.007 98.2C518.047 97.88 515.807 97.8 512.367 97.8H490.447V153H504.847V132.04H508.047C509.647 132.04 511.007 132.04 512.607 132.12C516.287 132.36 518.687 135.88 519.407 141.96C519.887 145.88 520.687 149.08 521.967 153H537.647C535.487 149.72 534.207 145.8 533.487 139.56ZM504.847 121.64V109H510.447C511.967 109 513.247 109 514.287 109.08C517.967 109.4 520.927 110.68 520.927 115.32C520.927 119.96 517.567 121.24 513.887 121.56C512.847 121.64 511.567 121.64 510.047 121.64H504.847Z" fill="white"/>
</svg>
