<svg xmlns="http://www.w3.org/2000/svg" viewBox="0 0 846.46 751.49" class="ani" style=""><defs><style>.cls-P-1{fill:none;stroke:white;stroke-miterlimit:10;}</style></defs><g id="poseidon_ligne"><path class="cls-P-1 rsodMknR_0" d="m530.48,273.28c11.07,9.95,4.69,17.46,4.69,17.46l25.34,12.82-3.38-38.53s10.51-6.76,17.64-14.64c7.13-7.88,4.88-25.53,4.88-25.53l-11.83-15.02s-1.69,8.07-16.52,11.83c-14.83,3.75-20.46-6.19-20.46-6.19,0,0,7.51-9.01,16.52-12.58,9.01-3.57,22.34-.75,22.34-.75l11.83-6.01s-13.7-3.38-22.34-5.63c-8.63-2.25-31.35,13.51-31.35,13.51,0,0-3.19-2.82-.94-5.82,2.25-3,17.08-14.08,34.16-14.27,17.08-.19,26.47,15.02,26.47,15.02,0,0,13.51,90.85-9.01,141.91-34.91,39.42-4.5,16.89-27.03,77.71-46.18,69.83-83.34,66.45-83.34,66.45,0,0,0,12.39,20.22-24.78s-20.22-65.32-20.22-65.32l-23.65,14.08s28.16-21.96,29.12-51.24c.97-29.28,14.74-27.03,14.74-27.03,0,0,22.58,9.01,50.17,3.94,6.76,69.26,28.72,74.33,28.72,74.33,0,0-10.14-27.03-8.45-69.26,1.69-42.23-23.65-48.99-23.65-48.99-3.05,3.85-5.72,6.43-7.02,7.38-.45.33-7.09,1.49-7.41.75-.36-.81,3.17-4.89,5.91-4.15,1.88.51-1.4,5.26-2.36,5.73-5.48,2.68-13.33,3.11-13.33,3.11,0,0-5.58.89-12.15-1.22-1.44-.46-2.73-1.03-3.98-1.66-.77-.4-7.38-7.82.93-4.86,7.6,6.05-4.83,2.63-5.66,2.12-3.93-2.4-8.51-5.1-16.45-7.19-19.3-5.07-22.93,76.02-22.93,76.02,0,0-11.83-28.72-20.27-69.26-8.45-40.54,0-82.78,0-82.78l1.69-14.64s11.64-14.27,22.52-14.27,23.16,6.38,33.73,14.64l-2.57,5.63s-19.15-17.64-31.16-14.64c-12.01,3-15.39,5.63-15.39,5.63l8.63,9.39s15.39-6.01,23.28-3,16.78,11.26,17.21,13.51c.43,2.25-8.2,9.01-18.34,8.26s-19.9-14.27-19.9-14.27l-15.02,4.5s-3.38,31.53,9.76,43.55l13.14,12.01-.75,29.28s8.82-12.2,20.84-9.2c-4.47-10.32,8.07-17.08,8.07-17.08"></path><path class="cls-P-1 rsodMknR_1" d="m452.12,144.61c6.03-2.17,32.55-11.03,52.65,2.82,2.4,1.65,4.9,3.76,7.32,6.48,0,0,16.61-35.19,60.54-16.89,31.82-26.47,37.45-96.86,12.11-121.63,6.84,25.34,0,40.54,0,40.54l-11.26-13.51s16.33,71.52-13.51,75.46c-29.85,3.94-39.42-113.75-39.42-113.75,0,0-18.02,109.81-39.98,113.19-21.96,3.38-42.8-21.4-23.65-63.63-15.77,19.71-17.46,6.76-17.46,6.76,0,0-5.63-41.67,15.2-49.55-37.73,21.96-29.85,76.58-23.65,90.66s18.02,32.66,18.02,32.66l-23.24-33.79s9.72,15.2-6.61,16.33-9.57,21.96-17.46,27.59-16.89,24.21-22.52,82.78c-5.63,58.56,11.83,50.12,0,73.21-11.83,23.09-28.72,64.76-38.29,69.26-9.57,4.5,50.12-45.05,77.15-52.37"></path><path class="cls-P-1 rsodMknR_2" d="m586.98,190.5l-10.7-45.05,30.97-43.92s10.14,36.04,18.02,42.23c7.88,6.19,29.28,31.53,23.65,54.06-5.63,22.52,10.7,16.33-6.19,64.2s58,89.54,58,89.54c0,0,79.4,33.79,89.54,109.81,55.75,38.86,23.65,91.23,23.65,91.23,0,0,40.54,47.3,30.41,70.95-10.14,23.65-195.97,125.01-233.13,126.7-37.17,1.69-59.13,0-59.13,0l-273.68-380.38-21.96-11.55s5.07-32.18-28.72-22.85c-33.79,9.33-64.2,63.39-64.2,63.39,0,0-47.3-152.04-108.12-157.11-13.51,30.41-27.03,27.03-27.03,27.03,0,0,12.67-72.64-27.03-97.98,64.2-11.83,163.87,103.35,167.25,132.76l28.72-13.76s-39.98-158.42-110.56-153.17C92.56,82.1,54.55,13.68,54.55,13.68c0,0,59.13,74.33,114.03,76.02-15.2,45.61,10.98,102.21,102.21,165.56,15.2-21.96,34.63-20.27,34.63-20.27,0,0-125.01-91.23-70.11-201.03,0,0,1.69,52.37,54.9,71.8-39.7,1.69-31.25-1.69-31.25-1.69,0,0,28.72,103.9,108.12,144.44-52.37,5.07-86.16,38.86-74.33,66.73l16.05,2.53.84,28.72,259.32,355.61"></path></g><style data-made-with="vivus-instant">.rsodMknR_0{stroke-dasharray:1965 1967;stroke-dashoffset:1966;}.start .rsodMknR_0{animation:rsodMknR_draw 2000ms linear 0ms forwards;}.rsodMknR_1{stroke-dasharray:1398 1400;stroke-dashoffset:1399;}.start .rsodMknR_1{animation:rsodMknR_draw 2000ms linear 500ms forwards;}.rsodMknR_2{stroke-dasharray:4147 4149;stroke-dashoffset:4148;}.start .rsodMknR_2{animation:rsodMknR_draw 2000ms linear 1000ms forwards;}@keyframes rsodMknR_draw{100%{stroke-dashoffset:0;}}@keyframes rsodMknR_fade{0%{stroke-opacity:1;}94.44444444444444%{stroke-opacity:1;}100%{stroke-opacity:0;}}</style></svg>