<svg width="513" height="453" viewBox="0 0 513 453" fill="none" xmlns="http://www.w3.org/2000/svg">
<g clip-path="url(#clip0_33_1053)">
<path d="M321.841 164.144C328.498 170.121 324.661 174.631 324.661 174.631L339.901 182.332L337.868 159.189C337.868 159.189 344.189 155.129 348.477 150.395C352.765 145.662 351.412 135.061 351.412 135.061L344.297 126.039C344.297 126.039 343.281 130.887 334.362 133.145C325.443 135.397 322.057 129.427 322.057 129.427C322.057 129.427 326.574 124.015 331.992 121.871C337.411 119.727 345.428 121.42 345.428 121.42L352.543 117.811C352.543 117.811 344.303 115.78 339.107 114.429C333.917 113.077 320.253 122.544 320.253 122.544C320.253 122.544 318.334 120.85 319.688 119.048C321.041 117.246 329.96 110.591 340.232 110.477C350.504 110.363 356.151 119.498 356.151 119.498C356.151 119.498 364.276 174.067 350.733 204.736C329.737 228.413 348.026 214.881 334.476 251.412C306.703 293.355 284.354 291.325 284.354 291.325C284.354 291.325 284.354 298.767 296.515 276.441C308.676 254.115 284.354 237.207 284.354 237.207L270.131 245.664C270.131 245.664 287.067 232.474 287.644 214.887C288.228 197.3 296.509 198.651 296.509 198.651C296.509 198.651 310.089 204.063 326.682 201.018C330.748 242.618 343.955 245.664 343.955 245.664C343.955 245.664 337.856 229.428 338.873 204.063C339.889 178.698 324.649 174.637 324.649 174.637C322.815 176.95 321.209 178.5 320.427 179.07C320.157 179.268 316.163 179.965 315.971 179.521C315.754 179.034 317.877 176.584 319.525 177.028C320.656 177.334 318.683 180.187 318.106 180.47C314.81 182.079 310.089 182.338 310.089 182.338C310.089 182.338 306.733 182.872 302.782 181.605C301.916 181.329 301.14 180.986 300.388 180.608C299.925 180.368 295.95 175.911 300.948 177.689C305.518 181.323 298.043 179.268 297.543 178.962C295.18 177.521 292.425 175.899 287.65 174.643C276.043 171.598 273.86 220.304 273.86 220.304C273.86 220.304 266.745 203.054 261.669 178.704C256.587 154.354 261.669 128.983 261.669 128.983L262.686 120.189C262.686 120.189 269.686 111.618 276.229 111.618C282.773 111.618 290.158 115.45 296.515 120.411L294.969 123.793C294.969 123.793 283.452 113.198 276.229 115C269.006 116.801 266.974 118.381 266.974 118.381L272.164 124.021C272.164 124.021 281.42 120.411 286.165 122.219C290.91 124.027 296.256 128.983 296.515 130.334C296.774 131.685 291.583 135.746 285.485 135.295C279.387 134.845 273.517 126.724 273.517 126.724L264.484 129.427C264.484 129.427 262.451 148.365 270.354 155.585L278.256 162.799L277.805 180.386C277.805 180.386 283.11 173.058 290.339 174.86C287.65 168.661 295.192 164.601 295.192 164.601" stroke="white" stroke-miterlimit="10"/>
<path d="M274.714 86.859C278.34 85.5556 294.29 80.2339 306.378 88.5528C307.822 89.5439 309.325 90.8112 310.781 92.445C310.781 92.445 320.77 71.3083 347.19 82.3001C366.327 66.401 369.713 24.1217 354.473 9.24372C358.587 24.4641 354.473 33.5938 354.473 33.5938L347.701 25.4791C347.701 25.4791 357.522 68.4372 339.576 70.8038C321.624 73.1703 315.869 2.48047 315.869 2.48047C315.869 2.48047 305.031 68.4372 291.824 70.4674C278.617 72.4976 266.083 57.6136 277.601 32.2484C268.116 44.0871 267.1 36.3088 267.1 36.3088C267.1 36.3088 263.714 11.2799 276.241 6.54683C253.55 19.737 258.289 52.5442 262.018 61.0012C265.747 69.4583 272.855 80.6183 272.855 80.6183L258.879 60.3225C258.879 60.3225 264.724 69.4523 254.903 70.131C245.082 70.8098 249.148 83.3212 244.403 86.7028C239.657 90.0844 234.245 101.244 230.859 136.424C227.473 171.598 237.973 166.528 230.859 180.397C223.744 194.266 213.586 219.295 207.831 221.998C202.075 224.701 237.973 194.939 254.23 190.542" stroke="white" stroke-miterlimit="10"/>
<path d="M355.82 114.423L349.385 87.3637L368.011 60.9834C368.011 60.9834 374.109 82.6306 378.849 86.3486C383.588 90.0666 396.458 105.287 393.072 118.819C389.686 132.346 399.507 128.628 389.349 157.381C379.191 186.134 424.231 211.163 424.231 211.163C424.231 211.163 471.984 231.458 478.082 277.119C511.611 300.46 492.305 331.916 492.305 331.916C492.305 331.916 516.687 360.327 510.594 374.532C504.496 388.737 392.735 449.618 370.387 450.633C348.032 451.649 334.825 450.633 334.825 450.633L170.23 222.16L157.023 215.223C157.023 215.223 160.072 195.894 139.75 201.498C119.429 207.102 101.14 239.573 101.14 239.573C101.14 239.573 72.6928 148.251 36.1148 145.206C27.9897 163.471 19.8586 161.441 19.8586 161.441C19.8586 161.441 27.4785 117.81 3.60242 102.59C42.2132 95.4844 102.156 164.667 104.189 182.332L121.461 174.067C121.461 174.067 97.417 78.9126 54.9692 82.066C58.4754 49.3129 35.6097 8.2168 35.6097 8.2168C35.6097 8.2168 71.1713 52.8627 104.189 53.8778C95.0474 81.2732 110.792 115.27 165.659 153.32C174.801 140.13 186.486 141.145 186.486 141.145C186.486 141.145 111.304 86.3486 144.321 20.3979C144.321 20.3979 145.338 51.8536 177.339 63.5241C153.463 64.5392 158.545 62.509 158.545 62.509C158.545 62.509 175.817 124.916 223.57 149.266C192.073 152.311 171.752 172.607 178.866 189.347L188.519 190.867L189.024 208.117L344.983 421.712" stroke="white" stroke-miterlimit="10"/>
<path d="M274.732 126.712C274.756 128.267 272.302 128.267 272.326 126.712C272.302 125.156 274.756 125.156 274.732 126.712Z" fill="white" stroke="white" stroke-width="4" stroke-miterlimit="10"/>
<path d="M265.699 129.421C265.723 130.976 263.269 130.976 263.293 129.421C263.269 127.865 265.723 127.865 265.699 129.421Z" fill="white" stroke="white" stroke-width="4" stroke-miterlimit="10"/>
<path d="M296.178 123.781C296.202 125.337 293.749 125.337 293.773 123.781C293.749 122.225 296.202 122.225 296.178 123.781Z" fill="white" stroke="white" stroke-width="4" stroke-miterlimit="10"/>
<path d="M268.182 118.369C268.206 119.925 265.753 119.925 265.777 118.369C265.753 116.813 268.206 116.813 268.182 118.369Z" fill="white" stroke="white" stroke-width="4" stroke-miterlimit="10"/>
<path d="M263.894 120.171C263.918 121.726 261.465 121.726 261.489 120.171C261.465 118.615 263.918 118.615 263.894 120.171Z" fill="white" stroke="white" stroke-width="4" stroke-miterlimit="10"/>
<path d="M245.605 86.6853C245.629 88.241 243.176 88.241 243.2 86.6853C243.176 85.1296 245.629 85.1296 245.605 86.6853Z" fill="white" stroke="white" stroke-width="4" stroke-miterlimit="10"/>
<path d="M235.105 170.907C235.129 172.463 232.675 172.463 232.699 170.907C232.675 169.351 235.129 169.351 235.105 170.907Z" fill="white" stroke="white" stroke-width="4" stroke-miterlimit="10"/>
<path d="M225.981 149.26C226.005 150.815 223.552 150.815 223.576 149.26C223.552 147.704 226.005 147.704 225.981 149.26Z" fill="white" stroke="white" stroke-width="4" stroke-miterlimit="10"/>
<path d="M187.689 141.145C187.713 142.701 185.26 142.701 185.284 141.145C185.26 139.59 187.713 139.59 187.689 141.145Z" fill="white" stroke="white" stroke-width="4" stroke-miterlimit="10"/>
<path d="M166.862 153.32C166.886 154.876 164.433 154.876 164.457 153.32C164.433 151.764 166.886 151.764 166.862 153.32Z" fill="white" stroke="white" stroke-width="4" stroke-miterlimit="10"/>
<path d="M159.753 62.5027C159.778 64.0584 157.324 64.0584 157.348 62.5027C157.324 60.947 159.778 60.947 159.753 62.5027Z" fill="white" stroke="white" stroke-width="4" stroke-miterlimit="10"/>
<path d="M178.548 63.5183C178.572 65.074 176.118 65.074 176.142 63.5183C176.118 61.9626 178.572 61.9626 178.548 63.5183Z" fill="white" stroke="white" stroke-width="4" stroke-miterlimit="10"/>
<path d="M145.53 20.3914C145.554 21.947 143.1 21.947 143.124 20.3914C143.1 18.8357 145.554 18.8357 145.53 20.3914Z" fill="white" stroke="white" stroke-width="4" stroke-miterlimit="10"/>
<path d="M105.398 53.8777C105.422 55.4334 102.968 55.4334 102.992 53.8777C102.968 52.322 105.422 52.322 105.398 53.8777Z" fill="white" stroke="white" stroke-width="4" stroke-miterlimit="10"/>
<path d="M36.8126 8.21656C36.8366 9.77223 34.3829 9.77223 34.4069 8.21656C34.3829 6.66089 36.8366 6.66089 36.8126 8.21656Z" fill="white" stroke="white" stroke-width="4" stroke-miterlimit="10"/>
<path d="M56.178 82.0662C56.2021 83.6218 53.7483 83.6218 53.7724 82.0662C53.7483 80.5105 56.2021 80.5105 56.178 82.0662Z" fill="white" stroke="white" stroke-width="4" stroke-miterlimit="10"/>
<path d="M122.67 174.06C122.694 175.616 120.241 175.616 120.265 174.06C120.241 172.505 122.694 172.505 122.67 174.06Z" fill="white" stroke="white" stroke-width="4" stroke-miterlimit="10"/>
<path d="M105.398 182.325C105.422 183.881 102.968 183.881 102.992 182.325C102.968 180.769 105.422 180.769 105.398 182.325Z" fill="white" stroke="white" stroke-width="4" stroke-miterlimit="10"/>
<path d="M102.349 239.567C102.373 241.123 99.9189 241.123 99.9429 239.567C99.9189 238.011 102.373 238.011 102.349 239.567Z" fill="white" stroke="white" stroke-width="4" stroke-miterlimit="10"/>
<path d="M337.231 450.628C337.255 452.183 334.801 452.183 334.825 450.628C334.801 449.072 337.255 449.072 337.231 450.628Z" fill="white" stroke="white" stroke-width="4" stroke-miterlimit="10"/>
<path d="M346.469 421.706C346.493 423.261 344.039 423.261 344.063 421.706C344.039 420.15 346.493 420.15 346.469 421.706Z" fill="white" stroke="white" stroke-width="4" stroke-miterlimit="10"/>
<path d="M377.177 449.462C377.201 451.017 374.747 451.017 374.771 449.462C374.747 447.906 377.201 447.906 377.177 449.462Z" fill="white" stroke="white" stroke-width="4" stroke-miterlimit="10"/>
<path d="M511.797 374.526C511.821 376.082 509.367 376.082 509.392 374.526C509.367 372.97 511.821 372.97 511.797 374.526Z" fill="white" stroke="white" stroke-width="4" stroke-miterlimit="10"/>
<path d="M493.508 331.91C493.532 333.466 491.078 333.466 491.102 331.91C491.078 330.354 493.532 330.354 493.508 331.91Z" fill="white" stroke="white" stroke-width="4" stroke-miterlimit="10"/>
<path d="M479.285 277.113C479.309 278.669 476.855 278.669 476.879 277.113C476.855 275.557 479.309 275.557 479.285 277.113Z" fill="white" stroke="white" stroke-width="4" stroke-miterlimit="10"/>
<path d="M422.896 209.282C422.92 210.838 420.466 210.838 420.491 209.282C420.466 207.726 422.92 207.726 422.896 209.282Z" fill="white" stroke="white" stroke-width="4" stroke-miterlimit="10"/>
<path d="M392.922 122.609C392.946 124.165 390.492 124.165 390.516 122.609C390.492 121.053 392.946 121.053 392.922 122.609Z" fill="white" stroke="white" stroke-width="4" stroke-miterlimit="10"/>
<path d="M388.351 165.765C388.375 167.321 385.921 167.321 385.945 165.765C385.921 164.21 388.375 164.21 388.351 165.765Z" fill="white" stroke="white" stroke-width="4" stroke-miterlimit="10"/>
<path d="M37.3237 145.2C37.3477 146.756 34.894 146.756 34.918 145.2C34.894 143.644 37.3477 143.644 37.3237 145.2Z" fill="white" stroke="white" stroke-width="4" stroke-miterlimit="10"/>
<path d="M3.60847 102.584C3.63252 104.139 1.17876 104.139 1.20281 102.584C1.17876 101.028 3.63252 101.028 3.60847 102.584Z" fill="white" stroke="white" stroke-width="4" stroke-miterlimit="10"/>
<path d="M21.0675 161.435C21.0915 162.991 18.6377 162.991 18.6618 161.435C18.6377 159.88 21.0915 159.88 21.0675 161.435Z" fill="white" stroke="white" stroke-width="4" stroke-miterlimit="10"/>
<path d="M180.069 189.341C180.093 190.896 177.64 190.896 177.664 189.341C177.64 187.785 180.093 187.785 180.069 189.341Z" fill="white" stroke="white" stroke-width="4" stroke-miterlimit="10"/>
<path d="M189.722 190.867C189.746 192.423 187.292 192.423 187.316 190.867C187.292 189.311 189.746 189.311 189.722 190.867Z" fill="white" stroke="white" stroke-width="4" stroke-miterlimit="10"/>
<path d="M190.233 208.111C190.257 209.667 187.804 209.667 187.828 208.111C187.804 206.555 190.257 206.555 190.233 208.111Z" fill="white" stroke="white" stroke-width="4" stroke-miterlimit="10"/>
<path d="M171.433 222.154C171.457 223.71 169.003 223.71 169.027 222.154C169.003 220.598 171.457 220.598 171.433 222.154Z" fill="white" stroke="white" stroke-width="4" stroke-miterlimit="10"/>
<path d="M158.226 215.217C158.25 216.772 155.796 216.772 155.82 215.217C155.796 213.661 158.25 213.661 158.226 215.217Z" fill="white" stroke="white" stroke-width="4" stroke-miterlimit="10"/>
<path d="M321.468 121.343C321.492 122.898 319.038 122.898 319.062 121.343C319.038 119.787 321.492 119.787 321.468 121.343Z" fill="white" stroke="white" stroke-width="4" stroke-miterlimit="10"/>
<path d="M353.752 117.804C353.776 119.36 351.322 119.36 351.346 117.804C351.322 116.249 353.776 116.249 353.752 117.804Z" fill="white" stroke="white" stroke-width="4" stroke-miterlimit="10"/>
<path d="M346.637 121.414C346.661 122.969 344.207 122.969 344.231 121.414C344.207 119.858 346.661 119.858 346.637 121.414Z" fill="white" stroke="white" stroke-width="4" stroke-miterlimit="10"/>
<path d="M345.512 126.033C345.536 127.589 343.083 127.589 343.107 126.033C343.083 124.477 345.536 124.477 345.512 126.033Z" fill="white" stroke="white" stroke-width="4" stroke-miterlimit="10"/>
<path d="M323.272 129.421C323.296 130.976 320.842 130.976 320.866 129.421C320.842 127.865 323.296 127.865 323.272 129.421Z" fill="white" stroke="white" stroke-width="4" stroke-miterlimit="10"/>
<path d="M339.077 159.182C339.101 160.738 336.647 160.738 336.671 159.182C336.647 157.627 339.101 157.627 339.077 159.182Z" fill="white" stroke="white" stroke-width="4" stroke-miterlimit="10"/>
<path d="M341.11 182.325C341.134 183.881 338.68 183.881 338.704 182.325C338.68 180.769 341.134 180.769 341.11 182.325Z" fill="white" stroke="white" stroke-width="4" stroke-miterlimit="10"/>
<path d="M279.02 180.38C279.044 181.935 276.59 181.935 276.614 180.38C276.59 178.824 279.044 178.824 279.02 180.38Z" fill="white" stroke="white" stroke-width="4" stroke-miterlimit="10"/>
<path d="M275.069 220.292C275.093 221.847 272.639 221.847 272.663 220.292C272.639 218.736 275.093 218.736 275.069 220.292Z" fill="white" stroke="white" stroke-width="4" stroke-miterlimit="10"/>
<path d="M272.663 245.321C272.687 246.877 270.233 246.877 270.257 245.321C270.233 243.765 272.687 243.765 272.663 245.321Z" fill="white" stroke="white" stroke-width="4" stroke-miterlimit="10"/>
<path d="M286.82 237.879C286.844 239.434 284.391 239.434 284.415 237.879C284.391 236.323 286.844 236.323 286.82 237.879Z" fill="white" stroke="white" stroke-width="4" stroke-miterlimit="10"/>
<path d="M345.17 245.657C345.194 247.213 342.74 247.213 342.764 245.657C342.74 244.101 345.194 244.101 345.17 245.657Z" fill="white" stroke="white" stroke-width="4" stroke-miterlimit="10"/>
<path d="M286.82 291.318C286.844 292.874 284.391 292.874 284.415 291.318C284.391 289.762 286.844 289.762 286.82 291.318Z" fill="white" stroke="white" stroke-width="4" stroke-miterlimit="10"/>
<path d="M209.027 221.98C209.051 223.536 206.598 223.536 206.622 221.98C206.598 220.425 209.051 220.425 209.027 221.98Z" fill="white" stroke="white" stroke-width="4" stroke-miterlimit="10"/>
<path d="M297.381 164.594C297.405 166.15 294.951 166.15 294.975 164.594C294.951 163.039 297.405 163.039 297.381 164.594Z" fill="white" stroke="white" stroke-width="4" stroke-miterlimit="10"/>
<path d="M279.471 162.793C279.495 164.348 277.041 164.348 277.065 162.793C277.041 161.237 279.495 161.237 279.471 162.793Z" fill="white" stroke="white" stroke-width="4" stroke-miterlimit="10"/>
<path d="M357.023 114.423C357.047 115.978 354.594 115.978 354.618 114.423C354.594 112.867 357.047 112.867 357.023 114.423Z" fill="white" stroke="white" stroke-width="4" stroke-miterlimit="10"/>
<path d="M369.22 60.9832C369.244 62.5388 366.79 62.5388 366.814 60.9832C366.79 59.4275 369.244 59.4275 369.22 60.9832Z" fill="white" stroke="white" stroke-width="4" stroke-miterlimit="10"/>
<path d="M311.4 91.5378C311.424 93.0935 308.97 93.0935 308.994 91.5378C308.97 89.9822 311.424 89.9822 311.4 91.5378Z" fill="white" stroke="white" stroke-width="4" stroke-miterlimit="10"/>
<path d="M348.387 82.2878C348.411 83.8435 345.957 83.8435 345.981 82.2878C345.957 80.7322 348.411 80.7322 348.387 82.2878Z" fill="white" stroke="white" stroke-width="4" stroke-miterlimit="10"/>
<path d="M260.617 62.1482C260.641 63.7039 258.187 63.7039 258.211 62.1482C258.187 60.5925 260.641 60.5925 260.617 62.1482Z" fill="white" stroke="white" stroke-width="4" stroke-miterlimit="10"/>
<path d="M274.052 80.6003C274.076 82.156 271.623 82.156 271.647 80.6003C271.623 79.0447 274.076 79.0447 274.052 80.6003Z" fill="white" stroke="white" stroke-width="4" stroke-miterlimit="10"/>
<path d="M277.438 6.52906C277.462 8.08473 275.008 8.08473 275.033 6.52906C275.008 4.97339 277.462 4.97339 277.438 6.52906Z" fill="white" stroke="white" stroke-width="4" stroke-miterlimit="10"/>
<path d="M279.844 32.4587C279.868 34.0144 277.414 34.0144 277.438 32.4587C277.414 30.9031 279.868 30.9031 279.844 32.4587Z" fill="white" stroke="white" stroke-width="4" stroke-miterlimit="10"/>
<path d="M317.065 2.46851C317.089 4.02418 314.636 4.02418 314.66 2.46851C314.636 0.912841 317.089 0.912841 317.065 2.46851Z" fill="white" stroke="white" stroke-width="4" stroke-miterlimit="10"/>
<path d="M348.898 25.4675C348.922 27.0232 346.468 27.0232 346.492 25.4675C346.468 23.9119 348.922 23.9119 348.898 25.4675Z" fill="white" stroke="white" stroke-width="4" stroke-miterlimit="10"/>
<path d="M354.954 8.21656C354.978 9.77223 352.525 9.77223 352.549 8.21656C352.525 6.66089 354.978 6.66089 354.954 8.21656Z" fill="white" stroke="white" stroke-width="4" stroke-miterlimit="10"/>
<path d="M275.917 86.8591C275.941 88.4148 273.487 88.4148 273.511 86.8591C273.487 85.3035 275.941 85.3035 275.917 86.8591Z" fill="white" stroke="white" stroke-width="4" stroke-miterlimit="10"/>
<path d="M324.475 163.424C324.499 164.979 322.045 164.979 322.069 163.424C322.045 161.868 324.499 161.868 324.475 163.424Z" fill="white" stroke="white" stroke-width="4" stroke-miterlimit="10"/>
</g>
<defs>
<clipPath id="clip0_33_1053">
<rect width="513" height="453" fill="white"/>
</clipPath>
</defs>
</svg>
