<svg width="593" height="441" viewBox="0 0 593 441" fill="none" xmlns="http://www.w3.org/2000/svg">
<g clip-path="url(#clip0_111_6825)">
<path d="M16.6595 441C16.6595 441 17.3653 336.089 37.0606 309.331C56.7558 282.574 1.88648 301.585 26.86 309.331C51.8336 317.077 151.734 323.41 147.511 311.444C143.289 299.479 60.966 316.09 48.3168 305.812C35.6676 295.534 23.2246 289.151 23.9304 187.053C31.4325 230.471 24.8674 229.296 16.6595 229.065C8.45157 228.834 -5.38446 229.834 2.82346 196.593C11.0314 163.352 17.3653 109.368 97.5643 113.826C70.3607 102.323 65.907 96.9274 49.7285 109.837C31.4387 123.216 66.6128 118.759 58.6423 83.3173C50.6717 47.876 45.5121 33.0905 66.8502 29.5708C63.5645 16.8985 105.778 19.7117 116.797 32.8592C127.816 46.0067 130.633 51.6333 119.846 51.6333C109.058 51.6333 101.556 52.8086 100.619 59.8481C99.6819 66.8876 93.5853 72.0516 93.1168 76.9842C92.1798 60.5546 86.0832 64.7808 85.1462 70.8825C84.2093 76.9842 90.0685 84.0237 85.3836 87.0746C80.6987 90.1255 66.388 103.973 62.4027 78.8598C58.4174 53.7464 56.3061 34.7348 84.2093 34.2659C112.112 33.797 124.074 47.1758 123.606 59.1417C123.138 71.1076 118.215 107.724 110.007 107.724C101.799 107.724 90.3121 105.611 90.7806 101.854C91.2491 98.0965 104.148 105.842 108.839 111.006C113.53 116.17 128.36 107.78 142.077 141.578C155.794 175.375 147.355 204.108 185.34 231.197C223.325 258.286 208.559 257.754 225.443 263.037C242.327 268.32 255.52 264.619 255.52 269.901C255.52 275.184 242.327 273.596 241.272 277.297C240.216 280.998 249.186 288.388 263.434 289.97C277.682 291.551 255.52 299.472 250.241 298.416C244.963 297.359 272.841 297.359 268.138 301.054C263.434 304.749 246.55 304.224 246.55 304.224C246.55 304.224 266.601 305.28 265.545 309.506C264.49 313.733 244.969 312.676 241.802 312.145C238.635 311.613 256.575 315.839 256.051 317.427C255.526 319.015 231.777 316.902 223.338 301.585C214.899 286.269 164.77 259.342 161.604 258.286" stroke="white" stroke-width="2" stroke-miterlimit="10"/>
<path d="M150.504 437.299C150.504 437.299 128.341 347.524 137.311 333.27C146.281 319.016 142.839 244.551 142.839 244.551C142.839 244.551 137.311 267.257 123.594 275.178C109.876 283.099 58.6923 288.294 30.202 277.51C1.71164 266.726 11.7373 245.076 12.793 240.85C13.8486 236.624 21.232 250.884 21.232 250.884C21.232 250.884 15.6039 233.479 20.1763 233.46C24.7488 233.441 31.2576 254.585 33.8937 255.11C36.5297 255.635 97.7392 261.449 106.178 242.963C114.617 224.476 109.995 180.758 150.497 178.007C142.058 141.572 144.163 63.4119 186.377 50.2144C228.591 37.0169 235.45 76.0905 231.752 86.6497C228.054 97.209 237.555 133.651 229.116 141.572C220.677 149.493 232.733 157.945 232.733 157.945C232.733 157.945 247.056 159.001 263.94 180.126C280.824 201.251 300.445 221.163 307.734 221.844C369.993 227.652 383.686 196.587 391.1 196.587C402.706 196.587 384.766 210.754 384.766 210.754C384.766 210.754 401.613 206.409 410.09 201.776C419.584 196.587 408.509 213.923 408.509 213.923C408.509 213.923 414.137 206.527 414.75 210.003C415.143 212.223 414.181 215.768 412.401 218.143C410.621 220.519 409.04 222.369 409.04 222.369C409.04 222.369 415.724 218.143 415.693 222.807C415.668 226.439 407.46 231.191 407.46 231.191L411.377 228.571C413.781 227.971 414.643 230.722 412.888 232.472C406.229 239.093 396.429 240.306 388.015 238.093C367.963 232.81 344.158 242.413 309.79 253.753C297.546 257.798 270.805 226.064 261.304 223.426C251.803 220.788 249.167 221.788 248.642 242.413C248.118 263.037 273.966 319.009 235.45 319.541C196.934 320.072 162.11 306.337 155.776 312.676C149.442 319.016 156.831 321.654 166.857 322.71C176.883 323.767 237.03 320.597 244.945 328.518C252.859 336.439 247.056 432.023 247.056 432.023L206.429 435.192C206.429 435.192 199.039 369.186 194.823 367.598C190.606 366.01 192.711 431.497 189.544 434.136" stroke="white" stroke-width="2" stroke-miterlimit="10"/>
<path d="M331.833 371.993C331.833 371.993 345.901 418.462 339.573 426.208C333.245 433.954 286.109 429.728 286.109 429.728C286.109 429.728 279.075 336.083 286.109 324.111C302.993 324.111 390.226 345.235 399.371 338.19C408.516 331.144 419.066 424.089 399.371 425.496C379.675 426.902 396.841 410.191 415.693 430.872C415.693 387.479 409.921 320.585 409.921 320.585C409.921 320.585 358.369 341.709 290.931 313.545C286.103 262.85 282.979 249.471 282.979 249.471C282.979 249.471 289.626 296.647 334.651 307.912C379.675 319.178 415.137 309.319 415.699 296.647C416.261 283.974 420.478 146.673 420.478 146.673C420.478 146.673 453.54 175.544 502.082 171.317C528.111 168.504 554.846 150.193 561.88 152.306C568.913 154.419 574.542 157.939 574.542 157.939C574.542 157.939 584.392 162.165 574.542 137.52C566.103 119.215 552.735 126.961 547.107 130.481C541.479 134.001 504.193 136.82 483.792 132.594C463.391 128.368 411.333 97.3902 407.816 103.023C404.299 108.656 400.077 131.894 408.522 131.894C416.967 131.894 409.927 98.0967 378.27 93.8705C346.613 89.6443 364.203 29.0959 368.419 35.4289C372.636 41.762 374.047 66.2877 367.014 62.8867C359.98 59.4858 371.936 26.2763 364.203 16.4173C356.47 6.55826 324.1 -8.22718 314.955 6.55826C299.476 8.67136 298.071 36.1291 304.405 52.3275C290.938 34.7225 300.182 69.226 307.216 68.5196C314.25 67.8131 311.439 62.8867 311.439 62.8867C311.439 62.8867 314.387 67.9694 320.677 71.5642C327.423 75.4215 338.017 77.5784 352.947 69.9262C381.793 55.1408 351.279 81.9859 338.698 82.2485C326.118 82.511 321.289 78.3786 317.067 74.8526C317.067 74.8526 321.989 92.4576 319.353 94.7458C316.717 97.0339 270.743 101.435 268.662 117.277C266.582 133.119 267.113 170.611 275.028 162.165C282.942 153.719 276.083 104.605 258.143 120.447C240.203 136.289 241.653 148.961 212.962 154.244C184.272 159.527 152.09 168.504 152.09 168.504C152.09 168.504 165.283 209.878 190.081 208.203C214.88 206.527 247.068 193.855 257.088 183.29" stroke="#FF0000" stroke-width="2" stroke-miterlimit="10"/>
<path d="M417.66 153.018C389.52 163.346 315.18 140.815 313.544 128.611C310.608 106.768 299.708 101.154 299.708 101.154C299.708 101.154 283.061 91.0633 296.897 108.9C289.863 98.5716 270.399 94.3455 290.937 110.075C277.001 100.216 265.264 100.685 282.592 114.064C269.93 104.442 261.017 109.368 267.351 114.064C273.685 118.759 286.577 129.318 287.283 132.137C287.989 134.957 326.911 179.076 378.976 191.748C431.04 204.42 460.58 176.256 456.364 180.482C452.147 184.709 428.223 430.885 428.223 430.885H494.355C494.355 430.885 501.389 348.061 510.534 355.101C519.678 362.14 490.132 428.515 502.094 430.885C514.057 433.254 560.487 438.887 561.892 424.808C563.298 410.729 580.888 307.225 524.607 312.151C468.326 317.077 439.486 313.558 452.147 305.812C464.809 298.066 542.197 308.625 553.453 305.105C564.709 301.585 565.415 172.03 555.565 179.776C545.714 187.522 547.825 230.515 557.676 231.197C567.527 231.878 590.039 236.811 589.333 224.132C588.971 217.568 578.939 149.73 573.092 164.415C573.092 164.415 573.386 212.398 579.951 217.324C586.516 222.25 595.43 227.414 591.913 232.109C588.396 236.805 562.836 272.946 553.922 269.195C546.282 265.975 558.813 204.758 564.166 174.062C565.821 164.553 564.297 154.763 559.762 146.241C553.11 133.732 540.642 117.94 519.678 116.402C495.286 114.614 474.422 124.617 470.2 122.035C465.977 119.453 458.588 92.8138 466.215 70.87C468.088 65.4748 466.683 85.6555 470.2 93.1639C473.717 100.672 476.065 98.0903 475.828 87.2935C475.591 76.4966 469.419 76.4966 466.446 88.4688C463.866 80.1352 453.547 58.1915 468.557 51.6208C473.248 49.7453 479.813 49.7453 479.813 49.7453C479.813 49.7453 487.784 42.4682 498.809 42.2369C509.834 42.0056 535.388 57.4913 527.886 85.1866C520.384 112.882 507.017 121.328 489.427 113.82" stroke="white" stroke-width="2" stroke-miterlimit="10"/>
</g>
<defs>
<clipPath id="clip0_111_6825">
<rect width="593" height="441" fill="white"/>
</clipPath>
</defs>
</svg>
