<svg width="434" height="351" viewBox="0 0 434 351" fill="none" xmlns="http://www.w3.org/2000/svg">
<path d="M14.26 308.54C14.26 309.1 14.26 309.54 14.2 310.32C14.06 312.66 12.62 314.28 9.54 314.28C6.68 314.28 5.16 312.6 5.08 309.92L5.06 309.16H7.26L7.3 309.92C7.4 311.8 8.26 312.6 9.74 312.6C11.2 312.6 11.92 311.68 12.04 310.18C12.06 309.76 12.06 309.28 12.06 308.64V300.2H14.26V308.54ZM26.8072 314H17.2672L17.2672 300.2H26.6072V301.94H19.4672V306.22H26.0472V307.96H19.4672L19.4672 312.24H26.8072V314ZM39.9394 308.66C39.9394 309.16 39.9394 309.56 39.8994 310.08C39.6994 312.38 38.1194 314.28 34.5194 314.28C30.9194 314.28 29.3394 312.38 29.1594 310.08C29.1194 309.56 29.1194 309.16 29.1194 308.66L29.1194 300.2H31.2994L31.2994 308.7C31.2994 309.12 31.2994 309.5 31.3394 309.82C31.4794 311.48 32.5394 312.6 34.5194 312.6C36.5194 312.6 37.5794 311.48 37.7194 309.82C37.7594 309.5 37.7594 309.12 37.7594 308.7V300.2H39.9394V308.66ZM45.2075 302.62C45.2675 304.2 45.2875 305.98 45.2875 307.4V314H43.0875V300.2H46.1875L52.3675 311.66C52.3275 310.1 52.3075 308.26 52.3075 306.84V300.2H54.4675L54.4875 314H51.3275L45.2075 302.62ZM67.3736 314H57.8336V300.2H67.1736V301.94H60.0336V306.22H66.6136V307.96H60.0336V312.24H67.3736V314ZM74.2458 299.92C77.3058 299.92 78.8058 301.72 79.0858 304.12H76.8058C76.6458 302.54 75.7258 301.6 74.1258 301.6C72.8258 301.6 71.8058 302.2 71.8058 303.5C71.8058 304.84 72.6258 305.46 74.7658 305.96C77.8058 306.66 79.2458 307.96 79.2458 310.26C79.2458 312.76 77.0258 314.28 74.3458 314.28C71.1858 314.28 69.1658 312.78 68.8858 310H71.1658C71.5258 311.7 72.7258 312.6 74.3458 312.6C75.7858 312.6 76.9258 311.82 76.9258 310.56C76.9258 309.12 76.0858 308.38 73.8458 307.86C71.2258 307.24 69.4858 306.26 69.4858 303.86C69.4858 301.42 71.6658 299.92 74.2458 299.92Z" fill="white"/>
<path d="M148.1 306.22H154.48V307.96H148.1V314H145.9V300.2H155.24V301.94H148.1V306.22ZM167.022 314H157.482V300.2H166.822V301.94H159.682V306.22H166.262V307.96H159.682V312.24H167.022V314ZM183.734 314H181.554V307.22C181.554 305.64 181.554 303.74 181.594 302.28C181.194 303.74 180.614 305.64 180.094 307.2L177.874 314H175.334L173.094 307.18C172.594 305.64 172.014 303.76 171.634 302.3C171.674 303.78 171.674 305.64 171.674 307.22V314H169.474V300.2H173.014L176.654 312.04L180.294 300.2H183.734V314ZM201.332 314H199.152V307.22C199.152 305.64 199.152 303.74 199.192 302.28C198.792 303.74 198.212 305.64 197.692 307.2L195.472 314H192.932L190.692 307.18C190.192 305.64 189.612 303.76 189.232 302.3C189.272 303.78 189.272 305.64 189.272 307.22V314H187.072V300.2H190.612L194.252 312.04L197.892 300.2H201.332V314ZM214.21 314H204.67V300.2H214.01V301.94H206.87V306.22H213.45V307.96H206.87V312.24H214.21V314ZM221.082 299.92C224.142 299.92 225.642 301.72 225.922 304.12H223.642C223.482 302.54 222.562 301.6 220.962 301.6C219.662 301.6 218.642 302.2 218.642 303.5C218.642 304.84 219.462 305.46 221.602 305.96C224.642 306.66 226.082 307.96 226.082 310.26C226.082 312.76 223.862 314.28 221.182 314.28C218.022 314.28 216.002 312.78 215.722 310H218.002C218.362 311.7 219.562 312.6 221.182 312.6C222.622 312.6 223.762 311.82 223.762 310.56C223.762 309.12 222.922 308.38 220.682 307.86C218.062 307.24 216.322 306.26 216.322 303.86C216.322 301.42 218.502 299.92 221.082 299.92Z" fill="white"/>
<path d="M287.36 314H285.18V308.12H278.1V314H275.9V300.2H278.1V306.34H285.18V300.2H287.36V314ZM296.445 299.92C300.665 299.92 303.085 302.82 303.085 307.1C303.085 311.36 300.665 314.28 296.445 314.28C292.205 314.28 289.785 311.36 289.785 307.1C289.785 302.82 292.205 299.92 296.445 299.92ZM292.145 307.1C292.145 310.52 293.745 312.6 296.445 312.6C299.125 312.6 300.725 310.52 300.725 307.1C300.725 303.66 299.125 301.6 296.445 301.6C293.745 301.6 292.145 303.66 292.145 307.1ZM319.965 314H317.785V307.22C317.785 305.64 317.785 303.74 317.825 302.28C317.425 303.74 316.845 305.64 316.325 307.2L314.105 314H311.565L309.325 307.18C308.825 305.64 308.245 303.76 307.865 302.3C307.905 303.78 307.905 305.64 307.905 307.22V314H305.705V300.2H309.245L312.885 312.04L316.525 300.2H319.965V314ZM337.562 314H335.382V307.22C335.382 305.64 335.382 303.74 335.422 302.28C335.022 303.74 334.442 305.64 333.922 307.2L331.702 314H329.162L326.922 307.18C326.422 305.64 325.842 303.76 325.462 302.3C325.502 303.78 325.502 305.64 325.502 307.22V314H323.302V300.2H326.842L330.482 312.04L334.122 300.2H337.562V314ZM350.44 314H340.9V300.2H350.24V301.94H343.1V306.22H349.68V307.96H343.1V312.24H350.44V314ZM357.312 299.92C360.372 299.92 361.872 301.72 362.152 304.12H359.872C359.712 302.54 358.792 301.6 357.192 301.6C355.892 301.6 354.872 302.2 354.872 303.5C354.872 304.84 355.692 305.46 357.832 305.96C360.872 306.66 362.312 307.96 362.312 310.26C362.312 312.76 360.092 314.28 357.412 314.28C354.252 314.28 352.232 312.78 351.952 310H354.232C354.592 311.7 355.792 312.6 357.412 312.6C358.852 312.6 359.992 311.82 359.992 310.56C359.992 309.12 359.152 308.38 356.912 307.86C354.292 307.24 352.552 306.26 352.552 303.86C352.552 301.42 354.732 299.92 357.312 299.92Z" fill="white"/>
<path d="M28.64 39.48V43H9.4V40.76L19.04 31.04C22.52 27.6 24.04 25.6 24.04 22.96C24.04 20.28 22.52 18.16 19.52 18.16C16.36 18.16 14.8 20.16 14.44 23.8L14.4 24.2H10L10.04 23.8C10.6 17.96 14.16 14.8 20 14.8C25.84 14.8 28.8 18.2 28.8 22.56C28.8 26.2 26.88 28.76 22.04 33.48L15.96 39.48H28.64ZM50.2634 36.24V43H45.9034V36.24H32.3834V33.96L45.7434 15.4H50.2634V32.72H53.7434V36.24H50.2634ZM37.5434 32.72H45.9034V20.76C45.3034 21.8 44.6634 22.88 43.8234 24L37.5434 32.72ZM62.6469 14.96C66.3269 14.96 68.6869 17.4 68.6869 21.4C68.6869 25.4 66.3269 27.88 62.6469 27.88C58.9269 27.88 56.6069 25.4 56.6069 21.4C56.6069 17.4 58.9269 14.96 62.6469 14.96ZM59.2469 43L77.1669 15.4H81.0069L63.0869 43H59.2469ZM60.2069 21.4C60.2069 23.88 61.1269 25.24 62.6469 25.24C64.1269 25.24 65.0869 23.88 65.0869 21.4C65.0869 18.92 64.1269 17.6 62.6469 17.6C61.1269 17.6 60.2069 18.92 60.2069 21.4ZM71.4469 37.08C71.4469 33.08 73.8069 30.64 77.4869 30.64C81.2069 30.64 83.5269 33.08 83.5269 37.08C83.5269 41.08 81.2069 43.56 77.4869 43.56C73.8069 43.56 71.4469 41.08 71.4469 37.08ZM75.0469 37.08C75.0469 39.56 76.0069 40.92 77.4869 40.92C79.0069 40.92 79.9269 39.56 79.9269 37.08C79.9269 34.6 79.0069 33.28 77.4869 33.28C76.0069 33.28 75.0469 34.6 75.0469 37.08Z" fill="white"/>
<path d="M163.28 97H158.88V74L151.08 78.48V74.16L157.16 70.44C158.44 69.68 159.6 69.4 160.84 69.4H163.28V97ZM186.943 82.4C189.823 83.32 192.223 85.8 192.223 89.24C192.223 95.28 187.263 97.6 182.023 97.6C176.383 97.6 171.863 95.28 171.863 89.24C171.863 85.8 174.383 83.32 177.303 82.4C174.863 81.48 173.103 79.44 173.103 76.36C173.103 71.8 176.623 68.84 182.303 68.84C188.023 68.84 191.503 71.8 191.503 76.36C191.503 79.48 189.463 81.52 186.943 82.4ZM176.583 89.28C176.583 92.2 178.463 94.24 182.103 94.24C185.783 94.24 187.463 92.2 187.463 89.28C187.463 86.6 185.863 84.32 182.063 84.32C178.343 84.32 176.583 86.56 176.583 89.28ZM177.703 76.52C177.703 79.12 179.263 80.96 182.263 80.96C185.263 80.96 186.903 79.12 186.903 76.52C186.903 74.08 185.343 72.2 182.303 72.2C179.303 72.2 177.703 74.08 177.703 76.52ZM201.647 68.96C205.327 68.96 207.687 71.4 207.687 75.4C207.687 79.4 205.327 81.88 201.647 81.88C197.927 81.88 195.607 79.4 195.607 75.4C195.607 71.4 197.927 68.96 201.647 68.96ZM198.247 97L216.167 69.4H220.007L202.087 97H198.247ZM199.207 75.4C199.207 77.88 200.127 79.24 201.647 79.24C203.127 79.24 204.087 77.88 204.087 75.4C204.087 72.92 203.127 71.6 201.647 71.6C200.127 71.6 199.207 72.92 199.207 75.4ZM210.447 91.08C210.447 87.08 212.807 84.64 216.487 84.64C220.207 84.64 222.527 87.08 222.527 91.08C222.527 95.08 220.207 97.56 216.487 97.56C212.807 97.56 210.447 95.08 210.447 91.08ZM214.047 91.08C214.047 93.56 215.007 94.92 216.487 94.92C218.007 94.92 218.927 93.56 218.927 91.08C218.927 88.6 218.007 87.28 216.487 87.28C215.007 87.28 214.047 88.6 214.047 91.08Z" fill="white"/>
<path d="M300.28 131H295.88V108L288.08 112.48V108.16L294.16 104.44C295.44 103.68 296.6 103.4 297.84 103.4H300.28V131ZM320.023 112.64C326.023 112.64 329.223 116.52 329.223 121.96C329.223 128.12 324.343 131.56 319.063 131.56C313.263 131.56 309.903 128.92 309.343 123.56L309.303 123.16H313.703L313.743 123.56C314.303 126.4 315.863 128.2 318.943 128.2C322.343 128.2 324.463 125.92 324.463 122.16C324.463 118.44 322.463 116 319.063 116C316.703 116 315.063 117 313.863 119.56H309.743L311.703 103.4H328.063V106.88H315.263L314.143 115.64L315.703 113.76C316.983 113 318.383 112.64 320.023 112.64ZM338.647 102.96C342.327 102.96 344.687 105.4 344.687 109.4C344.687 113.4 342.327 115.88 338.647 115.88C334.927 115.88 332.607 113.4 332.607 109.4C332.607 105.4 334.927 102.96 338.647 102.96ZM335.247 131L353.167 103.4H357.007L339.087 131H335.247ZM336.207 109.4C336.207 111.88 337.127 113.24 338.647 113.24C340.127 113.24 341.087 111.88 341.087 109.4C341.087 106.92 340.127 105.6 338.647 105.6C337.127 105.6 336.207 106.92 336.207 109.4ZM347.447 125.08C347.447 121.08 349.807 118.64 353.487 118.64C357.207 118.64 359.527 121.08 359.527 125.08C359.527 129.08 357.207 131.56 353.487 131.56C349.807 131.56 347.447 129.08 347.447 125.08ZM351.047 125.08C351.047 127.56 352.007 128.92 353.487 128.92C355.007 128.92 355.927 127.56 355.927 125.08C355.927 122.6 355.007 121.28 353.487 121.28C352.007 121.28 351.047 122.6 351.047 125.08Z" fill="white"/>
<rect x="90" y="58" width="229" height="90" transform="rotate(90 90 58)" fill="#FF1313"/>
<rect x="231" y="115" width="170.25" height="90" transform="rotate(90 231 115)" fill="#F39E1D"/>
<rect x="363" y="155" width="132.417" height="90" transform="rotate(90 363 155)" fill="#00558B"/>
</svg>
