<svg width="434" height="355" viewBox="0 0 434 355" fill="none" xmlns="http://www.w3.org/2000/svg">
<path d="M14.26 312.54C14.26 313.1 14.26 313.54 14.2 314.32C14.06 316.66 12.62 318.28 9.54 318.28C6.68 318.28 5.16 316.6 5.08 313.92L5.06 313.16H7.26L7.3 313.92C7.4 315.8 8.26 316.6 9.74 316.6C11.2 316.6 11.92 315.68 12.04 314.18C12.06 313.76 12.06 313.28 12.06 312.64V304.2H14.26V312.54ZM26.8072 318H17.2672L17.2672 304.2H26.6072V305.94H19.4672V310.22H26.0472V311.96H19.4672L19.4672 316.24H26.8072V318ZM39.9394 312.66C39.9394 313.16 39.9394 313.56 39.8994 314.08C39.6994 316.38 38.1194 318.28 34.5194 318.28C30.9194 318.28 29.3394 316.38 29.1594 314.08C29.1194 313.56 29.1194 313.16 29.1194 312.66L29.1194 304.2H31.2994L31.2994 312.7C31.2994 313.12 31.2994 313.5 31.3394 313.82C31.4794 315.48 32.5394 316.6 34.5194 316.6C36.5194 316.6 37.5794 315.48 37.7194 313.82C37.7594 313.5 37.7594 313.12 37.7594 312.7V304.2H39.9394V312.66ZM45.2075 306.62C45.2675 308.2 45.2875 309.98 45.2875 311.4V318H43.0875V304.2H46.1875L52.3675 315.66C52.3275 314.1 52.3075 312.26 52.3075 310.84V304.2H54.4675L54.4875 318H51.3275L45.2075 306.62ZM67.3736 318H57.8336V304.2H67.1736V305.94H60.0336V310.22H66.6136V311.96H60.0336V316.24H67.3736V318ZM74.2458 303.92C77.3058 303.92 78.8058 305.72 79.0858 308.12H76.8058C76.6458 306.54 75.7258 305.6 74.1258 305.6C72.8258 305.6 71.8058 306.2 71.8058 307.5C71.8058 308.84 72.6258 309.46 74.7658 309.96C77.8058 310.66 79.2458 311.96 79.2458 314.26C79.2458 316.76 77.0258 318.28 74.3458 318.28C71.1858 318.28 69.1658 316.78 68.8858 314H71.1658C71.5258 315.7 72.7258 316.6 74.3458 316.6C75.7858 316.6 76.9258 315.82 76.9258 314.56C76.9258 313.12 76.0858 312.38 73.8458 311.86C71.2258 311.24 69.4858 310.26 69.4858 307.86C69.4858 305.42 71.6658 303.92 74.2458 303.92Z" fill="white"/>
<path d="M148.1 310.22H154.48V311.96H148.1V318H145.9V304.2H155.24V305.94H148.1V310.22ZM167.022 318H157.482V304.2H166.822V305.94H159.682V310.22H166.262V311.96H159.682V316.24H167.022V318ZM183.734 318H181.554V311.22C181.554 309.64 181.554 307.74 181.594 306.28C181.194 307.74 180.614 309.64 180.094 311.2L177.874 318H175.334L173.094 311.18C172.594 309.64 172.014 307.76 171.634 306.3C171.674 307.78 171.674 309.64 171.674 311.22V318H169.474V304.2H173.014L176.654 316.04L180.294 304.2H183.734V318ZM201.332 318H199.152V311.22C199.152 309.64 199.152 307.74 199.192 306.28C198.792 307.74 198.212 309.64 197.692 311.2L195.472 318H192.932L190.692 311.18C190.192 309.64 189.612 307.76 189.232 306.3C189.272 307.78 189.272 309.64 189.272 311.22V318H187.072V304.2H190.612L194.252 316.04L197.892 304.2H201.332V318ZM214.21 318H204.67V304.2H214.01V305.94H206.87V310.22H213.45V311.96H206.87V316.24H214.21V318ZM221.082 303.92C224.142 303.92 225.642 305.72 225.922 308.12H223.642C223.482 306.54 222.562 305.6 220.962 305.6C219.662 305.6 218.642 306.2 218.642 307.5C218.642 308.84 219.462 309.46 221.602 309.96C224.642 310.66 226.082 311.96 226.082 314.26C226.082 316.76 223.862 318.28 221.182 318.28C218.022 318.28 216.002 316.78 215.722 314H218.002C218.362 315.7 219.562 316.6 221.182 316.6C222.622 316.6 223.762 315.82 223.762 314.56C223.762 313.12 222.922 312.38 220.682 311.86C218.062 311.24 216.322 310.26 216.322 307.86C216.322 305.42 218.502 303.92 221.082 303.92Z" fill="white"/>
<path d="M287.36 318H285.18V312.12H278.1V318H275.9V304.2H278.1V310.34H285.18V304.2H287.36V318ZM296.445 303.92C300.665 303.92 303.085 306.82 303.085 311.1C303.085 315.36 300.665 318.28 296.445 318.28C292.205 318.28 289.785 315.36 289.785 311.1C289.785 306.82 292.205 303.92 296.445 303.92ZM292.145 311.1C292.145 314.52 293.745 316.6 296.445 316.6C299.125 316.6 300.725 314.52 300.725 311.1C300.725 307.66 299.125 305.6 296.445 305.6C293.745 305.6 292.145 307.66 292.145 311.1ZM319.965 318H317.785V311.22C317.785 309.64 317.785 307.74 317.825 306.28C317.425 307.74 316.845 309.64 316.325 311.2L314.105 318H311.565L309.325 311.18C308.825 309.64 308.245 307.76 307.865 306.3C307.905 307.78 307.905 309.64 307.905 311.22V318H305.705V304.2H309.245L312.885 316.04L316.525 304.2H319.965V318ZM337.562 318H335.382V311.22C335.382 309.64 335.382 307.74 335.422 306.28C335.022 307.74 334.442 309.64 333.922 311.2L331.702 318H329.162L326.922 311.18C326.422 309.64 325.842 307.76 325.462 306.3C325.502 307.78 325.502 309.64 325.502 311.22V318H323.302V304.2H326.842L330.482 316.04L334.122 304.2H337.562V318ZM350.44 318H340.9V304.2H350.24V305.94H343.1V310.22H349.68V311.96H343.1V316.24H350.44V318ZM357.312 303.92C360.372 303.92 361.872 305.72 362.152 308.12H359.872C359.712 306.54 358.792 305.6 357.192 305.6C355.892 305.6 354.872 306.2 354.872 307.5C354.872 308.84 355.692 309.46 357.832 309.96C360.872 310.66 362.312 311.96 362.312 314.26C362.312 316.76 360.092 318.28 357.412 318.28C354.252 318.28 352.232 316.78 351.952 314H354.232C354.592 315.7 355.792 316.6 357.412 316.6C358.852 316.6 359.992 315.82 359.992 314.56C359.992 313.12 359.152 312.38 356.912 311.86C354.292 311.24 352.552 310.26 352.552 307.86C352.552 305.42 354.732 303.92 357.312 303.92Z" fill="white"/>
<path d="M28.64 39.48V43H9.4V40.76L19.04 31.04C22.52 27.6 24.04 25.6 24.04 22.96C24.04 20.28 22.52 18.16 19.52 18.16C16.36 18.16 14.8 20.16 14.44 23.8L14.4 24.2H10L10.04 23.8C10.6 17.96 14.16 14.8 20 14.8C25.84 14.8 28.8 18.2 28.8 22.56C28.8 26.2 26.88 28.76 22.04 33.48L15.96 39.48H28.64ZM50.2634 36.24V43H45.9034V36.24H32.3834V33.96L45.7434 15.4H50.2634V32.72H53.7434V36.24H50.2634ZM37.5434 32.72H45.9034V20.76C45.3034 21.8 44.6634 22.88 43.8234 24L37.5434 32.72ZM62.6469 14.96C66.3269 14.96 68.6869 17.4 68.6869 21.4C68.6869 25.4 66.3269 27.88 62.6469 27.88C58.9269 27.88 56.6069 25.4 56.6069 21.4C56.6069 17.4 58.9269 14.96 62.6469 14.96ZM59.2469 43L77.1669 15.4H81.0069L63.0869 43H59.2469ZM60.2069 21.4C60.2069 23.88 61.1269 25.24 62.6469 25.24C64.1269 25.24 65.0869 23.88 65.0869 21.4C65.0869 18.92 64.1269 17.6 62.6469 17.6C61.1269 17.6 60.2069 18.92 60.2069 21.4ZM71.4469 37.08C71.4469 33.08 73.8069 30.64 77.4869 30.64C81.2069 30.64 83.5269 33.08 83.5269 37.08C83.5269 41.08 81.2069 43.56 77.4869 43.56C73.8069 43.56 71.4469 41.08 71.4469 37.08ZM75.0469 37.08C75.0469 39.56 76.0069 40.92 77.4869 40.92C79.0069 40.92 79.9269 39.56 79.9269 37.08C79.9269 34.6 79.0069 33.28 77.4869 33.28C76.0069 33.28 75.0469 34.6 75.0469 37.08Z" fill="white"/>
<path d="M167.64 78.48V82H148.4V79.76L158.04 70.04C161.52 66.6 163.04 64.6 163.04 61.96C163.04 59.28 161.52 57.16 158.52 57.16C155.36 57.16 153.8 59.16 153.44 62.8L153.4 63.2H149L149.04 62.8C149.6 56.96 153.16 53.8 159 53.8C164.84 53.8 167.8 57.2 167.8 61.56C167.8 65.2 165.88 67.76 161.04 72.48L154.96 78.48H167.64ZM182.023 53.84C189.743 53.84 192.343 59.84 192.343 68.2C192.343 76.48 189.743 82.56 182.023 82.56C174.343 82.56 171.703 76.48 171.703 68.2C171.703 59.84 174.343 53.84 182.023 53.84ZM176.463 68.2C176.463 75.28 178.103 79.2 182.023 79.2C185.983 79.2 187.583 75.28 187.583 68.2C187.583 61.04 185.983 57.2 182.023 57.2C178.103 57.2 176.463 61.04 176.463 68.2ZM201.647 53.96C205.327 53.96 207.687 56.4 207.687 60.4C207.687 64.4 205.327 66.88 201.647 66.88C197.927 66.88 195.607 64.4 195.607 60.4C195.607 56.4 197.927 53.96 201.647 53.96ZM198.247 82L216.167 54.4H220.007L202.087 82H198.247ZM199.207 60.4C199.207 62.88 200.127 64.24 201.647 64.24C203.127 64.24 204.087 62.88 204.087 60.4C204.087 57.92 203.127 56.6 201.647 56.6C200.127 56.6 199.207 57.92 199.207 60.4ZM210.447 76.08C210.447 72.08 212.807 69.64 216.487 69.64C220.207 69.64 222.527 72.08 222.527 76.08C222.527 80.08 220.207 82.56 216.487 82.56C212.807 82.56 210.447 80.08 210.447 76.08ZM214.047 76.08C214.047 78.56 215.007 79.92 216.487 79.92C218.007 79.92 218.927 78.56 218.927 76.08C218.927 73.6 218.007 72.28 216.487 72.28C215.007 72.28 214.047 73.6 214.047 76.08Z" fill="white"/>
<path d="M300.28 131H295.88V108L288.08 112.48V108.16L294.16 104.44C295.44 103.68 296.6 103.4 297.84 103.4H300.28V131ZM326.263 124.24V131H321.903V124.24H308.383V121.96L321.743 103.4H326.263V120.72H329.743V124.24H326.263ZM313.543 120.72H321.903V108.76C321.303 109.8 320.663 110.88 319.823 112L313.543 120.72ZM338.647 102.96C342.327 102.96 344.687 105.4 344.687 109.4C344.687 113.4 342.327 115.88 338.647 115.88C334.927 115.88 332.607 113.4 332.607 109.4C332.607 105.4 334.927 102.96 338.647 102.96ZM335.247 131L353.167 103.4H357.007L339.087 131H335.247ZM336.207 109.4C336.207 111.88 337.127 113.24 338.647 113.24C340.127 113.24 341.087 111.88 341.087 109.4C341.087 106.92 340.127 105.6 338.647 105.6C337.127 105.6 336.207 106.92 336.207 109.4ZM347.447 125.08C347.447 121.08 349.807 118.64 353.487 118.64C357.207 118.64 359.527 121.08 359.527 125.08C359.527 129.08 357.207 131.56 353.487 131.56C349.807 131.56 347.447 129.08 347.447 125.08ZM351.047 125.08C351.047 127.56 352.007 128.92 353.487 128.92C355.007 128.92 355.927 127.56 355.927 125.08C355.927 122.6 355.007 121.28 353.487 121.28C352.007 121.28 351.047 122.6 351.047 125.08Z" fill="white"/>
<rect x="90" y="58" width="229" height="90" transform="rotate(90 90 58)" fill="#FF1313"/>
<rect x="231" y="100" width="189.167" height="90" transform="rotate(90 231 100)" fill="#F39E1D"/>
<rect x="363" y="155" width="132.417" height="90" transform="rotate(90 363 155)" fill="#00558B"/>
</svg>
