<svg width="434" height="359" viewBox="0 0 434 359" fill="none" xmlns="http://www.w3.org/2000/svg">
<path d="M14.26 316.54C14.26 317.1 14.26 317.54 14.2 318.32C14.06 320.66 12.62 322.28 9.54 322.28C6.68 322.28 5.16 320.6 5.08 317.92L5.06 317.16H7.26L7.3 317.92C7.4 319.8 8.26 320.6 9.74 320.6C11.2 320.6 11.92 319.68 12.04 318.18C12.06 317.76 12.06 317.28 12.06 316.64V308.2H14.26V316.54ZM26.8072 322H17.2672L17.2672 308.2H26.6072V309.94H19.4672V314.22H26.0472V315.96H19.4672L19.4672 320.24H26.8072V322ZM39.9394 316.66C39.9394 317.16 39.9394 317.56 39.8994 318.08C39.6994 320.38 38.1194 322.28 34.5194 322.28C30.9194 322.28 29.3394 320.38 29.1594 318.08C29.1194 317.56 29.1194 317.16 29.1194 316.66L29.1194 308.2H31.2994L31.2994 316.7C31.2994 317.12 31.2994 317.5 31.3394 317.82C31.4794 319.48 32.5394 320.6 34.5194 320.6C36.5194 320.6 37.5794 319.48 37.7194 317.82C37.7594 317.5 37.7594 317.12 37.7594 316.7V308.2H39.9394V316.66ZM45.2075 310.62C45.2675 312.2 45.2875 313.98 45.2875 315.4V322H43.0875V308.2H46.1875L52.3675 319.66C52.3275 318.1 52.3075 316.26 52.3075 314.84V308.2H54.4675L54.4875 322H51.3275L45.2075 310.62ZM67.3736 322H57.8336V308.2H67.1736V309.94H60.0336V314.22H66.6136V315.96H60.0336V320.24H67.3736V322ZM74.2458 307.92C77.3058 307.92 78.8058 309.72 79.0858 312.12H76.8058C76.6458 310.54 75.7258 309.6 74.1258 309.6C72.8258 309.6 71.8058 310.2 71.8058 311.5C71.8058 312.84 72.6258 313.46 74.7658 313.96C77.8058 314.66 79.2458 315.96 79.2458 318.26C79.2458 320.76 77.0258 322.28 74.3458 322.28C71.1858 322.28 69.1658 320.78 68.8858 318H71.1658C71.5258 319.7 72.7258 320.6 74.3458 320.6C75.7858 320.6 76.9258 319.82 76.9258 318.56C76.9258 317.12 76.0858 316.38 73.8458 315.86C71.2258 315.24 69.4858 314.26 69.4858 311.86C69.4858 309.42 71.6658 307.92 74.2458 307.92Z" fill="white"/>
<path d="M148.1 314.22H154.48V315.96H148.1V322H145.9V308.2H155.24V309.94H148.1V314.22ZM167.022 322H157.482V308.2H166.822V309.94H159.682V314.22H166.262V315.96H159.682V320.24H167.022V322ZM183.734 322H181.554V315.22C181.554 313.64 181.554 311.74 181.594 310.28C181.194 311.74 180.614 313.64 180.094 315.2L177.874 322H175.334L173.094 315.18C172.594 313.64 172.014 311.76 171.634 310.3C171.674 311.78 171.674 313.64 171.674 315.22V322H169.474V308.2H173.014L176.654 320.04L180.294 308.2H183.734V322ZM201.332 322H199.152V315.22C199.152 313.64 199.152 311.74 199.192 310.28C198.792 311.74 198.212 313.64 197.692 315.2L195.472 322H192.932L190.692 315.18C190.192 313.64 189.612 311.76 189.232 310.3C189.272 311.78 189.272 313.64 189.272 315.22V322H187.072V308.2H190.612L194.252 320.04L197.892 308.2H201.332V322ZM214.21 322H204.67V308.2H214.01V309.94H206.87V314.22H213.45V315.96H206.87V320.24H214.21V322ZM221.082 307.92C224.142 307.92 225.642 309.72 225.922 312.12H223.642C223.482 310.54 222.562 309.6 220.962 309.6C219.662 309.6 218.642 310.2 218.642 311.5C218.642 312.84 219.462 313.46 221.602 313.96C224.642 314.66 226.082 315.96 226.082 318.26C226.082 320.76 223.862 322.28 221.182 322.28C218.022 322.28 216.002 320.78 215.722 318H218.002C218.362 319.7 219.562 320.6 221.182 320.6C222.622 320.6 223.762 319.82 223.762 318.56C223.762 317.12 222.922 316.38 220.682 315.86C218.062 315.24 216.322 314.26 216.322 311.86C216.322 309.42 218.502 307.92 221.082 307.92Z" fill="white"/>
<path d="M287.36 322H285.18V316.12H278.1V322H275.9V308.2H278.1V314.34H285.18V308.2H287.36V322ZM296.445 307.92C300.665 307.92 303.085 310.82 303.085 315.1C303.085 319.36 300.665 322.28 296.445 322.28C292.205 322.28 289.785 319.36 289.785 315.1C289.785 310.82 292.205 307.92 296.445 307.92ZM292.145 315.1C292.145 318.52 293.745 320.6 296.445 320.6C299.125 320.6 300.725 318.52 300.725 315.1C300.725 311.66 299.125 309.6 296.445 309.6C293.745 309.6 292.145 311.66 292.145 315.1ZM319.965 322H317.785V315.22C317.785 313.64 317.785 311.74 317.825 310.28C317.425 311.74 316.845 313.64 316.325 315.2L314.105 322H311.565L309.325 315.18C308.825 313.64 308.245 311.76 307.865 310.3C307.905 311.78 307.905 313.64 307.905 315.22V322H305.705V308.2H309.245L312.885 320.04L316.525 308.2H319.965V322ZM337.562 322H335.382V315.22C335.382 313.64 335.382 311.74 335.422 310.28C335.022 311.74 334.442 313.64 333.922 315.2L331.702 322H329.162L326.922 315.18C326.422 313.64 325.842 311.76 325.462 310.3C325.502 311.78 325.502 313.64 325.502 315.22V322H323.302V308.2H326.842L330.482 320.04L334.122 308.2H337.562V322ZM350.44 322H340.9V308.2H350.24V309.94H343.1V314.22H349.68V315.96H343.1V320.24H350.44V322ZM357.312 307.92C360.372 307.92 361.872 309.72 362.152 312.12H359.872C359.712 310.54 358.792 309.6 357.192 309.6C355.892 309.6 354.872 310.2 354.872 311.5C354.872 312.84 355.692 313.46 357.832 313.96C360.872 314.66 362.312 315.96 362.312 318.26C362.312 320.76 360.092 322.28 357.412 322.28C354.252 322.28 352.232 320.78 351.952 318H354.232C354.592 319.7 355.792 320.6 357.412 320.6C358.852 320.6 359.992 319.82 359.992 318.56C359.992 317.12 359.152 316.38 356.912 315.86C354.292 315.24 352.552 314.26 352.552 311.86C352.552 309.42 354.732 307.92 357.312 307.92Z" fill="white"/>
<path d="M24.44 28.36C28 29.24 30.08 31.56 30.08 35.2C30.08 40.36 25.52 43.56 19.76 43.56C14.08 43.56 10.32 40.92 9.72 35.08L9.68 34.68H14.08L14.12 35.08C14.52 38.48 16.84 40.2 19.96 40.2C23.12 40.2 25.32 38.36 25.32 35.4C25.32 32.36 23.36 30.68 19.28 30.64H18.48V27.4L19.28 27.36C22.4 27.32 24.68 25.52 24.68 22.44C24.68 19.92 22.96 18.2 20.28 18.2C17.56 18.2 15.56 19.96 15.24 23.12L15.2 23.52H10.84L10.88 23.12C11.36 18.2 14.8 14.84 20.76 14.84C26.28 14.84 29.44 17.84 29.44 21.92C29.44 25.12 27.56 27.48 24.44 28.36ZM49.3034 43H44.9034V20L37.1034 24.48V20.16L43.1834 16.44C44.4634 15.68 45.6234 15.4 46.8634 15.4H49.3034V43ZM63.6469 14.96C67.3269 14.96 69.6869 17.4 69.6869 21.4C69.6869 25.4 67.3269 27.88 63.6469 27.88C59.9269 27.88 57.6069 25.4 57.6069 21.4C57.6069 17.4 59.9269 14.96 63.6469 14.96ZM60.2469 43L78.1669 15.4H82.0069L64.0869 43H60.2469ZM61.2069 21.4C61.2069 23.88 62.1269 25.24 63.6469 25.24C65.1269 25.24 66.0869 23.88 66.0869 21.4C66.0869 18.92 65.1269 17.6 63.6469 17.6C62.1269 17.6 61.2069 18.92 61.2069 21.4ZM72.4469 37.08C72.4469 33.08 74.8069 30.64 78.4869 30.64C82.2069 30.64 84.5269 33.08 84.5269 37.08C84.5269 41.08 82.2069 43.56 78.4869 43.56C74.8069 43.56 72.4469 41.08 72.4469 37.08ZM76.0469 37.08C76.0469 39.56 77.0069 40.92 78.4869 40.92C80.0069 40.92 80.9269 39.56 80.9269 37.08C80.9269 34.6 80.0069 33.28 78.4869 33.28C77.0069 33.28 76.0469 34.6 76.0469 37.08Z" fill="white"/>
<path d="M160.44 28.36C164 29.24 166.08 31.56 166.08 35.2C166.08 40.36 161.52 43.56 155.76 43.56C150.08 43.56 146.32 40.92 145.72 35.08L145.68 34.68H150.08L150.12 35.08C150.52 38.48 152.84 40.2 155.96 40.2C159.12 40.2 161.32 38.36 161.32 35.4C161.32 32.36 159.36 30.68 155.28 30.64H154.48V27.4L155.28 27.36C158.4 27.32 160.68 25.52 160.68 22.44C160.68 19.92 158.96 18.2 156.28 18.2C153.56 18.2 151.56 19.96 151.24 23.12L151.2 23.52H146.84L146.88 23.12C147.36 18.2 150.8 14.84 156.76 14.84C162.28 14.84 165.44 17.84 165.44 21.92C165.44 25.12 163.56 27.48 160.44 28.36ZM185.303 43H180.903V20L173.103 24.48V20.16L179.183 16.44C180.463 15.68 181.623 15.4 182.863 15.4H185.303V43ZM199.647 14.96C203.327 14.96 205.687 17.4 205.687 21.4C205.687 25.4 203.327 27.88 199.647 27.88C195.927 27.88 193.607 25.4 193.607 21.4C193.607 17.4 195.927 14.96 199.647 14.96ZM196.247 43L214.167 15.4H218.007L200.087 43H196.247ZM197.207 21.4C197.207 23.88 198.127 25.24 199.647 25.24C201.127 25.24 202.087 23.88 202.087 21.4C202.087 18.92 201.127 17.6 199.647 17.6C198.127 17.6 197.207 18.92 197.207 21.4ZM208.447 37.08C208.447 33.08 210.807 30.64 214.487 30.64C218.207 30.64 220.527 33.08 220.527 37.08C220.527 41.08 218.207 43.56 214.487 43.56C210.807 43.56 208.447 41.08 208.447 37.08ZM212.047 37.08C212.047 39.56 213.007 40.92 214.487 40.92C216.007 40.92 216.927 39.56 216.927 37.08C216.927 34.6 216.007 33.28 214.487 33.28C213.007 33.28 212.047 34.6 212.047 37.08Z" fill="white"/>
<path d="M295.28 163H290.88V140L283.08 144.48V140.16L289.16 136.44C290.44 135.68 291.6 135.4 292.84 135.4H295.28V163ZM314.983 144.4C320.863 144.4 324.103 148.32 324.103 153.6C324.103 159.72 319.623 163.56 313.983 163.56C307.503 163.56 303.863 159.56 303.863 150.32C303.863 139.6 308.783 134.84 314.863 134.84C319.943 134.84 323.263 137.8 323.783 142.4L323.823 142.8H319.263L319.183 142.4C318.543 139.6 317.063 138.2 314.543 138.2C311.103 138.2 308.783 141.08 308.503 148.56L309.983 146.08C311.463 144.84 312.983 144.4 314.983 144.4ZM308.743 154.04C308.743 157.56 310.783 160.2 313.983 160.2C317.183 160.2 319.343 157.68 319.343 154.12C319.343 150.56 317.703 147.76 313.943 147.76C311.143 147.76 308.743 149.92 308.743 154.04ZM333.647 134.96C337.327 134.96 339.687 137.4 339.687 141.4C339.687 145.4 337.327 147.88 333.647 147.88C329.927 147.88 327.607 145.4 327.607 141.4C327.607 137.4 329.927 134.96 333.647 134.96ZM330.247 163L348.167 135.4H352.007L334.087 163H330.247ZM331.207 141.4C331.207 143.88 332.127 145.24 333.647 145.24C335.127 145.24 336.087 143.88 336.087 141.4C336.087 138.92 335.127 137.6 333.647 137.6C332.127 137.6 331.207 138.92 331.207 141.4ZM342.447 157.08C342.447 153.08 344.807 150.64 348.487 150.64C352.207 150.64 354.527 153.08 354.527 157.08C354.527 161.08 352.207 163.56 348.487 163.56C344.807 163.56 342.447 161.08 342.447 157.08ZM346.047 157.08C346.047 159.56 347.007 160.92 348.487 160.92C350.007 160.92 350.927 159.56 350.927 157.08C350.927 154.6 350.007 153.28 348.487 153.28C347.007 153.28 346.047 154.6 346.047 157.08Z" fill="white"/>
<rect x="90" y="62" width="229" height="90" transform="rotate(90 90 62)" fill="#FF1313"/>
<rect x="231" y="62" width="231" height="90" transform="rotate(90 231 62)" fill="#F39E1D"/>
<rect x="363" y="184" width="109" height="90" transform="rotate(90 363 184)" fill="#00558B"/>
</svg>
