<svg width="434" height="359" viewBox="0 0 434 359" fill="none" xmlns="http://www.w3.org/2000/svg">
<path d="M14.26 316.54C14.26 317.1 14.26 317.54 14.2 318.32C14.06 320.66 12.62 322.28 9.54 322.28C6.68 322.28 5.16 320.6 5.08 317.92L5.06 317.16H7.26L7.3 317.92C7.4 319.8 8.26 320.6 9.74 320.6C11.2 320.6 11.92 319.68 12.04 318.18C12.06 317.76 12.06 317.28 12.06 316.64V308.2H14.26V316.54ZM26.8072 322H17.2672L17.2672 308.2H26.6072V309.94H19.4672V314.22H26.0472V315.96H19.4672L19.4672 320.24H26.8072V322ZM39.9394 316.66C39.9394 317.16 39.9394 317.56 39.8994 318.08C39.6994 320.38 38.1194 322.28 34.5194 322.28C30.9194 322.28 29.3394 320.38 29.1594 318.08C29.1194 317.56 29.1194 317.16 29.1194 316.66L29.1194 308.2H31.2994L31.2994 316.7C31.2994 317.12 31.2994 317.5 31.3394 317.82C31.4794 319.48 32.5394 320.6 34.5194 320.6C36.5194 320.6 37.5794 319.48 37.7194 317.82C37.7594 317.5 37.7594 317.12 37.7594 316.7V308.2H39.9394V316.66ZM45.2075 310.62C45.2675 312.2 45.2875 313.98 45.2875 315.4V322H43.0875V308.2H46.1875L52.3675 319.66C52.3275 318.1 52.3075 316.26 52.3075 314.84V308.2H54.4675L54.4875 322H51.3275L45.2075 310.62ZM67.3736 322H57.8336V308.2H67.1736V309.94H60.0336V314.22H66.6136V315.96H60.0336V320.24H67.3736V322ZM74.2458 307.92C77.3058 307.92 78.8058 309.72 79.0858 312.12H76.8058C76.6458 310.54 75.7258 309.6 74.1258 309.6C72.8258 309.6 71.8058 310.2 71.8058 311.5C71.8058 312.84 72.6258 313.46 74.7658 313.96C77.8058 314.66 79.2458 315.96 79.2458 318.26C79.2458 320.76 77.0258 322.28 74.3458 322.28C71.1858 322.28 69.1658 320.78 68.8858 318H71.1658C71.5258 319.7 72.7258 320.6 74.3458 320.6C75.7858 320.6 76.9258 319.82 76.9258 318.56C76.9258 317.12 76.0858 316.38 73.8458 315.86C71.2258 315.24 69.4858 314.26 69.4858 311.86C69.4858 309.42 71.6658 307.92 74.2458 307.92Z" fill="white"/>
<path d="M148.1 314.22H154.48V315.96H148.1V322H145.9V308.2H155.24V309.94H148.1V314.22ZM167.022 322H157.482V308.2H166.822V309.94H159.682V314.22H166.262V315.96H159.682V320.24H167.022V322ZM183.734 322H181.554V315.22C181.554 313.64 181.554 311.74 181.594 310.28C181.194 311.74 180.614 313.64 180.094 315.2L177.874 322H175.334L173.094 315.18C172.594 313.64 172.014 311.76 171.634 310.3C171.674 311.78 171.674 313.64 171.674 315.22V322H169.474V308.2H173.014L176.654 320.04L180.294 308.2H183.734V322ZM201.332 322H199.152V315.22C199.152 313.64 199.152 311.74 199.192 310.28C198.792 311.74 198.212 313.64 197.692 315.2L195.472 322H192.932L190.692 315.18C190.192 313.64 189.612 311.76 189.232 310.3C189.272 311.78 189.272 313.64 189.272 315.22V322H187.072V308.2H190.612L194.252 320.04L197.892 308.2H201.332V322ZM214.21 322H204.67V308.2H214.01V309.94H206.87V314.22H213.45V315.96H206.87V320.24H214.21V322ZM221.082 307.92C224.142 307.92 225.642 309.72 225.922 312.12H223.642C223.482 310.54 222.562 309.6 220.962 309.6C219.662 309.6 218.642 310.2 218.642 311.5C218.642 312.84 219.462 313.46 221.602 313.96C224.642 314.66 226.082 315.96 226.082 318.26C226.082 320.76 223.862 322.28 221.182 322.28C218.022 322.28 216.002 320.78 215.722 318H218.002C218.362 319.7 219.562 320.6 221.182 320.6C222.622 320.6 223.762 319.82 223.762 318.56C223.762 317.12 222.922 316.38 220.682 315.86C218.062 315.24 216.322 314.26 216.322 311.86C216.322 309.42 218.502 307.92 221.082 307.92Z" fill="white"/>
<path d="M287.36 322H285.18V316.12H278.1V322H275.9V308.2H278.1V314.34H285.18V308.2H287.36V322ZM296.445 307.92C300.665 307.92 303.085 310.82 303.085 315.1C303.085 319.36 300.665 322.28 296.445 322.28C292.205 322.28 289.785 319.36 289.785 315.1C289.785 310.82 292.205 307.92 296.445 307.92ZM292.145 315.1C292.145 318.52 293.745 320.6 296.445 320.6C299.125 320.6 300.725 318.52 300.725 315.1C300.725 311.66 299.125 309.6 296.445 309.6C293.745 309.6 292.145 311.66 292.145 315.1ZM319.965 322H317.785V315.22C317.785 313.64 317.785 311.74 317.825 310.28C317.425 311.74 316.845 313.64 316.325 315.2L314.105 322H311.565L309.325 315.18C308.825 313.64 308.245 311.76 307.865 310.3C307.905 311.78 307.905 313.64 307.905 315.22V322H305.705V308.2H309.245L312.885 320.04L316.525 308.2H319.965V322ZM337.562 322H335.382V315.22C335.382 313.64 335.382 311.74 335.422 310.28C335.022 311.74 334.442 313.64 333.922 315.2L331.702 322H329.162L326.922 315.18C326.422 313.64 325.842 311.76 325.462 310.3C325.502 311.78 325.502 313.64 325.502 315.22V322H323.302V308.2H326.842L330.482 320.04L334.122 308.2H337.562V322ZM350.44 322H340.9V308.2H350.24V309.94H343.1V314.22H349.68V315.96H343.1V320.24H350.44V322ZM357.312 307.92C360.372 307.92 361.872 309.72 362.152 312.12H359.872C359.712 310.54 358.792 309.6 357.192 309.6C355.892 309.6 354.872 310.2 354.872 311.5C354.872 312.84 355.692 313.46 357.832 313.96C360.872 314.66 362.312 315.96 362.312 318.26C362.312 320.76 360.092 322.28 357.412 322.28C354.252 322.28 352.232 320.78 351.952 318H354.232C354.592 319.7 355.792 320.6 357.412 320.6C358.852 320.6 359.992 319.82 359.992 318.56C359.992 317.12 359.152 316.38 356.912 315.86C354.292 315.24 352.552 314.26 352.552 311.86C352.552 309.42 354.732 307.92 357.312 307.92Z" fill="white"/>
<path d="M28.64 39.48V43H9.4V40.76L19.04 31.04C22.52 27.6 24.04 25.6 24.04 22.96C24.04 20.28 22.52 18.16 19.52 18.16C16.36 18.16 14.8 20.16 14.44 23.8L14.4 24.2H10L10.04 23.8C10.6 17.96 14.16 14.8 20 14.8C25.84 14.8 28.8 18.2 28.8 22.56C28.8 26.2 26.88 28.76 22.04 33.48L15.96 39.48H28.64ZM47.4634 28.36C51.0234 29.24 53.1034 31.56 53.1034 35.2C53.1034 40.36 48.5434 43.56 42.7834 43.56C37.1034 43.56 33.3434 40.92 32.7434 35.08L32.7034 34.68H37.1034L37.1434 35.08C37.5434 38.48 39.8634 40.2 42.9834 40.2C46.1434 40.2 48.3434 38.36 48.3434 35.4C48.3434 32.36 46.3834 30.68 42.3034 30.64H41.5034V27.4L42.3034 27.36C45.4234 27.32 47.7034 25.52 47.7034 22.44C47.7034 19.92 45.9834 18.2 43.3034 18.2C40.5834 18.2 38.5834 19.96 38.2634 23.12L38.2234 23.52H33.8634L33.9034 23.12C34.3834 18.2 37.8234 14.84 43.7834 14.84C49.3034 14.84 52.4634 17.84 52.4634 21.92C52.4634 25.12 50.5834 27.48 47.4634 28.36ZM62.6469 14.96C66.3269 14.96 68.6869 17.4 68.6869 21.4C68.6869 25.4 66.3269 27.88 62.6469 27.88C58.9269 27.88 56.6069 25.4 56.6069 21.4C56.6069 17.4 58.9269 14.96 62.6469 14.96ZM59.2469 43L77.1669 15.4H81.0069L63.0869 43H59.2469ZM60.2069 21.4C60.2069 23.88 61.1269 25.24 62.6469 25.24C64.1269 25.24 65.0869 23.88 65.0869 21.4C65.0869 18.92 64.1269 17.6 62.6469 17.6C61.1269 17.6 60.2069 18.92 60.2069 21.4ZM71.4469 37.08C71.4469 33.08 73.8069 30.64 77.4869 30.64C81.2069 30.64 83.5269 33.08 83.5269 37.08C83.5269 41.08 81.2069 43.56 77.4869 43.56C73.8069 43.56 71.4469 41.08 71.4469 37.08ZM75.0469 37.08C75.0469 39.56 76.0069 40.92 77.4869 40.92C79.0069 40.92 79.9269 39.56 79.9269 37.08C79.9269 34.6 79.0069 33.28 77.4869 33.28C76.0069 33.28 75.0469 34.6 75.0469 37.08Z" fill="white"/>
<path d="M167.64 44.48V48H148.4V45.76L158.04 36.04C161.52 32.6 163.04 30.6 163.04 27.96C163.04 25.28 161.52 23.16 158.52 23.16C155.36 23.16 153.8 25.16 153.44 28.8L153.4 29.2H149L149.04 28.8C149.6 22.96 153.16 19.8 159 19.8C164.84 19.8 167.8 23.2 167.8 27.56C167.8 31.2 165.88 33.76 161.04 38.48L154.96 44.48H167.64ZM186.463 33.36C190.023 34.24 192.103 36.56 192.103 40.2C192.103 45.36 187.543 48.56 181.783 48.56C176.103 48.56 172.343 45.92 171.743 40.08L171.703 39.68H176.103L176.143 40.08C176.543 43.48 178.863 45.2 181.983 45.2C185.143 45.2 187.343 43.36 187.343 40.4C187.343 37.36 185.383 35.68 181.303 35.64H180.503V32.4L181.303 32.36C184.423 32.32 186.703 30.52 186.703 27.44C186.703 24.92 184.983 23.2 182.303 23.2C179.583 23.2 177.583 24.96 177.263 28.12L177.223 28.52H172.863L172.903 28.12C173.383 23.2 176.823 19.84 182.783 19.84C188.303 19.84 191.463 22.84 191.463 26.92C191.463 30.12 189.583 32.48 186.463 33.36ZM201.647 19.96C205.327 19.96 207.687 22.4 207.687 26.4C207.687 30.4 205.327 32.88 201.647 32.88C197.927 32.88 195.607 30.4 195.607 26.4C195.607 22.4 197.927 19.96 201.647 19.96ZM198.247 48L216.167 20.4H220.007L202.087 48H198.247ZM199.207 26.4C199.207 28.88 200.127 30.24 201.647 30.24C203.127 30.24 204.087 28.88 204.087 26.4C204.087 23.92 203.127 22.6 201.647 22.6C200.127 22.6 199.207 23.92 199.207 26.4ZM210.447 42.08C210.447 38.08 212.807 35.64 216.487 35.64C220.207 35.64 222.527 38.08 222.527 42.08C222.527 46.08 220.207 48.56 216.487 48.56C212.807 48.56 210.447 46.08 210.447 42.08ZM214.047 42.08C214.047 44.56 215.007 45.92 216.487 45.92C218.007 45.92 218.927 44.56 218.927 42.08C218.927 39.6 218.007 38.28 216.487 38.28C215.007 38.28 214.047 39.6 214.047 42.08Z" fill="white"/>
<path d="M300.28 129H295.88V106L288.08 110.48V106.16L294.16 102.44C295.44 101.68 296.6 101.4 297.84 101.4H300.28V129ZM326.263 122.24V129H321.903V122.24H308.383V119.96L321.743 101.4H326.263V118.72H329.743V122.24H326.263ZM313.543 118.72H321.903V106.76C321.303 107.8 320.663 108.88 319.823 110L313.543 118.72ZM338.647 100.96C342.327 100.96 344.687 103.4 344.687 107.4C344.687 111.4 342.327 113.88 338.647 113.88C334.927 113.88 332.607 111.4 332.607 107.4C332.607 103.4 334.927 100.96 338.647 100.96ZM335.247 129L353.167 101.4H357.007L339.087 129H335.247ZM336.207 107.4C336.207 109.88 337.127 111.24 338.647 111.24C340.127 111.24 341.087 109.88 341.087 107.4C341.087 104.92 340.127 103.6 338.647 103.6C337.127 103.6 336.207 104.92 336.207 107.4ZM347.447 123.08C347.447 119.08 349.807 116.64 353.487 116.64C357.207 116.64 359.527 119.08 359.527 123.08C359.527 127.08 357.207 129.56 353.487 129.56C349.807 129.56 347.447 127.08 347.447 123.08ZM351.047 123.08C351.047 125.56 352.007 126.92 353.487 126.92C355.007 126.92 355.927 125.56 355.927 123.08C355.927 120.6 355.007 119.28 353.487 119.28C352.007 119.28 351.047 120.6 351.047 123.08Z" fill="white"/>
<rect x="90" y="62" width="229" height="90" transform="rotate(90 90 62)" fill="#FF1313"/>
<rect x="231" y="66" width="227" height="90" transform="rotate(90 231 66)" fill="#F39E1D"/>
<rect x="363" y="155" width="138.174" height="90" transform="rotate(90 363 155)" fill="#00558B"/>
</svg>
