<svg id="Calque_2" xmlns="http://www.w3.org/2000/svg" viewBox="0 0 1802.37 898.86"><defs><style>.cls-4{fill:#fff;}</style></defs><g id="Calque_1-2"><path class="cls-4" d="m120.19,369.19c-.78,0-1.41-.63-1.41-1.41s.63-1.41,1.41-1.41,1.41.63,1.41,1.41-.63,1.41-1.41,1.41Z"/><path class="cls-4" d="m120.19,366.88c.5,0,.91.41.91.91s-.41.91-.91.91-.91-.41-.91-.91.41-.91.91-.91m0-1c-1.05,0-1.91.85-1.91,1.91s.85,1.91,1.91,1.91,1.91-.85,1.91-1.91-.85-1.91-1.91-1.91h0Z"/><circle class="cls-4" cx="347.77" cy="361.53" r="1.41"/><path class="cls-4" d="m347.77,360.62c.5,0,.91.41.91.91s-.41.91-.91.91-.91-.41-.91-.91.41-.91.91-.91m0-1c-1.05,0-1.91.85-1.91,1.91s.85,1.91,1.91,1.91,1.91-.85,1.91-1.91-.85-1.91-1.91-1.91h0Z"/><path class="cls-4" d="m659.01,720.14c-.77,0-1.41-.63-1.41-1.41s.63-1.41,1.41-1.41,1.41.63,1.41,1.41-.63,1.41-1.41,1.41Z"/><path class="cls-4" d="m659.01,717.83c.5,0,.91.41.91.91s-.41.91-.91.91-.91-.41-.91-.91.41-.91.91-.91m0-1c-1.05,0-1.91.85-1.91,1.91s.85,1.91,1.91,1.91,1.91-.85,1.91-1.91-.85-1.91-1.91-1.91h0Z"/><path class="cls-4" d="m729.49,639.1c-.77,0-1.41-.63-1.41-1.41s.63-1.41,1.41-1.41,1.41.63,1.41,1.41-.63,1.41-1.41,1.41Z"/><path class="cls-4" d="m729.49,636.79c.5,0,.91.41.91.91s-.41.91-.91.91-.91-.41-.91-.91.41-.91.91-.91m0-1c-1.05,0-1.91.85-1.91,1.91s.85,1.91,1.91,1.91,1.91-.85,1.91-1.91-.85-1.91-1.91-1.91h0Z"/><path class="cls-4" d="m790.04,489.45c-.77,0-1.41-.63-1.41-1.41s.63-1.41,1.41-1.41,1.41.63,1.41,1.41-.63,1.41-1.41,1.41Z"/><path class="cls-4" d="m790.04,487.14c.5,0,.91.41.91.91s-.41.91-.91.91-.91-.41-.91-.91.41-.91.91-.91m0-1c-1.05,0-1.91.85-1.91,1.91s.85,1.91,1.91,1.91,1.91-.85,1.91-1.91-.85-1.91-1.91-1.91h0Z"/><path class="cls-4" d="m1032.71,418.05c-.77,0-1.41-.63-1.41-1.41s.63-1.41,1.41-1.41,1.41.63,1.41,1.41-.63,1.41-1.41,1.41Z"/><path class="cls-4" d="m1032.72,415.74c.5,0,.91.41.91.91s-.41.91-.91.91-.91-.41-.91-.91.41-.91.91-.91m0-1c-1.05,0-1.91.85-1.91,1.91s.85,1.91,1.91,1.91,1.91-.85,1.91-1.91-.85-1.91-1.91-1.91h0Z"/><path class="cls-4" d="m969.32,454.84c-2.27,0-4.12-1.85-4.12-4.12s1.85-4.12,4.12-4.12,4.12,1.85,4.12,4.12-1.85,4.12-4.12,4.12Z"/><path class="cls-4" d="m969.32,447.1c2,0,3.62,1.62,3.62,3.62s-1.62,3.62-3.62,3.62-3.62-1.62-3.62-3.62,1.62-3.62,3.62-3.62m0-1c-2.55,0-4.62,2.07-4.62,4.62s2.07,4.62,4.62,4.62,4.62-2.07,4.62-4.62-2.07-4.62-4.62-4.62h0Z"/><circle class="cls-4" cx="929.37" cy="784.83" r="2.13"/><path class="cls-4" d="m929.37,783.2c.9,0,1.63.73,1.63,1.63s-.73,1.63-1.63,1.63-1.63-.73-1.63-1.63.73-1.63,1.63-1.63m0-1c-1.45,0-2.63,1.18-2.63,2.63s1.18,2.63,2.63,2.63,2.63-1.18,2.63-2.63-1.18-2.63-2.63-2.63h0Z"/><circle class="cls-4" cx="1506.79" cy="41.46" r="3.59"/><path class="cls-4" d="m1506.79,38.37c1.7,0,3.09,1.39,3.09,3.09s-1.39,3.09-3.09,3.09-3.09-1.39-3.09-3.09,1.39-3.09,3.09-3.09m0-1c-2.26,0-4.09,1.83-4.09,4.09s1.83,4.09,4.09,4.09,4.09-1.83,4.09-4.09-1.83-4.09-4.09-4.09h0Z"/><path class="cls-4" d="m623.93,817.08c-.77,0-1.41-.63-1.41-1.41s.63-1.41,1.41-1.41,1.41.63,1.41,1.41-.63,1.41-1.41,1.41Z"/><path class="cls-4" d="m623.93,814.77c.5,0,.91.41.91.91s-.41.91-.91.91-.91-.41-.91-.91.41-.91.91-.91m0-1c-1.05,0-1.91.85-1.91,1.91s.85,1.91,1.91,1.91,1.91-.85,1.91-1.91-.85-1.91-1.91-1.91h0Z"/><path class="cls-4" d="m642.99,872.73c-.77,0-1.41-.63-1.41-1.41s.63-1.41,1.41-1.41,1.41.63,1.41,1.41-.63,1.41-1.41,1.41Z"/><path class="cls-4" d="m642.99,870.42c.5,0,.91.41.91.91s-.41.91-.91.91-.91-.41-.91-.91.41-.91.91-.91m0-1c-1.05,0-1.91.85-1.91,1.91s.85,1.91,1.91,1.91,1.91-.85,1.91-1.91-.85-1.91-1.91-1.91h0Z"/><path class="cls-4" d="m758.34,718.86c-.77,0-1.41-.63-1.41-1.41s.63-1.41,1.41-1.41,1.41.63,1.41,1.41-.63,1.41-1.41,1.41Z"/><path class="cls-4" d="m758.34,716.55c.5,0,.91.41.91.91s-.41.91-.91.91-.91-.41-.91-.91.41-.91.91-.91m0-1c-1.05,0-1.91.85-1.91,1.91s.85,1.91,1.91,1.91,1.91-.85,1.91-1.91-.85-1.91-1.91-1.91h0Z"/><path class="cls-4" d="m699.22,858.13c-.77,0-1.41-.63-1.41-1.41s.63-1.41,1.41-1.41,1.41.63,1.41,1.41-.63,1.41-1.41,1.41Z"/><path class="cls-4" d="m699.22,855.82c.5,0,.91.41.91.91s-.41.91-.91.91-.91-.41-.91-.91.41-.91.91-.91m0-1c-1.05,0-1.91.85-1.91,1.91s.85,1.91,1.91,1.91,1.91-.85,1.91-1.91-.85-1.91-1.91-1.91h0Z"/><path class="cls-4" d="m1615.63,278.6c-.78,0-1.41-.63-1.41-1.41s.63-1.41,1.41-1.41,1.41.63,1.41,1.41-.63,1.41-1.41,1.41Z"/><path class="cls-4" d="m1615.63,276.28c.5,0,.91.41.91.91s-.41.91-.91.91-.91-.41-.91-.91.41-.91.91-.91m0-1c-1.05,0-1.91.85-1.91,1.91s.85,1.91,1.91,1.91,1.91-.85,1.91-1.91-.85-1.91-1.91-1.91h0Z"/><path class="cls-4" d="m1598.09,426.3c-.77,0-1.41-.63-1.41-1.41s.63-1.41,1.41-1.41,1.41.63,1.41,1.41-.63,1.41-1.41,1.41Z"/><path class="cls-4" d="m1598.09,423.99c.5,0,.91.41.91.91s-.41.91-.91.91-.91-.41-.91-.91.41-.91.91-.91m0-1c-1.05,0-1.91.85-1.91,1.91s.85,1.91,1.91,1.91,1.91-.85,1.91-1.91-.85-1.91-1.91-1.91h0Z"/><path class="cls-4" d="m1408.8,852.77c-.78,0-1.41-.63-1.41-1.41s.63-1.41,1.41-1.41,1.41.63,1.41,1.41-.63,1.41-1.41,1.41Z"/><path class="cls-4" d="m1408.8,850.46c.5,0,.91.41.91.91s-.41.91-.91.91-.91-.41-.91-.91.41-.91.91-.91m0-1c-1.05,0-1.91.85-1.91,1.91s.85,1.91,1.91,1.91,1.91-.85,1.91-1.91-.85-1.91-1.91-1.91h0Z"/><path class="cls-4" d="m965.09,154.96c-.78,0-1.41-.63-1.41-1.41s.63-1.41,1.41-1.41,1.41.63,1.41,1.41-.63,1.41-1.41,1.41Z"/><path class="cls-4" d="m965.09,152.65c.5,0,.91.41.91.91s-.41.91-.91.91-.91-.41-.91-.91.41-.91.91-.91m0-1c-1.05,0-1.91.85-1.91,1.91s.85,1.91,1.91,1.91,1.91-.85,1.91-1.91-.85-1.91-1.91-1.91h0Z"/><path class="cls-4" d="m1005.49,154.96c-.78,0-1.41-.63-1.41-1.41s.63-1.41,1.41-1.41,1.41.63,1.41,1.41-.63,1.41-1.41,1.41Z"/><path class="cls-4" d="m1005.49,152.65c.5,0,.91.41.91.91s-.41.91-.91.91-.91-.41-.91-.91.41-.91.91-.91m0-1c-1.05,0-1.91.85-1.91,1.91s.85,1.91,1.91,1.91,1.91-.85,1.91-1.91-.85-1.91-1.91-1.91h0Z"/><path class="cls-4" d="m1800.46,291.31c-.77,0-1.41-.63-1.41-1.41s.63-1.41,1.41-1.41,1.41.63,1.41,1.41-.63,1.41-1.41,1.41Z"/><path class="cls-4" d="m1800.46,289c.5,0,.91.41.91.91s-.41.91-.91.91-.91-.41-.91-.91.41-.91.91-.91m0-1c-1.05,0-1.91.85-1.91,1.91s.85,1.91,1.91,1.91,1.91-.85,1.91-1.91-.85-1.91-1.91-1.91h0Z"/><path class="cls-4" d="m1176.53,4.18c-.77,0-1.41-.63-1.41-1.41s.63-1.41,1.41-1.41,1.41.63,1.41,1.41-.63,1.41-1.41,1.41Z"/><path class="cls-4" d="m1176.53,1.87c.5,0,.91.41.91.91s-.41.91-.91.91-.91-.41-.91-.91.41-.91.91-.91m0-1c-1.05,0-1.91.85-1.91,1.91s.85,1.91,1.91,1.91,1.91-.85,1.91-1.91-.85-1.91-1.91-1.91h0Z"/><path class="cls-4" d="m1216.93,4.18c-.78,0-1.41-.63-1.41-1.41s.63-1.41,1.41-1.41,1.41.63,1.41,1.41-.63,1.41-1.41,1.41Z"/><path class="cls-4" d="m1216.93,1.87c.5,0,.91.41.91.91s-.41.91-.91.91-.91-.41-.91-.91.41-.91.91-.91m0-1c-1.05,0-1.91.85-1.91,1.91s.85,1.91,1.91,1.91,1.91-.85,1.91-1.91-.85-1.91-1.91-1.91h0Z"/><path class="cls-4" d="m1405.98,113.19c-.78,0-1.41-.63-1.41-1.41s.63-1.41,1.41-1.41,1.41.63,1.41,1.41-.63,1.41-1.41,1.41Z"/><path class="cls-4" d="m1405.98,110.88c.5,0,.91.41.91.91s-.41.91-.91.91-.91-.41-.91-.91.41-.91.91-.91m0-1c-1.05,0-1.91.85-1.91,1.91s.85,1.91,1.91,1.91,1.91-.85,1.91-1.91-.85-1.91-1.91-1.91h0Z"/><path class="cls-4" d="m1567.16,136.59c-.78,0-1.41-.63-1.41-1.41s.63-1.41,1.41-1.41,1.41.63,1.41,1.41-.63,1.41-1.41,1.41Z"/><path class="cls-4" d="m1567.16,134.27c.5,0,.91.41.91.91s-.41.91-.91.91-.91-.41-.91-.91.41-.91.91-.91m0-1c-1.05,0-1.91.85-1.91,1.91s.85,1.91,1.91,1.91,1.91-.85,1.91-1.91-.85-1.91-1.91-1.91h0Z"/><path class="cls-4" d="m1527.9,210.53c-.78,0-1.41-.63-1.41-1.41s.63-1.41,1.41-1.41,1.41.63,1.41,1.41-.63,1.41-1.41,1.41Z"/><path class="cls-4" d="m1527.9,208.22c.5,0,.91.41.91.91s-.41.91-.91.91-.91-.41-.91-.91.41-.91.91-.91m0-1c-1.05,0-1.91.85-1.91,1.91s.85,1.91,1.91,1.91,1.91-.85,1.91-1.91-.85-1.91-1.91-1.91h0Z"/><path class="cls-4" d="m1596.4,304.2c-.77,0-1.41-.63-1.41-1.41s.63-1.41,1.41-1.41,1.41.63,1.41,1.41-.63,1.41-1.41,1.41Z"/><path class="cls-4" d="m1596.4,301.89c.5,0,.91.41.91.91s-.41.91-.91.91-.91-.41-.91-.91.41-.91.91-.91m0-1c-1.05,0-1.91.85-1.91,1.91s.85,1.91,1.91,1.91,1.91-.85,1.91-1.91-.85-1.91-1.91-1.91h0Z"/><path class="cls-4" d="m1636.8,304.2c-.77,0-1.41-.63-1.41-1.41s.63-1.41,1.41-1.41,1.41.63,1.41,1.41-.63,1.41-1.41,1.41Z"/><path class="cls-4" d="m1636.8,301.89c.5,0,.91.41.91.91s-.41.91-.91.91-.91-.41-.91-.91.41-.91.91-.91m0-1c-1.05,0-1.91.85-1.91,1.91s.85,1.91,1.91,1.91,1.91-.85,1.91-1.91-.85-1.91-1.91-1.91h0Z"/><path class="cls-4" d="m1467.19,280.39c-.77,0-1.41-.63-1.41-1.41s.63-1.41,1.41-1.41,1.41.63,1.41,1.41-.63,1.41-1.41,1.41Z"/><path class="cls-4" d="m1467.19,278.07c.5,0,.91.41.91.91s-.41.91-.91.91-.91-.41-.91-.91.41-.91.91-.91m0-1c-1.05,0-1.91.85-1.91,1.91s.85,1.91,1.91,1.91,1.91-.85,1.91-1.91-.85-1.91-1.91-1.91h0Z"/><circle class="cls-4" cx="488.48" cy="129.29" r="1.41"/><path class="cls-4" d="m488.48,128.38c.5,0,.91.41.91.91s-.41.91-.91.91-.91-.41-.91-.91.41-.91.91-.91m0-1c-1.05,0-1.91.85-1.91,1.91s.85,1.91,1.91,1.91,1.91-.85,1.91-1.91-.85-1.91-1.91-1.91h0Z"/><path class="cls-4" d="m525.51,617.55c-.77,0-1.41-.63-1.41-1.41s.63-1.41,1.41-1.41,1.41.63,1.41,1.41-.63,1.41-1.41,1.41Z"/><path class="cls-4" d="m525.51,615.24c.5,0,.91.41.91.91s-.41.91-.91.91-.91-.41-.91-.91.41-.91.91-.91m0-1c-1.05,0-1.91.85-1.91,1.91s.85,1.91,1.91,1.91,1.91-.85,1.91-1.91-.85-1.91-1.91-1.91h0Z"/><circle class="cls-4" cx="799.07" cy="100.47" r="1.41"/><path class="cls-4" d="m799.07,99.56c.5,0,.91.41.91.91s-.41.91-.91.91-.91-.41-.91-.91.41-.91.91-.91m0-1c-1.05,0-1.91.85-1.91,1.91s.85,1.91,1.91,1.91,1.91-.85,1.91-1.91-.85-1.91-1.91-1.91h0Z"/><circle class="cls-4" cx="750.28" cy="325.73" r="1.41"/><path class="cls-4" d="m750.28,324.83c.5,0,.91.41.91.91s-.41.91-.91.91-.91-.41-.91-.91.41-.91.91-.91m0-1c-1.05,0-1.91.85-1.91,1.91s.85,1.91,1.91,1.91,1.91-.85,1.91-1.91-.85-1.91-1.91-1.91h0Z"/><circle class="cls-4" cx="861.1" cy="1.91" r="1.41"/><path class="cls-4" d="m861.1,1c.5,0,.91.41.91.91s-.41.91-.91.91-.91-.41-.91-.91.41-.91.91-.91m0-1c-1.05,0-1.91.85-1.91,1.91s.85,1.91,1.91,1.91,1.91-.85,1.91-1.91-.85-1.91-1.91-1.91h0Z"/><circle class="cls-4" cx="880.16" cy="57.55" r="1.41"/><path class="cls-4" d="m880.16,56.65c.5,0,.91.41.91.91s-.41.91-.91.91-.91-.41-.91-.91.41-.91.91-.91m0-1c-1.05,0-1.91.85-1.91,1.91s.85,1.91,1.91,1.91,1.91-.85,1.91-1.91-.85-1.91-1.91-1.91h0Z"/><path class="cls-4" d="m1090.56,112.32c-.78,0-1.41-.63-1.41-1.41s.63-1.41,1.41-1.41,1.41.63,1.41,1.41-.63,1.41-1.41,1.41Z"/><path class="cls-4" d="m1090.56,110.01c.5,0,.91.41.91.91s-.41.91-.91.91-.91-.41-.91-.91.41-.91.91-.91m0-1c-1.05,0-1.91.85-1.91,1.91s.85,1.91,1.91,1.91,1.91-.85,1.91-1.91-.85-1.91-1.91-1.91h0Z"/><path class="cls-4" d="m1051.3,186.27c-.77,0-1.41-.63-1.41-1.41s.63-1.41,1.41-1.41,1.41.63,1.41,1.41-.63,1.41-1.41,1.41Z"/><path class="cls-4" d="m1051.3,183.95c.5,0,.91.41.91.91s-.41.91-.91.91-.91-.41-.91-.91.41-.91.91-.91m0-1c-1.05,0-1.91.85-1.91,1.91s.85,1.91,1.91,1.91,1.91-.85,1.91-1.91-.85-1.91-1.91-1.91h0Z"/><circle class="cls-4" cx="770.27" cy="370.59" r="1.41"/><path class="cls-4" d="m770.27,369.68c.5,0,.91.41.91.91s-.41.91-.91.91-.91-.41-.91-.91.41-.91.91-.91m0-1c-1.05,0-1.91.85-1.91,1.91s.85,1.91,1.91,1.91,1.91-.85,1.91-1.91-.85-1.91-1.91-1.91h0Z"/><circle class="cls-4" cx="80.75" cy="242.92" r="1.41"/><path class="cls-4" d="m80.75,242.01c.5,0,.91.41.91.91s-.41.91-.91.91-.91-.41-.91-.91.41-.91.91-.91m0-1c-1.05,0-1.91.85-1.91,1.91s.85,1.91,1.91,1.91,1.91-.85,1.91-1.91-.85-1.91-1.91-1.91h0Z"/><circle class="cls-4" cx="275.99" cy="392.55" r="1.41"/><path class="cls-4" d="m275.99,391.64c.5,0,.91.41.91.91s-.41.91-.91.91-.91-.41-.91-.91.41-.91.91-.91m0-1c-1.05,0-1.91.85-1.91,1.91s.85,1.91,1.91,1.91,1.91-.85,1.91-1.91-.85-1.91-1.91-1.91h0Z"/><circle class="cls-4" cx="363.8" cy="105.63" r="1.41"/><path class="cls-4" d="m363.8,104.72c.5,0,.91.41.91.91s-.41.91-.91.91-.91-.41-.91-.91.41-.91.91-.91m0-1c-1.05,0-1.91.85-1.91,1.91s.85,1.91,1.91,1.91,1.91-.85,1.91-1.91-.85-1.91-1.91-1.91h0Z"/><circle class="cls-4" cx="82.06" cy="214.21" r="1.41"/><path class="cls-4" d="m82.06,213.31c.5,0,.91.41.91.91s-.41.91-.91.91-.91-.41-.91-.91.41-.91.91-.91m0-1c-1.05,0-1.91.85-1.91,1.91s.85,1.91,1.91,1.91,1.91-.85,1.91-1.91-.85-1.91-1.91-1.91h0Z"/><circle class="cls-4" cx="372.73" cy="466.16" r="1.41"/><path class="cls-4" d="m372.73,465.25c.5,0,.91.41.91.91s-.41.91-.91.91-.91-.41-.91-.91.41-.91.91-.91m0-1c-1.05,0-1.91.85-1.91,1.91s.85,1.91,1.91,1.91,1.91-.85,1.91-1.91-.85-1.91-1.91-1.91h0Z"/><path class="cls-4" d="m1.91,547.98c-.77,0-1.41-.63-1.41-1.41s.63-1.41,1.41-1.41,1.41.63,1.41,1.41-.63,1.41-1.41,1.41Z"/><path class="cls-4" d="m1.91,545.66c.5,0,.91.41.91.91s-.41.91-.91.91-.91-.41-.91-.91.41-.91.91-.91m0-1c-1.05,0-1.91.85-1.91,1.91s.85,1.91,1.91,1.91,1.91-.85,1.91-1.91-.85-1.91-1.91-1.91h0Z"/><path class="cls-4" d="m52.87,789.35c-.77,0-1.41-.63-1.41-1.41s.63-1.41,1.41-1.41,1.41.63,1.41,1.41-.63,1.41-1.41,1.41Z"/><path class="cls-4" d="m52.87,787.04c.5,0,.91.41.91.91s-.41.91-.91.91-.91-.41-.91-.91.41-.91.91-.91m0-1c-1.05,0-1.91.85-1.91,1.91s.85,1.91,1.91,1.91,1.91-.85,1.91-1.91-.85-1.91-1.91-1.91h0Z"/><circle class="cls-4" cx="282.33" cy="896.96" r="1.41"/><path class="cls-4" d="m282.33,896.05c.5,0,.91.41.91.91s-.41.91-.91.91-.91-.41-.91-.91.41-.91.91-.91m0-1c-1.05,0-1.91.85-1.91,1.91s.85,1.91,1.91,1.91,1.91-.85,1.91-1.91-.85-1.91-1.91-1.91h0Z"/><path class="cls-4" d="m203.75,788.22c-.77,0-1.41-.63-1.41-1.41s.63-1.41,1.41-1.41,1.41.63,1.41,1.41-.63,1.41-1.41,1.41Z"/><path class="cls-4" d="m203.76,785.91c.5,0,.91.41.91.91s-.41.91-.91.91-.91-.41-.91-.91.41-.91.91-.91m0-1c-1.05,0-1.91.85-1.91,1.91s.85,1.91,1.91,1.91,1.91-.85,1.91-1.91-.85-1.91-1.91-1.91h0Z"/></g></svg>