<svg id="Calque_2" xmlns="http://www.w3.org/2000/svg" viewBox="0 0 1802.64 940.7"><defs><style>.cls-2{fill:#fff;}</style></defs><g id="Calque_4"><circle class="cls-2" cx="337.15" cy="417.18" r="1.41"/><path class="cls-2" d="m337.15,416.27c.5,0,.91.41.91.91s-.41.91-.91.91-.91-.41-.91-.91.41-.91.91-.91m0-1c-1.05,0-1.91.85-1.91,1.91s.85,1.91,1.91,1.91,1.91-.85,1.91-1.91-.85-1.91-1.91-1.91h0Z"/><circle class="cls-2" cx="513.49" cy="344.31" r="1.41"/><path class="cls-2" d="m513.49,343.4c.5,0,.91.41.91.91s-.41.91-.91.91-.91-.41-.91-.91.41-.91.91-.91m0-1c-1.05,0-1.91.85-1.91,1.91s.85,1.91,1.91,1.91,1.91-.85,1.91-1.91-.85-1.91-1.91-1.91h0Z"/><circle class="cls-2" cx="503.53" cy="240.4" r="1.41"/><path class="cls-2" d="m503.53,239.49c.5,0,.91.41.91.91s-.41.91-.91.91-.91-.41-.91-.91.41-.91.91-.91m0-1c-1.05,0-1.91.85-1.91,1.91s.85,1.91,1.91,1.91,1.91-.85,1.91-1.91-.85-1.91-1.91-1.91h0Z"/><path class="cls-2" d="m297.12,847.52c-.77,0-1.41-.63-1.41-1.41s.63-1.41,1.41-1.41,1.41.63,1.41,1.41-.63,1.41-1.41,1.41Z"/><path class="cls-2" d="m297.12,845.21c.5,0,.91.41.91.91s-.41.91-.91.91-.91-.41-.91-.91.41-.91.91-.91m0-1c-1.05,0-1.91.85-1.91,1.91s.85,1.91,1.91,1.91,1.91-.85,1.91-1.91-.85-1.91-1.91-1.91h0Z"/><path class="cls-2" d="m497.56,796.98c-.77,0-1.41-.63-1.41-1.41s.63-1.41,1.41-1.41,1.41.63,1.41,1.41-.63,1.41-1.41,1.41Z"/><path class="cls-2" d="m497.56,794.66c.5,0,.91.41.91.91s-.41.91-.91.91-.91-.41-.91-.91.41-.91.91-.91m0-1c-1.05,0-1.91.85-1.91,1.91s.85,1.91,1.91,1.91,1.91-.85,1.91-1.91-.85-1.91-1.91-1.91h0Z"/><path class="cls-2" d="m458.3,870.92c-.77,0-1.41-.63-1.41-1.41s.63-1.41,1.41-1.41,1.41.63,1.41,1.41-.63,1.41-1.41,1.41Z"/><path class="cls-2" d="m458.3,868.61c.5,0,.91.41.91.91s-.41.91-.91.91-.91-.41-.91-.91.41-.91.91-.91m0-1c-1.05,0-1.91.85-1.91,1.91s.85,1.91,1.91,1.91,1.91-.85,1.91-1.91-.85-1.91-1.91-1.91h0Z"/><circle class="cls-2" cx="613.96" cy="437.56" r="1.41"/><path class="cls-2" d="m613.96,436.65c.5,0,.91.41.91.91s-.41.91-.91.91-.91-.41-.91-.91.41-.91.91-.91m0-1c-1.05,0-1.91.85-1.91,1.91s.85,1.91,1.91,1.91,1.91-.85,1.91-1.91-.85-1.91-1.91-1.91h0Z"/><path class="cls-2" d="m841.17,489.45c-.77,0-1.41-.63-1.41-1.41s.63-1.41,1.41-1.41,1.41.63,1.41,1.41-.63,1.41-1.41,1.41Z"/><path class="cls-2" d="m841.17,487.14c.5,0,.91.41.91.91s-.41.91-.91.91-.91-.41-.91-.91.41-.91.91-.91m0-1c-1.05,0-1.91.85-1.91,1.91s.85,1.91,1.91,1.91,1.91-.85,1.91-1.91-.85-1.91-1.91-1.91h0Z"/><path class="cls-2" d="m901.39,662.49c-.77,0-1.41-.63-1.41-1.41s.63-1.41,1.41-1.41,1.41.63,1.41,1.41-.63,1.41-1.41,1.41Z"/><path class="cls-2" d="m901.39,660.18c.5,0,.91.41.91.91s-.41.91-.91.91-.91-.41-.91-.91.41-.91.91-.91m0-1c-1.05,0-1.91.85-1.91,1.91s.85,1.91,1.91,1.91,1.91-.85,1.91-1.91-.85-1.91-1.91-1.91h0Z"/><circle class="cls-2" cx="1593.41" cy="898.55" r="4.12"/><path class="cls-2" d="m1593.41,894.93c2,0,3.62,1.62,3.62,3.62s-1.62,3.62-3.62,3.62-3.62-1.62-3.62-3.62,1.62-3.62,3.62-3.62m0-1c-2.55,0-4.62,2.07-4.62,4.62s2.07,4.62,4.62,4.62,4.62-2.07,4.62-4.62-2.07-4.62-4.62-4.62h0Z"/><path class="cls-2" d="m675.06,817.08c-.77,0-1.41-.63-1.41-1.41s.63-1.41,1.41-1.41,1.41.63,1.41,1.41-.63,1.41-1.41,1.41Z"/><path class="cls-2" d="m675.06,814.77c.5,0,.91.41.91.91s-.41.91-.91.91-.91-.41-.91-.91.41-.91.91-.91m0-1c-1.05,0-1.91.85-1.91,1.91s.85,1.91,1.91,1.91,1.91-.85,1.91-1.91-.85-1.91-1.91-1.91h0Z"/><path class="cls-2" d="m1400.2,621.69c-.78,0-1.41-.63-1.41-1.41s.63-1.41,1.41-1.41,1.41.63,1.41,1.41-.63,1.41-1.41,1.41Z"/><path class="cls-2" d="m1400.2,619.38c.5,0,.91.41.91.91s-.41.91-.91.91-.91-.41-.91-.91.41-.91.91-.91m0-1c-1.05,0-1.91.85-1.91,1.91s.85,1.91,1.91,1.91,1.91-.85,1.91-1.91-.85-1.91-1.91-1.91h0Z"/><circle class="cls-2" cx="211.43" cy="689.96" r="3.59"/><path class="cls-2" d="m211.42,686.87c1.7,0,3.09,1.39,3.09,3.09s-1.39,3.09-3.09,3.09-3.09-1.39-3.09-3.09,1.39-3.09,3.09-3.09m0-1c-2.26,0-4.09,1.83-4.09,4.09s1.83,4.09,4.09,4.09,4.09-1.83,4.09-4.09-1.83-4.09-4.09-4.09h0Z"/><path class="cls-2" d="m1297.85,219.95c-.77,0-1.41-.63-1.41-1.41s.63-1.41,1.41-1.41,1.41.63,1.41,1.41-.63,1.41-1.41,1.41Z"/><path class="cls-2" d="m1297.85,217.64c.5,0,.91.41.91.91s-.41.91-.91.91-.91-.41-.91-.91.41-.91.91-.91m0-1c-1.05,0-1.91.85-1.91,1.91s.85,1.91,1.91,1.91,1.91-.85,1.91-1.91-.85-1.91-1.91-1.91h0Z"/><path class="cls-2" d="m1486.9,328.96c-.78,0-1.41-.63-1.41-1.41s.63-1.41,1.41-1.41,1.41.63,1.41,1.41-.63,1.41-1.41,1.41Z"/><path class="cls-2" d="m1486.9,326.65c.5,0,.91.41.91.91s-.41.91-.91.91-.91-.41-.91-.91.41-.91.91-.91m0-1c-1.05,0-1.91.85-1.91,1.91s.85,1.91,1.91,1.91,1.91-.85,1.91-1.91-.85-1.91-1.91-1.91h0Z"/><path class="cls-2" d="m1418.62,243.35c-.77,0-1.41-.63-1.41-1.41s.63-1.41,1.41-1.41,1.41.63,1.41,1.41-.63,1.41-1.41,1.41Z"/><path class="cls-2" d="m1418.62,241.04c.5,0,.91.41.91.91s-.41.91-.91.91-.91-.41-.91-.91.41-.91.91-.91m0-1c-1.05,0-1.91.85-1.91,1.91s.85,1.91,1.91,1.91,1.91-.85,1.91-1.91-.85-1.91-1.91-1.91h0Z"/><path class="cls-2" d="m1568.04,191.13c-.77,0-1.41-.63-1.41-1.41s.63-1.41,1.41-1.41,1.41.63,1.41,1.41-.63,1.41-1.41,1.41Z"/><path class="cls-2" d="m1568.04,188.82c.5,0,.91.41.91.91s-.41.91-.91.91-.91-.41-.91-.91.41-.91.91-.91m0-1c-1.05,0-1.91.85-1.91,1.91s.85,1.91,1.91,1.91,1.91-.85,1.91-1.91-.85-1.91-1.91-1.91h0Z"/><path class="cls-2" d="m1391.66,767.16c-.78,0-1.41-.63-1.41-1.41s.63-1.41,1.41-1.41,1.41.63,1.41,1.41-.63,1.41-1.41,1.41Z"/><path class="cls-2" d="m1391.66,764.85c.5,0,.91.41.91.91s-.41.91-.91.91-.91-.41-.91-.91.41-.91.91-.91m0-1c-1.05,0-1.91.85-1.91,1.91s.85,1.91,1.91,1.91,1.91-.85,1.91-1.91-.85-1.91-1.91-1.91h0Z"/><path class="cls-2" d="m1370.31,822.81c-.78,0-1.41-.63-1.41-1.41s.63-1.41,1.41-1.41,1.41.63,1.41,1.41-.63,1.41-1.41,1.41Z"/><path class="cls-2" d="m1370.31,820.49c.5,0,.91.41.91.91s-.41.91-.91.91-.91-.41-.91-.91.41-.91.91-.91m0-1c-1.05,0-1.91.85-1.91,1.91s.85,1.91,1.91,1.91,1.91-.85,1.91-1.91-.85-1.91-1.91-1.91h0Z"/><path class="cls-2" d="m1451.88,940.2c-.77,0-1.41-.63-1.41-1.41s.63-1.41,1.41-1.41,1.41.63,1.41,1.41-.63,1.41-1.41,1.41Z"/><path class="cls-2" d="m1451.88,937.89c.5,0,.91.41.91.91s-.41.91-.91.91-.91-.41-.91-.91.41-.91.91-.91m0-1c-1.05,0-1.91.85-1.91,1.91s.85,1.91,1.91,1.91,1.91-.85,1.91-1.91-.85-1.91-1.91-1.91h0Z"/><path class="cls-2" d="m1712.11,564.16c-.78,0-1.41-.63-1.41-1.41s.63-1.41,1.41-1.41,1.41.63,1.41,1.41-.63,1.41-1.41,1.41Z"/><path class="cls-2" d="m1712.11,561.85c.5,0,.91.41.91.91s-.41.91-.91.91-.91-.41-.91-.91.41-.91.91-.91m0-1c-1.05,0-1.91.85-1.91,1.91s.85,1.91,1.91,1.91,1.91-.85,1.91-1.91-.85-1.91-1.91-1.91h0Z"/><path class="cls-2" d="m1125.23,102.74c-.78,0-1.41-.63-1.41-1.41s.63-1.41,1.41-1.41,1.41.63,1.41,1.41-.63,1.41-1.41,1.41Z"/><path class="cls-2" d="m1125.23,100.43c.5,0,.91.41.91.91s-.41.91-.91.91-.91-.41-.91-.91.41-.91.91-.91m0-1c-1.05,0-1.91.85-1.91,1.91s.85,1.91,1.91,1.91,1.91-.85,1.91-1.91-.85-1.91-1.91-1.91h0Z"/><path class="cls-2" d="m1136.99,178.36c-.78,0-1.41-.63-1.41-1.41s.63-1.41,1.41-1.41,1.41.63,1.41,1.41-.63,1.41-1.41,1.41Z"/><path class="cls-2" d="m1136.99,176.04c.5,0,.91.41.91.91s-.41.91-.91.91-.91-.41-.91-.91.41-.91.91-.91m0-1c-1.05,0-1.91.85-1.91,1.91s.85,1.91,1.91,1.91,1.91-.85,1.91-1.91-.85-1.91-1.91-1.91h0Z"/><path class="cls-2" d="m1800.73,186.99c-.77,0-1.41-.63-1.41-1.41s.63-1.41,1.41-1.41,1.41.63,1.41,1.41-.63,1.41-1.41,1.41Z"/><path class="cls-2" d="m1800.73,184.68c.5,0,.91.41.91.91s-.41.91-.91.91-.91-.41-.91-.91.41-.91.91-.91m0-1c-1.05,0-1.91.85-1.91,1.91s.85,1.91,1.91,1.91,1.91-.85,1.91-1.91-.85-1.91-1.91-1.91h0Z"/><path class="cls-2" d="m1557.96,441.61c-.78,0-1.41-.63-1.41-1.41s.63-1.41,1.41-1.41,1.41.63,1.41,1.41-.63,1.41-1.41,1.41Z"/><path class="cls-2" d="m1557.96,439.3c.5,0,.91.41.91.91s-.41.91-.91.91-.91-.41-.91-.91.41-.91.91-.91m0-1c-1.05,0-1.91.85-1.91,1.91s.85,1.91,1.91,1.91,1.91-.85,1.91-1.91-.85-1.91-1.91-1.91h0Z"/><circle class="cls-2" cx="518.26" cy="184.94" r="1.41"/><path class="cls-2" d="m518.26,184.03c.5,0,.91.41.91.91s-.41.91-.91.91-.91-.41-.91-.91.41-.91.91-.91m0-1c-1.05,0-1.91.85-1.91,1.91s.85,1.91,1.91,1.91,1.91-.85,1.91-1.91-.85-1.91-1.91-1.91h0Z"/><circle class="cls-2" cx="408.38" cy="473.71" r="1.41"/><path class="cls-2" d="m408.38,472.8c.5,0,.91.41.91.91s-.41.91-.91.91-.91-.41-.91-.91.41-.91.91-.91m0-1c-1.05,0-1.91.85-1.91,1.91s.85,1.91,1.91,1.91,1.91-.85,1.91-1.91-.85-1.91-1.91-1.91h0Z"/><path class="cls-2" d="m588.4,693.16c-.77,0-1.41-.63-1.41-1.41s.63-1.41,1.41-1.41,1.41.63,1.41,1.41-.63,1.41-1.41,1.41Z"/><path class="cls-2" d="m588.4,690.85c.5,0,.91.41.91.91s-.41.91-.91.91-.91-.41-.91-.91.41-.91.91-.91m0-1c-1.05,0-1.91.85-1.91,1.91s.85,1.91,1.91,1.91,1.91-.85,1.91-1.91-.85-1.91-1.91-1.91h0Z"/><path class="cls-2" d="m617.32,574.63c-.77,0-1.41-.63-1.41-1.41s.63-1.41,1.41-1.41,1.41.63,1.41,1.41-.63,1.41-1.41,1.41Z"/><path class="cls-2" d="m617.32,572.32c.5,0,.91.41.91.91s-.41.91-.91.91-.91-.41-.91-.91.41-.91.91-.91m0-1c-1.05,0-1.91.85-1.91,1.91s.85,1.91,1.91,1.91,1.91-.85,1.91-1.91-.85-1.91-1.91-1.91h0Z"/><circle class="cls-2" cx="912.23" cy="1.91" r="1.41"/><path class="cls-2" d="m912.23,1c.5,0,.91.41.91.91s-.41.91-.91.91-.91-.41-.91-.91.41-.91.91-.91m0-1c-1.05,0-1.91.85-1.91,1.91s.85,1.91,1.91,1.91,1.91-.85,1.91-1.91-.85-1.91-1.91-1.91h0Z"/><circle class="cls-2" cx="800.93" cy="65.56" r="1.41"/><path class="cls-2" d="m800.93,64.65c.5,0,.91.41.91.91s-.41.91-.91.91-.91-.41-.91-.91.41-.91.91-.91m0-1c-1.05,0-1.91.85-1.91,1.91s.85,1.91,1.91,1.91,1.91-.85,1.91-1.91-.85-1.91-1.91-1.91h0Z"/><path class="cls-2" d="m843.4,326.09c-1.27,0-2.3-1.03-2.3-2.3s1.03-2.3,2.3-2.3,2.3,1.03,2.3,2.3-1.03,2.3-2.3,2.3Z"/><path class="cls-2" d="m843.4,321.98c.99,0,1.8.81,1.8,1.8s-.81,1.8-1.8,1.8-1.8-.81-1.8-1.8.81-1.8,1.8-1.8m0-1c-1.55,0-2.8,1.26-2.8,2.8s1.26,2.8,2.8,2.8,2.8-1.26,2.8-2.8-1.26-2.8-2.8-2.8h0Z"/><circle class="cls-2" cx="50.69" cy="7.75" r="1.41"/><path class="cls-2" d="m50.69,6.84c.5,0,.91.41.91.91s-.41.91-.91.91-.91-.41-.91-.91.41-.91.91-.91m0-1c-1.05,0-1.91.85-1.91,1.91s.85,1.91,1.91,1.91,1.91-.85,1.91-1.91-.85-1.91-1.91-1.91h0Z"/><path class="cls-2" d="m1.91,234.42c-.77,0-1.41-.63-1.41-1.41s.63-1.41,1.41-1.41,1.41.63,1.41,1.41-.63,1.41-1.41,1.41Z"/><path class="cls-2" d="m1.91,232.1c.5,0,.91.41.91.91s-.41.91-.91.91-.91-.41-.91-.91.41-.91.91-.91m0-1c-1.05,0-1.91.85-1.91,1.91s.85,1.91,1.91,1.91,1.91-.85,1.91-1.91-.85-1.91-1.91-1.91h0Z"/><circle class="cls-2" cx="302.92" cy="92.14" r="1.41"/><path class="cls-2" d="m302.92,91.23c.5,0,.91.41.91.91s-.41.91-.91.91-.91-.41-.91-.91.41-.91.91-.91m0-1c-1.05,0-1.91.85-1.91,1.91s.85,1.91,1.91,1.91,1.91-.85,1.91-1.91-.85-1.91-1.91-1.91h0Z"/><circle class="cls-2" cx="503.36" cy="41.59" r="1.41"/><path class="cls-2" d="m503.36,40.69c.5,0,.91.41.91.91s-.41.91-.91.91-.91-.41-.91-.91.41-.91.91-.91m0-1c-1.05,0-1.91.85-1.91,1.91s.85,1.91,1.91,1.91,1.91-.85,1.91-1.91-.85-1.91-1.91-1.91h0Z"/><path class="cls-2" d="m315.44,614.31c-.77,0-1.41-.63-1.41-1.41s.63-1.41,1.41-1.41,1.41.63,1.41,1.41-.63,1.41-1.41,1.41Z"/><path class="cls-2" d="m315.44,612c.5,0,.91.41.91.91s-.41.91-.91.91-.91-.41-.91-.91.41-.91.91-.91m0-1c-1.05,0-1.91.85-1.91,1.91s.85,1.91,1.91,1.91,1.91-.85,1.91-1.91-.85-1.91-1.91-1.91h0Z"/><circle class="cls-2" cx="209.07" cy="349.79" r="1.41"/><path class="cls-2" d="m209.07,348.88c.5,0,.91.41.91.91s-.41.91-.91.91-.91-.41-.91-.91.41-.91.91-.91m0-1c-1.05,0-1.91.85-1.91,1.91s.85,1.91,1.91,1.91,1.91-.85,1.91-1.91-.85-1.91-1.91-1.91h0Z"/><circle class="cls-2" cx="509.42" cy="395.15" r="1.41"/><path class="cls-2" d="m509.42,394.24c.5,0,.91.41.91.91s-.41.91-.91.91-.91-.41-.91-.91.41-.91.91-.91m0-1c-1.05,0-1.91.85-1.91,1.91s.85,1.91,1.91,1.91,1.91-.85,1.91-1.91-.85-1.91-1.91-1.91h0Z"/><path class="cls-2" d="m104,789.35c-.77,0-1.41-.63-1.41-1.41s.63-1.41,1.41-1.41,1.41.63,1.41,1.41-.63,1.41-1.41,1.41Z"/><path class="cls-2" d="m104,787.04c.5,0,.91.41.91.91s-.41.91-.91.91-.91-.41-.91-.91.41-.91.91-.91m0-1c-1.05,0-1.91.85-1.91,1.91s.85,1.91,1.91,1.91,1.91-.85,1.91-1.91-.85-1.91-1.91-1.91h0Z"/></g></svg>