<svg width="771" height="771" viewBox="0 0 771 771" fill="none" xmlns="http://www.w3.org/2000/svg">
<path d="M176.556 475.063C164.292 446.507 158.008 415.74 158.094 384.661C158.179 353.582 164.632 322.85 177.053 294.362C189.475 265.873 207.601 240.231 230.316 219.019C253.03 197.806 279.849 181.473 309.119 171.025C338.39 160.578 369.491 156.239 400.503 158.276C431.515 160.313 461.781 168.682 489.433 182.868C517.086 197.054 541.539 216.755 561.283 240.756C581.028 264.757 595.645 292.549 604.234 322.418L539.924 340.91C533.861 319.827 523.543 300.209 509.607 283.268C495.67 266.326 478.409 252.42 458.89 242.407C439.371 232.393 418.008 226.486 396.117 225.048C374.227 223.61 352.274 226.673 331.613 234.047C310.952 241.422 292.021 252.951 275.988 267.924C259.955 282.897 247.16 300.997 238.392 321.106C229.624 341.215 225.07 362.908 225.009 384.845C224.949 406.783 229.384 428.5 238.041 448.657L176.556 475.063Z" fill="#FF2424"/>
<path d="M273.814 111.45C317.025 93.8618 363.784 86.7503 410.27 90.6965C456.756 94.6427 501.648 109.535 541.275 134.155C580.903 158.775 614.141 192.424 638.272 232.352C662.403 272.279 676.742 317.351 680.116 363.881C683.491 410.412 675.805 457.081 657.687 500.072C639.569 543.063 611.533 581.156 575.872 611.236C540.212 641.316 497.938 662.529 452.508 673.141C407.078 683.753 359.781 683.462 314.485 672.292L326.9 621.946C364.251 631.157 403.252 631.396 440.713 622.646C478.175 613.896 513.033 596.403 542.439 571.6C571.845 546.796 594.963 515.385 609.903 479.934C624.843 444.484 631.181 406.001 628.398 367.632C625.616 329.263 613.792 292.097 593.894 259.173C573.995 226.249 546.587 198.502 513.91 178.2C481.234 157.899 444.216 145.619 405.884 142.365C367.552 139.111 328.994 144.975 293.363 159.478L273.814 111.45Z" fill="#FF5C00"/>
</svg>
