<?xml version="1.0" encoding="UTF-8"?><svg id="Calque_2" xmlns="http://www.w3.org/2000/svg" viewBox="0 0 762.34 826.05"><defs><style>.cls-1{fill:none;opacity:0;stroke:#231f20;stroke-miterlimit:10;}</style></defs><g id="temple"><path class="cls-1" d="m.5,826.05v-30.41h761.34v-28.16H72.58l-1.13-31.53h655.47l-13.51-36.04-5.63-412.2s19.15-1.13,18.02-21.4c-.43-7.75-3.66-12.04-7.48-14.39-6.18-3.79-13.91-2.5-13.91-2.5l-49.84-.17s-27.6-3.86-25.62,20.44c1.13,13.8,12.11,14.64,26.81,14.65-2.25,32.66-.91,415.57-.91,415.57l-12.39,29.28h-106.99l-11.26-31.53-3.38-406.57s15.77-4.5,18.02-15.77c3.38-21.4-14.64-26.11-14.64-26.11h-65.32s-18.02,4.72-18.02,19.36,15.77,19.15,25.9,18.02c0,21.4-2.25,411.08-2.25,411.08l-14.64,30.41-100.24,2.25-13.51-30.41-5.63-407.7s22.52,0,22.52-23.65-23.65-19.36-23.65-19.36l-61.94-.3s-15.77,5.02-15.77,19.66,6.76,20.27,24.78,20.27v413.33l-12.39,28.16-99.11,1.13-16.89-34.91-3.38-407.7s22.52,3.38,24.78-16.89-20.27-23.04-20.27-23.04h-59.69s-18.02,0-22.52,14.03c-3.8,11.84,2.25,22.52,24.78,23.65-5.63,28.16-5.63,404.32-5.63,404.32"/><path class="cls-1" d="m704.4,249.42v-105.87s2.25,51.81,2.25,51.81H88.35l-2.25-52.93h614.93v-23.65l-601.41-5.63L393.56,34.31l307.46,84.47h36.04l19.15-20.27L401.44.52,43.3,98.5l15.2,26.47v19.71l24.85-.99-.07,101.22c621.12,4.5,568.47,3.99,568.47,3.99"/></g></svg>