<svg id="Calque_2" xmlns="http://www.w3.org/2000/svg" viewBox="0 0 769.34 833.42"><defs><style>.cls-T-2{fill:#white;stroke-width:2px;}.cls-T-2,.ligne{stroke:white;stroke-miterlimit:10;}.ligne{fill:none;opacity:0;}</style></defs><g id="temple"><path class="ligne" d="m4,829.48v-30.41h761.34v-28.16H76.08l-1.13-31.53h655.47l-13.51-36.04-5.63-412.2s19.15-1.13,18.02-21.4c-.43-7.75-3.66-12.04-7.48-14.39-6.18-3.79-13.91-2.5-13.91-2.5l-49.84-.17s-27.6-3.86-25.62,20.44c1.13,13.8,12.11,14.64,26.81,14.65-2.25,32.66-.91,415.57-.91,415.57l-12.39,29.28h-106.99l-11.26-31.53-3.38-406.57s15.77-4.5,18.02-15.77c3.38-21.4-14.64-26.11-14.64-26.11h-65.32s-18.02,4.72-18.02,19.36,15.77,19.15,25.9,18.02c0,21.4-2.25,411.08-2.25,411.08l-14.64,30.41-100.24,2.25-13.51-30.41-5.63-407.7s22.52,0,22.52-23.65-23.65-19.36-23.65-19.36l-61.94-.3s-15.77,5.02-15.77,19.66,6.76,20.27,24.78,20.27v413.33l-12.39,28.16-99.11,1.13-16.89-34.91-3.38-407.7s22.52,3.38,24.78-16.89-20.27-23.04-20.27-23.04h-59.69s-18.02,0-22.52,14.03c-3.8,11.84,2.25,22.52,24.78,23.65-5.63,28.16-5.63,404.32-5.63,404.32"/><path class="ligne" d="m707.9,252.84v-105.87s2.25,51.81,2.25,51.81H91.85l-2.25-52.93h614.93v-23.65l-601.41-5.63L397.06,37.73l307.46,84.47h36.04l19.15-20.27L404.94,3.95,46.8,101.93l15.2,26.47v19.71l24.85-.99-.07,101.22c621.12,4.5,568.47,3.99,568.47,3.99"/></g><g id="Calque_14"><path class="cls-T-2" d="m6,829.48c.04,2.59-4.04,2.59-4,0-.04-2.59,4.04-2.59,4,0Z"/><path class="cls-T-2" d="m6,799.07c.04,2.59-4.04,2.59-4,0-.04-2.59,4.04-2.59,4,0Z"/><path class="cls-T-2" d="m78.08,770.91c.04,2.59-4.04,2.59-4,0-.04-2.59,4.04-2.59,4,0Z"/><path class="cls-T-2" d="m76.95,739.38c.04,2.59-4.04,2.59-4,0-.04-2.59,4.04-2.59,4,0Z"/><path class="cls-T-2" d="m170.68,733.19c.04,2.59-4.04,2.59-4,0-.04-2.59,4.04-2.59,4,0Z"/><path class="cls-T-2" d="m153.54,699.96c.04,2.59-4.04,2.59-4,0-.04-2.59,4.04-2.59,4,0Z"/><path class="cls-T-2" d="m91.59,694.33c.04,2.59-4.04,2.59-4,0-.04-2.59,4.04-2.59,4,0Z"/><path class="cls-T-2" d="m269.54,733.75c.04,2.59-4.04,2.59-4,0-.04-2.59,4.04-2.59,4,0Z"/><path class="cls-T-2" d="m281.93,705.59c.04,2.59-4.04,2.59-4,0-.04-2.59,4.04-2.59,4,0Z"/><path class="cls-T-2" d="m342.43,703.65c.04,2.59-4.04,2.59-4,0-.04-2.59,4.04-2.59,4,0Z"/><path class="cls-T-2" d="m356.13,732.5c.04,2.59-4.04,2.59-4,0-.04-2.59,4.04-2.59,4,0Z"/><path class="cls-T-2" d="m455.37,731.5c.04,2.59-4.04,2.59-4,0-.04-2.59,4.04-2.59,4,0Z"/><path class="cls-T-2" d="m540.96,732.62c.04,2.59-4.04,2.59-4,0-.04-2.59,4.04-2.59,4,0Z"/><path class="cls-T-2" d="m469.7,703.65c.04,2.59-4.04,2.59-4,0-.04-2.59,4.04-2.59,4,0Z"/><path class="cls-T-2" d="m529.7,703.65c.04,2.59-4.04,2.59-4,0-.04-2.59,4.04-2.59,4,0Z"/><path class="cls-T-2" d="m660.34,703.34c.04,2.59-4.04,2.59-4,0-.04-2.59,4.04-2.59,4,0Z"/><path class="cls-T-2" d="m647.96,732.62c.04,2.59-4.04,2.59-4,0-.04-2.59,4.04-2.59,4,0Z"/><path class="cls-T-2" d="m734.42,739.38c.04,2.59-4.04,2.59-4,0-.04-2.59,4.04-2.59,4,0Z"/><path class="cls-T-2" d="m767.34,770.91c.04,2.59-4.04,2.59-4,0-.04-2.59,4.04-2.59,4,0Z"/><path class="cls-T-2" d="m767.34,799.07c.04,2.59-4.04,2.59-4,0-.04-2.59,4.04-2.59,4,0Z"/><path class="cls-T-2" d="m718.91,703.34c.04,2.59-4.04,2.59-4,0-.04-2.59,4.04-2.59,4,0Z"/><path class="cls-T-2" d="m715.28,291.14c.04,2.59-4.04,2.59-4,0-.04-2.59,4.04-2.59,4,0Z"/><path class="cls-T-2" d="m661.25,287.77c.04,2.59-4.04,2.59-4,0-.04-2.59,4.04-2.59,4,0Z"/><path class="cls-T-2" d="m657.25,252.33c.04,2.59-4.04,2.59-4,0-.04-2.59,4.04-2.59,4,0Z"/><path class="cls-T-2" d="m529.7,252.63c.04,2.59-4.04,2.59-4,0-.04-2.59,4.04-2.59,4,0Z"/><path class="cls-T-2" d="m466.63,252.33c.04,2.59-4.04,2.59-4,0-.04-2.59,4.04-2.59,4,0Z"/><path class="cls-T-2" d="m334.86,252.63c.04,2.59-4.04,2.59-4,0-.04-2.59,4.04-2.59,4,0Z"/><path class="cls-T-2" d="m335.99,295.64c.04,2.59-4.04,2.59-4,0-.04-2.59,4.04-2.59,4,0Z"/><path class="cls-T-2" d="m281.93,292.26c.04,2.59-4.04,2.59-4,0-.04-2.59,4.04-2.59,4,0Z"/><path class="cls-T-2" d="m150.16,292.26c.04,2.59-4.04,2.59-4,0-.04-2.59,4.04-2.59,4,0Z"/><path class="cls-T-2" d="m154.66,252.33c.04,2.59-4.04,2.59-4,0-.04-2.59,4.04-2.59,4,0Z"/><path class="cls-T-2" d="m93.1,252.84c.04,2.59-4.04,2.59-4,0-.04-2.59,4.04-2.59,4,0Z"/><path class="cls-T-2" d="m89.1,246.46c.04,2.59-4.04,2.59-4,0-.04-2.59,4.04-2.59,4,0Z"/><path class="cls-T-2" d="m93.85,198.79c.04,2.59-4.04,2.59-4,0-.04-2.59,4.04-2.59,4,0Z"/><path class="cls-T-2" d="m91.59,145.85c.04,2.59-4.04,2.59-4,0-.04-2.59,4.04-2.59,4,0Z"/><path class="cls-T-2" d="m88.85,147.12c.04,2.59-4.04,2.59-4,0-.04-2.59,4.04-2.59,4,0Z"/><path class="cls-T-2" d="m64,148.1c.04,2.59-4.04,2.59-4,0-.04-2.59,4.04-2.59,4,0Z"/><path class="cls-T-2" d="m64,128.4c.04,2.59-4.04,2.59-4,0-.04-2.59,4.04-2.59,4,0Z"/><path class="cls-T-2" d="m48.8,101.93c.04,2.59-4.04,2.59-4,0-.04-2.59,4.04-2.59,4,0Z"/><path class="cls-T-2" d="m105.11,116.57c.04,2.59-4.04,2.59-4,0-.04-2.59,4.04-2.59,4,0Z"/><path class="cls-T-2" d="m399.06,37.73c.04,2.59-4.04,2.59-4,0-.04-2.59,4.04-2.59,4,0Z"/><path class="cls-T-2" d="m406.94,3.95c.04,2.59-4.04,2.59-4,0-.04-2.59,4.04-2.59,4,0Z"/><path class="cls-T-2" d="m97.23,290.01c.04,2.59-4.04,2.59-4,0-.04-2.59,4.04-2.59,4,0Z"/><path class="cls-T-2" d="m272.92,252.33c.04,2.59-4.04,2.59-4,0-.04-2.59,4.04-2.59,4,0Z"/><path class="cls-T-2" d="m526.32,294.52c.04,2.59-4.04,2.59-4,0-.04-2.59,4.04-2.59,4,0Z"/><path class="cls-T-2" d="m472.26,290.01c.04,2.59-4.04,2.59-4,0-.04-2.59,4.04-2.59,4,0Z"/><path class="cls-T-2" d="m709.9,252.84c.04,2.59-4.04,2.59-4,0-.04-2.59,4.04-2.59,4,0Z"/><path class="cls-T-2" d="m712.15,198.79c.04,2.59-4.04,2.59-4,0-.04-2.59,4.04-2.59,4,0Z"/><path class="cls-T-2" d="m710.15,148.79c.04,2.59-4.04,2.59-4,0-.04-2.59,4.04-2.59,4,0Z"/><path class="cls-T-2" d="m706.52,145.85c.04,2.59-4.04,2.59-4,0-.04-2.59,4.04-2.59,4,0Z"/><path class="cls-T-2" d="m706.52,122.2c.04,2.59-4.04,2.59-4,0-.04-2.59,4.04-2.59,4,0Z"/><path class="cls-T-2" d="m742.56,122.2c.04,2.59-4.04,2.59-4,0-.04-2.59,4.04-2.59,4,0Z"/><path class="cls-T-2" d="m759.71,102.68c.04,2.59-4.04,2.59-4,0-.04-2.59,4.04-2.59,4,0Z"/></g></svg>