<svg width="460" height="498" viewBox="0 0 460 498" fill="none" xmlns="http://www.w3.org/2000/svg">
<g clip-path="url(#clip0_33_1123)">
<path d="M2.39166 495.645V477.474H457.608V460.647H45.4894L44.8137 441.807H436.729L428.651 420.272L425.285 173.967C425.285 173.967 436.735 173.291 436.059 161.179C435.802 156.548 433.871 153.985 431.587 152.581C427.892 150.316 423.27 151.087 423.27 151.087L393.47 150.985C393.47 150.985 376.968 148.679 378.151 163.199C378.827 171.445 385.392 171.947 394.182 171.953C392.836 191.469 393.637 420.272 393.637 420.272L386.229 437.768H322.258L315.526 418.927L313.505 175.986C313.505 175.986 322.934 173.297 324.279 166.563C326.3 153.776 315.526 150.961 315.526 150.961H276.47C276.47 150.961 265.696 153.782 265.696 162.53C265.696 171.278 275.125 173.973 281.182 173.297C281.182 186.085 279.836 418.933 279.836 418.933L271.083 437.104L211.148 438.449L203.07 420.278L199.704 176.662C199.704 176.662 213.169 176.662 213.169 162.53C213.169 148.398 199.028 150.961 199.028 150.961L161.993 150.782C161.993 150.782 152.564 153.782 152.564 162.53C152.564 171.278 156.606 174.642 167.38 174.642V421.622L159.972 438.449L100.713 439.124L90.614 418.264L88.5931 174.648C88.5931 174.648 102.058 176.668 103.409 164.555C104.761 152.443 91.2897 150.788 91.2897 150.788H55.6001C55.6001 150.788 44.8257 150.788 42.1351 159.172C39.863 166.246 43.4804 172.628 56.9514 173.303C53.5852 190.13 53.5852 414.9 53.5852 414.9" stroke="white" stroke-miterlimit="10"/>
<path d="M423.264 151.082V87.8202L424.609 118.779H54.9185L53.5732 87.151H421.249V73.0192L61.657 69.6551L237.408 22.5452L421.243 73.0192H442.792L454.242 60.9071L242.12 2.36035L27.9824 60.9071L37.0707 76.7239V88.5014L51.9289 87.9098L51.8871 148.393C423.264 151.082 391.784 150.777 391.784 150.777" stroke="white" stroke-miterlimit="10"/>
<path d="M3.58748 495.645C3.6114 497.193 1.17191 497.193 1.19582 495.645C1.17191 494.097 3.6114 494.097 3.58748 495.645Z" fill="white" stroke="white" stroke-width="4" stroke-miterlimit="10"/>
<path d="M3.58748 477.474C3.6114 479.022 1.17191 479.022 1.19582 477.474C1.17191 475.927 3.6114 475.927 3.58748 477.474Z" fill="white" stroke="white" stroke-width="4" stroke-miterlimit="10"/>
<path d="M46.6852 460.648C46.7091 462.195 44.2697 462.195 44.2936 460.648C44.2697 459.1 46.7091 459.1 46.6852 460.648Z" fill="white" stroke="white" stroke-width="4" stroke-miterlimit="10"/>
<path d="M46.0096 441.807C46.0335 443.355 43.594 443.355 43.6179 441.807C43.594 440.26 46.0335 440.26 46.0096 441.807Z" fill="white" stroke="white" stroke-width="4" stroke-miterlimit="10"/>
<path d="M102.052 438.108C102.076 439.656 99.6365 439.656 99.6605 438.108C99.6365 436.561 102.076 436.561 102.052 438.108Z" fill="white" stroke="white" stroke-width="4" stroke-miterlimit="10"/>
<path d="M91.8039 418.253C91.8278 419.8 89.3883 419.8 89.4122 418.253C89.3883 416.705 91.8278 416.705 91.8039 418.253Z" fill="white" stroke="white" stroke-width="4" stroke-miterlimit="10"/>
<path d="M54.7631 414.888C54.787 416.436 52.3475 416.436 52.3714 414.888C52.3475 413.341 54.787 413.341 54.7631 414.888Z" fill="white" stroke="white" stroke-width="4" stroke-miterlimit="10"/>
<path d="M161.162 438.443C161.186 439.991 158.746 439.991 158.77 438.443C158.746 436.895 161.186 436.895 161.162 438.443Z" fill="white" stroke="white" stroke-width="4" stroke-miterlimit="10"/>
<path d="M168.57 421.616C168.594 423.164 166.155 423.164 166.179 421.616C166.155 420.069 168.594 420.069 168.57 421.616Z" fill="white" stroke="white" stroke-width="4" stroke-miterlimit="10"/>
<path d="M204.744 420.457C204.768 422.005 202.328 422.005 202.352 420.457C202.328 418.909 204.768 418.909 204.744 420.457Z" fill="white" stroke="white" stroke-width="4" stroke-miterlimit="10"/>
<path d="M212.935 437.696C212.959 439.244 210.52 439.244 210.544 437.696C210.52 436.149 212.959 436.149 212.935 437.696Z" fill="white" stroke="white" stroke-width="4" stroke-miterlimit="10"/>
<path d="M272.273 437.099C272.296 438.646 269.857 438.646 269.881 437.099C269.857 435.551 272.296 435.551 272.273 437.099Z" fill="white" stroke="white" stroke-width="4" stroke-miterlimit="10"/>
<path d="M323.448 437.768C323.472 439.315 321.033 439.315 321.057 437.768C321.033 436.22 323.472 436.22 323.448 437.768Z" fill="white" stroke="white" stroke-width="4" stroke-miterlimit="10"/>
<path d="M280.841 420.457C280.865 422.005 278.425 422.005 278.449 420.457C278.425 418.909 280.865 418.909 280.841 420.457Z" fill="white" stroke="white" stroke-width="4" stroke-miterlimit="10"/>
<path d="M316.716 420.457C316.74 422.005 314.3 422.005 314.324 420.457C314.3 418.909 316.74 418.909 316.716 420.457Z" fill="white" stroke="white" stroke-width="4" stroke-miterlimit="10"/>
<path d="M394.827 420.272C394.851 421.82 392.412 421.82 392.436 420.272C392.412 418.724 394.851 418.724 394.827 420.272Z" fill="white" stroke="white" stroke-width="4" stroke-miterlimit="10"/>
<path d="M387.425 437.768C387.449 439.315 385.009 439.315 385.033 437.768C385.009 436.22 387.449 436.22 387.425 437.768Z" fill="white" stroke="white" stroke-width="4" stroke-miterlimit="10"/>
<path d="M439.121 441.807C439.145 443.355 436.705 443.355 436.729 441.807C436.705 440.26 439.145 440.26 439.121 441.807Z" fill="white" stroke="white" stroke-width="4" stroke-miterlimit="10"/>
<path d="M458.804 460.648C458.828 462.195 456.389 462.195 456.413 460.648C456.389 459.1 458.828 459.1 458.804 460.648Z" fill="white" stroke="white" stroke-width="4" stroke-miterlimit="10"/>
<path d="M458.804 477.474C458.828 479.022 456.389 479.022 456.413 477.474C456.389 475.927 458.828 475.927 458.804 477.474Z" fill="white" stroke="white" stroke-width="4" stroke-miterlimit="10"/>
<path d="M429.847 420.272C429.871 421.82 427.432 421.82 427.455 420.272C427.432 418.724 429.871 418.724 429.847 420.272Z" fill="white" stroke="white" stroke-width="4" stroke-miterlimit="10"/>
<path d="M427.677 173.967C427.701 175.514 425.261 175.514 425.285 173.967C425.261 172.419 427.701 172.419 427.677 173.967Z" fill="white" stroke="white" stroke-width="4" stroke-miterlimit="10"/>
<path d="M395.371 171.953C395.395 173.501 392.956 173.501 392.98 171.953C392.956 170.406 395.395 170.406 395.371 171.953Z" fill="white" stroke="white" stroke-width="4" stroke-miterlimit="10"/>
<path d="M392.98 150.776C393.004 152.324 390.564 152.324 390.588 150.776C390.564 149.229 393.004 149.229 392.98 150.776Z" fill="white" stroke="white" stroke-width="4" stroke-miterlimit="10"/>
<path d="M316.716 150.956C316.74 152.503 314.3 152.503 314.324 150.956C314.3 149.408 316.74 149.408 316.716 150.956Z" fill="white" stroke="white" stroke-width="4" stroke-miterlimit="10"/>
<path d="M279.005 150.776C279.029 152.324 276.59 152.324 276.613 150.776C276.59 149.229 279.029 149.229 279.005 150.776Z" fill="white" stroke="white" stroke-width="4" stroke-miterlimit="10"/>
<path d="M200.218 150.956C200.242 152.503 197.802 152.503 197.826 150.956C197.802 149.408 200.242 149.408 200.218 150.956Z" fill="white" stroke="white" stroke-width="4" stroke-miterlimit="10"/>
<path d="M200.893 176.656C200.917 178.203 198.478 178.203 198.502 176.656C198.478 175.108 200.917 175.108 200.893 176.656Z" fill="white" stroke="white" stroke-width="4" stroke-miterlimit="10"/>
<path d="M168.57 174.636C168.594 176.184 166.155 176.184 166.179 174.636C166.155 173.089 168.594 173.089 168.57 174.636Z" fill="white" stroke="white" stroke-width="4" stroke-miterlimit="10"/>
<path d="M89.7829 174.636C89.8069 176.184 87.3674 176.184 87.3913 174.636C87.3674 173.089 89.8069 173.089 89.7829 174.636Z" fill="white" stroke="white" stroke-width="4" stroke-miterlimit="10"/>
<path d="M92.4736 150.776C92.4975 152.324 90.058 152.324 90.0819 150.776C90.058 149.229 92.4975 149.229 92.4736 150.776Z" fill="white" stroke="white" stroke-width="4" stroke-miterlimit="10"/>
<path d="M55.6659 151.081C55.6898 152.629 53.2503 152.629 53.2742 151.081C53.2503 149.534 55.6898 149.534 55.6659 151.081Z" fill="white" stroke="white" stroke-width="4" stroke-miterlimit="10"/>
<path d="M53.2742 147.269C53.2981 148.816 50.8586 148.816 50.8826 147.269C50.8586 145.721 53.2981 145.721 53.2742 147.269Z" fill="white" stroke="white" stroke-width="4" stroke-miterlimit="10"/>
<path d="M56.1143 118.784C56.1382 120.332 53.6987 120.332 53.7226 118.784C53.6987 117.237 56.1382 117.237 56.1143 118.784Z" fill="white" stroke="white" stroke-width="4" stroke-miterlimit="10"/>
<path d="M54.7631 87.1505C54.787 88.6981 52.3475 88.6981 52.3714 87.1505C52.3475 85.6028 54.787 85.6028 54.7631 87.1505Z" fill="white" stroke="white" stroke-width="4" stroke-miterlimit="10"/>
<path d="M53.1247 87.9093C53.1487 89.4569 50.7092 89.4569 50.7331 87.9093C50.7092 86.3616 53.1487 86.3616 53.1247 87.9093Z" fill="white" stroke="white" stroke-width="4" stroke-miterlimit="10"/>
<path d="M38.2665 88.4952C38.2904 90.0428 35.851 90.0428 35.8749 88.4952C35.851 86.9476 38.2904 86.9476 38.2665 88.4952Z" fill="white" stroke="white" stroke-width="4" stroke-miterlimit="10"/>
<path d="M38.2665 76.7232C38.2904 78.2708 35.851 78.2708 35.8749 76.7232C35.851 75.1756 38.2904 75.1756 38.2665 76.7232Z" fill="white" stroke="white" stroke-width="4" stroke-miterlimit="10"/>
<path d="M29.1783 60.9068C29.2022 62.4544 26.7627 62.4544 26.7866 60.9068C26.7627 59.3592 29.2022 59.3592 29.1783 60.9068Z" fill="white" stroke="white" stroke-width="4" stroke-miterlimit="10"/>
<path d="M62.8469 69.6549C62.8708 71.2025 60.4313 71.2025 60.4552 69.6549C60.4313 68.1072 62.8708 68.1072 62.8469 69.6549Z" fill="white" stroke="white" stroke-width="4" stroke-miterlimit="10"/>
<path d="M238.604 22.5445C238.628 24.0921 236.188 24.0921 236.212 22.5445C236.188 20.9969 238.628 20.9969 238.604 22.5445Z" fill="white" stroke="white" stroke-width="4" stroke-miterlimit="10"/>
<path d="M243.316 2.35994C243.339 3.90756 240.9 3.90756 240.924 2.35994C240.9 0.812313 243.339 0.812313 243.316 2.35994Z" fill="white" stroke="white" stroke-width="4" stroke-miterlimit="10"/>
<path d="M58.1353 173.292C58.1592 174.839 55.7197 174.839 55.7436 173.292C55.7197 171.744 58.1592 171.744 58.1353 173.292Z" fill="white" stroke="white" stroke-width="4" stroke-miterlimit="10"/>
<path d="M163.183 150.776C163.207 152.324 160.767 152.324 160.791 150.776C160.767 149.229 163.207 149.229 163.183 150.776Z" fill="white" stroke="white" stroke-width="4" stroke-miterlimit="10"/>
<path d="M314.695 175.986C314.719 177.534 312.279 177.534 312.303 175.986C312.279 174.439 314.719 174.439 314.695 175.986Z" fill="white" stroke="white" stroke-width="4" stroke-miterlimit="10"/>
<path d="M282.371 173.292C282.395 174.839 279.956 174.839 279.98 173.292C279.956 171.744 282.395 171.744 282.371 173.292Z" fill="white" stroke="white" stroke-width="4" stroke-miterlimit="10"/>
<path d="M424.46 151.081C424.484 152.629 422.044 152.629 422.068 151.081C422.044 149.534 424.484 149.534 424.46 151.081Z" fill="white" stroke="white" stroke-width="4" stroke-miterlimit="10"/>
<path d="M425.805 118.784C425.829 120.332 423.39 120.332 423.414 118.784C423.39 117.237 425.829 117.237 425.805 118.784Z" fill="white" stroke="white" stroke-width="4" stroke-miterlimit="10"/>
<path d="M424.609 88.9073C424.633 90.4549 422.194 90.4549 422.218 88.9073C422.194 87.3597 424.633 87.3597 424.609 88.9073Z" fill="white" stroke="white" stroke-width="4" stroke-miterlimit="10"/>
<path d="M422.439 87.1505C422.463 88.6981 420.023 88.6981 420.047 87.1505C420.023 85.6028 422.463 85.6028 422.439 87.1505Z" fill="white" stroke="white" stroke-width="4" stroke-miterlimit="10"/>
<path d="M422.439 73.0191C422.463 74.5667 420.023 74.5667 420.047 73.0191C420.023 71.4715 422.463 71.4715 422.439 73.0191Z" fill="white" stroke="white" stroke-width="4" stroke-miterlimit="10"/>
<path d="M443.988 73.0191C444.012 74.5667 441.572 74.5667 441.596 73.0191C441.572 71.4715 444.012 71.4715 443.988 73.0191Z" fill="white" stroke="white" stroke-width="4" stroke-miterlimit="10"/>
<path d="M454.242 61.3551C454.266 62.9027 451.826 62.9027 451.85 61.3551C451.826 59.8074 454.266 59.8074 454.242 61.3551Z" fill="white" stroke="white" stroke-width="4" stroke-miterlimit="10"/>
</g>
<defs>
<clipPath id="clip0_33_1123">
<rect width="460" height="498" fill="white"/>
</clipPath>
</defs>
</svg>
