<svg width="335" height="320" viewBox="0 0 335 320" fill="none" xmlns="http://www.w3.org/2000/svg">
<g clip-path="url(#clip0_131_13796)">
<path d="M11.729 319.956C18.8031 277.459 36.6654 241.269 32.6265 216.985C28.5876 192.701 40.7091 179.459 39.2885 175.619C37.8678 171.778 30.0567 145.11 33.0871 137.015C36.1175 128.921 42.5613 129.353 42.5613 129.353C42.5613 129.353 43.5844 121.841 48.4814 119.5C53.3785 117.16 65.9655 117.825 65.9655 117.825C65.9655 117.825 87.3721 118.889 89.1031 127.707C90.834 136.525 78.0871 132.999 78.0871 141.094C78.0871 149.189 76.0652 167.403 76.0652 167.403L79.5901 196.897L122.539 195.736C122.539 195.736 150.831 197.761 170.026 193.711C189.222 189.661 200.335 180.285 216.5 179.411L232.666 178.537" stroke="white" stroke-width="2" stroke-miterlimit="10"/>
<path d="M329.347 0.18457C339.723 9.01236 332.076 62.9939 331.528 76.6678C330.981 90.3416 308.047 201.354 308.047 201.354L291.663 223.778C291.663 223.778 290.024 204.093 290.708 201.495C291.392 198.897 298.354 173.468 298.897 171.826C299.44 170.185 299.033 156.652 297.806 154.875C296.58 153.098 290.16 148.451 287.023 148.174C283.886 147.897 282.519 150.5 281.835 153.098C281.151 155.695 286.068 157.337 287.295 158.293C288.521 159.25 287.842 162.804 287.295 169.505C286.747 176.206 278.286 185.5 278.286 185.5C278.286 185.5 274.189 181.946 271.871 172.103C269.553 162.26 261.359 155.972 256.583 153.782C251.808 151.592 245.752 155.773 244.297 158.978C242.843 162.183 244.845 165.402 247.027 165.815C249.209 166.228 250.028 164.446 251.395 164.31C252.763 164.174 267.095 180.717 260.54 190.424C257.398 179.761 244.433 170.739 242.794 169.369C241.155 168 236.379 168.141 235.284 173.336C234.188 178.532 242.794 184.82 250.435 197.809C246.338 188.923 232.738 177.279 228.864 180.445C224.99 183.611 231.73 192.201 234.052 194.255C236.374 196.309 248.142 225.288 248.142 225.288C248.142 225.288 248.797 233.082 245.112 242.517C241.427 251.951 181.396 254.942 181.396 254.942C167.936 256.559 121.109 247.397 102.267 244.702C83.4251 242.007 92.0411 227.988 84.5015 209.662C76.9619 191.337 83.4251 182.169 83.4251 182.169C83.4251 182.169 153.308 185.155 162.535 182.504C176.31 178.552 201.125 167.446 203.787 163.576C215.162 147.052 153.124 173.506 153.124 173.506C153.124 173.506 207.254 150.84 209.799 146.091C222.415 122.531 149.914 160.226 149.914 160.226C149.914 160.226 208.66 136.695 211.511 131.737C224.626 108.915 155.049 139.662 147.989 142.444C136.411 147.013 198.26 126.032 199.389 120.384C202.594 104.404 128.75 128.396 129.754 122.244C130.757 116.092 153.216 124.356 159.689 116.412C159.689 116.412 162.613 109.391 141.589 106.429L122.355 105.977C116.982 106.079 112.027 108.891 109.152 113.436C103.649 122.137 90.892 131.79 88.4483 131.98C92.2981 128.391 85.2046 122.817 79.5947 119.326C84.0748 110.333 101.195 24.745 138.874 10.1875C176.552 -4.37014 169.018 25.284 169.018 25.284C169.018 25.284 159.151 32.7619 149.997 33.8399C140.842 34.9179 132.75 37.7682 124.391 50.0145C124.391 50.0145 115.285 67.3738 115.828 83.7815C122.738 77.2213 124.566 73.3901 129.754 72.8463C134.942 72.3024 147.499 71.477 148.867 72.0257C150.234 72.5744 151.868 76.6726 149.415 76.9494C146.961 77.2262 136.857 77.4981 132.76 77.2213C128.663 76.9446 119.654 75.5801 115.557 86.5201L125.661 88.7052C125.661 88.7052 132.076 82.6889 136.857 82.8249C141.638 82.9609 146.142 89.6618 146.142 89.6618C146.142 89.6618 129.215 88.8412 126.757 89.9337C124.299 91.0263 115.019 88.1565 115.019 88.1565C115.019 88.1565 113.108 100.733 114.335 105.521" stroke="white" stroke-width="2" stroke-miterlimit="10"/>
<path d="M232.67 178.542C232.67 178.542 232.869 174.788 233.32 168.699C234.808 148.659 239.065 103.35 248.147 83.5047C248.147 53.3164 196.47 1.56362 182.477 3.71958C168.484 5.87554 156.639 15.5774 163.097 26.901C169.556 38.2198 194.521 39.2687 198.288 62.4501L198.017 83.5047C198.017 83.5047 196.926 74.4827 190.919 73.6621C184.911 72.8414 169.347 72.8414 168.528 73.6621C167.708 74.4827 166.617 78.5858 168.256 79.1297C169.895 79.6784 186.002 75.6238 191.738 78.309C197.474 80.9943 199.413 87.3311 199.399 88.9723L192.97 92.3908C192.97 92.3908 187.646 85.6898 182.322 85.6898C176.998 85.6898 171.539 92.114 171.539 92.114C171.539 92.114 188.465 92.25 191.336 93.3425C194.206 94.435 200.344 91.0894 200.344 91.0894C200.344 91.0894 207.307 113.984 206.352 121.37L196.247 124.24C196.247 124.24 201.707 121.506 200.48 118.495C199.253 115.485 189.323 111.867 171.946 115.762C175.631 111.658 167.713 107.832 166.622 105.37C165.531 102.908 162.254 93.6144 165.255 86.3648" stroke="white" stroke-width="2" stroke-miterlimit="10"/>
<path d="M17.712 43.2749C17.7265 54.5986 1.11035 95.3627 2.61827 102.913C4.12619 110.464 -3.4134 148.208 2.61827 164.82C8.64994 181.431 35.1767 179.416 35.1767 179.416L33.6494 187.972L31.739 191.517C31.739 191.517 27.9183 196.984 25.7316 198.625C23.5449 200.267 21.0915 202.452 22.7303 205.734C24.3691 209.017 27.6468 207.919 27.6468 207.919C27.6468 207.919 14.541 209.289 9.70209 216.941C5.42561 223.71 6.3517 233.621 7.719 233.893C9.08631 234.165 10.9967 228.697 10.9967 228.697C10.9967 228.697 9.40147 232.096 8.2669 237.175C4.71772 253.034 9.50814 253.855 9.70693 253.855C9.90573 253.855 11.8161 249.48 11.8161 249.48C11.8161 249.48 6.35655 260.143 7.17596 263.974C7.99538 267.806 10.4536 269.17 12.0924 267.801C13.7313 266.431 17.7217 260.143 17.7217 260.143C17.7217 260.143 10.1821 269.442 11.273 271.899C12.364 274.356 14.0028 281.198 20.0102 277.367" stroke="white" stroke-width="2" stroke-miterlimit="10"/>
</g>
<defs>
<clipPath id="clip0_131_13796">
<rect width="335" height="320" fill="white"/>
</clipPath>
</defs>
</svg>
