<svg id="Calque_2" xmlns="http://www.w3.org/2000/svg" viewBox="0 0 911.69 920.37"><defs><style>.cls-V-2{fill:white;stroke-width:4px;}.cls-V-2,.cls-V-3{stroke:white;stroke-miterlimit:10;}.cls-V-3{fill:none;opacity:0;}</style></defs><g id="mesuda_pleur"><path class="cls-V-2" d="m578.36,229.29c.04,2.59-4.04,2.59-4,0-.04-2.59,4.04-2.59,4,0Z"/><path class="cls-V-2" d="m596.12,290.11c.04,2.59-4.04,2.59-4,0-.04-2.59,4.04-2.59,4,0Z"/><path class="cls-V-2" d="m594.12,299.45c.04,2.59-4.04,2.59-4,0-.04-2.59,4.04-2.59,4,0Z"/><path class="cls-V-2" d="m680.33,199.94c.04,2.59-4.04,2.59-4,0-.04-2.59,4.04-2.59,4,0Z"/><path class="cls-V-2" d="m493,126.54c.04,2.59-4.04,2.59-4,0-.04-2.59,4.04-2.59,4,0Z"/><path class="cls-V-2" d="m676.33,499.96c.04,2.59-4.04,2.59-4,0-.04-2.59,4.04-2.59,4,0Z"/><path class="cls-V-2" d="m909.69,606.4c.04,2.59-4.04,2.59-4,0-.04-2.59,4.04-2.59,4,0Z"/><path class="cls-V-2" d="m885.45,502.89c.04,2.59-4.04,2.59-4,0-.04-2.59,4.04-2.59,4,0Z"/><path class="cls-V-2" d="m807.09,449.4c.04,2.59-4.04,2.59-4,0-.04-2.59,4.04-2.59,4,0Z"/><path class="cls-V-2" d="m854.6,346.6c.04,2.59-4.04,2.59-4,0-.04-2.59,4.04-2.59,4,0Z"/><path class="cls-V-2" d="m806.09,261.32c.04,2.59-4.04,2.59-4,0-.04-2.59,4.04-2.59,4,0Z"/><path class="cls-V-2" d="m796.77,183.61c.04,2.59-4.04,2.59-4,0-.04-2.59,4.04-2.59,4,0Z"/><path class="cls-V-2" d="m743.84,161.93c.04,2.59-4.04,2.59-4,0-.04-2.59,4.04-2.59,4,0Z"/><path class="cls-V-2" d="m727.13,221.9c.04,2.59-4.04,2.59-4,0-.04-2.59,4.04-2.59,4,0Z"/><path class="cls-V-2" d="m715.81,449.4c.04,2.59-4.04,2.59-4,0-.04-2.59,4.04-2.59,4,0Z"/><path class="cls-V-2" d="m588.96,375.74c.04,2.59-4.04,2.59-4,0-.04-2.59,4.04-2.59,4,0Z"/><path class="cls-V-2" d="m743.84,362.68c.04,2.59-4.04,2.59-4,0-.04-2.59,4.04-2.59,4,0Z"/><path class="cls-V-2" d="m743.84,291.73c.04,2.59-4.04,2.59-4,0-.04-2.59,4.04-2.59,4,0Z"/><path class="cls-V-2" d="m688.84,295.85c.04,2.59-4.04,2.59-4,0-.04-2.59,4.04-2.59,4,0Z"/><path class="cls-V-2" d="m628.02,297.5c.04,2.59-4.04,2.59-4,0-.04-2.59,4.04-2.59,4,0Z"/><path class="cls-V-2" d="m626.02,308.06c.04,2.59-4.04,2.59-4,0-.04-2.59,4.04-2.59,4,0Z"/><path class="cls-V-2" d="m623.52,333.46c.04,2.59-4.04,2.59-4,0-.04-2.59,4.04-2.59,4,0Z"/><path class="cls-V-2" d="m688.84,302.61c.04,2.59-4.04,2.59-4,0-.04-2.59,4.04-2.59,4,0Z"/><path class="cls-V-2" d="m741.4,329.95c.04,2.59-4.04,2.59-4,0-.04-2.59,4.04-2.59,4,0Z"/><path class="cls-V-2" d="m727.13,329.2c.04,2.59-4.04,2.59-4,0-.04-2.59,4.04-2.59,4,0Z"/><path class="cls-V-2" d="m678.33,331.52c.04,2.59-4.04,2.59-4,0-.04-2.59,4.04-2.59,4,0Z"/><path class="cls-V-2" d="m651.3,400.78c.04,2.59-4.04,2.59-4,0-.04-2.59,4.04-2.59,4,0Z"/><path class="cls-V-2" d="m650.39,417.77c.04,2.59-4.04,2.59-4,0-.04-2.59,4.04-2.59,4,0Z"/><path class="cls-V-2" d="m665,418.71c.04,2.59-4.04,2.59-4,0-.04-2.59,4.04-2.59,4,0Z"/><path class="cls-V-2" d="m673.1,437.23c.04,2.59-4.04,2.59-4,0-.04-2.59,4.04-2.59,4,0Z"/><path class="cls-V-2" d="m702.73,333.77c.04,2.59-4.04,2.59-4,0-.04-2.59,4.04-2.59,4,0Z"/><path class="cls-V-2" d="m632.41,442.17c.04,2.59-4.04,2.59-4,0-.04-2.59,4.04-2.59,4,0Z"/><path class="cls-V-2" d="m636.41,463.66c.04,2.59-4.04,2.59-4,0-.04-2.59,4.04-2.59,4,0Z"/><path class="cls-V-2" d="m635.16,385.58c.04,2.59-4.04,2.59-4,0-.04-2.59,4.04-2.59,4,0Z"/><path class="cls-V-2" d="m233.3,211c.06,3.81-5.94,3.81-5.88,0-.06-3.81,5.94-3.81,5.88,0Z"/><path class="cls-V-2" d="m207.64,417.14c.06,3.81-5.94,3.81-5.88,0-.06-3.81,5.94-3.81,5.88,0Z"/><path class="cls-V-2" d="m185.33,364.15c.06,3.81-5.94,3.81-5.88,0-.06-3.81,5.94-3.81,5.88,0Z"/><path class="cls-V-2" d="m91.74,344.28c.06,3.81-5.94,3.81-5.88,0-.06-3.81,5.94-3.81,5.88,0Z"/><path class="cls-V-2" d="m40.82,374.09c.06,3.81-5.94,3.81-5.88,0-.06-3.81,5.94-3.81,5.88,0Z"/><path class="cls-V-2" d="m884,915.51c.06,3.81-5.94,3.81-5.88,0-.06-3.81,5.94-3.81,5.88,0Z"/><path class="cls-V-2" d="m839.3,811.2c.06,3.81-5.94,3.81-5.88,0-.06-3.81,5.94-3.81,5.88,0Z"/><path class="cls-V-2" d="m804.53,677.08c.06,3.81-5.94,3.81-5.88,0-.06-3.81,5.94-3.81,5.88,0Z"/><path class="cls-V-2" d="m674.04,513.92c.06,3.81-5.94,3.81-5.88,0-.06-3.81,5.94-3.81,5.88,0Z"/><path class="cls-V-2" d="m582.24,404.54c.06,3.81-5.94,3.81-5.88,0-.06-3.81,5.94-3.81,5.88,0Z"/><path class="cls-V-2" d="m143.89,542.14c.06,3.81-5.94,3.81-5.88,0-.06-3.81,5.94-3.81,5.88,0Z"/><path class="cls-V-2" d="m126.85,547.84c.06,3.81-5.94,3.81-5.88,0-.06-3.81,5.94-3.81,5.88,0Z"/><path class="cls-V-2" d="m69.38,153.8c.06,3.81-5.94,3.81-5.88,0-.06-3.81,5.94-3.81,5.88,0Z"/><path class="cls-V-2" d="m23.44,151.81c.06,3.81-5.94,3.81-5.88,0-.06-3.81,5.94-3.81,5.88,0Z"/><path class="cls-V-2" d="m73.11,462.25c.06,3.81-5.94,3.81-5.88,0-.06-3.81,5.94-3.81,5.88,0Z"/><path class="cls-V-2" d="m96.7,465.98c.06,3.81-5.94,3.81-5.88,0-.06-3.81,5.94-3.81,5.88,0Z"/><path class="cls-V-2" d="m97.95,508.2c.06,3.81-5.94,3.81-5.88,0-.06-3.81,5.94-3.81,5.88,0Z"/><path class="cls-V-2" d="m52,542.57c.06,3.81-5.94,3.81-5.88,0-.06-3.81,5.94-3.81,5.88,0Z"/><path class="cls-V-2" d="m19.71,525.59c.06,3.81-5.94,3.81-5.88,0-.06-3.81,5.94-3.81,5.88,0Z"/><path class="cls-V-2" d="m75.6,575.37c.06,3.81-5.94,3.81-5.88,0-.06-3.81,5.94-3.81,5.88,0Z"/><path class="cls-V-2" d="m535.47,148.08c.06,3.81-5.94,3.81-5.88,0-.06-3.81,5.94-3.81,5.88,0Z"/><path class="cls-V-2" d="m484.56,200.24c.06,3.81-5.94,3.81-5.88,0-.06-3.81,5.94-3.81,5.88,0Z"/><path class="cls-V-2" d="m270,150.94c.06,3.81-5.94,3.81-5.88,0-.06-3.81,5.94-3.81,5.88,0Z"/><path class="cls-V-2" d="m302.84,196.1c.06,3.81-5.94,3.81-5.88,0-.06-3.81,5.94-3.81,5.88,0Z"/><path class="cls-V-2" d="m311.12,14.8c.06,3.81-5.94,3.81-5.88,0-.06-3.81,5.94-3.81,5.88,0Z"/><path class="cls-V-2" d="m317,78.26c.06,3.81-5.94,3.81-5.88,0-.06-3.81,5.94-3.81,5.88,0Z"/><path class="cls-V-2" d="m407.98,4.86c.06,3.81-5.94,3.81-5.88,0-.06-3.81,5.94-3.81,5.88,0Z"/><path class="cls-V-2" d="m485.8,61.16c.06,3.81-5.94,3.81-5.88,0-.06-3.81,5.94-3.81,5.88,0Z"/><path class="cls-V-2" d="m500.61,18.93c.06,3.81-5.94,3.81-5.88,0-.06-3.81,5.94-3.81,5.88,0Z"/></g><g id="poseidon_attaque"><path class="cls-V-3" d="m481.62,200.24c46.77-38.91,55.05-142.39,17.8-178.82,10.05,37.25,0,59.61,0,59.61l-16.56-19.87s24.01,105.14-19.87,110.93c-43.88,5.8-57.95-167.23-57.95-167.23,0,0-26.49,161.43-58.78,166.4-32.29,4.97-62.92-31.46-34.77-93.55-23.18,28.98-25.66,9.93-25.66,9.93,0,0-8.28-61.26,22.35-72.85-55.47,32.29-43.88,112.59-34.77,133.29,9.11,20.7,26.49,48.02,26.49,48.02l-34.16-49.67s14.29,22.35-9.72,24.01c-24.01,1.66-14.07,32.29-25.66,40.57s-24.84,35.6-33.11,121.7c-8.28,86.1,17.39,73.68,0,107.62-17.39,33.94-42.22,95.2-56.29,101.83-14.07,6.62-103.88,19.2-121.9,134.94"/><path class="cls-V-3" d="m.44,98.24c11.25,20.9,31.08,43.3,66,56.05-58.36,2.48-45.95-2.48-45.95-2.48,0,0,42.22,152.74,158.95,212.35-76.99,7.45-126.66,57.12-109.28,98.1l23.59,3.73,1.24,42.22,28.91,39.64"/><path class="cls-V-3" d="m.79,346.7c11.45,9.03,23.8,18.16,37.09,27.39,22.35-32.29,50.91-29.8,50.91-29.8,0,0-51.83-37.82-88.36-97.48"/><path class="cls-V-3" d="m72.66,575.37l-23.6-32.81-32.29-16.98s4.19-26.61-14.67-34.13"/><path class="cls-V-3" d="m481.62,200.24l50.91-52.16s14.9,52.98,26.49,62.09c11.59,9.11,43.05,46.36,34.77,79.47-8.28,33.11,15.73,24.01-9.11,94.38-24.84,70.37,85.27,131.63,85.27,131.63,0,0,137.14.71,131.63,161.43,81.96,57.12,34.77,134.11,34.77,134.11,0,0,59.61,69.54,44.7,104.31"/><path class="cls-V-3" d="m649.37,502.89h11.9c9.22,0,17.88-4.42,23.3-11.88l25.92-35.69c2.85-3.93,5.04-8.29,6.49-12.93l23.8-76.35c.7-2.23,1.05-4.56,1.05-6.9v-67.42l-7.58-3.33c-6.2-2.73-13.06-3.62-19.75-2.57l-1.09.17c-5.18.81-10.22,2.34-14.99,4.53l-11.59,5.33v6.76h2.99c5.48,0,10.92-.89,16.11-2.65l10.14-6.41c5.2-1.76,11.27-2.01,16.75-1.83h9.01l-2.44,38.22-14.27-.75s-6.68-9.5-19.82-8.75-28.98,11.07-28.98,11.07c0,0,16.89,4.13,24.4,2.25,7.51-1.88,10.85-17.21-4.54-11.58-15.39,5.63-31.12,14.2-25.86,50.62,7.13,18.02,7.13,22.63,4.88,24.64-2.25,2.01-7.13,6.52-10.14,4.26s9.01-12.58,6.38-8.17c-2.63,4.41-3.75,8.92-9.76,8.92s-14.53-14.08-18.53-8.92c-4,5.16,3.89,7.04,3.89,7.04,0,0-25.53,2.25-13.89-15.02"/><path class="cls-V-3" d="m632.39,489.25l1.59-24.65.11-1.69-9.44-7.6c-2.45-2.24-5.88-6.01-6.91-11.64-1.09-5.97,2.44-11.83,5.16-15.11,5.97-7.21,13.61-11.4,22.52-10.7h0s-2.46.34-2.46.34c-7.5,1.05-18.62,9.43-22.92,19.03-1.04,2.31-.61,5.07.51,5.88,1.83,1.32,4.29.74,5.75.59-1.19,1.1-2.96,1.61-3.54,4.83-.08.46-.05.93.08,1.38,2.45,8.51,17.61,9.01,17.61,9.01l30.64-1.27s9.93-2.21,10.37-9.45c.19-3.15-2.31-6.39-5.36-7.19l-4.66-1.22s-9.2-2.16-20.44-1.45-19.3,2.3-19.3,2.3h0s8.27-6.36,20.57-6.36c10.69,0,17.5,2.91,19.09,3.67.26.13.53.23.82.31l3.66,1.01c3.57.99,6.93-2.11,6.24-5.74h0c-.08-.4-.19-.79-.36-1.15-6.06-13.24-18.72-13.67-18.72-13.67"/><path class="cls-V-3" d="m576.36,229.29c0-39.42,29.2-90.17,70.02-83.41,40.83,6.76,31.94,54.06,31.94,54.06,0,0,20.71,11.83,31.41-7.88,10.7-19.71,10.55-95.73-80.6-98.55-42.88-1.32-78.05,3.83-107.09,16.11"/><path class="cls-V-3" d="m741.84,291.73s3.19-55.19-16.71-69.83c-19.9-14.64-7.51-58.56,29.66-63.07s48.43,37.17,41.67,60.82c-6.76,23.65,3.38,43.92,25.9,58.56,22.52,14.64,47.3,69.96,16.89,109.31s-47.3,62.58-22.52,72.92c24.78,10.35,66.72,16.26,70.37,66.94,3,41.73,30.16,57.53,20.59,79.01"/><path class="cls-V-3" d="m594.6,318.75c5.5.08,11.65,1.33,18.34,4.44,8.58,6.38,8.58,10.27,8.58,10.27,0,0-12.78,3.83-25.4,4.36"/><path class="cls-V-3" d="m593.68,290.11c14.87,2.7,32.34,7.39,32.34,7.39l-2.63,9.15s-18.06-4.34-31.92-7.73"/><path class="cls-V-3" d="m700.73,333.77s14.34,11.26,8.33,34.16c-6.01,22.9-5.63,31.16-11.64,42.8-6.01,11.64-1.5,14.64,0,14.27s4.07-3,5.04-12.01c.97-9.01,13.71-52.93,13.35-61.57s9.32-22.22,9.32-22.22"/><path class="cls-V-3" d="m621.52,333.46s-10.97.44-12.77,13.14-13.54,27.57-14.14,37.03c-.61,9.45,3.9,26.67,7.28,36.08s10.67,22.5,6.18,24.4c-4.49,1.9-12.29-1.23-13.46-19.09-1.17-17.86-7.89-30.84-7.06-41.39.83-10.56-.07-7.79-.07-7.79"/></g></svg>