<svg width="197" height="556" viewBox="0 0 197 556" fill="none" xmlns="http://www.w3.org/2000/svg">
<g clip-path="url(#clip0_143_382)">
<path d="M115.776 545.877C115.776 545.877 121.233 556.032 113.593 555.665C105.953 555.298 86.32 546.598 88.4964 527.384C89.9495 519.766 105.953 527.744 109.227 525.568C112.501 523.391 105.979 521.363 88.3285 524.009C82.6776 525.207 89.6137 510.699 88.3285 505.625C87.0433 500.551 83.769 538.62 99.7724 542.252C115.776 545.884 114.684 544.428 111.41 538.266C109.259 534.216 108.678 524.37 107.503 515.11C106.889 510.281 106.114 505.612 104.868 502.006C101.232 491.491 96.1429 503.822 82.684 504.183C69.2252 504.543 75.044 510.712 73.9591 494.028C72.8741 477.344 50.2253 314.52 44.3225 292.878C44.3225 292.878 40.8932 260.488 49.9605 227.873C51.1811 223.494 17.2305 221.891 15.4093 224.428C15.4093 224.428 13.5881 245.098 11.2244 261.235C9.31278 274.294 2.64795 275.736 0.813834 281.178C-1.02029 286.619 2.61566 292.781 6.61973 288.795C10.6173 294.597 13.1683 291.693 13.1683 291.693C13.1683 291.693 17.534 293.509 18.9871 292.421C20.4402 291.332 20.4402 293.869 23.3528 292.421C26.2655 290.972 27.7186 278.28 27.7186 278.28C27.7186 278.28 24.0826 290.972 26.2655 290.972C28.4483 290.972 29.1717 287.707 31.7226 286.619C34.2736 285.53 28.1448 273.199 27.7767 268.486C27.7767 268.486 32.3232 236.579 36.689 232.226C42.4949 226.437 34.0217 224.37 10.6238 222.496C8.09865 213.372 19.6523 209.747 20.1367 187.988C20.621 166.23 39.5306 87.5483 52.3823 95.2818C65.2341 103.015 65.7895 125.707 64.2653 154.749C62.7412 183.79 55.9085 205.49 55.4177 219.174C77.4788 222.071 148.396 216.875 151.063 221.955C153.73 227.036 153.001 239.606 155.183 242.259C157.366 244.911 182.579 240.327 183.309 233.559C184.039 226.791 184.523 224.37 175.791 225.343C167.06 226.315 155.183 233.321 155.183 233.321C155.183 233.321 153.001 217.364 152.277 213.256C151.554 209.148 161.732 140.447 160.518 137.691C159.304 134.935 152.516 207.454 150.094 210.114C147.673 212.773 91.1765 208.182 83.9046 210.358C76.6327 212.535 106.211 210.114 110.331 208.665C114.452 207.216 124.636 157.659 112.03 125.746C101.122 106.647 99.1782 117.047 94.3281 99.8795C89.2391 89.0937 87.0562 82.5643 90.4209 81.5662C93.7856 80.5681 94.6962 81.2056 94.6962 81.2056L89.6976 85.1915C89.6976 85.1915 96.9695 80.6582 96.6079 77.9408C96.2462 75.2235 96.8791 68.1531 93.424 65.0687C89.9689 61.9843 83.9692 48.0239 87.4243 22.46C88.5029 14.4688 91.0926 9.8261 94.186 7.26326C100.993 1.60957 110.241 6.00116 111.242 6.87046C112.695 8.139 124.333 23.3679 126.335 30.2579C128.337 37.148 134.517 44.946 135.428 48.391C136.339 51.836 142.7 64.7081 134.698 64.5278C126.696 64.3475 130.701 46.0342 127.245 38.9639C123.79 31.8935 106.321 0.270197 93.9536 6.25873C81.5862 12.2473 90.1949 38.2298 83.162 43.0657C76.129 47.9016 73.9461 51.7652 70.5556 51.7652C67.1651 51.7652 59.1634 51.7652 66.4353 45.2357C73.7072 38.7063 73.2228 36.2916 79.0416 14.7779C84.8604 -6.73574 123.409 1.72547 124.869 3.17431C126.328 4.62315 138.205 11.6355 144.024 19.3691C149.843 27.1027 144.269 60.2199 144.992 62.3964C145.716 64.5729 138.463 57.5605 128.996 64.8111C119.528 72.0618 102.801 74.2383 96.9824 69.4024C91.1636 64.5665 83.4074 48.3717 88.7418 31.4492C94.0763 14.5268 91.8934 16.4586 96.0137 14.0438C100.134 11.6291 103.57 11.3264 106.437 11.8673C109.305 12.4082 96.3754 6.24585 91.0409 21.4748C85.7065 36.7037 85.5838 41.2949 77.2204 44.0766C68.8571 46.8584 70.0519 50.1489 71.4016 50.664C72.7514 51.1792 65.402 55.5579 66.4934 58.6423C67.5848 61.7267 69.645 63.4782 81.8897 58.7647C88.7547 55.9121 99.5915 80.2783 112.314 84.451C125.037 88.6236 125.773 85.1786 134.86 88.8039C143.946 92.4292 155.222 100.588 152.859 107.117C151.405 110.202 142.674 105.301 139.949 112.378C137.223 119.455 128.13 121.264 123.764 129.243C119.399 137.221 117.358 136.493 117.358 136.493C117.358 136.493 133.762 105.488 132.309 94.9728C130.856 84.4574 127.4 84.2771 127.4 84.2771C127.4 84.2771 133.949 92.0751 143.765 92.0751C153.582 92.0751 170.677 95.8807 172.859 120.904C175.042 145.927 181.223 222.799 181.223 222.799C181.223 222.799 193.132 239.663 170.315 242.741C170.586 246.914 171.161 267.88 182.56 271.506C193.958 275.131 197.103 281.899 196.619 289.877C196.135 297.855 185.227 302.929 181.1 302.691C176.973 302.453 180.616 296.406 182.799 295.924C184.981 295.441 187.649 291.088 186.435 286.252C185.22 281.416 178.194 279.484 177.71 280.695C177.225 281.905 184.497 286.979 184.742 288.428C184.988 289.877 186.68 294.958 181.107 293.264C175.533 291.571 171.652 283.837 167.77 283.354C163.889 282.871 163.405 275.62 161.952 262.323C160.499 249.026 155.164 240.565 154.434 246.129C153.705 251.692 159.039 334.849 156.133 343.793C153.227 352.737 148.131 404.709 148.615 415.346C149.1 425.984 136.494 500.197 134.311 500.925C132.128 501.652 115.408 497.538 114.917 500.197C114.426 502.856 139.884 536.218 138.431 539.599C136.978 542.98 132.858 546.367 126.793 544.19C120.729 542.014 111.52 536.212 111.759 533.797C111.998 531.382 109.576 527.995 113.696 527.751C117.816 527.506 123.396 521.466 125.579 524.364C127.762 527.261 112.243 526.057 111.759 524.364C111.274 522.67 109.828 515.902 114.917 514.936C120.006 513.971 122.189 516.147 119.276 516.63C116.363 517.113 112.656 518.375 109.821 514.936C106.986 511.498 104.248 495.599 104.732 492.212C105.217 488.825 101.096 428.637 103.764 419.931C106.431 411.225 106.185 313.567 101.096 301.964C98.6745 319.614 98.9134 383.672 99.6432 392.133C100.373 400.594 100.373 441.69 100.373 441.69" stroke="white" stroke-width="2" stroke-miterlimit="10"/>
</g>
<defs>
<clipPath id="clip0_143_382">
<rect width="197" height="556" fill="white"/>
</clipPath>
</defs>
</svg>
